ISO-10303-21;
HEADER;
/* Generated by software containing ST-Developer
 * from STEP Tools, Inc. (www.steptools.com) 
 */

FILE_DESCRIPTION(
/* description */ (''),
/* implementation_level */ '2;1');

FILE_NAME(
/* name */ 'Connecting Arms (3).step',
/* time_stamp */ '2026-09-10T11:18:42-06:00',
/* author */ (''),
/* organization */ (''),
/* preprocessor_version */ 'ST-DEVELOPER v20.2',
/* originating_system */ 'Autodesk Translation Framework v15.15.0.0',
/* authorisation */ '');

FILE_SCHEMA (('AUTOMOTIVE_DESIGN { 1 0 10303 214 3 1 1 }'));
ENDSEC;

DATA;
#10=MECHANICAL_DESIGN_GEOMETRIC_PRESENTATION_REPRESENTATION('',(#13),#269);
#11=SHAPE_REPRESENTATION_RELATIONSHIP('SRR','None',#276,#12);
#12=ADVANCED_BREP_SHAPE_REPRESENTATION('',(#14),#268);
#13=STYLED_ITEM('',(#286),#14);
#14=MANIFOLD_SOLID_BREP('Connecting Arms (3)',#143);
#15=PLANE('',#159);
#16=PLANE('',#162);
#17=PLANE('',#165);
#18=PLANE('',#166);
#19=PLANE('',#167);
#20=FACE_OUTER_BOUND('',#28,.T.);
#21=FACE_OUTER_BOUND('',#29,.T.);
#22=FACE_OUTER_BOUND('',#30,.T.);
#23=FACE_OUTER_BOUND('',#31,.T.);
#24=FACE_OUTER_BOUND('',#32,.T.);
#25=FACE_OUTER_BOUND('',#33,.T.);
#26=FACE_OUTER_BOUND('',#34,.T.);
#27=FACE_OUTER_BOUND('',#35,.T.);
#28=EDGE_LOOP('',(#96,#97,#98,#99));
#29=EDGE_LOOP('',(#100,#101,#102,#103));
#30=EDGE_LOOP('',(#104,#105,#106,#107));
#31=EDGE_LOOP('',(#108,#109,#110,#111));
#32=EDGE_LOOP('',(#112,#113,#114,#115));
#33=EDGE_LOOP('',(#116,#117,#118,#119));
#34=EDGE_LOOP('',(#120,#121,#122,#123,#124,#125));
#35=EDGE_LOOP('',(#126,#127,#128,#129,#130,#131));
#36=LINE('',#219,#48);
#37=LINE('',#222,#49);
#38=LINE('',#225,#50);
#39=LINE('',#227,#51);
#40=LINE('',#228,#52);
#41=LINE('',#243,#53);
#42=LINE('',#246,#54);
#43=LINE('',#248,#55);
#44=LINE('',#249,#56);
#45=LINE('',#260,#57);
#46=LINE('',#262,#58);
#47=LINE('',#263,#59);
#48=VECTOR('',#172,10.);
#49=VECTOR('',#175,10.);
#50=VECTOR('',#178,10.);
#51=VECTOR('',#179,10.);
#52=VECTOR('',#180,10.);
#53=VECTOR('',#185,10.);
#54=VECTOR('',#188,10.);
#55=VECTOR('',#189,10.);
#56=VECTOR('',#190,10.);
#57=VECTOR('',#195,10.);
#58=VECTOR('',#198,10.);
#59=VECTOR('',#199,10.);
#60=CIRCLE('',#157,2.99999999999994);
#61=CIRCLE('',#158,2.99999999999994);
#62=CIRCLE('',#160,3.00000000000004);
#63=CIRCLE('',#161,3.00000000000004);
#64=CIRCLE('',#163,2.99999999999997);
#65=CIRCLE('',#164,2.99999999999997);
#66=VERTEX_POINT('',#215);
#67=VERTEX_POINT('',#216);
#68=VERTEX_POINT('',#218);
#69=VERTEX_POINT('',#220);
#70=VERTEX_POINT('',#224);
#71=VERTEX_POINT('',#226);
#72=VERTEX_POINT('',#239);
#73=VERTEX_POINT('',#241);
#74=VERTEX_POINT('',#245);
#75=VERTEX_POINT('',#247);
#76=VERTEX_POINT('',#256);
#77=VERTEX_POINT('',#258);
#78=EDGE_CURVE('',#66,#67,#60,.T.);
#79=EDGE_CURVE('',#67,#68,#36,.T.);
#80=EDGE_CURVE('',#69,#68,#61,.T.);
#81=EDGE_CURVE('',#66,#69,#37,.T.);
#82=EDGE_CURVE('',#70,#66,#38,.T.);
#83=EDGE_CURVE('',#71,#69,#39,.T.);
#84=EDGE_CURVE('',#70,#71,#40,.T.);
#85=EDGE_CURVE('',#72,#70,#62,.T.);
#86=EDGE_CURVE('',#73,#71,#63,.T.);
#87=EDGE_CURVE('',#72,#73,#41,.T.);
#88=EDGE_CURVE('',#74,#72,#42,.T.);
#89=EDGE_CURVE('',#75,#73,#43,.T.);
#90=EDGE_CURVE('',#74,#75,#44,.T.);
#91=EDGE_CURVE('',#76,#74,#64,.T.);
#92=EDGE_CURVE('',#77,#75,#65,.T.);
#93=EDGE_CURVE('',#76,#77,#45,.T.);
#94=EDGE_CURVE('',#76,#67,#46,.T.);
#95=EDGE_CURVE('',#68,#77,#47,.T.);
#96=ORIENTED_EDGE('',*,*,#78,.T.);
#97=ORIENTED_EDGE('',*,*,#79,.T.);
#98=ORIENTED_EDGE('',*,*,#80,.F.);
#99=ORIENTED_EDGE('',*,*,#81,.F.);
#100=ORIENTED_EDGE('',*,*,#82,.T.);
#101=ORIENTED_EDGE('',*,*,#81,.T.);
#102=ORIENTED_EDGE('',*,*,#83,.F.);
#103=ORIENTED_EDGE('',*,*,#84,.F.);
#104=ORIENTED_EDGE('',*,*,#85,.T.);
#105=ORIENTED_EDGE('',*,*,#84,.T.);
#106=ORIENTED_EDGE('',*,*,#86,.F.);
#107=ORIENTED_EDGE('',*,*,#87,.F.);
#108=ORIENTED_EDGE('',*,*,#88,.T.);
#109=ORIENTED_EDGE('',*,*,#87,.T.);
#110=ORIENTED_EDGE('',*,*,#89,.F.);
#111=ORIENTED_EDGE('',*,*,#90,.F.);
#112=ORIENTED_EDGE('',*,*,#91,.T.);
#113=ORIENTED_EDGE('',*,*,#90,.T.);
#114=ORIENTED_EDGE('',*,*,#92,.F.);
#115=ORIENTED_EDGE('',*,*,#93,.F.);
#116=ORIENTED_EDGE('',*,*,#94,.F.);
#117=ORIENTED_EDGE('',*,*,#93,.T.);
#118=ORIENTED_EDGE('',*,*,#95,.F.);
#119=ORIENTED_EDGE('',*,*,#79,.F.);
#120=ORIENTED_EDGE('',*,*,#95,.T.);
#121=ORIENTED_EDGE('',*,*,#92,.T.);
#122=ORIENTED_EDGE('',*,*,#89,.T.);
#123=ORIENTED_EDGE('',*,*,#86,.T.);
#124=ORIENTED_EDGE('',*,*,#83,.T.);
#125=ORIENTED_EDGE('',*,*,#80,.T.);
#126=ORIENTED_EDGE('',*,*,#94,.T.);
#127=ORIENTED_EDGE('',*,*,#78,.F.);
#128=ORIENTED_EDGE('',*,*,#82,.F.);
#129=ORIENTED_EDGE('',*,*,#85,.F.);
#130=ORIENTED_EDGE('',*,*,#88,.F.);
#131=ORIENTED_EDGE('',*,*,#91,.F.);
#132=(
BOUNDED_SURFACE()
B_SPLINE_SURFACE(1,2,((#205,#206,#207,#208,#209),(#210,#211,#212,#213,#214)),
 .UNSPECIFIED.,.F.,.F.,.F.)
B_SPLINE_SURFACE_WITH_KNOTS((2,2),(3,2,3),(-0.826884808189963,17.9268534612873),
(-1.24019618220232,-0.0620989371061289,1.11599830799006),.UNSPECIFIED.)
GEOMETRIC_REPRESENTATION_ITEM()
RATIONAL_B_SPLINE_SURFACE(((1.,0.83146961230254,1.,0.83146961230254,1.),
(1.,0.83146961230254,1.,0.83146961230254,1.)))
REPRESENTATION_ITEM('')
SURFACE()
);
#133=(
BOUNDED_SURFACE()
B_SPLINE_SURFACE(1,2,((#229,#230,#231,#232,#233),(#234,#235,#236,#237,#238)),
 .UNSPECIFIED.,.F.,.F.,.F.)
B_SPLINE_SURFACE_WITH_KNOTS((2,2),(3,2,3),(-0.40433547304576,18.022922751691),
(-0.454798018804886,0.723299226291303,1.90139647138749),.UNSPECIFIED.)
GEOMETRIC_REPRESENTATION_ITEM()
RATIONAL_B_SPLINE_SURFACE(((1.,0.83146961230254,1.,0.83146961230254,1.),
(1.,0.83146961230254,1.,0.83146961230254,1.)))
REPRESENTATION_ITEM('')
SURFACE()
);
#134=(
BOUNDED_SURFACE()
B_SPLINE_SURFACE(1,2,((#250,#251,#252),(#253,#254,#255)),.UNSPECIFIED.,
 .F.,.F.,.F.)
B_SPLINE_SURFACE_WITH_KNOTS((2,2),(3,3),(-0.955257798817324,16.6519137782452),
(-2.02559434559977,-0.454798018804846),.UNSPECIFIED.)
GEOMETRIC_REPRESENTATION_ITEM()
RATIONAL_B_SPLINE_SURFACE(((1.,0.707106781186538,1.),(1.,0.707106781186538,
1.)))
REPRESENTATION_ITEM('')
SURFACE()
);
#135=ADVANCED_FACE('',(#20),#132,.F.);
#136=ADVANCED_FACE('',(#21),#15,.T.);
#137=ADVANCED_FACE('',(#22),#133,.F.);
#138=ADVANCED_FACE('',(#23),#16,.T.);
#139=ADVANCED_FACE('',(#24),#134,.F.);
#140=ADVANCED_FACE('',(#25),#17,.T.);
#141=ADVANCED_FACE('',(#26),#18,.T.);
#142=ADVANCED_FACE('',(#27),#19,.F.);
#143=CLOSED_SHELL('',(#135,#136,#137,#138,#139,#140,#141,#142));
#144=DERIVED_UNIT_ELEMENT(#146,1.);
#145=DERIVED_UNIT_ELEMENT(#271,-3.);
#146=(
MASS_UNIT()
NAMED_UNIT(*)
SI_UNIT(.KILO.,.GRAM.)
);
#147=DERIVED_UNIT((#144,#145));
#148=MEASURE_REPRESENTATION_ITEM('density measure',
POSITIVE_RATIO_MEASURE(7850.),#147);
#149=PROPERTY_DEFINITION_REPRESENTATION(#154,#151);
#150=PROPERTY_DEFINITION_REPRESENTATION(#155,#152);
#151=REPRESENTATION('material name',(#153),#268);
#152=REPRESENTATION('density',(#148),#268);
#153=DESCRIPTIVE_REPRESENTATION_ITEM('Steel','Steel');
#154=PROPERTY_DEFINITION('material property','material name',#278);
#155=PROPERTY_DEFINITION('material property','density of part',#278);
#156=AXIS2_PLACEMENT_3D('',#204,#168,#169);
#157=AXIS2_PLACEMENT_3D('',#217,#170,#171);
#158=AXIS2_PLACEMENT_3D('',#221,#173,#174);
#159=AXIS2_PLACEMENT_3D('',#223,#176,#177);
#160=AXIS2_PLACEMENT_3D('',#240,#181,#182);
#161=AXIS2_PLACEMENT_3D('',#242,#183,#184);
#162=AXIS2_PLACEMENT_3D('',#244,#186,#187);
#163=AXIS2_PLACEMENT_3D('',#257,#191,#192);
#164=AXIS2_PLACEMENT_3D('',#259,#193,#194);
#165=AXIS2_PLACEMENT_3D('',#261,#196,#197);
#166=AXIS2_PLACEMENT_3D('',#264,#200,#201);
#167=AXIS2_PLACEMENT_3D('',#265,#202,#203);
#168=DIRECTION('axis',(0.,0.,1.));
#169=DIRECTION('refdir',(1.,0.,0.));
#170=DIRECTION('center_axis',(0.,0.,-1.));
#171=DIRECTION('ref_axis',(-0.707106781186547,-0.707106781186548,0.));
#172=DIRECTION('',(-0.404335473045741,-0.826884808189935,-0.390863581344658));
#173=DIRECTION('center_axis',(0.,0.,-1.));
#174=DIRECTION('ref_axis',(-0.707106781186547,-0.707106781186548,0.));
#175=DIRECTION('',(-0.404335473045741,-0.826884808189935,-0.390863581344658));
#176=DIRECTION('center_axis',(-0.289611854403347,-0.289611854403347,0.912277341370545));
#177=DIRECTION('ref_axis',(-0.707106781186547,0.707106781186548,0.));
#178=DIRECTION('',(-0.707106781186547,0.707106781186548,0.));
#179=DIRECTION('',(-0.707106781186547,0.707106781186548,0.));
#180=DIRECTION('',(-0.404335473045741,-0.826884808189935,-0.390863581344658));
#181=DIRECTION('center_axis',(0.,0.,-1.));
#182=DIRECTION('ref_axis',(1.,0.,0.));
#183=DIRECTION('center_axis',(0.,0.,-1.));
#184=DIRECTION('ref_axis',(1.,0.,0.));
#185=DIRECTION('',(-0.404335473045741,-0.826884808189935,-0.390863581344658));
#186=DIRECTION('center_axis',(0.69502757300283,-2.46715892638318E-15,-0.718983082391927));
#187=DIRECTION('ref_axis',(-3.54972812909271E-15,-1.,0.));
#188=DIRECTION('',(-3.54972812909271E-15,-1.,0.));
#189=DIRECTION('',(-3.54972812909271E-15,-1.,0.));
#190=DIRECTION('',(-0.404335473045741,-0.826884808189935,-0.390863581344658));
#191=DIRECTION('center_axis',(0.,0.,-1.));
#192=DIRECTION('ref_axis',(7.40148683083445E-16,1.,0.));
#193=DIRECTION('center_axis',(0.,0.,-1.));
#194=DIRECTION('ref_axis',(7.40148683083445E-16,1.,0.));
#195=DIRECTION('',(-0.404335473045741,-0.826884808189935,-0.390863581344658));
#196=DIRECTION('center_axis',(0.,0.427355113702006,-0.904083849425896));
#197=DIRECTION('ref_axis',(1.,0.,0.));
#198=DIRECTION('',(-1.,0.,0.));
#199=DIRECTION('',(1.,0.,0.));
#200=DIRECTION('center_axis',(0.,0.,-1.));
#201=DIRECTION('ref_axis',(1.,0.,0.));
#202=DIRECTION('center_axis',(0.,0.,-1.));
#203=DIRECTION('ref_axis',(1.,0.,0.));
#204=CARTESIAN_POINT('',(0.,0.,0.));
#205=CARTESIAN_POINT('Ctrl Pts',(8.39355534537411,343.228733226402,-120.009540089176));
#206=CARTESIAN_POINT('Ctrl Pts',(6.73396565161464,344.150907818701,-120.243640121385));
#207=CARTESIAN_POINT('Ctrl Pts',(6.75647813228368,344.480135998712,-120.963421621703));
#208=CARTESIAN_POINT('Ctrl Pts',(6.77899061295272,344.809364178723,-121.683203122021));
#209=CARTESIAN_POINT('Ctrl Pts',(8.45581061345915,344.13916992634,-122.));
#210=CARTESIAN_POINT('Ctrl Pts',(-14.3548495583207,296.707189411,-142.));
#211=CARTESIAN_POINT('Ctrl Pts',(-16.0144392520802,297.629364003299,-142.23410003221));
#212=CARTESIAN_POINT('Ctrl Pts',(-15.9919267714111,297.95859218331,-142.953881532527));
#213=CARTESIAN_POINT('Ctrl Pts',(-15.9694142907421,298.287820363321,-143.673663032845));
#214=CARTESIAN_POINT('Ctrl Pts',(-14.2925942902357,297.617626110938,-143.990459910824));
#215=CARTESIAN_POINT('',(6.33449026989943,339.01784958278,-122.));
#216=CARTESIAN_POINT('',(8.4558106134591,344.13916992634,-122.));
#217=CARTESIAN_POINT('Origin',(8.45581061345903,341.13916992634,-122.));
#218=CARTESIAN_POINT('',(-12.233529214761,301.82850975456,-142.));
#219=CARTESIAN_POINT('',(8.4558106134591,344.13916992634,-122.));
#220=CARTESIAN_POINT('',(-14.3548495583207,296.707189411,-142.));
#221=CARTESIAN_POINT('Origin',(-12.2335292147612,298.82850975456,-142.));
#222=CARTESIAN_POINT('',(6.33449026989943,339.01784958278,-122.));
#223=CARTESIAN_POINT('Origin',(9.09184958278018,336.2604902699,-122.));
#224=CARTESIAN_POINT('',(9.09184958278017,336.2604902699,-122.));
#225=CARTESIAN_POINT('',(9.09184958278018,336.2604902699,-122.));
#226=CARTESIAN_POINT('',(-11.59749024544,293.94983009812,-142.));
#227=CARTESIAN_POINT('',(-11.59749024544,293.94983009812,-142.));
#228=CARTESIAN_POINT('',(9.09184958278017,336.2604902699,-122.));
#229=CARTESIAN_POINT('Ctrl Pts',(14.2131699263399,338.381810613459,-122.));
#230=CARTESIAN_POINT('Ctrl Pts',(14.8833641787228,337.747853050537,-121.352135681518));
#231=CARTESIAN_POINT('Ctrl Pts',(13.5906567374025,338.124426746968,-120.811526588886));
#232=CARTESIAN_POINT('Ctrl Pts',(12.2979492960823,338.501000443398,-120.270917496254));
#233=CARTESIAN_POINT('Ctrl Pts',(10.6383596023228,339.423175035697,-120.505017528463));
#234=CARTESIAN_POINT('Ctrl Pts',(-8.13921258736531,292.670150965575,-143.607632432251));
#235=CARTESIAN_POINT('Ctrl Pts',(-7.4690183349824,292.036193402653,-142.959768113768));
#236=CARTESIAN_POINT('Ctrl Pts',(-8.76172577630263,292.412767099084,-142.419159021136));
#237=CARTESIAN_POINT('Ctrl Pts',(-10.0544332176229,292.789340795514,-141.878549928504));
#238=CARTESIAN_POINT('Ctrl Pts',(-11.7140229113824,293.711515387813,-142.112649960714));
#239=CARTESIAN_POINT('',(14.2131699263399,338.381810613459,-122.));
#240=CARTESIAN_POINT('Origin',(11.2131699263398,338.381810613459,-122.));
#241=CARTESIAN_POINT('',(-6.47616990188028,296.071150441679,-142.));
#242=CARTESIAN_POINT('Origin',(-9.47616990188035,296.071150441679,-142.));
#243=CARTESIAN_POINT('',(14.2131699263399,338.381810613459,-122.));
#244=CARTESIAN_POINT('Origin',(14.2131699263399,341.13916992634,-122.));
#245=CARTESIAN_POINT('',(14.2131699263399,341.13916992634,-122.));
#246=CARTESIAN_POINT('',(14.2131699263399,344.13916992634,-122.));
#247=CARTESIAN_POINT('',(-6.47616990188029,298.82850975456,-142.));
#248=CARTESIAN_POINT('',(-6.47616990188032,301.82850975456,-142.));
#249=CARTESIAN_POINT('',(14.2131699263399,341.13916992634,-122.));
#250=CARTESIAN_POINT('Ctrl Pts',(11.3688871880147,344.457618953535,-121.849471019406));
#251=CARTESIAN_POINT('Ctrl Pts',(13.8784256637254,343.454602373313,-122.323591052584));
#252=CARTESIAN_POINT('Ctrl Pts',(14.8814422439468,342.505817831359,-121.353993580119));
#253=CARTESIAN_POINT('Ctrl Pts',(-9.98872495781239,300.780310876735,-142.495477439288));
#254=CARTESIAN_POINT('Ctrl Pts',(-7.47918648210171,299.777294296514,-142.969597472466));
#255=CARTESIAN_POINT('Ctrl Pts',(-6.4761699018803,298.82850975456,-142.));
#256=CARTESIAN_POINT('',(11.2131699263399,344.13916992634,-122.));
#257=CARTESIAN_POINT('Origin',(11.2131699263399,341.13916992634,-122.));
#258=CARTESIAN_POINT('',(-9.47616990188028,301.82850975456,-142.));
#259=CARTESIAN_POINT('Origin',(-9.47616990188032,298.82850975456,-142.));
#260=CARTESIAN_POINT('',(11.2131699263399,344.13916992634,-122.));
#261=CARTESIAN_POINT('Origin',(8.4558106134591,344.13916992634,-122.));
#262=CARTESIAN_POINT('',(14.2131699263399,344.13916992634,-122.));
#263=CARTESIAN_POINT('',(-6.47616990188032,301.82850975456,-142.));
#264=CARTESIAN_POINT('Origin',(-10.8548495583207,297.44983009812,-142.));
#265=CARTESIAN_POINT('Origin',(9.83449026989948,339.7604902699,-122.));
#266=UNCERTAINTY_MEASURE_WITH_UNIT(LENGTH_MEASURE(0.01),#270,
'DISTANCE_ACCURACY_VALUE',
'Maximum model space distance between geometric entities at asserted c
onnectivities');
#267=UNCERTAINTY_MEASURE_WITH_UNIT(LENGTH_MEASURE(0.01),#270,
'DISTANCE_ACCURACY_VALUE',
'Maximum model space distance between geometric entities at asserted c
onnectivities');
#268=(
GEOMETRIC_REPRESENTATION_CONTEXT(3)
GLOBAL_UNCERTAINTY_ASSIGNED_CONTEXT((#266))
GLOBAL_UNIT_ASSIGNED_CONTEXT((#270,#272,#273))
REPRESENTATION_CONTEXT('','3D')
);
#269=(
GEOMETRIC_REPRESENTATION_CONTEXT(3)
GLOBAL_UNCERTAINTY_ASSIGNED_CONTEXT((#267))
GLOBAL_UNIT_ASSIGNED_CONTEXT((#270,#272,#273))
REPRESENTATION_CONTEXT('','3D')
);
#270=(
LENGTH_UNIT()
NAMED_UNIT(*)
SI_UNIT(.MILLI.,.METRE.)
);
#271=(
LENGTH_UNIT()
NAMED_UNIT(*)
SI_UNIT($,.METRE.)
);
#272=(
NAMED_UNIT(*)
PLANE_ANGLE_UNIT()
SI_UNIT($,.RADIAN.)
);
#273=(
NAMED_UNIT(*)
SI_UNIT($,.STERADIAN.)
SOLID_ANGLE_UNIT()
);
#274=SHAPE_DEFINITION_REPRESENTATION(#275,#276);
#275=PRODUCT_DEFINITION_SHAPE('',$,#278);
#276=SHAPE_REPRESENTATION('',(#156),#268);
#277=PRODUCT_DEFINITION_CONTEXT('part definition',#282,'design');
#278=PRODUCT_DEFINITION('2026-09-10-11-18-42-433','Connecting Arms (3)',
#279,#277);
#279=PRODUCT_DEFINITION_FORMATION('',$,#284);
#280=PRODUCT_RELATED_PRODUCT_CATEGORY('Connecting Arms (3)',
'Connecting Arms (3)',(#284));
#281=APPLICATION_PROTOCOL_DEFINITION('international standard',
'automotive_design',2009,#282);
#282=APPLICATION_CONTEXT(
'Core Data for Automotive Mechanical Design Process');
#283=PRODUCT_CONTEXT('part definition',#282,'mechanical');
#284=PRODUCT('2026-09-10-11-18-42-433','Connecting Arms (3)',$,(#283));
#285=PRESENTATION_STYLE_ASSIGNMENT((#287));
#286=PRESENTATION_STYLE_ASSIGNMENT((#288));
#287=SURFACE_STYLE_USAGE(.BOTH.,#289);
#288=SURFACE_STYLE_USAGE(.BOTH.,#290);
#289=SURFACE_SIDE_STYLE('',(#291));
#290=SURFACE_SIDE_STYLE('',(#292));
#291=SURFACE_STYLE_FILL_AREA(#293);
#292=SURFACE_STYLE_FILL_AREA(#294);
#293=FILL_AREA_STYLE('Steel - Satin',(#295));
#294=FILL_AREA_STYLE('ABS (White)',(#296));
#295=FILL_AREA_STYLE_COLOUR('Steel - Satin',#297);
#296=FILL_AREA_STYLE_COLOUR('ABS (White)',#298);
#297=COLOUR_RGB('Steel - Satin',0.627450980392157,0.627450980392157,0.627450980392157);
#298=COLOUR_RGB('ABS (White)',0.964705882352941,0.964705882352941,0.952941176470588);
ENDSEC;
END-ISO-10303-21;
