ISO-10303-21;
HEADER;
/* Generated by software containing ST-Developer
 * from STEP Tools, Inc. (www.steptools.com) 
 */

FILE_DESCRIPTION(
/* description */ (''),
/* implementation_level */ '2;1');

FILE_NAME(
/* name */ 'Connecting Arms (2).step',
/* time_stamp */ '2026-09-10T11:18:37-06:00',
/* author */ (''),
/* organization */ (''),
/* preprocessor_version */ 'ST-DEVELOPER v20.2',
/* originating_system */ 'Autodesk Translation Framework v15.15.0.0',
/* authorisation */ '');

FILE_SCHEMA (('AUTOMOTIVE_DESIGN { 1 0 10303 214 3 1 1 }'));
ENDSEC;

DATA;
#10=MECHANICAL_DESIGN_GEOMETRIC_PRESENTATION_REPRESENTATION('',(#13),#269);
#11=SHAPE_REPRESENTATION_RELATIONSHIP('SRR','None',#276,#12);
#12=ADVANCED_BREP_SHAPE_REPRESENTATION('',(#14),#268);
#13=STYLED_ITEM('',(#286),#14);
#14=MANIFOLD_SOLID_BREP('Connecting Arms (2\\)',#143);
#15=CIRCLE('',#158,3.00000000000002);
#16=CIRCLE('',#159,3.00000000000003);
#17=CIRCLE('',#161,2.99999999999999);
#18=CIRCLE('',#162,2.99999999999999);
#19=CIRCLE('',#164,3.);
#20=CIRCLE('',#165,3.00000000000001);
#21=(
BOUNDED_SURFACE()
B_SPLINE_SURFACE(1,2,((#214,#215,#216),(#217,#218,#219)),.UNSPECIFIED.,
 .F.,.F.,.F.)
B_SPLINE_SURFACE_WITH_KNOTS((2,2),(3,3),(-0.92740040583684,16.7675579729875),
(-2.70623937843749,-1.13544305164259),.UNSPECIFIED.)
GEOMETRIC_REPRESENTATION_ITEM()
RATIONAL_B_SPLINE_SURFACE(((1.,0.707106781186547,1.),(1.,0.707106781186547,
1.)))
REPRESENTATION_ITEM('')
SURFACE()
);
#22=(
BOUNDED_SURFACE()
B_SPLINE_SURFACE(1,2,((#231,#232,#233,#234,#235),(#236,#237,#238,#239,#240)),
 .UNSPECIFIED.,.F.,.F.,.F.)
B_SPLINE_SURFACE_WITH_KNOTS((2,2),(3,2,3),(-0.388587670289403,18.1118631783826),
(-1.92084121504006,-0.742743969943868,0.435353275152322),.UNSPECIFIED.)
GEOMETRIC_REPRESENTATION_ITEM()
RATIONAL_B_SPLINE_SURFACE(((1.,0.83146961230254,1.,0.83146961230254,1.),
(1.,0.83146961230254,1.,0.83146961230254,1.)))
REPRESENTATION_ITEM('')
SURFACE()
);
#23=(
BOUNDED_SURFACE()
B_SPLINE_SURFACE(1,2,((#252,#253,#254,#255,#256),(#257,#258,#259,#260,#261)),
 .UNSPECIFIED.,.F.,.F.,.F.)
B_SPLINE_SURFACE_WITH_KNOTS((2,2),(3,2,3),(-0.835463491122226,18.0216805200304),
(2.00614960194719,3.18424684704337,4.36234409213955),.UNSPECIFIED.)
GEOMETRIC_REPRESENTATION_ITEM()
RATIONAL_B_SPLINE_SURFACE(((1.,0.831469612302543,1.,0.831469612302543,1.),
(1.,0.831469612302543,1.,0.831469612302543,1.)))
REPRESENTATION_ITEM('')
SURFACE()
);
#24=FACE_OUTER_BOUND('',#32,.T.);
#25=FACE_OUTER_BOUND('',#33,.T.);
#26=FACE_OUTER_BOUND('',#34,.T.);
#27=FACE_OUTER_BOUND('',#35,.T.);
#28=FACE_OUTER_BOUND('',#36,.T.);
#29=FACE_OUTER_BOUND('',#37,.T.);
#30=FACE_OUTER_BOUND('',#38,.T.);
#31=FACE_OUTER_BOUND('',#39,.T.);
#32=EDGE_LOOP('',(#94,#95,#96,#97));
#33=EDGE_LOOP('',(#98,#99,#100,#101));
#34=EDGE_LOOP('',(#102,#103,#104,#105));
#35=EDGE_LOOP('',(#106,#107,#108,#109));
#36=EDGE_LOOP('',(#110,#111,#112,#113));
#37=EDGE_LOOP('',(#114,#115,#116,#117));
#38=EDGE_LOOP('',(#118,#119,#120,#121,#122,#123));
#39=EDGE_LOOP('',(#124,#125,#126,#127,#128,#129));
#40=LINE('',#208,#52);
#41=LINE('',#210,#53);
#42=LINE('',#212,#54);
#43=LINE('',#213,#55);
#44=LINE('',#224,#56);
#45=LINE('',#227,#57);
#46=LINE('',#229,#58);
#47=LINE('',#230,#59);
#48=LINE('',#245,#60);
#49=LINE('',#248,#61);
#50=LINE('',#250,#62);
#51=LINE('',#251,#63);
#52=VECTOR('',#172,10.);
#53=VECTOR('',#173,10.);
#54=VECTOR('',#174,10.);
#55=VECTOR('',#175,10.);
#56=VECTOR('',#180,10.);
#57=VECTOR('',#183,10.);
#58=VECTOR('',#184,10.);
#59=VECTOR('',#185,10.);
#60=VECTOR('',#190,10.);
#61=VECTOR('',#193,10.);
#62=VECTOR('',#194,10.);
#63=VECTOR('',#195,10.);
#64=VERTEX_POINT('',#206);
#65=VERTEX_POINT('',#207);
#66=VERTEX_POINT('',#209);
#67=VERTEX_POINT('',#211);
#68=VERTEX_POINT('',#220);
#69=VERTEX_POINT('',#222);
#70=VERTEX_POINT('',#226);
#71=VERTEX_POINT('',#228);
#72=VERTEX_POINT('',#241);
#73=VERTEX_POINT('',#243);
#74=VERTEX_POINT('',#247);
#75=VERTEX_POINT('',#249);
#76=EDGE_CURVE('',#64,#65,#40,.T.);
#77=EDGE_CURVE('',#65,#66,#41,.T.);
#78=EDGE_CURVE('',#67,#66,#42,.T.);
#79=EDGE_CURVE('',#64,#67,#43,.T.);
#80=EDGE_CURVE('',#64,#68,#15,.T.);
#81=EDGE_CURVE('',#69,#67,#16,.T.);
#82=EDGE_CURVE('',#68,#69,#44,.T.);
#83=EDGE_CURVE('',#68,#70,#45,.T.);
#84=EDGE_CURVE('',#71,#69,#46,.T.);
#85=EDGE_CURVE('',#70,#71,#47,.T.);
#86=EDGE_CURVE('',#72,#70,#17,.T.);
#87=EDGE_CURVE('',#73,#71,#18,.T.);
#88=EDGE_CURVE('',#72,#73,#48,.T.);
#89=EDGE_CURVE('',#72,#74,#49,.T.);
#90=EDGE_CURVE('',#75,#73,#50,.T.);
#91=EDGE_CURVE('',#74,#75,#51,.T.);
#92=EDGE_CURVE('',#74,#65,#19,.T.);
#93=EDGE_CURVE('',#66,#75,#20,.T.);
#94=ORIENTED_EDGE('',*,*,#76,.T.);
#95=ORIENTED_EDGE('',*,*,#77,.T.);
#96=ORIENTED_EDGE('',*,*,#78,.F.);
#97=ORIENTED_EDGE('',*,*,#79,.F.);
#98=ORIENTED_EDGE('',*,*,#80,.F.);
#99=ORIENTED_EDGE('',*,*,#79,.T.);
#100=ORIENTED_EDGE('',*,*,#81,.F.);
#101=ORIENTED_EDGE('',*,*,#82,.F.);
#102=ORIENTED_EDGE('',*,*,#83,.F.);
#103=ORIENTED_EDGE('',*,*,#82,.T.);
#104=ORIENTED_EDGE('',*,*,#84,.F.);
#105=ORIENTED_EDGE('',*,*,#85,.F.);
#106=ORIENTED_EDGE('',*,*,#86,.T.);
#107=ORIENTED_EDGE('',*,*,#85,.T.);
#108=ORIENTED_EDGE('',*,*,#87,.F.);
#109=ORIENTED_EDGE('',*,*,#88,.F.);
#110=ORIENTED_EDGE('',*,*,#89,.F.);
#111=ORIENTED_EDGE('',*,*,#88,.T.);
#112=ORIENTED_EDGE('',*,*,#90,.F.);
#113=ORIENTED_EDGE('',*,*,#91,.F.);
#114=ORIENTED_EDGE('',*,*,#92,.F.);
#115=ORIENTED_EDGE('',*,*,#91,.T.);
#116=ORIENTED_EDGE('',*,*,#93,.F.);
#117=ORIENTED_EDGE('',*,*,#77,.F.);
#118=ORIENTED_EDGE('',*,*,#93,.T.);
#119=ORIENTED_EDGE('',*,*,#90,.T.);
#120=ORIENTED_EDGE('',*,*,#87,.T.);
#121=ORIENTED_EDGE('',*,*,#84,.T.);
#122=ORIENTED_EDGE('',*,*,#81,.T.);
#123=ORIENTED_EDGE('',*,*,#78,.T.);
#124=ORIENTED_EDGE('',*,*,#92,.T.);
#125=ORIENTED_EDGE('',*,*,#76,.F.);
#126=ORIENTED_EDGE('',*,*,#80,.T.);
#127=ORIENTED_EDGE('',*,*,#83,.T.);
#128=ORIENTED_EDGE('',*,*,#86,.F.);
#129=ORIENTED_EDGE('',*,*,#89,.T.);
#130=PLANE('',#157);
#131=PLANE('',#160);
#132=PLANE('',#163);
#133=PLANE('',#166);
#134=PLANE('',#167);
#135=ADVANCED_FACE('',(#24),#130,.T.);
#136=ADVANCED_FACE('',(#25),#21,.F.);
#137=ADVANCED_FACE('',(#26),#131,.T.);
#138=ADVANCED_FACE('',(#27),#22,.F.);
#139=ADVANCED_FACE('',(#28),#132,.T.);
#140=ADVANCED_FACE('',(#29),#23,.F.);
#141=ADVANCED_FACE('',(#30),#133,.F.);
#142=ADVANCED_FACE('',(#31),#134,.T.);
#143=CLOSED_SHELL('',(#135,#136,#137,#138,#139,#140,#141,#142));
#144=DERIVED_UNIT_ELEMENT(#146,1.);
#145=DERIVED_UNIT_ELEMENT(#271,-3.);
#146=(
MASS_UNIT()
NAMED_UNIT(*)
SI_UNIT(.KILO.,.GRAM.)
);
#147=DERIVED_UNIT((#144,#145));
#148=MEASURE_REPRESENTATION_ITEM('density measure',
POSITIVE_RATIO_MEASURE(7850.),#147);
#149=PROPERTY_DEFINITION_REPRESENTATION(#154,#151);
#150=PROPERTY_DEFINITION_REPRESENTATION(#155,#152);
#151=REPRESENTATION('material name',(#153),#268);
#152=REPRESENTATION('density',(#148),#268);
#153=DESCRIPTIVE_REPRESENTATION_ITEM('Steel','Steel');
#154=PROPERTY_DEFINITION('material property','material name',#278);
#155=PROPERTY_DEFINITION('material property','density of part',#278);
#156=AXIS2_PLACEMENT_3D('',#204,#168,#169);
#157=AXIS2_PLACEMENT_3D('',#205,#170,#171);
#158=AXIS2_PLACEMENT_3D('',#221,#176,#177);
#159=AXIS2_PLACEMENT_3D('',#223,#178,#179);
#160=AXIS2_PLACEMENT_3D('',#225,#181,#182);
#161=AXIS2_PLACEMENT_3D('',#242,#186,#187);
#162=AXIS2_PLACEMENT_3D('',#244,#188,#189);
#163=AXIS2_PLACEMENT_3D('',#246,#191,#192);
#164=AXIS2_PLACEMENT_3D('',#262,#196,#197);
#165=AXIS2_PLACEMENT_3D('',#263,#198,#199);
#166=AXIS2_PLACEMENT_3D('',#264,#200,#201);
#167=AXIS2_PLACEMENT_3D('',#265,#202,#203);
#168=DIRECTION('axis',(0.,0.,1.));
#169=DIRECTION('refdir',(1.,0.,0.));
#170=DIRECTION('center_axis',(5.16471212741204E-17,0.421730749715585,-0.906721111888507));
#171=DIRECTION('ref_axis',(1.,-1.22464679914735E-16,1.43696945538026E-32));
#172=DIRECTION('',(1.,-1.22464679914735E-16,1.43696945538026E-32));
#173=DIRECTION('',(0.388587670289401,-0.835463491122211,-0.3885876702894));
#174=DIRECTION('',(1.,-2.33486982377251E-16,-5.55111512312578E-17));
#175=DIRECTION('',(0.388587670289401,-0.835463491122211,-0.3885876702894));
#176=DIRECTION('center_axis',(1.43696945538026E-32,2.34674921190458E-16,
1.));
#177=DIRECTION('ref_axis',(-7.6490964924613E-15,1.,-2.34674921190458E-16));
#178=DIRECTION('center_axis',(5.55111512312578E-17,-2.90186072421716E-16,
-1.));
#179=DIRECTION('ref_axis',(-7.76011879492381E-15,1.,-1.791637699592E-16));
#180=DIRECTION('',(0.388587670289401,-0.835463491122211,-0.3885876702894));
#181=DIRECTION('center_axis',(-0.707106781186547,-7.93446225246428E-17,
-0.707106781186548));
#182=DIRECTION('ref_axis',(1.22464679914735E-16,1.,-2.34674921190458E-16));
#183=DIRECTION('',(-1.22464679914735E-16,-1.,2.34674921190458E-16));
#184=DIRECTION('',(1.14423774522197E-17,1.,-1.79163769959201E-16));
#185=DIRECTION('',(0.388587670289401,-0.835463491122211,-0.3885876702894));
#186=DIRECTION('center_axis',(-1.43696945538026E-32,-2.34674921190458E-16,
-1.));
#187=DIRECTION('ref_axis',(0.707106781186552,-0.707106781186543,1.65940228148191E-16));
#188=DIRECTION('center_axis',(5.55111512312578E-17,-2.90186072421716E-16,
-1.));
#189=DIRECTION('ref_axis',(0.707106781186552,-0.707106781186543,8.7435605214002E-17));
#190=DIRECTION('',(0.388587670289401,-0.835463491122211,-0.3885876702894));
#191=DIRECTION('center_axis',(0.289611854403347,-0.289611854403347,0.912277341370545));
#192=DIRECTION('ref_axis',(-0.707106781186548,-0.707106781186548,1.65940228148192E-16));
#193=DIRECTION('',(0.707106781186548,0.707106781186548,-1.65940228148192E-16));
#194=DIRECTION('',(-0.707106781186547,-0.707106781186548,1.65940228148192E-16));
#195=DIRECTION('',(0.388587670289401,-0.835463491122211,-0.3885876702894));
#196=DIRECTION('center_axis',(1.43696945538026E-32,2.34674921190458E-16,
1.));
#197=DIRECTION('ref_axis',(0.70710678118655,-0.707106781186545,1.65940228148191E-16));
#198=DIRECTION('center_axis',(5.55111512312578E-17,-2.90186072421716E-16,
-1.));
#199=DIRECTION('ref_axis',(0.70710678118655,-0.707106781186545,8.74356052140025E-17));
#200=DIRECTION('center_axis',(-5.55111512312578E-17,2.90186072421716E-16,
1.));
#201=DIRECTION('ref_axis',(-1.,2.33486982377251E-16,5.55111512312578E-17));
#202=DIRECTION('center_axis',(1.43696945538026E-32,2.34674921190458E-16,
1.));
#203=DIRECTION('ref_axis',(-1.,1.22464679914735E-16,-1.43696945538026E-32));
#204=CARTESIAN_POINT('',(0.,0.,0.));
#205=CARTESIAN_POINT('Origin',(-172.78683007366,344.13916992634,-122.));
#206=CARTESIAN_POINT('',(-172.78683007366,344.13916992634,-122.));
#207=CARTESIAN_POINT('',(-170.029470760779,344.13916992634,-122.));
#208=CARTESIAN_POINT('',(-172.78683007366,344.13916992634,-122.));
#209=CARTESIAN_POINT('',(-150.029470760779,301.13916992634,-142.));
#210=CARTESIAN_POINT('',(-170.029470760779,344.13916992634,-122.));
#211=CARTESIAN_POINT('',(-152.78683007366,301.13916992634,-142.));
#212=CARTESIAN_POINT('',(-152.78683007366,301.13916992634,-142.));
#213=CARTESIAN_POINT('',(-172.78683007366,344.13916992634,-122.));
#214=CARTESIAN_POINT('Ctrl Pts',(-176.414958030546,342.489645033644,-121.371872043114));
#215=CARTESIAN_POINT('Ctrl Pts',(-175.441005595665,343.39564729865,-122.345824477995));
#216=CARTESIAN_POINT('Ctrl Pts',(-172.894006728168,344.369599733531,-121.892823345492));
#217=CARTESIAN_POINT('Ctrl Pts',(-155.78683007366,298.13916992634,-142.));
#218=CARTESIAN_POINT('Ctrl Pts',(-154.812877638779,299.045172191345,-142.973952434881));
#219=CARTESIAN_POINT('Ctrl Pts',(-152.265878771282,300.019124626227,-142.520951302378));
#220=CARTESIAN_POINT('',(-175.78683007366,341.13916992634,-122.));
#221=CARTESIAN_POINT('Origin',(-172.78683007366,341.13916992634,-122.));
#222=CARTESIAN_POINT('',(-155.78683007366,298.13916992634,-142.));
#223=CARTESIAN_POINT('Origin',(-152.78683007366,298.13916992634,-142.));
#224=CARTESIAN_POINT('',(-175.78683007366,341.13916992634,-122.));
#225=CARTESIAN_POINT('Origin',(-175.78683007366,338.381810613459,-122.));
#226=CARTESIAN_POINT('',(-175.78683007366,338.381810613459,-122.));
#227=CARTESIAN_POINT('',(-175.78683007366,341.13916992634,-122.));
#228=CARTESIAN_POINT('',(-155.78683007366,295.381810613459,-142.));
#229=CARTESIAN_POINT('',(-155.78683007366,298.13916992634,-142.));
#230=CARTESIAN_POINT('',(-175.78683007366,338.381810613459,-122.));
#231=CARTESIAN_POINT('Ctrl Pts',(-172.127519406539,339.403811074242,-120.537990323562));
#232=CARTESIAN_POINT('Ctrl Pts',(-173.791076105469,338.515582023028,-120.291854562382));
#233=CARTESIAN_POINT('Ctrl Pts',(-175.114340195233,338.146010638552,-120.820540175523));
#234=CARTESIAN_POINT('Ctrl Pts',(-176.437604284997,337.776439254076,-121.349225788663));
#235=CARTESIAN_POINT('Ctrl Pts',(-175.78683007366,338.381810613459,-122.));
#236=CARTESIAN_POINT('Ctrl Pts',(-150.560378122772,293.034457314143,-142.105131607329));
#237=CARTESIAN_POINT('Ctrl Pts',(-152.223934821702,292.146228262929,-141.858995846149));
#238=CARTESIAN_POINT('Ctrl Pts',(-153.547198911466,291.776656878453,-142.387681459289));
#239=CARTESIAN_POINT('Ctrl Pts',(-154.87046300123,291.407085493977,-142.91636707243));
#240=CARTESIAN_POINT('Ctrl Pts',(-154.219688789893,292.01245685336,-143.567141283767));
#241=CARTESIAN_POINT('',(-170.6655097301,336.260490269899,-122.));
#242=CARTESIAN_POINT('Origin',(-172.78683007366,338.381810613459,-122.));
#243=CARTESIAN_POINT('',(-150.6655097301,293.2604902699,-142.));
#244=CARTESIAN_POINT('Origin',(-152.78683007366,295.381810613459,-142.));
#245=CARTESIAN_POINT('',(-170.6655097301,336.260490269899,-122.));
#246=CARTESIAN_POINT('Origin',(-167.90815041722,339.01784958278,-122.));
#247=CARTESIAN_POINT('',(-167.90815041722,339.01784958278,-122.));
#248=CARTESIAN_POINT('',(-170.6655097301,336.260490269899,-122.));
#249=CARTESIAN_POINT('',(-147.90815041722,296.01784958278,-142.));
#250=CARTESIAN_POINT('',(-150.6655097301,293.2604902699,-142.));
#251=CARTESIAN_POINT('',(-167.90815041722,339.01784958278,-122.));
#252=CARTESIAN_POINT('Ctrl Pts',(-170.029470760779,344.13916992634,-122.));
#253=CARTESIAN_POINT('Ctrl Pts',(-168.327620526713,344.789944137677,-121.697314320308));
#254=CARTESIAN_POINT('Ctrl Pts',(-168.27758761191,344.479694438063,-120.980244551336));
#255=CARTESIAN_POINT('Ctrl Pts',(-168.227554697106,344.16944473845,-120.263174782363));
#256=CARTESIAN_POINT('Ctrl Pts',(-169.891111396036,343.281215687236,-120.017039021183));
#257=CARTESIAN_POINT('Ctrl Pts',(-148.046509781963,296.875803821884,-143.982960978817));
#258=CARTESIAN_POINT('Ctrl Pts',(-146.344659547897,297.526578033221,-143.680275299125));
#259=CARTESIAN_POINT('Ctrl Pts',(-146.294626633093,297.216328333608,-142.963205530152));
#260=CARTESIAN_POINT('Ctrl Pts',(-146.24459371829,296.906078633994,-142.24613576118));
#261=CARTESIAN_POINT('Ctrl Pts',(-147.90815041722,296.01784958278,-142.));
#262=CARTESIAN_POINT('Origin',(-170.029470760779,341.13916992634,-122.));
#263=CARTESIAN_POINT('Origin',(-150.029470760779,298.13916992634,-142.));
#264=CARTESIAN_POINT('Origin',(-151.40815041722,296.7604902699,-142.));
#265=CARTESIAN_POINT('Origin',(-171.40815041722,339.760490269899,-122.));
#266=UNCERTAINTY_MEASURE_WITH_UNIT(LENGTH_MEASURE(0.01),#270,
'DISTANCE_ACCURACY_VALUE',
'Maximum model space distance between geometric entities at asserted c
onnectivities');
#267=UNCERTAINTY_MEASURE_WITH_UNIT(LENGTH_MEASURE(0.01),#270,
'DISTANCE_ACCURACY_VALUE',
'Maximum model space distance between geometric entities at asserted c
onnectivities');
#268=(
GEOMETRIC_REPRESENTATION_CONTEXT(3)
GLOBAL_UNCERTAINTY_ASSIGNED_CONTEXT((#266))
GLOBAL_UNIT_ASSIGNED_CONTEXT((#270,#272,#273))
REPRESENTATION_CONTEXT('','3D')
);
#269=(
GEOMETRIC_REPRESENTATION_CONTEXT(3)
GLOBAL_UNCERTAINTY_ASSIGNED_CONTEXT((#267))
GLOBAL_UNIT_ASSIGNED_CONTEXT((#270,#272,#273))
REPRESENTATION_CONTEXT('','3D')
);
#270=(
LENGTH_UNIT()
NAMED_UNIT(*)
SI_UNIT(.MILLI.,.METRE.)
);
#271=(
LENGTH_UNIT()
NAMED_UNIT(*)
SI_UNIT($,.METRE.)
);
#272=(
NAMED_UNIT(*)
PLANE_ANGLE_UNIT()
SI_UNIT($,.RADIAN.)
);
#273=(
NAMED_UNIT(*)
SI_UNIT($,.STERADIAN.)
SOLID_ANGLE_UNIT()
);
#274=SHAPE_DEFINITION_REPRESENTATION(#275,#276);
#275=PRODUCT_DEFINITION_SHAPE('',$,#278);
#276=SHAPE_REPRESENTATION('',(#156),#268);
#277=PRODUCT_DEFINITION_CONTEXT('part definition',#282,'design');
#278=PRODUCT_DEFINITION('2026-09-10-11-18-37-519','Connecting Arms (2)',
#279,#277);
#279=PRODUCT_DEFINITION_FORMATION('',$,#284);
#280=PRODUCT_RELATED_PRODUCT_CATEGORY('Connecting Arms (2)',
'Connecting Arms (2)',(#284));
#281=APPLICATION_PROTOCOL_DEFINITION('international standard',
'automotive_design',2009,#282);
#282=APPLICATION_CONTEXT(
'Core Data for Automotive Mechanical Design Process');
#283=PRODUCT_CONTEXT('part definition',#282,'mechanical');
#284=PRODUCT('2026-09-10-11-18-37-519','Connecting Arms (2)',$,(#283));
#285=PRESENTATION_STYLE_ASSIGNMENT((#287));
#286=PRESENTATION_STYLE_ASSIGNMENT((#288));
#287=SURFACE_STYLE_USAGE(.BOTH.,#289);
#288=SURFACE_STYLE_USAGE(.BOTH.,#290);
#289=SURFACE_SIDE_STYLE('',(#291));
#290=SURFACE_SIDE_STYLE('',(#292));
#291=SURFACE_STYLE_FILL_AREA(#293);
#292=SURFACE_STYLE_FILL_AREA(#294);
#293=FILL_AREA_STYLE('Steel - Satin',(#295));
#294=FILL_AREA_STYLE('ABS (White)',(#296));
#295=FILL_AREA_STYLE_COLOUR('Steel - Satin',#297);
#296=FILL_AREA_STYLE_COLOUR('ABS (White)',#298);
#297=COLOUR_RGB('Steel - Satin',0.627450980392157,0.627450980392157,0.627450980392157);
#298=COLOUR_RGB('ABS (White)',0.964705882352941,0.964705882352941,0.952941176470588);
ENDSEC;
END-ISO-10303-21;
