ISO-10303-21;
HEADER;
/* Generated by software containing ST-Developer
 * from STEP Tools, Inc. (www.steptools.com) 
 */

FILE_DESCRIPTION(
/* description */ (''),
/* implementation_level */ '2;1');

FILE_NAME(
/* name */ 'CaseS_Bottom.step',
/* time_stamp */ '2026-09-10T11:18:25-06:00',
/* author */ (''),
/* organization */ (''),
/* preprocessor_version */ 'ST-DEVELOPER v20.2',
/* originating_system */ 'Autodesk Translation Framework v15.15.0.0',
/* authorisation */ '');

FILE_SCHEMA (('AUTOMOTIVE_DESIGN { 1 0 10303 214 3 1 1 }'));
ENDSEC;

DATA;
#10=MECHANICAL_DESIGN_GEOMETRIC_PRESENTATION_REPRESENTATION('',(#13),#745);
#11=SHAPE_REPRESENTATION_RELATIONSHIP('SRR','None',#752,#12);
#12=ADVANCED_BREP_SHAPE_REPRESENTATION('',(#14),#744);
#13=STYLED_ITEM('',(#762),#14);
#14=MANIFOLD_SOLID_BREP('CaseS_Bottom',#465);
#15=FACE_BOUND('',#50,.T.);
#16=FACE_BOUND('',#54,.T.);
#17=FACE_BOUND('',#72,.T.);
#18=FACE_BOUND('',#73,.T.);
#19=FACE_BOUND('',#74,.T.);
#20=FACE_OUTER_BOUND('',#45,.T.);
#21=FACE_OUTER_BOUND('',#46,.T.);
#22=FACE_OUTER_BOUND('',#47,.T.);
#23=FACE_OUTER_BOUND('',#48,.T.);
#24=FACE_OUTER_BOUND('',#49,.T.);
#25=FACE_OUTER_BOUND('',#51,.T.);
#26=FACE_OUTER_BOUND('',#52,.T.);
#27=FACE_OUTER_BOUND('',#53,.T.);
#28=FACE_OUTER_BOUND('',#55,.T.);
#29=FACE_OUTER_BOUND('',#56,.T.);
#30=FACE_OUTER_BOUND('',#57,.T.);
#31=FACE_OUTER_BOUND('',#58,.T.);
#32=FACE_OUTER_BOUND('',#59,.T.);
#33=FACE_OUTER_BOUND('',#60,.T.);
#34=FACE_OUTER_BOUND('',#61,.T.);
#35=FACE_OUTER_BOUND('',#62,.T.);
#36=FACE_OUTER_BOUND('',#63,.T.);
#37=FACE_OUTER_BOUND('',#64,.T.);
#38=FACE_OUTER_BOUND('',#65,.T.);
#39=FACE_OUTER_BOUND('',#66,.T.);
#40=FACE_OUTER_BOUND('',#67,.T.);
#41=FACE_OUTER_BOUND('',#68,.T.);
#42=FACE_OUTER_BOUND('',#69,.T.);
#43=FACE_OUTER_BOUND('',#70,.T.);
#44=FACE_OUTER_BOUND('',#71,.T.);
#45=EDGE_LOOP('',(#295,#296,#297,#298));
#46=EDGE_LOOP('',(#299,#300,#301,#302));
#47=EDGE_LOOP('',(#303,#304,#305,#306));
#48=EDGE_LOOP('',(#307,#308,#309,#310));
#49=EDGE_LOOP('',(#311,#312,#313,#314));
#50=EDGE_LOOP('',(#315,#316,#317,#318));
#51=EDGE_LOOP('',(#319,#320,#321,#322));
#52=EDGE_LOOP('',(#323,#324,#325,#326));
#53=EDGE_LOOP('',(#327,#328,#329,#330));
#54=EDGE_LOOP('',(#331,#332,#333,#334));
#55=EDGE_LOOP('',(#335,#336,#337,#338));
#56=EDGE_LOOP('',(#339,#340,#341,#342));
#57=EDGE_LOOP('',(#343,#344,#345,#346));
#58=EDGE_LOOP('',(#347,#348,#349,#350));
#59=EDGE_LOOP('',(#351,#352,#353,#354));
#60=EDGE_LOOP('',(#355,#356,#357,#358));
#61=EDGE_LOOP('',(#359,#360,#361,#362));
#62=EDGE_LOOP('',(#363,#364,#365,#366));
#63=EDGE_LOOP('',(#367,#368,#369,#370));
#64=EDGE_LOOP('',(#371,#372,#373,#374));
#65=EDGE_LOOP('',(#375,#376,#377,#378));
#66=EDGE_LOOP('',(#379,#380,#381,#382));
#67=EDGE_LOOP('',(#383,#384,#385,#386));
#68=EDGE_LOOP('',(#387,#388,#389,#390));
#69=EDGE_LOOP('',(#391,#392,#393,#394));
#70=EDGE_LOOP('',(#395,#396,#397,#398));
#71=EDGE_LOOP('',(#399,#400,#401,#402));
#72=EDGE_LOOP('',(#403,#404,#405,#406));
#73=EDGE_LOOP('',(#407,#408,#409,#410));
#74=EDGE_LOOP('',(#411,#412,#413,#414));
#75=LINE('',#620,#135);
#76=LINE('',#622,#136);
#77=LINE('',#624,#137);
#78=LINE('',#625,#138);
#79=LINE('',#628,#139);
#80=LINE('',#630,#140);
#81=LINE('',#631,#141);
#82=LINE('',#634,#142);
#83=LINE('',#636,#143);
#84=LINE('',#637,#144);
#85=LINE('',#639,#145);
#86=LINE('',#640,#146);
#87=LINE('',#644,#147);
#88=LINE('',#646,#148);
#89=LINE('',#648,#149);
#90=LINE('',#649,#150);
#91=LINE('',#652,#151);
#92=LINE('',#654,#152);
#93=LINE('',#655,#153);
#94=LINE('',#658,#154);
#95=LINE('',#659,#155);
#96=LINE('',#663,#156);
#97=LINE('',#665,#157);
#98=LINE('',#667,#158);
#99=LINE('',#668,#159);
#100=LINE('',#672,#160);
#101=LINE('',#674,#161);
#102=LINE('',#676,#162);
#103=LINE('',#677,#163);
#104=LINE('',#680,#164);
#105=LINE('',#682,#165);
#106=LINE('',#683,#166);
#107=LINE('',#686,#167);
#108=LINE('',#688,#168);
#109=LINE('',#689,#169);
#110=LINE('',#691,#170);
#111=LINE('',#692,#171);
#112=LINE('',#697,#172);
#113=LINE('',#699,#173);
#114=LINE('',#701,#174);
#115=LINE('',#702,#175);
#116=LINE('',#705,#176);
#117=LINE('',#707,#177);
#118=LINE('',#708,#178);
#119=LINE('',#711,#179);
#120=LINE('',#713,#180);
#121=LINE('',#714,#181);
#122=LINE('',#716,#182);
#123=LINE('',#717,#183);
#124=LINE('',#722,#184);
#125=LINE('',#723,#185);
#126=LINE('',#724,#186);
#127=LINE('',#727,#187);
#128=LINE('',#728,#188);
#129=LINE('',#731,#189);
#130=LINE('',#732,#190);
#131=LINE('',#734,#191);
#132=LINE('',#737,#192);
#133=LINE('',#738,#193);
#134=LINE('',#740,#194);
#135=VECTOR('',#508,10.);
#136=VECTOR('',#509,10.);
#137=VECTOR('',#510,10.);
#138=VECTOR('',#511,10.);
#139=VECTOR('',#514,10.);
#140=VECTOR('',#515,10.);
#141=VECTOR('',#516,10.);
#142=VECTOR('',#519,10.);
#143=VECTOR('',#520,10.);
#144=VECTOR('',#521,10.);
#145=VECTOR('',#524,10.);
#146=VECTOR('',#525,10.);
#147=VECTOR('',#528,10.);
#148=VECTOR('',#529,10.);
#149=VECTOR('',#530,10.);
#150=VECTOR('',#531,10.);
#151=VECTOR('',#534,10.);
#152=VECTOR('',#535,10.);
#153=VECTOR('',#536,10.);
#154=VECTOR('',#539,10.);
#155=VECTOR('',#540,10.);
#156=VECTOR('',#543,10.);
#157=VECTOR('',#544,10.);
#158=VECTOR('',#545,10.);
#159=VECTOR('',#546,10.);
#160=VECTOR('',#549,10.);
#161=VECTOR('',#550,10.);
#162=VECTOR('',#551,10.);
#163=VECTOR('',#552,10.);
#164=VECTOR('',#555,10.);
#165=VECTOR('',#556,10.);
#166=VECTOR('',#557,10.);
#167=VECTOR('',#560,10.);
#168=VECTOR('',#561,10.);
#169=VECTOR('',#562,10.);
#170=VECTOR('',#565,10.);
#171=VECTOR('',#566,10.);
#172=VECTOR('',#571,10.);
#173=VECTOR('',#572,10.);
#174=VECTOR('',#573,10.);
#175=VECTOR('',#574,10.);
#176=VECTOR('',#577,10.);
#177=VECTOR('',#578,10.);
#178=VECTOR('',#579,10.);
#179=VECTOR('',#582,10.);
#180=VECTOR('',#583,10.);
#181=VECTOR('',#584,10.);
#182=VECTOR('',#587,10.);
#183=VECTOR('',#588,10.);
#184=VECTOR('',#593,10.);
#185=VECTOR('',#594,10.);
#186=VECTOR('',#595,10.);
#187=VECTOR('',#598,10.);
#188=VECTOR('',#599,10.);
#189=VECTOR('',#602,10.);
#190=VECTOR('',#603,10.);
#191=VECTOR('',#606,10.);
#192=VECTOR('',#609,10.);
#193=VECTOR('',#610,10.);
#194=VECTOR('',#613,10.);
#195=VERTEX_POINT('',#618);
#196=VERTEX_POINT('',#619);
#197=VERTEX_POINT('',#621);
#198=VERTEX_POINT('',#623);
#199=VERTEX_POINT('',#627);
#200=VERTEX_POINT('',#629);
#201=VERTEX_POINT('',#633);
#202=VERTEX_POINT('',#635);
#203=VERTEX_POINT('',#642);
#204=VERTEX_POINT('',#643);
#205=VERTEX_POINT('',#645);
#206=VERTEX_POINT('',#647);
#207=VERTEX_POINT('',#651);
#208=VERTEX_POINT('',#653);
#209=VERTEX_POINT('',#657);
#210=VERTEX_POINT('',#661);
#211=VERTEX_POINT('',#662);
#212=VERTEX_POINT('',#664);
#213=VERTEX_POINT('',#666);
#214=VERTEX_POINT('',#670);
#215=VERTEX_POINT('',#671);
#216=VERTEX_POINT('',#673);
#217=VERTEX_POINT('',#675);
#218=VERTEX_POINT('',#679);
#219=VERTEX_POINT('',#681);
#220=VERTEX_POINT('',#685);
#221=VERTEX_POINT('',#687);
#222=VERTEX_POINT('',#695);
#223=VERTEX_POINT('',#696);
#224=VERTEX_POINT('',#698);
#225=VERTEX_POINT('',#700);
#226=VERTEX_POINT('',#704);
#227=VERTEX_POINT('',#706);
#228=VERTEX_POINT('',#710);
#229=VERTEX_POINT('',#712);
#230=VERTEX_POINT('',#720);
#231=VERTEX_POINT('',#721);
#232=VERTEX_POINT('',#726);
#233=VERTEX_POINT('',#730);
#234=VERTEX_POINT('',#736);
#235=EDGE_CURVE('',#195,#196,#75,.T.);
#236=EDGE_CURVE('',#197,#195,#76,.T.);
#237=EDGE_CURVE('',#198,#197,#77,.T.);
#238=EDGE_CURVE('',#198,#196,#78,.T.);
#239=EDGE_CURVE('',#196,#199,#79,.T.);
#240=EDGE_CURVE('',#200,#198,#80,.T.);
#241=EDGE_CURVE('',#200,#199,#81,.T.);
#242=EDGE_CURVE('',#199,#201,#82,.T.);
#243=EDGE_CURVE('',#202,#200,#83,.T.);
#244=EDGE_CURVE('',#202,#201,#84,.T.);
#245=EDGE_CURVE('',#201,#195,#85,.T.);
#246=EDGE_CURVE('',#197,#202,#86,.T.);
#247=EDGE_CURVE('',#203,#204,#87,.T.);
#248=EDGE_CURVE('',#205,#203,#88,.T.);
#249=EDGE_CURVE('',#206,#205,#89,.T.);
#250=EDGE_CURVE('',#204,#206,#90,.T.);
#251=EDGE_CURVE('',#204,#207,#91,.T.);
#252=EDGE_CURVE('',#207,#208,#92,.T.);
#253=EDGE_CURVE('',#208,#203,#93,.T.);
#254=EDGE_CURVE('',#209,#206,#94,.T.);
#255=EDGE_CURVE('',#209,#207,#95,.T.);
#256=EDGE_CURVE('',#210,#211,#96,.T.);
#257=EDGE_CURVE('',#211,#212,#97,.T.);
#258=EDGE_CURVE('',#212,#213,#98,.T.);
#259=EDGE_CURVE('',#213,#210,#99,.T.);
#260=EDGE_CURVE('',#214,#215,#100,.T.);
#261=EDGE_CURVE('',#214,#216,#101,.T.);
#262=EDGE_CURVE('',#216,#217,#102,.T.);
#263=EDGE_CURVE('',#215,#217,#103,.T.);
#264=EDGE_CURVE('',#218,#214,#104,.T.);
#265=EDGE_CURVE('',#218,#219,#105,.T.);
#266=EDGE_CURVE('',#219,#216,#106,.T.);
#267=EDGE_CURVE('',#220,#218,#107,.T.);
#268=EDGE_CURVE('',#220,#221,#108,.T.);
#269=EDGE_CURVE('',#221,#219,#109,.T.);
#270=EDGE_CURVE('',#215,#220,#110,.T.);
#271=EDGE_CURVE('',#217,#221,#111,.T.);
#272=EDGE_CURVE('',#222,#223,#112,.T.);
#273=EDGE_CURVE('',#222,#224,#113,.T.);
#274=EDGE_CURVE('',#224,#225,#114,.T.);
#275=EDGE_CURVE('',#223,#225,#115,.T.);
#276=EDGE_CURVE('',#226,#222,#116,.T.);
#277=EDGE_CURVE('',#226,#227,#117,.T.);
#278=EDGE_CURVE('',#227,#224,#118,.T.);
#279=EDGE_CURVE('',#228,#226,#119,.T.);
#280=EDGE_CURVE('',#228,#229,#120,.T.);
#281=EDGE_CURVE('',#229,#227,#121,.T.);
#282=EDGE_CURVE('',#223,#228,#122,.T.);
#283=EDGE_CURVE('',#225,#229,#123,.T.);
#284=EDGE_CURVE('',#230,#231,#124,.T.);
#285=EDGE_CURVE('',#210,#231,#125,.T.);
#286=EDGE_CURVE('',#230,#213,#126,.T.);
#287=EDGE_CURVE('',#231,#232,#127,.T.);
#288=EDGE_CURVE('',#232,#211,#128,.T.);
#289=EDGE_CURVE('',#208,#233,#129,.T.);
#290=EDGE_CURVE('',#233,#205,#130,.T.);
#291=EDGE_CURVE('',#233,#209,#131,.T.);
#292=EDGE_CURVE('',#232,#234,#132,.T.);
#293=EDGE_CURVE('',#234,#212,#133,.T.);
#294=EDGE_CURVE('',#234,#230,#134,.T.);
#295=ORIENTED_EDGE('',*,*,#235,.F.);
#296=ORIENTED_EDGE('',*,*,#236,.F.);
#297=ORIENTED_EDGE('',*,*,#237,.F.);
#298=ORIENTED_EDGE('',*,*,#238,.T.);
#299=ORIENTED_EDGE('',*,*,#239,.F.);
#300=ORIENTED_EDGE('',*,*,#238,.F.);
#301=ORIENTED_EDGE('',*,*,#240,.F.);
#302=ORIENTED_EDGE('',*,*,#241,.T.);
#303=ORIENTED_EDGE('',*,*,#242,.F.);
#304=ORIENTED_EDGE('',*,*,#241,.F.);
#305=ORIENTED_EDGE('',*,*,#243,.F.);
#306=ORIENTED_EDGE('',*,*,#244,.T.);
#307=ORIENTED_EDGE('',*,*,#245,.F.);
#308=ORIENTED_EDGE('',*,*,#244,.F.);
#309=ORIENTED_EDGE('',*,*,#246,.F.);
#310=ORIENTED_EDGE('',*,*,#236,.T.);
#311=ORIENTED_EDGE('',*,*,#247,.F.);
#312=ORIENTED_EDGE('',*,*,#248,.F.);
#313=ORIENTED_EDGE('',*,*,#249,.F.);
#314=ORIENTED_EDGE('',*,*,#250,.F.);
#315=ORIENTED_EDGE('',*,*,#243,.T.);
#316=ORIENTED_EDGE('',*,*,#240,.T.);
#317=ORIENTED_EDGE('',*,*,#237,.T.);
#318=ORIENTED_EDGE('',*,*,#246,.T.);
#319=ORIENTED_EDGE('',*,*,#247,.T.);
#320=ORIENTED_EDGE('',*,*,#251,.T.);
#321=ORIENTED_EDGE('',*,*,#252,.T.);
#322=ORIENTED_EDGE('',*,*,#253,.T.);
#323=ORIENTED_EDGE('',*,*,#250,.T.);
#324=ORIENTED_EDGE('',*,*,#254,.F.);
#325=ORIENTED_EDGE('',*,*,#255,.T.);
#326=ORIENTED_EDGE('',*,*,#251,.F.);
#327=ORIENTED_EDGE('',*,*,#256,.T.);
#328=ORIENTED_EDGE('',*,*,#257,.T.);
#329=ORIENTED_EDGE('',*,*,#258,.T.);
#330=ORIENTED_EDGE('',*,*,#259,.T.);
#331=ORIENTED_EDGE('',*,*,#242,.T.);
#332=ORIENTED_EDGE('',*,*,#245,.T.);
#333=ORIENTED_EDGE('',*,*,#235,.T.);
#334=ORIENTED_EDGE('',*,*,#239,.T.);
#335=ORIENTED_EDGE('',*,*,#260,.F.);
#336=ORIENTED_EDGE('',*,*,#261,.T.);
#337=ORIENTED_EDGE('',*,*,#262,.T.);
#338=ORIENTED_EDGE('',*,*,#263,.F.);
#339=ORIENTED_EDGE('',*,*,#264,.F.);
#340=ORIENTED_EDGE('',*,*,#265,.T.);
#341=ORIENTED_EDGE('',*,*,#266,.T.);
#342=ORIENTED_EDGE('',*,*,#261,.F.);
#343=ORIENTED_EDGE('',*,*,#267,.F.);
#344=ORIENTED_EDGE('',*,*,#268,.T.);
#345=ORIENTED_EDGE('',*,*,#269,.T.);
#346=ORIENTED_EDGE('',*,*,#265,.F.);
#347=ORIENTED_EDGE('',*,*,#270,.F.);
#348=ORIENTED_EDGE('',*,*,#263,.T.);
#349=ORIENTED_EDGE('',*,*,#271,.T.);
#350=ORIENTED_EDGE('',*,*,#268,.F.);
#351=ORIENTED_EDGE('',*,*,#271,.F.);
#352=ORIENTED_EDGE('',*,*,#262,.F.);
#353=ORIENTED_EDGE('',*,*,#266,.F.);
#354=ORIENTED_EDGE('',*,*,#269,.F.);
#355=ORIENTED_EDGE('',*,*,#272,.F.);
#356=ORIENTED_EDGE('',*,*,#273,.T.);
#357=ORIENTED_EDGE('',*,*,#274,.T.);
#358=ORIENTED_EDGE('',*,*,#275,.F.);
#359=ORIENTED_EDGE('',*,*,#276,.F.);
#360=ORIENTED_EDGE('',*,*,#277,.T.);
#361=ORIENTED_EDGE('',*,*,#278,.T.);
#362=ORIENTED_EDGE('',*,*,#273,.F.);
#363=ORIENTED_EDGE('',*,*,#279,.F.);
#364=ORIENTED_EDGE('',*,*,#280,.T.);
#365=ORIENTED_EDGE('',*,*,#281,.T.);
#366=ORIENTED_EDGE('',*,*,#277,.F.);
#367=ORIENTED_EDGE('',*,*,#282,.F.);
#368=ORIENTED_EDGE('',*,*,#275,.T.);
#369=ORIENTED_EDGE('',*,*,#283,.T.);
#370=ORIENTED_EDGE('',*,*,#280,.F.);
#371=ORIENTED_EDGE('',*,*,#283,.F.);
#372=ORIENTED_EDGE('',*,*,#274,.F.);
#373=ORIENTED_EDGE('',*,*,#278,.F.);
#374=ORIENTED_EDGE('',*,*,#281,.F.);
#375=ORIENTED_EDGE('',*,*,#284,.T.);
#376=ORIENTED_EDGE('',*,*,#285,.F.);
#377=ORIENTED_EDGE('',*,*,#259,.F.);
#378=ORIENTED_EDGE('',*,*,#286,.F.);
#379=ORIENTED_EDGE('',*,*,#287,.T.);
#380=ORIENTED_EDGE('',*,*,#288,.T.);
#381=ORIENTED_EDGE('',*,*,#256,.F.);
#382=ORIENTED_EDGE('',*,*,#285,.T.);
#383=ORIENTED_EDGE('',*,*,#248,.T.);
#384=ORIENTED_EDGE('',*,*,#253,.F.);
#385=ORIENTED_EDGE('',*,*,#289,.T.);
#386=ORIENTED_EDGE('',*,*,#290,.T.);
#387=ORIENTED_EDGE('',*,*,#249,.T.);
#388=ORIENTED_EDGE('',*,*,#290,.F.);
#389=ORIENTED_EDGE('',*,*,#291,.T.);
#390=ORIENTED_EDGE('',*,*,#254,.T.);
#391=ORIENTED_EDGE('',*,*,#292,.T.);
#392=ORIENTED_EDGE('',*,*,#293,.T.);
#393=ORIENTED_EDGE('',*,*,#257,.F.);
#394=ORIENTED_EDGE('',*,*,#288,.F.);
#395=ORIENTED_EDGE('',*,*,#294,.T.);
#396=ORIENTED_EDGE('',*,*,#286,.T.);
#397=ORIENTED_EDGE('',*,*,#258,.F.);
#398=ORIENTED_EDGE('',*,*,#293,.F.);
#399=ORIENTED_EDGE('',*,*,#292,.F.);
#400=ORIENTED_EDGE('',*,*,#287,.F.);
#401=ORIENTED_EDGE('',*,*,#284,.F.);
#402=ORIENTED_EDGE('',*,*,#294,.F.);
#403=ORIENTED_EDGE('',*,*,#260,.T.);
#404=ORIENTED_EDGE('',*,*,#270,.T.);
#405=ORIENTED_EDGE('',*,*,#267,.T.);
#406=ORIENTED_EDGE('',*,*,#264,.T.);
#407=ORIENTED_EDGE('',*,*,#272,.T.);
#408=ORIENTED_EDGE('',*,*,#282,.T.);
#409=ORIENTED_EDGE('',*,*,#279,.T.);
#410=ORIENTED_EDGE('',*,*,#276,.T.);
#411=ORIENTED_EDGE('',*,*,#289,.F.);
#412=ORIENTED_EDGE('',*,*,#252,.F.);
#413=ORIENTED_EDGE('',*,*,#255,.F.);
#414=ORIENTED_EDGE('',*,*,#291,.F.);
#415=PLANE('',#479);
#416=PLANE('',#480);
#417=PLANE('',#481);
#418=PLANE('',#482);
#419=PLANE('',#483);
#420=PLANE('',#484);
#421=PLANE('',#485);
#422=PLANE('',#486);
#423=PLANE('',#487);
#424=PLANE('',#488);
#425=PLANE('',#489);
#426=PLANE('',#490);
#427=PLANE('',#491);
#428=PLANE('',#492);
#429=PLANE('',#493);
#430=PLANE('',#494);
#431=PLANE('',#495);
#432=PLANE('',#496);
#433=PLANE('',#497);
#434=PLANE('',#498);
#435=PLANE('',#499);
#436=PLANE('',#500);
#437=PLANE('',#501);
#438=PLANE('',#502);
#439=PLANE('',#503);
#440=ADVANCED_FACE('',(#20),#415,.F.);
#441=ADVANCED_FACE('',(#21),#416,.F.);
#442=ADVANCED_FACE('',(#22),#417,.F.);
#443=ADVANCED_FACE('',(#23),#418,.F.);
#444=ADVANCED_FACE('',(#24,#15),#419,.T.);
#445=ADVANCED_FACE('',(#25),#420,.T.);
#446=ADVANCED_FACE('',(#26),#421,.T.);
#447=ADVANCED_FACE('',(#27,#16),#422,.T.);
#448=ADVANCED_FACE('',(#28),#423,.F.);
#449=ADVANCED_FACE('',(#29),#424,.F.);
#450=ADVANCED_FACE('',(#30),#425,.F.);
#451=ADVANCED_FACE('',(#31),#426,.F.);
#452=ADVANCED_FACE('',(#32),#427,.F.);
#453=ADVANCED_FACE('',(#33),#428,.F.);
#454=ADVANCED_FACE('',(#34),#429,.F.);
#455=ADVANCED_FACE('',(#35),#430,.F.);
#456=ADVANCED_FACE('',(#36),#431,.F.);
#457=ADVANCED_FACE('',(#37),#432,.F.);
#458=ADVANCED_FACE('',(#38),#433,.T.);
#459=ADVANCED_FACE('',(#39),#434,.T.);
#460=ADVANCED_FACE('',(#40),#435,.T.);
#461=ADVANCED_FACE('',(#41),#436,.T.);
#462=ADVANCED_FACE('',(#42),#437,.T.);
#463=ADVANCED_FACE('',(#43),#438,.T.);
#464=ADVANCED_FACE('',(#44,#17,#18,#19),#439,.T.);
#465=CLOSED_SHELL('',(#440,#441,#442,#443,#444,#445,#446,#447,#448,#449,
#450,#451,#452,#453,#454,#455,#456,#457,#458,#459,#460,#461,#462,#463,#464));
#466=DERIVED_UNIT_ELEMENT(#468,1.);
#467=DERIVED_UNIT_ELEMENT(#747,-3.);
#468=(
MASS_UNIT()
NAMED_UNIT(*)
SI_UNIT(.KILO.,.GRAM.)
);
#469=DERIVED_UNIT((#466,#467));
#470=MEASURE_REPRESENTATION_ITEM('density measure',
POSITIVE_RATIO_MEASURE(7850.),#469);
#471=PROPERTY_DEFINITION_REPRESENTATION(#476,#473);
#472=PROPERTY_DEFINITION_REPRESENTATION(#477,#474);
#473=REPRESENTATION('material name',(#475),#744);
#474=REPRESENTATION('density',(#470),#744);
#475=DESCRIPTIVE_REPRESENTATION_ITEM('Steel','Steel');
#476=PROPERTY_DEFINITION('material property','material name',#754);
#477=PROPERTY_DEFINITION('material property','density of part',#754);
#478=AXIS2_PLACEMENT_3D('',#616,#504,#505);
#479=AXIS2_PLACEMENT_3D('',#617,#506,#507);
#480=AXIS2_PLACEMENT_3D('',#626,#512,#513);
#481=AXIS2_PLACEMENT_3D('',#632,#517,#518);
#482=AXIS2_PLACEMENT_3D('',#638,#522,#523);
#483=AXIS2_PLACEMENT_3D('',#641,#526,#527);
#484=AXIS2_PLACEMENT_3D('',#650,#532,#533);
#485=AXIS2_PLACEMENT_3D('',#656,#537,#538);
#486=AXIS2_PLACEMENT_3D('',#660,#541,#542);
#487=AXIS2_PLACEMENT_3D('',#669,#547,#548);
#488=AXIS2_PLACEMENT_3D('',#678,#553,#554);
#489=AXIS2_PLACEMENT_3D('',#684,#558,#559);
#490=AXIS2_PLACEMENT_3D('',#690,#563,#564);
#491=AXIS2_PLACEMENT_3D('',#693,#567,#568);
#492=AXIS2_PLACEMENT_3D('',#694,#569,#570);
#493=AXIS2_PLACEMENT_3D('',#703,#575,#576);
#494=AXIS2_PLACEMENT_3D('',#709,#580,#581);
#495=AXIS2_PLACEMENT_3D('',#715,#585,#586);
#496=AXIS2_PLACEMENT_3D('',#718,#589,#590);
#497=AXIS2_PLACEMENT_3D('',#719,#591,#592);
#498=AXIS2_PLACEMENT_3D('',#725,#596,#597);
#499=AXIS2_PLACEMENT_3D('',#729,#600,#601);
#500=AXIS2_PLACEMENT_3D('',#733,#604,#605);
#501=AXIS2_PLACEMENT_3D('',#735,#607,#608);
#502=AXIS2_PLACEMENT_3D('',#739,#611,#612);
#503=AXIS2_PLACEMENT_3D('',#741,#614,#615);
#504=DIRECTION('axis',(0.,0.,1.));
#505=DIRECTION('refdir',(1.,0.,0.));
#506=DIRECTION('center_axis',(-1.,0.,0.));
#507=DIRECTION('ref_axis',(0.,1.,0.));
#508=DIRECTION('',(0.,-1.,1.22464679914735E-16));
#509=DIRECTION('',(0.,0.,-1.));
#510=DIRECTION('',(0.,1.,-1.22464679914735E-16));
#511=DIRECTION('',(0.,0.,-1.));
#512=DIRECTION('center_axis',(0.,-1.,0.));
#513=DIRECTION('ref_axis',(-1.,0.,0.));
#514=DIRECTION('',(1.,0.,0.));
#515=DIRECTION('',(-1.,0.,0.));
#516=DIRECTION('',(0.,0.,-1.));
#517=DIRECTION('center_axis',(1.,6.53072367426562E-17,0.));
#518=DIRECTION('ref_axis',(6.53072367426562E-17,-1.,0.));
#519=DIRECTION('',(-6.53072367426562E-17,1.,-1.22464679914735E-16));
#520=DIRECTION('',(6.53072367426562E-17,-1.,1.22464679914735E-16));
#521=DIRECTION('',(0.,0.,-1.));
#522=DIRECTION('center_axis',(0.,1.,0.));
#523=DIRECTION('ref_axis',(1.,0.,0.));
#524=DIRECTION('',(-1.,0.,0.));
#525=DIRECTION('',(1.,0.,0.));
#526=DIRECTION('center_axis',(0.,1.22464679914735E-16,1.));
#527=DIRECTION('ref_axis',(1.,0.,0.));
#528=DIRECTION('',(0.,1.,-1.22464679914735E-16));
#529=DIRECTION('',(-1.,0.,0.));
#530=DIRECTION('',(5.16382802151235E-17,-1.,1.22464679914735E-16));
#531=DIRECTION('',(1.,0.,0.));
#532=DIRECTION('center_axis',(1.,0.,0.));
#533=DIRECTION('ref_axis',(0.,1.,-1.22464679914735E-16));
#534=DIRECTION('',(0.,1.22464679914735E-16,1.));
#535=DIRECTION('',(0.,-1.,1.22464679914735E-16));
#536=DIRECTION('',(0.,-1.22464679914735E-16,-1.));
#537=DIRECTION('center_axis',(0.,-1.,1.22464679914735E-16));
#538=DIRECTION('ref_axis',(1.,0.,0.));
#539=DIRECTION('',(0.,-1.22464679914735E-16,-1.));
#540=DIRECTION('',(-1.,0.,0.));
#541=DIRECTION('center_axis',(0.,-1.22464679914735E-16,-1.));
#542=DIRECTION('ref_axis',(1.,0.,0.));
#543=DIRECTION('',(0.,1.,-1.22464679914735E-16));
#544=DIRECTION('',(1.,0.,0.));
#545=DIRECTION('',(0.,-1.,1.22464679914735E-16));
#546=DIRECTION('',(-1.,0.,0.));
#547=DIRECTION('center_axis',(-1.,0.,0.));
#548=DIRECTION('ref_axis',(0.,1.,-1.22464679914735E-16));
#549=DIRECTION('',(0.,1.,-1.22464679914735E-16));
#550=DIRECTION('',(0.,-1.22464679914735E-16,-1.));
#551=DIRECTION('',(0.,1.,-1.22464679914735E-16));
#552=DIRECTION('',(0.,-1.22464679914735E-16,-1.));
#553=DIRECTION('center_axis',(0.,-1.,1.22464679914735E-16));
#554=DIRECTION('ref_axis',(-1.,0.,0.));
#555=DIRECTION('',(-1.,0.,0.));
#556=DIRECTION('',(0.,-1.22464679914735E-16,-1.));
#557=DIRECTION('',(-1.,0.,0.));
#558=DIRECTION('center_axis',(1.,0.,0.));
#559=DIRECTION('ref_axis',(0.,-1.,1.22464679914735E-16));
#560=DIRECTION('',(0.,-1.,1.22464679914735E-16));
#561=DIRECTION('',(0.,-1.22464679914735E-16,-1.));
#562=DIRECTION('',(0.,-1.,1.22464679914735E-16));
#563=DIRECTION('center_axis',(0.,1.,-1.22464679914735E-16));
#564=DIRECTION('ref_axis',(1.,0.,0.));
#565=DIRECTION('',(1.,0.,0.));
#566=DIRECTION('',(1.,0.,0.));
#567=DIRECTION('center_axis',(0.,-1.22464679914735E-16,-1.));
#568=DIRECTION('ref_axis',(1.,0.,0.));
#569=DIRECTION('center_axis',(0.,1.,-1.22464679914735E-16));
#570=DIRECTION('ref_axis',(1.,0.,0.));
#571=DIRECTION('',(1.,0.,0.));
#572=DIRECTION('',(0.,-1.22464679914735E-16,-1.));
#573=DIRECTION('',(1.,0.,0.));
#574=DIRECTION('',(0.,-1.22464679914735E-16,-1.));
#575=DIRECTION('center_axis',(-1.,0.,0.));
#576=DIRECTION('ref_axis',(0.,1.,-1.22464679914735E-16));
#577=DIRECTION('',(0.,1.,-1.22464679914735E-16));
#578=DIRECTION('',(0.,-1.22464679914735E-16,-1.));
#579=DIRECTION('',(0.,1.,-1.22464679914735E-16));
#580=DIRECTION('center_axis',(0.,-1.,1.22464679914735E-16));
#581=DIRECTION('ref_axis',(-1.,0.,0.));
#582=DIRECTION('',(-1.,0.,0.));
#583=DIRECTION('',(0.,-1.22464679914735E-16,-1.));
#584=DIRECTION('',(-1.,0.,0.));
#585=DIRECTION('center_axis',(1.,0.,0.));
#586=DIRECTION('ref_axis',(0.,-1.,1.22464679914735E-16));
#587=DIRECTION('',(0.,-1.,1.22464679914735E-16));
#588=DIRECTION('',(0.,-1.,1.22464679914735E-16));
#589=DIRECTION('center_axis',(0.,-1.22464679914735E-16,-1.));
#590=DIRECTION('ref_axis',(1.,0.,0.));
#591=DIRECTION('center_axis',(0.,-1.,1.22464679914735E-16));
#592=DIRECTION('ref_axis',(1.,0.,0.));
#593=DIRECTION('',(-1.,0.,0.));
#594=DIRECTION('',(0.,1.22464679914735E-16,1.));
#595=DIRECTION('',(0.,-1.22464679914735E-16,-1.));
#596=DIRECTION('center_axis',(-1.,0.,0.));
#597=DIRECTION('ref_axis',(0.,-1.,1.22464679914735E-16));
#598=DIRECTION('',(0.,1.,-1.22464679914735E-16));
#599=DIRECTION('',(0.,-1.22464679914735E-16,-1.));
#600=DIRECTION('center_axis',(0.,1.,-1.22464679914735E-16));
#601=DIRECTION('ref_axis',(-1.,0.,0.));
#602=DIRECTION('',(1.,0.,0.));
#603=DIRECTION('',(0.,-1.22464679914735E-16,-1.));
#604=DIRECTION('center_axis',(-1.,-5.16382802151235E-17,6.32386545789251E-33));
#605=DIRECTION('ref_axis',(5.16382802151235E-17,-1.,1.22464679914735E-16));
#606=DIRECTION('',(-5.16382802151235E-17,1.,-1.22464679914735E-16));
#607=DIRECTION('center_axis',(0.,1.,-1.22464679914735E-16));
#608=DIRECTION('ref_axis',(-1.,0.,0.));
#609=DIRECTION('',(1.,0.,0.));
#610=DIRECTION('',(0.,-1.22464679914735E-16,-1.));
#611=DIRECTION('center_axis',(1.,0.,0.));
#612=DIRECTION('ref_axis',(0.,1.,-1.22464679914735E-16));
#613=DIRECTION('',(0.,-1.,1.22464679914735E-16));
#614=DIRECTION('center_axis',(0.,1.22464679914735E-16,1.));
#615=DIRECTION('ref_axis',(-1.,0.,0.));
#616=CARTESIAN_POINT('',(0.,0.,0.));
#617=CARTESIAN_POINT('Origin',(-137.78683007366,215.13916992634,-159.));
#618=CARTESIAN_POINT('',(-137.78683007366,283.13916992634,-168.));
#619=CARTESIAN_POINT('',(-137.78683007366,215.13916992634,-168.));
#620=CARTESIAN_POINT('',(-137.78683007366,232.13916992634,-168.));
#621=CARTESIAN_POINT('',(-137.78683007366,283.13916992634,-159.));
#622=CARTESIAN_POINT('',(-137.78683007366,283.13916992634,-159.));
#623=CARTESIAN_POINT('',(-137.78683007366,215.13916992634,-159.));
#624=CARTESIAN_POINT('',(-137.78683007366,232.13916992634,-159.));
#625=CARTESIAN_POINT('',(-137.78683007366,215.13916992634,-159.));
#626=CARTESIAN_POINT('Origin',(-23.7868300736601,215.13916992634,-159.));
#627=CARTESIAN_POINT('',(-23.7868300736601,215.13916992634,-168.));
#628=CARTESIAN_POINT('',(-52.2868300736601,215.13916992634,-168.));
#629=CARTESIAN_POINT('',(-23.7868300736601,215.13916992634,-159.));
#630=CARTESIAN_POINT('',(-52.2868300736601,215.13916992634,-159.));
#631=CARTESIAN_POINT('',(-23.7868300736601,215.13916992634,-159.));
#632=CARTESIAN_POINT('Origin',(-23.7868300736601,283.13916992634,-159.));
#633=CARTESIAN_POINT('',(-23.7868300736601,283.13916992634,-168.));
#634=CARTESIAN_POINT('',(-23.7868300736601,266.13916992634,-168.));
#635=CARTESIAN_POINT('',(-23.7868300736601,283.13916992634,-159.));
#636=CARTESIAN_POINT('',(-23.7868300736601,266.13916992634,-159.));
#637=CARTESIAN_POINT('',(-23.7868300736601,283.13916992634,-159.));
#638=CARTESIAN_POINT('Origin',(-137.78683007366,283.13916992634,-159.));
#639=CARTESIAN_POINT('',(-109.28683007366,283.13916992634,-168.));
#640=CARTESIAN_POINT('',(-109.28683007366,283.13916992634,-159.));
#641=CARTESIAN_POINT('Origin',(-80.7868300736601,249.13916992634,-159.));
#642=CARTESIAN_POINT('',(-146.78683007366,206.13916992634,-159.));
#643=CARTESIAN_POINT('',(-146.78683007366,292.13916992634,-159.));
#644=CARTESIAN_POINT('',(-146.78683007366,227.63916992634,-159.));
#645=CARTESIAN_POINT('',(-14.7868300736601,206.13916992634,-159.));
#646=CARTESIAN_POINT('',(-47.7868300736601,206.13916992634,-159.));
#647=CARTESIAN_POINT('',(-14.7868300736601,292.13916992634,-159.));
#648=CARTESIAN_POINT('',(-14.7868300736601,270.63916992634,-159.));
#649=CARTESIAN_POINT('',(-113.78683007366,292.13916992634,-159.));
#650=CARTESIAN_POINT('Origin',(-146.78683007366,206.13916992634,-166.));
#651=CARTESIAN_POINT('',(-146.78683007366,292.13916992634,-156.));
#652=CARTESIAN_POINT('',(-146.78683007366,292.13916992634,-166.));
#653=CARTESIAN_POINT('',(-146.78683007366,206.13916992634,-156.));
#654=CARTESIAN_POINT('',(-146.78683007366,227.63916992634,-156.));
#655=CARTESIAN_POINT('',(-146.78683007366,206.13916992634,-166.));
#656=CARTESIAN_POINT('Origin',(-146.78683007366,292.13916992634,-166.));
#657=CARTESIAN_POINT('',(-14.7868300736601,292.13916992634,-156.));
#658=CARTESIAN_POINT('',(-14.7868300736601,292.13916992634,-166.));
#659=CARTESIAN_POINT('',(-113.78683007366,292.13916992634,-156.));
#660=CARTESIAN_POINT('Origin',(-80.7868300736601,249.13916992634,-168.));
#661=CARTESIAN_POINT('',(-155.78683007366,197.13916992634,-168.));
#662=CARTESIAN_POINT('',(-155.78683007366,301.13916992634,-168.));
#663=CARTESIAN_POINT('',(-155.78683007366,197.13916992634,-168.));
#664=CARTESIAN_POINT('',(-5.78683007366013,301.13916992634,-168.));
#665=CARTESIAN_POINT('',(-155.78683007366,301.13916992634,-168.));
#666=CARTESIAN_POINT('',(-5.78683007366013,197.13916992634,-168.));
#667=CARTESIAN_POINT('',(-5.78683007366013,301.13916992634,-168.));
#668=CARTESIAN_POINT('',(-5.78683007366013,197.13916992634,-168.));
#669=CARTESIAN_POINT('Origin',(-154.28683007366,245.13916992634,-156.));
#670=CARTESIAN_POINT('',(-154.28683007366,245.13916992634,-156.));
#671=CARTESIAN_POINT('',(-154.28683007366,253.13916992634,-156.));
#672=CARTESIAN_POINT('',(-154.28683007366,247.13916992634,-156.));
#673=CARTESIAN_POINT('',(-154.28683007366,245.13916992634,-162.));
#674=CARTESIAN_POINT('',(-154.28683007366,245.13916992634,-156.));
#675=CARTESIAN_POINT('',(-154.28683007366,253.13916992634,-162.));
#676=CARTESIAN_POINT('',(-154.28683007366,245.13916992634,-162.));
#677=CARTESIAN_POINT('',(-154.28683007366,253.13916992634,-156.));
#678=CARTESIAN_POINT('Origin',(-148.28683007366,245.13916992634,-156.));
#679=CARTESIAN_POINT('',(-148.28683007366,245.13916992634,-156.));
#680=CARTESIAN_POINT('',(-114.53683007366,245.13916992634,-156.));
#681=CARTESIAN_POINT('',(-148.28683007366,245.13916992634,-162.));
#682=CARTESIAN_POINT('',(-148.28683007366,245.13916992634,-156.));
#683=CARTESIAN_POINT('',(-148.28683007366,245.13916992634,-162.));
#684=CARTESIAN_POINT('Origin',(-148.28683007366,253.13916992634,-156.));
#685=CARTESIAN_POINT('',(-148.28683007366,253.13916992634,-156.));
#686=CARTESIAN_POINT('',(-148.28683007366,251.13916992634,-156.));
#687=CARTESIAN_POINT('',(-148.28683007366,253.13916992634,-162.));
#688=CARTESIAN_POINT('',(-148.28683007366,253.13916992634,-156.));
#689=CARTESIAN_POINT('',(-148.28683007366,253.13916992634,-162.));
#690=CARTESIAN_POINT('Origin',(-154.28683007366,253.13916992634,-156.));
#691=CARTESIAN_POINT('',(-117.53683007366,253.13916992634,-156.));
#692=CARTESIAN_POINT('',(-154.28683007366,253.13916992634,-162.));
#693=CARTESIAN_POINT('Origin',(-151.28683007366,249.13916992634,-162.));
#694=CARTESIAN_POINT('Origin',(-13.2868300736601,253.13916992634,-156.));
#695=CARTESIAN_POINT('',(-13.2868300736601,253.13916992634,-156.));
#696=CARTESIAN_POINT('',(-7.28683007366012,253.13916992634,-156.));
#697=CARTESIAN_POINT('',(-47.0368300736601,253.13916992634,-156.));
#698=CARTESIAN_POINT('',(-13.2868300736601,253.13916992634,-162.));
#699=CARTESIAN_POINT('',(-13.2868300736601,253.13916992634,-156.));
#700=CARTESIAN_POINT('',(-7.28683007366012,253.13916992634,-162.));
#701=CARTESIAN_POINT('',(-7.28683007366012,253.13916992634,-162.));
#702=CARTESIAN_POINT('',(-7.28683007366012,253.13916992634,-156.));
#703=CARTESIAN_POINT('Origin',(-13.2868300736601,245.13916992634,-156.));
#704=CARTESIAN_POINT('',(-13.2868300736601,245.13916992634,-156.));
#705=CARTESIAN_POINT('',(-13.2868300736601,247.13916992634,-156.));
#706=CARTESIAN_POINT('',(-13.2868300736601,245.13916992634,-162.));
#707=CARTESIAN_POINT('',(-13.2868300736601,245.13916992634,-156.));
#708=CARTESIAN_POINT('',(-13.2868300736601,253.13916992634,-162.));
#709=CARTESIAN_POINT('Origin',(-7.28683007366012,245.13916992634,-156.));
#710=CARTESIAN_POINT('',(-7.28683007366012,245.13916992634,-156.));
#711=CARTESIAN_POINT('',(-44.0368300736601,245.13916992634,-156.));
#712=CARTESIAN_POINT('',(-7.28683007366012,245.13916992634,-162.));
#713=CARTESIAN_POINT('',(-7.28683007366012,245.13916992634,-156.));
#714=CARTESIAN_POINT('',(-13.2868300736601,245.13916992634,-162.));
#715=CARTESIAN_POINT('Origin',(-7.28683007366012,253.13916992634,-156.));
#716=CARTESIAN_POINT('',(-7.28683007366012,251.13916992634,-156.));
#717=CARTESIAN_POINT('',(-7.28683007366012,245.13916992634,-162.));
#718=CARTESIAN_POINT('Origin',(-10.2868300736601,249.13916992634,-162.));
#719=CARTESIAN_POINT('Origin',(-155.78683007366,197.13916992634,-166.));
#720=CARTESIAN_POINT('',(-5.78683007366013,197.13916992634,-156.));
#721=CARTESIAN_POINT('',(-155.78683007366,197.13916992634,-156.));
#722=CARTESIAN_POINT('',(-118.28683007366,197.13916992634,-156.));
#723=CARTESIAN_POINT('',(-155.78683007366,197.13916992634,-166.));
#724=CARTESIAN_POINT('',(-5.78683007366013,197.13916992634,-166.));
#725=CARTESIAN_POINT('Origin',(-155.78683007366,301.13916992634,-166.));
#726=CARTESIAN_POINT('',(-155.78683007366,301.13916992634,-156.));
#727=CARTESIAN_POINT('',(-155.78683007366,275.13916992634,-156.));
#728=CARTESIAN_POINT('',(-155.78683007366,301.13916992634,-166.));
#729=CARTESIAN_POINT('Origin',(-14.7868300736601,206.13916992634,-166.));
#730=CARTESIAN_POINT('',(-14.7868300736601,206.13916992634,-156.));
#731=CARTESIAN_POINT('',(-47.7868300736601,206.13916992634,-156.));
#732=CARTESIAN_POINT('',(-14.7868300736601,206.13916992634,-166.));
#733=CARTESIAN_POINT('Origin',(-14.7868300736601,292.13916992634,-166.));
#734=CARTESIAN_POINT('',(-14.7868300736601,270.63916992634,-156.));
#735=CARTESIAN_POINT('Origin',(-5.78683007366013,301.13916992634,-166.));
#736=CARTESIAN_POINT('',(-5.78683007366013,301.13916992634,-156.));
#737=CARTESIAN_POINT('',(-43.2868300736601,301.13916992634,-156.));
#738=CARTESIAN_POINT('',(-5.78683007366013,301.13916992634,-166.));
#739=CARTESIAN_POINT('Origin',(-5.78683007366013,197.13916992634,-166.));
#740=CARTESIAN_POINT('',(-5.78683007366013,223.13916992634,-156.));
#741=CARTESIAN_POINT('Origin',(-80.7868300736601,249.13916992634,-156.));
#742=UNCERTAINTY_MEASURE_WITH_UNIT(LENGTH_MEASURE(0.01),#746,
'DISTANCE_ACCURACY_VALUE',
'Maximum model space distance between geometric entities at asserted c
onnectivities');
#743=UNCERTAINTY_MEASURE_WITH_UNIT(LENGTH_MEASURE(0.01),#746,
'DISTANCE_ACCURACY_VALUE',
'Maximum model space distance between geometric entities at asserted c
onnectivities');
#744=(
GEOMETRIC_REPRESENTATION_CONTEXT(3)
GLOBAL_UNCERTAINTY_ASSIGNED_CONTEXT((#742))
GLOBAL_UNIT_ASSIGNED_CONTEXT((#746,#748,#749))
REPRESENTATION_CONTEXT('','3D')
);
#745=(
GEOMETRIC_REPRESENTATION_CONTEXT(3)
GLOBAL_UNCERTAINTY_ASSIGNED_CONTEXT((#743))
GLOBAL_UNIT_ASSIGNED_CONTEXT((#746,#748,#749))
REPRESENTATION_CONTEXT('','3D')
);
#746=(
LENGTH_UNIT()
NAMED_UNIT(*)
SI_UNIT(.MILLI.,.METRE.)
);
#747=(
LENGTH_UNIT()
NAMED_UNIT(*)
SI_UNIT($,.METRE.)
);
#748=(
NAMED_UNIT(*)
PLANE_ANGLE_UNIT()
SI_UNIT($,.RADIAN.)
);
#749=(
NAMED_UNIT(*)
SI_UNIT($,.STERADIAN.)
SOLID_ANGLE_UNIT()
);
#750=SHAPE_DEFINITION_REPRESENTATION(#751,#752);
#751=PRODUCT_DEFINITION_SHAPE('',$,#754);
#752=SHAPE_REPRESENTATION('',(#478),#744);
#753=PRODUCT_DEFINITION_CONTEXT('part definition',#758,'design');
#754=PRODUCT_DEFINITION('2026-09-10-11-18-25-064','CaseS_Bottom',#755,#753);
#755=PRODUCT_DEFINITION_FORMATION('',$,#760);
#756=PRODUCT_RELATED_PRODUCT_CATEGORY('CaseS_Bottom','CaseS_Bottom',(#760));
#757=APPLICATION_PROTOCOL_DEFINITION('international standard',
'automotive_design',2009,#758);
#758=APPLICATION_CONTEXT(
'Core Data for Automotive Mechanical Design Process');
#759=PRODUCT_CONTEXT('part definition',#758,'mechanical');
#760=PRODUCT('2026-09-10-11-18-25-064','CaseS_Bottom',$,(#759));
#761=PRESENTATION_STYLE_ASSIGNMENT((#763));
#762=PRESENTATION_STYLE_ASSIGNMENT((#764));
#763=SURFACE_STYLE_USAGE(.BOTH.,#765);
#764=SURFACE_STYLE_USAGE(.BOTH.,#766);
#765=SURFACE_SIDE_STYLE('',(#767));
#766=SURFACE_SIDE_STYLE('',(#768));
#767=SURFACE_STYLE_FILL_AREA(#769);
#768=SURFACE_STYLE_FILL_AREA(#770);
#769=FILL_AREA_STYLE('Steel - Satin',(#771));
#770=FILL_AREA_STYLE('ABS (White)',(#772));
#771=FILL_AREA_STYLE_COLOUR('Steel - Satin',#773);
#772=FILL_AREA_STYLE_COLOUR('ABS (White)',#774);
#773=COLOUR_RGB('Steel - Satin',0.627450980392157,0.627450980392157,0.627450980392157);
#774=COLOUR_RGB('ABS (White)',0.964705882352941,0.964705882352941,0.952941176470588);
ENDSEC;
END-ISO-10303-21;
