ISO-10303-21;
HEADER;
/* Generated by software containing ST-Developer
 * from STEP Tools, Inc. (www.steptools.com) 
 */

FILE_DESCRIPTION(
/* description */ (''),
/* implementation_level */ '2;1');

FILE_NAME(
/* name */ 'CaseL_top.step',
/* time_stamp */ '2026-09-10T11:18:18-06:00',
/* author */ (''),
/* organization */ (''),
/* preprocessor_version */ 'ST-DEVELOPER v20.2',
/* originating_system */ 'Autodesk Translation Framework v15.15.0.0',
/* authorisation */ '');

FILE_SCHEMA (('AUTOMOTIVE_DESIGN { 1 0 10303 214 3 1 1 }'));
ENDSEC;

DATA;
#10=MECHANICAL_DESIGN_GEOMETRIC_PRESENTATION_REPRESENTATION('',(#13),#877);
#11=SHAPE_REPRESENTATION_RELATIONSHIP('SRR','None',#884,#12);
#12=ADVANCED_BREP_SHAPE_REPRESENTATION('',(#14),#876);
#13=STYLED_ITEM('',(#894),#14);
#14=MANIFOLD_SOLID_BREP('CaseL_top',#549);
#15=FACE_BOUND('',#68,.T.);
#16=FACE_BOUND('',#69,.T.);
#17=FACE_BOUND('',#70,.T.);
#18=FACE_BOUND('',#78,.T.);
#19=FACE_BOUND('',#82,.T.);
#20=FACE_OUTER_BOUND('',#49,.T.);
#21=FACE_OUTER_BOUND('',#50,.T.);
#22=FACE_OUTER_BOUND('',#51,.T.);
#23=FACE_OUTER_BOUND('',#52,.T.);
#24=FACE_OUTER_BOUND('',#53,.T.);
#25=FACE_OUTER_BOUND('',#54,.T.);
#26=FACE_OUTER_BOUND('',#55,.T.);
#27=FACE_OUTER_BOUND('',#56,.T.);
#28=FACE_OUTER_BOUND('',#57,.T.);
#29=FACE_OUTER_BOUND('',#58,.T.);
#30=FACE_OUTER_BOUND('',#59,.T.);
#31=FACE_OUTER_BOUND('',#60,.T.);
#32=FACE_OUTER_BOUND('',#61,.T.);
#33=FACE_OUTER_BOUND('',#62,.T.);
#34=FACE_OUTER_BOUND('',#63,.T.);
#35=FACE_OUTER_BOUND('',#64,.T.);
#36=FACE_OUTER_BOUND('',#65,.T.);
#37=FACE_OUTER_BOUND('',#66,.T.);
#38=FACE_OUTER_BOUND('',#67,.T.);
#39=FACE_OUTER_BOUND('',#71,.T.);
#40=FACE_OUTER_BOUND('',#72,.T.);
#41=FACE_OUTER_BOUND('',#73,.T.);
#42=FACE_OUTER_BOUND('',#74,.T.);
#43=FACE_OUTER_BOUND('',#75,.T.);
#44=FACE_OUTER_BOUND('',#76,.T.);
#45=FACE_OUTER_BOUND('',#77,.T.);
#46=FACE_OUTER_BOUND('',#79,.T.);
#47=FACE_OUTER_BOUND('',#80,.T.);
#48=FACE_OUTER_BOUND('',#81,.T.);
#49=EDGE_LOOP('',(#347,#348,#349,#350));
#50=EDGE_LOOP('',(#351,#352,#353,#354));
#51=EDGE_LOOP('',(#355,#356,#357,#358));
#52=EDGE_LOOP('',(#359,#360,#361,#362));
#53=EDGE_LOOP('',(#363,#364,#365,#366));
#54=EDGE_LOOP('',(#367,#368,#369,#370));
#55=EDGE_LOOP('',(#371,#372,#373,#374));
#56=EDGE_LOOP('',(#375,#376,#377,#378));
#57=EDGE_LOOP('',(#379,#380,#381,#382));
#58=EDGE_LOOP('',(#383,#384,#385,#386));
#59=EDGE_LOOP('',(#387,#388,#389,#390));
#60=EDGE_LOOP('',(#391,#392,#393,#394));
#61=EDGE_LOOP('',(#395,#396,#397,#398));
#62=EDGE_LOOP('',(#399,#400,#401,#402));
#63=EDGE_LOOP('',(#403,#404,#405,#406));
#64=EDGE_LOOP('',(#407,#408,#409,#410));
#65=EDGE_LOOP('',(#411,#412,#413,#414));
#66=EDGE_LOOP('',(#415,#416,#417,#418));
#67=EDGE_LOOP('',(#419,#420,#421,#422));
#68=EDGE_LOOP('',(#423,#424,#425,#426));
#69=EDGE_LOOP('',(#427,#428,#429,#430));
#70=EDGE_LOOP('',(#431,#432,#433,#434));
#71=EDGE_LOOP('',(#435,#436,#437,#438));
#72=EDGE_LOOP('',(#439,#440,#441,#442));
#73=EDGE_LOOP('',(#443,#444,#445,#446,#447,#448,#449,#450));
#74=EDGE_LOOP('',(#451,#452,#453,#454));
#75=EDGE_LOOP('',(#455,#456,#457,#458));
#76=EDGE_LOOP('',(#459,#460,#461,#462));
#77=EDGE_LOOP('',(#463,#464,#465,#466));
#78=EDGE_LOOP('',(#467,#468,#469,#470));
#79=EDGE_LOOP('',(#471,#472,#473,#474));
#80=EDGE_LOOP('',(#475,#476,#477,#478));
#81=EDGE_LOOP('',(#479,#480,#481,#482,#483,#484,#485,#486));
#82=EDGE_LOOP('',(#487,#488,#489,#490));
#83=LINE('',#728,#155);
#84=LINE('',#730,#156);
#85=LINE('',#732,#157);
#86=LINE('',#733,#158);
#87=LINE('',#736,#159);
#88=LINE('',#738,#160);
#89=LINE('',#739,#161);
#90=LINE('',#742,#162);
#91=LINE('',#744,#163);
#92=LINE('',#745,#164);
#93=LINE('',#747,#165);
#94=LINE('',#751,#166);
#95=LINE('',#753,#167);
#96=LINE('',#755,#168);
#97=LINE('',#756,#169);
#98=LINE('',#759,#170);
#99=LINE('',#761,#171);
#100=LINE('',#762,#172);
#101=LINE('',#765,#173);
#102=LINE('',#767,#174);
#103=LINE('',#768,#175);
#104=LINE('',#770,#176);
#105=LINE('',#771,#177);
#106=LINE('',#775,#178);
#107=LINE('',#777,#179);
#108=LINE('',#779,#180);
#109=LINE('',#780,#181);
#110=LINE('',#783,#182);
#111=LINE('',#785,#183);
#112=LINE('',#786,#184);
#113=LINE('',#789,#185);
#114=LINE('',#791,#186);
#115=LINE('',#792,#187);
#116=LINE('',#794,#188);
#117=LINE('',#795,#189);
#118=LINE('',#800,#190);
#119=LINE('',#802,#191);
#120=LINE('',#804,#192);
#121=LINE('',#805,#193);
#122=LINE('',#808,#194);
#123=LINE('',#810,#195);
#124=LINE('',#811,#196);
#125=LINE('',#814,#197);
#126=LINE('',#816,#198);
#127=LINE('',#817,#199);
#128=LINE('',#819,#200);
#129=LINE('',#820,#201);
#130=LINE('',#825,#202);
#131=LINE('',#827,#203);
#132=LINE('',#829,#204);
#133=LINE('',#830,#205);
#134=LINE('',#833,#206);
#135=LINE('',#835,#207);
#136=LINE('',#837,#208);
#137=LINE('',#838,#209);
#138=LINE('',#841,#210);
#139=LINE('',#843,#211);
#140=LINE('',#844,#212);
#141=LINE('',#847,#213);
#142=LINE('',#848,#214);
#143=LINE('',#851,#215);
#144=LINE('',#852,#216);
#145=LINE('',#854,#217);
#146=LINE('',#855,#218);
#147=LINE('',#858,#219);
#148=LINE('',#859,#220);
#149=LINE('',#862,#221);
#150=LINE('',#863,#222);
#151=LINE('',#865,#223);
#152=LINE('',#869,#224);
#153=LINE('',#870,#225);
#154=LINE('',#872,#226);
#155=VECTOR('',#596,10.);
#156=VECTOR('',#597,10.);
#157=VECTOR('',#598,10.);
#158=VECTOR('',#599,10.);
#159=VECTOR('',#602,10.);
#160=VECTOR('',#603,10.);
#161=VECTOR('',#604,10.);
#162=VECTOR('',#607,10.);
#163=VECTOR('',#608,10.);
#164=VECTOR('',#609,10.);
#165=VECTOR('',#612,10.);
#166=VECTOR('',#615,10.);
#167=VECTOR('',#616,10.);
#168=VECTOR('',#617,10.);
#169=VECTOR('',#618,10.);
#170=VECTOR('',#621,10.);
#171=VECTOR('',#622,10.);
#172=VECTOR('',#623,10.);
#173=VECTOR('',#626,10.);
#174=VECTOR('',#627,10.);
#175=VECTOR('',#628,10.);
#176=VECTOR('',#631,10.);
#177=VECTOR('',#632,10.);
#178=VECTOR('',#635,10.);
#179=VECTOR('',#636,10.);
#180=VECTOR('',#637,10.);
#181=VECTOR('',#638,10.);
#182=VECTOR('',#641,10.);
#183=VECTOR('',#642,10.);
#184=VECTOR('',#643,10.);
#185=VECTOR('',#646,10.);
#186=VECTOR('',#647,10.);
#187=VECTOR('',#648,10.);
#188=VECTOR('',#651,10.);
#189=VECTOR('',#652,10.);
#190=VECTOR('',#657,10.);
#191=VECTOR('',#658,10.);
#192=VECTOR('',#659,10.);
#193=VECTOR('',#660,10.);
#194=VECTOR('',#663,10.);
#195=VECTOR('',#664,10.);
#196=VECTOR('',#665,10.);
#197=VECTOR('',#668,10.);
#198=VECTOR('',#669,10.);
#199=VECTOR('',#670,10.);
#200=VECTOR('',#673,10.);
#201=VECTOR('',#674,10.);
#202=VECTOR('',#679,10.);
#203=VECTOR('',#680,10.);
#204=VECTOR('',#681,10.);
#205=VECTOR('',#682,10.);
#206=VECTOR('',#683,10.);
#207=VECTOR('',#684,10.);
#208=VECTOR('',#685,10.);
#209=VECTOR('',#686,10.);
#210=VECTOR('',#689,10.);
#211=VECTOR('',#690,10.);
#212=VECTOR('',#691,10.);
#213=VECTOR('',#694,10.);
#214=VECTOR('',#695,10.);
#215=VECTOR('',#698,10.);
#216=VECTOR('',#699,10.);
#217=VECTOR('',#700,10.);
#218=VECTOR('',#701,10.);
#219=VECTOR('',#704,10.);
#220=VECTOR('',#705,10.);
#221=VECTOR('',#708,10.);
#222=VECTOR('',#709,10.);
#223=VECTOR('',#712,10.);
#224=VECTOR('',#717,10.);
#225=VECTOR('',#718,10.);
#226=VECTOR('',#721,10.);
#227=VERTEX_POINT('',#726);
#228=VERTEX_POINT('',#727);
#229=VERTEX_POINT('',#729);
#230=VERTEX_POINT('',#731);
#231=VERTEX_POINT('',#735);
#232=VERTEX_POINT('',#737);
#233=VERTEX_POINT('',#741);
#234=VERTEX_POINT('',#743);
#235=VERTEX_POINT('',#749);
#236=VERTEX_POINT('',#750);
#237=VERTEX_POINT('',#752);
#238=VERTEX_POINT('',#754);
#239=VERTEX_POINT('',#758);
#240=VERTEX_POINT('',#760);
#241=VERTEX_POINT('',#764);
#242=VERTEX_POINT('',#766);
#243=VERTEX_POINT('',#773);
#244=VERTEX_POINT('',#774);
#245=VERTEX_POINT('',#776);
#246=VERTEX_POINT('',#778);
#247=VERTEX_POINT('',#782);
#248=VERTEX_POINT('',#784);
#249=VERTEX_POINT('',#788);
#250=VERTEX_POINT('',#790);
#251=VERTEX_POINT('',#798);
#252=VERTEX_POINT('',#799);
#253=VERTEX_POINT('',#801);
#254=VERTEX_POINT('',#803);
#255=VERTEX_POINT('',#807);
#256=VERTEX_POINT('',#809);
#257=VERTEX_POINT('',#813);
#258=VERTEX_POINT('',#815);
#259=VERTEX_POINT('',#823);
#260=VERTEX_POINT('',#824);
#261=VERTEX_POINT('',#826);
#262=VERTEX_POINT('',#828);
#263=VERTEX_POINT('',#831);
#264=VERTEX_POINT('',#832);
#265=VERTEX_POINT('',#834);
#266=VERTEX_POINT('',#836);
#267=VERTEX_POINT('',#840);
#268=VERTEX_POINT('',#842);
#269=VERTEX_POINT('',#846);
#270=VERTEX_POINT('',#850);
#271=VERTEX_POINT('',#853);
#272=VERTEX_POINT('',#857);
#273=VERTEX_POINT('',#861);
#274=VERTEX_POINT('',#868);
#275=EDGE_CURVE('',#227,#228,#83,.T.);
#276=EDGE_CURVE('',#227,#229,#84,.T.);
#277=EDGE_CURVE('',#230,#229,#85,.T.);
#278=EDGE_CURVE('',#228,#230,#86,.T.);
#279=EDGE_CURVE('',#228,#231,#87,.T.);
#280=EDGE_CURVE('',#232,#230,#88,.T.);
#281=EDGE_CURVE('',#231,#232,#89,.T.);
#282=EDGE_CURVE('',#231,#233,#90,.T.);
#283=EDGE_CURVE('',#234,#232,#91,.T.);
#284=EDGE_CURVE('',#233,#234,#92,.T.);
#285=EDGE_CURVE('',#229,#234,#93,.T.);
#286=EDGE_CURVE('',#235,#236,#94,.T.);
#287=EDGE_CURVE('',#237,#235,#95,.T.);
#288=EDGE_CURVE('',#238,#237,#96,.T.);
#289=EDGE_CURVE('',#238,#236,#97,.T.);
#290=EDGE_CURVE('',#236,#239,#98,.T.);
#291=EDGE_CURVE('',#240,#238,#99,.T.);
#292=EDGE_CURVE('',#240,#239,#100,.T.);
#293=EDGE_CURVE('',#239,#241,#101,.T.);
#294=EDGE_CURVE('',#242,#240,#102,.T.);
#295=EDGE_CURVE('',#242,#241,#103,.T.);
#296=EDGE_CURVE('',#241,#235,#104,.T.);
#297=EDGE_CURVE('',#237,#242,#105,.T.);
#298=EDGE_CURVE('',#243,#244,#106,.T.);
#299=EDGE_CURVE('',#243,#245,#107,.T.);
#300=EDGE_CURVE('',#245,#246,#108,.T.);
#301=EDGE_CURVE('',#244,#246,#109,.T.);
#302=EDGE_CURVE('',#247,#243,#110,.T.);
#303=EDGE_CURVE('',#247,#248,#111,.T.);
#304=EDGE_CURVE('',#248,#245,#112,.T.);
#305=EDGE_CURVE('',#249,#247,#113,.T.);
#306=EDGE_CURVE('',#249,#250,#114,.T.);
#307=EDGE_CURVE('',#250,#248,#115,.T.);
#308=EDGE_CURVE('',#244,#249,#116,.T.);
#309=EDGE_CURVE('',#246,#250,#117,.T.);
#310=EDGE_CURVE('',#251,#252,#118,.T.);
#311=EDGE_CURVE('',#251,#253,#119,.T.);
#312=EDGE_CURVE('',#253,#254,#120,.T.);
#313=EDGE_CURVE('',#252,#254,#121,.T.);
#314=EDGE_CURVE('',#255,#251,#122,.T.);
#315=EDGE_CURVE('',#255,#256,#123,.T.);
#316=EDGE_CURVE('',#256,#253,#124,.T.);
#317=EDGE_CURVE('',#257,#255,#125,.T.);
#318=EDGE_CURVE('',#257,#258,#126,.T.);
#319=EDGE_CURVE('',#258,#256,#127,.T.);
#320=EDGE_CURVE('',#252,#257,#128,.T.);
#321=EDGE_CURVE('',#254,#258,#129,.T.);
#322=EDGE_CURVE('',#259,#260,#130,.T.);
#323=EDGE_CURVE('',#261,#259,#131,.T.);
#324=EDGE_CURVE('',#262,#261,#132,.T.);
#325=EDGE_CURVE('',#260,#262,#133,.T.);
#326=EDGE_CURVE('',#263,#264,#134,.T.);
#327=EDGE_CURVE('',#265,#263,#135,.T.);
#328=EDGE_CURVE('',#266,#265,#136,.T.);
#329=EDGE_CURVE('',#264,#266,#137,.T.);
#330=EDGE_CURVE('',#267,#265,#138,.T.);
#331=EDGE_CURVE('',#267,#268,#139,.T.);
#332=EDGE_CURVE('',#268,#266,#140,.T.);
#333=EDGE_CURVE('',#269,#263,#141,.T.);
#334=EDGE_CURVE('',#269,#267,#142,.T.);
#335=EDGE_CURVE('',#270,#261,#143,.T.);
#336=EDGE_CURVE('',#233,#270,#144,.T.);
#337=EDGE_CURVE('',#271,#227,#145,.T.);
#338=EDGE_CURVE('',#271,#262,#146,.T.);
#339=EDGE_CURVE('',#272,#259,#147,.T.);
#340=EDGE_CURVE('',#270,#272,#148,.T.);
#341=EDGE_CURVE('',#273,#264,#149,.T.);
#342=EDGE_CURVE('',#273,#269,#150,.T.);
#343=EDGE_CURVE('',#268,#273,#151,.T.);
#344=EDGE_CURVE('',#274,#260,#152,.T.);
#345=EDGE_CURVE('',#272,#274,#153,.T.);
#346=EDGE_CURVE('',#274,#271,#154,.T.);
#347=ORIENTED_EDGE('',*,*,#275,.F.);
#348=ORIENTED_EDGE('',*,*,#276,.T.);
#349=ORIENTED_EDGE('',*,*,#277,.F.);
#350=ORIENTED_EDGE('',*,*,#278,.F.);
#351=ORIENTED_EDGE('',*,*,#279,.F.);
#352=ORIENTED_EDGE('',*,*,#278,.T.);
#353=ORIENTED_EDGE('',*,*,#280,.F.);
#354=ORIENTED_EDGE('',*,*,#281,.F.);
#355=ORIENTED_EDGE('',*,*,#282,.F.);
#356=ORIENTED_EDGE('',*,*,#281,.T.);
#357=ORIENTED_EDGE('',*,*,#283,.F.);
#358=ORIENTED_EDGE('',*,*,#284,.F.);
#359=ORIENTED_EDGE('',*,*,#285,.T.);
#360=ORIENTED_EDGE('',*,*,#283,.T.);
#361=ORIENTED_EDGE('',*,*,#280,.T.);
#362=ORIENTED_EDGE('',*,*,#277,.T.);
#363=ORIENTED_EDGE('',*,*,#286,.F.);
#364=ORIENTED_EDGE('',*,*,#287,.F.);
#365=ORIENTED_EDGE('',*,*,#288,.F.);
#366=ORIENTED_EDGE('',*,*,#289,.T.);
#367=ORIENTED_EDGE('',*,*,#290,.F.);
#368=ORIENTED_EDGE('',*,*,#289,.F.);
#369=ORIENTED_EDGE('',*,*,#291,.F.);
#370=ORIENTED_EDGE('',*,*,#292,.T.);
#371=ORIENTED_EDGE('',*,*,#293,.F.);
#372=ORIENTED_EDGE('',*,*,#292,.F.);
#373=ORIENTED_EDGE('',*,*,#294,.F.);
#374=ORIENTED_EDGE('',*,*,#295,.T.);
#375=ORIENTED_EDGE('',*,*,#296,.F.);
#376=ORIENTED_EDGE('',*,*,#295,.F.);
#377=ORIENTED_EDGE('',*,*,#297,.F.);
#378=ORIENTED_EDGE('',*,*,#287,.T.);
#379=ORIENTED_EDGE('',*,*,#298,.F.);
#380=ORIENTED_EDGE('',*,*,#299,.T.);
#381=ORIENTED_EDGE('',*,*,#300,.T.);
#382=ORIENTED_EDGE('',*,*,#301,.F.);
#383=ORIENTED_EDGE('',*,*,#302,.F.);
#384=ORIENTED_EDGE('',*,*,#303,.T.);
#385=ORIENTED_EDGE('',*,*,#304,.T.);
#386=ORIENTED_EDGE('',*,*,#299,.F.);
#387=ORIENTED_EDGE('',*,*,#305,.F.);
#388=ORIENTED_EDGE('',*,*,#306,.T.);
#389=ORIENTED_EDGE('',*,*,#307,.T.);
#390=ORIENTED_EDGE('',*,*,#303,.F.);
#391=ORIENTED_EDGE('',*,*,#308,.F.);
#392=ORIENTED_EDGE('',*,*,#301,.T.);
#393=ORIENTED_EDGE('',*,*,#309,.T.);
#394=ORIENTED_EDGE('',*,*,#306,.F.);
#395=ORIENTED_EDGE('',*,*,#309,.F.);
#396=ORIENTED_EDGE('',*,*,#300,.F.);
#397=ORIENTED_EDGE('',*,*,#304,.F.);
#398=ORIENTED_EDGE('',*,*,#307,.F.);
#399=ORIENTED_EDGE('',*,*,#310,.F.);
#400=ORIENTED_EDGE('',*,*,#311,.T.);
#401=ORIENTED_EDGE('',*,*,#312,.T.);
#402=ORIENTED_EDGE('',*,*,#313,.F.);
#403=ORIENTED_EDGE('',*,*,#314,.F.);
#404=ORIENTED_EDGE('',*,*,#315,.T.);
#405=ORIENTED_EDGE('',*,*,#316,.T.);
#406=ORIENTED_EDGE('',*,*,#311,.F.);
#407=ORIENTED_EDGE('',*,*,#317,.F.);
#408=ORIENTED_EDGE('',*,*,#318,.T.);
#409=ORIENTED_EDGE('',*,*,#319,.T.);
#410=ORIENTED_EDGE('',*,*,#315,.F.);
#411=ORIENTED_EDGE('',*,*,#320,.F.);
#412=ORIENTED_EDGE('',*,*,#313,.T.);
#413=ORIENTED_EDGE('',*,*,#321,.T.);
#414=ORIENTED_EDGE('',*,*,#318,.F.);
#415=ORIENTED_EDGE('',*,*,#321,.F.);
#416=ORIENTED_EDGE('',*,*,#312,.F.);
#417=ORIENTED_EDGE('',*,*,#316,.F.);
#418=ORIENTED_EDGE('',*,*,#319,.F.);
#419=ORIENTED_EDGE('',*,*,#322,.F.);
#420=ORIENTED_EDGE('',*,*,#323,.F.);
#421=ORIENTED_EDGE('',*,*,#324,.F.);
#422=ORIENTED_EDGE('',*,*,#325,.F.);
#423=ORIENTED_EDGE('',*,*,#298,.T.);
#424=ORIENTED_EDGE('',*,*,#308,.T.);
#425=ORIENTED_EDGE('',*,*,#305,.T.);
#426=ORIENTED_EDGE('',*,*,#302,.T.);
#427=ORIENTED_EDGE('',*,*,#310,.T.);
#428=ORIENTED_EDGE('',*,*,#320,.T.);
#429=ORIENTED_EDGE('',*,*,#317,.T.);
#430=ORIENTED_EDGE('',*,*,#314,.T.);
#431=ORIENTED_EDGE('',*,*,#326,.F.);
#432=ORIENTED_EDGE('',*,*,#327,.F.);
#433=ORIENTED_EDGE('',*,*,#328,.F.);
#434=ORIENTED_EDGE('',*,*,#329,.F.);
#435=ORIENTED_EDGE('',*,*,#328,.T.);
#436=ORIENTED_EDGE('',*,*,#330,.F.);
#437=ORIENTED_EDGE('',*,*,#331,.T.);
#438=ORIENTED_EDGE('',*,*,#332,.T.);
#439=ORIENTED_EDGE('',*,*,#327,.T.);
#440=ORIENTED_EDGE('',*,*,#333,.F.);
#441=ORIENTED_EDGE('',*,*,#334,.T.);
#442=ORIENTED_EDGE('',*,*,#330,.T.);
#443=ORIENTED_EDGE('',*,*,#324,.T.);
#444=ORIENTED_EDGE('',*,*,#335,.F.);
#445=ORIENTED_EDGE('',*,*,#336,.F.);
#446=ORIENTED_EDGE('',*,*,#284,.T.);
#447=ORIENTED_EDGE('',*,*,#285,.F.);
#448=ORIENTED_EDGE('',*,*,#276,.F.);
#449=ORIENTED_EDGE('',*,*,#337,.F.);
#450=ORIENTED_EDGE('',*,*,#338,.T.);
#451=ORIENTED_EDGE('',*,*,#323,.T.);
#452=ORIENTED_EDGE('',*,*,#339,.F.);
#453=ORIENTED_EDGE('',*,*,#340,.F.);
#454=ORIENTED_EDGE('',*,*,#335,.T.);
#455=ORIENTED_EDGE('',*,*,#326,.T.);
#456=ORIENTED_EDGE('',*,*,#341,.F.);
#457=ORIENTED_EDGE('',*,*,#342,.T.);
#458=ORIENTED_EDGE('',*,*,#333,.T.);
#459=ORIENTED_EDGE('',*,*,#329,.T.);
#460=ORIENTED_EDGE('',*,*,#332,.F.);
#461=ORIENTED_EDGE('',*,*,#343,.T.);
#462=ORIENTED_EDGE('',*,*,#341,.T.);
#463=ORIENTED_EDGE('',*,*,#343,.F.);
#464=ORIENTED_EDGE('',*,*,#331,.F.);
#465=ORIENTED_EDGE('',*,*,#334,.F.);
#466=ORIENTED_EDGE('',*,*,#342,.F.);
#467=ORIENTED_EDGE('',*,*,#286,.T.);
#468=ORIENTED_EDGE('',*,*,#290,.T.);
#469=ORIENTED_EDGE('',*,*,#293,.T.);
#470=ORIENTED_EDGE('',*,*,#296,.T.);
#471=ORIENTED_EDGE('',*,*,#322,.T.);
#472=ORIENTED_EDGE('',*,*,#344,.F.);
#473=ORIENTED_EDGE('',*,*,#345,.F.);
#474=ORIENTED_EDGE('',*,*,#339,.T.);
#475=ORIENTED_EDGE('',*,*,#325,.T.);
#476=ORIENTED_EDGE('',*,*,#338,.F.);
#477=ORIENTED_EDGE('',*,*,#346,.F.);
#478=ORIENTED_EDGE('',*,*,#344,.T.);
#479=ORIENTED_EDGE('',*,*,#282,.T.);
#480=ORIENTED_EDGE('',*,*,#336,.T.);
#481=ORIENTED_EDGE('',*,*,#340,.T.);
#482=ORIENTED_EDGE('',*,*,#345,.T.);
#483=ORIENTED_EDGE('',*,*,#346,.T.);
#484=ORIENTED_EDGE('',*,*,#337,.T.);
#485=ORIENTED_EDGE('',*,*,#275,.T.);
#486=ORIENTED_EDGE('',*,*,#279,.T.);
#487=ORIENTED_EDGE('',*,*,#288,.T.);
#488=ORIENTED_EDGE('',*,*,#297,.T.);
#489=ORIENTED_EDGE('',*,*,#294,.T.);
#490=ORIENTED_EDGE('',*,*,#291,.T.);
#491=PLANE('',#563);
#492=PLANE('',#564);
#493=PLANE('',#565);
#494=PLANE('',#566);
#495=PLANE('',#567);
#496=PLANE('',#568);
#497=PLANE('',#569);
#498=PLANE('',#570);
#499=PLANE('',#571);
#500=PLANE('',#572);
#501=PLANE('',#573);
#502=PLANE('',#574);
#503=PLANE('',#575);
#504=PLANE('',#576);
#505=PLANE('',#577);
#506=PLANE('',#578);
#507=PLANE('',#579);
#508=PLANE('',#580);
#509=PLANE('',#581);
#510=PLANE('',#582);
#511=PLANE('',#583);
#512=PLANE('',#584);
#513=PLANE('',#585);
#514=PLANE('',#586);
#515=PLANE('',#587);
#516=PLANE('',#588);
#517=PLANE('',#589);
#518=PLANE('',#590);
#519=PLANE('',#591);
#520=ADVANCED_FACE('',(#20),#491,.T.);
#521=ADVANCED_FACE('',(#21),#492,.T.);
#522=ADVANCED_FACE('',(#22),#493,.T.);
#523=ADVANCED_FACE('',(#23),#494,.T.);
#524=ADVANCED_FACE('',(#24),#495,.F.);
#525=ADVANCED_FACE('',(#25),#496,.F.);
#526=ADVANCED_FACE('',(#26),#497,.F.);
#527=ADVANCED_FACE('',(#27),#498,.F.);
#528=ADVANCED_FACE('',(#28),#499,.F.);
#529=ADVANCED_FACE('',(#29),#500,.F.);
#530=ADVANCED_FACE('',(#30),#501,.F.);
#531=ADVANCED_FACE('',(#31),#502,.F.);
#532=ADVANCED_FACE('',(#32),#503,.F.);
#533=ADVANCED_FACE('',(#33),#504,.F.);
#534=ADVANCED_FACE('',(#34),#505,.F.);
#535=ADVANCED_FACE('',(#35),#506,.F.);
#536=ADVANCED_FACE('',(#36),#507,.F.);
#537=ADVANCED_FACE('',(#37),#508,.F.);
#538=ADVANCED_FACE('',(#38,#15,#16,#17),#509,.F.);
#539=ADVANCED_FACE('',(#39),#510,.T.);
#540=ADVANCED_FACE('',(#40),#511,.T.);
#541=ADVANCED_FACE('',(#41),#512,.T.);
#542=ADVANCED_FACE('',(#42),#513,.T.);
#543=ADVANCED_FACE('',(#43),#514,.T.);
#544=ADVANCED_FACE('',(#44),#515,.T.);
#545=ADVANCED_FACE('',(#45,#18),#516,.T.);
#546=ADVANCED_FACE('',(#46),#517,.T.);
#547=ADVANCED_FACE('',(#47),#518,.T.);
#548=ADVANCED_FACE('',(#48,#19),#519,.F.);
#549=CLOSED_SHELL('',(#520,#521,#522,#523,#524,#525,#526,#527,#528,#529,
#530,#531,#532,#533,#534,#535,#536,#537,#538,#539,#540,#541,#542,#543,#544,
#545,#546,#547,#548));
#550=DERIVED_UNIT_ELEMENT(#552,1.);
#551=DERIVED_UNIT_ELEMENT(#879,-3.);
#552=(
MASS_UNIT()
NAMED_UNIT(*)
SI_UNIT(.KILO.,.GRAM.)
);
#553=DERIVED_UNIT((#550,#551));
#554=MEASURE_REPRESENTATION_ITEM('density measure',
POSITIVE_RATIO_MEASURE(7850.),#553);
#555=PROPERTY_DEFINITION_REPRESENTATION(#560,#557);
#556=PROPERTY_DEFINITION_REPRESENTATION(#561,#558);
#557=REPRESENTATION('material name',(#559),#876);
#558=REPRESENTATION('density',(#554),#876);
#559=DESCRIPTIVE_REPRESENTATION_ITEM('Steel','Steel');
#560=PROPERTY_DEFINITION('material property','material name',#886);
#561=PROPERTY_DEFINITION('material property','density of part',#886);
#562=AXIS2_PLACEMENT_3D('',#724,#592,#593);
#563=AXIS2_PLACEMENT_3D('',#725,#594,#595);
#564=AXIS2_PLACEMENT_3D('',#734,#600,#601);
#565=AXIS2_PLACEMENT_3D('',#740,#605,#606);
#566=AXIS2_PLACEMENT_3D('',#746,#610,#611);
#567=AXIS2_PLACEMENT_3D('',#748,#613,#614);
#568=AXIS2_PLACEMENT_3D('',#757,#619,#620);
#569=AXIS2_PLACEMENT_3D('',#763,#624,#625);
#570=AXIS2_PLACEMENT_3D('',#769,#629,#630);
#571=AXIS2_PLACEMENT_3D('',#772,#633,#634);
#572=AXIS2_PLACEMENT_3D('',#781,#639,#640);
#573=AXIS2_PLACEMENT_3D('',#787,#644,#645);
#574=AXIS2_PLACEMENT_3D('',#793,#649,#650);
#575=AXIS2_PLACEMENT_3D('',#796,#653,#654);
#576=AXIS2_PLACEMENT_3D('',#797,#655,#656);
#577=AXIS2_PLACEMENT_3D('',#806,#661,#662);
#578=AXIS2_PLACEMENT_3D('',#812,#666,#667);
#579=AXIS2_PLACEMENT_3D('',#818,#671,#672);
#580=AXIS2_PLACEMENT_3D('',#821,#675,#676);
#581=AXIS2_PLACEMENT_3D('',#822,#677,#678);
#582=AXIS2_PLACEMENT_3D('',#839,#687,#688);
#583=AXIS2_PLACEMENT_3D('',#845,#692,#693);
#584=AXIS2_PLACEMENT_3D('',#849,#696,#697);
#585=AXIS2_PLACEMENT_3D('',#856,#702,#703);
#586=AXIS2_PLACEMENT_3D('',#860,#706,#707);
#587=AXIS2_PLACEMENT_3D('',#864,#710,#711);
#588=AXIS2_PLACEMENT_3D('',#866,#713,#714);
#589=AXIS2_PLACEMENT_3D('',#867,#715,#716);
#590=AXIS2_PLACEMENT_3D('',#871,#719,#720);
#591=AXIS2_PLACEMENT_3D('',#873,#722,#723);
#592=DIRECTION('axis',(0.,0.,1.));
#593=DIRECTION('refdir',(1.,0.,0.));
#594=DIRECTION('center_axis',(0.,1.,0.));
#595=DIRECTION('ref_axis',(1.,0.,0.));
#596=DIRECTION('',(-1.,0.,0.));
#597=DIRECTION('',(0.,0.,-1.));
#598=DIRECTION('',(1.,0.,0.));
#599=DIRECTION('',(0.,0.,-1.));
#600=DIRECTION('center_axis',(-1.,0.,0.));
#601=DIRECTION('ref_axis',(0.,1.,0.));
#602=DIRECTION('',(0.,-1.,1.22464679914735E-16));
#603=DIRECTION('',(0.,1.,0.));
#604=DIRECTION('',(0.,0.,-1.));
#605=DIRECTION('center_axis',(0.,-1.,0.));
#606=DIRECTION('ref_axis',(-1.,0.,0.));
#607=DIRECTION('',(1.,0.,0.));
#608=DIRECTION('',(-1.,0.,0.));
#609=DIRECTION('',(0.,0.,-1.));
#610=DIRECTION('center_axis',(0.,0.,-1.));
#611=DIRECTION('ref_axis',(-1.,0.,0.));
#612=DIRECTION('',(0.,-1.,0.));
#613=DIRECTION('center_axis',(-1.,0.,0.));
#614=DIRECTION('ref_axis',(0.,-1.,0.));
#615=DIRECTION('',(0.,1.,0.));
#616=DIRECTION('',(0.,0.,1.));
#617=DIRECTION('',(0.,-1.,1.22464679914735E-16));
#618=DIRECTION('',(0.,0.,1.));
#619=DIRECTION('center_axis',(0.,1.,0.));
#620=DIRECTION('ref_axis',(-1.,0.,0.));
#621=DIRECTION('',(1.,0.,0.));
#622=DIRECTION('',(-1.,0.,0.));
#623=DIRECTION('',(0.,0.,1.));
#624=DIRECTION('center_axis',(1.,0.,0.));
#625=DIRECTION('ref_axis',(0.,1.,0.));
#626=DIRECTION('',(0.,-1.,0.));
#627=DIRECTION('',(0.,1.,-1.22464679914735E-16));
#628=DIRECTION('',(0.,0.,1.));
#629=DIRECTION('center_axis',(0.,-1.,0.));
#630=DIRECTION('ref_axis',(1.,0.,0.));
#631=DIRECTION('',(-1.,0.,0.));
#632=DIRECTION('',(1.,0.,0.));
#633=DIRECTION('center_axis',(0.,-1.,0.));
#634=DIRECTION('ref_axis',(-1.,0.,0.));
#635=DIRECTION('',(-1.,0.,0.));
#636=DIRECTION('',(0.,0.,-1.));
#637=DIRECTION('',(-1.,0.,0.));
#638=DIRECTION('',(0.,0.,-1.));
#639=DIRECTION('center_axis',(1.,0.,0.));
#640=DIRECTION('ref_axis',(0.,-1.,0.));
#641=DIRECTION('',(0.,-1.,0.));
#642=DIRECTION('',(0.,0.,-1.));
#643=DIRECTION('',(0.,-1.,0.));
#644=DIRECTION('center_axis',(0.,1.,0.));
#645=DIRECTION('ref_axis',(1.,0.,0.));
#646=DIRECTION('',(1.,0.,0.));
#647=DIRECTION('',(0.,0.,-1.));
#648=DIRECTION('',(1.,0.,0.));
#649=DIRECTION('center_axis',(-1.,0.,0.));
#650=DIRECTION('ref_axis',(0.,1.,0.));
#651=DIRECTION('',(0.,1.,0.));
#652=DIRECTION('',(0.,1.,0.));
#653=DIRECTION('center_axis',(0.,0.,-1.));
#654=DIRECTION('ref_axis',(-1.,0.,0.));
#655=DIRECTION('center_axis',(0.,1.,0.));
#656=DIRECTION('ref_axis',(1.,0.,0.));
#657=DIRECTION('',(1.,0.,0.));
#658=DIRECTION('',(0.,0.,-1.));
#659=DIRECTION('',(1.,0.,0.));
#660=DIRECTION('',(0.,0.,-1.));
#661=DIRECTION('center_axis',(-1.,0.,0.));
#662=DIRECTION('ref_axis',(0.,1.,0.));
#663=DIRECTION('',(0.,1.,0.));
#664=DIRECTION('',(0.,0.,-1.));
#665=DIRECTION('',(0.,1.,0.));
#666=DIRECTION('center_axis',(0.,-1.,0.));
#667=DIRECTION('ref_axis',(-1.,0.,0.));
#668=DIRECTION('',(-1.,0.,0.));
#669=DIRECTION('',(0.,0.,-1.));
#670=DIRECTION('',(-1.,0.,0.));
#671=DIRECTION('center_axis',(1.,0.,0.));
#672=DIRECTION('ref_axis',(0.,-1.,0.));
#673=DIRECTION('',(0.,-1.,0.));
#674=DIRECTION('',(0.,-1.,0.));
#675=DIRECTION('center_axis',(0.,0.,-1.));
#676=DIRECTION('ref_axis',(-1.,0.,0.));
#677=DIRECTION('center_axis',(0.,0.,-1.));
#678=DIRECTION('ref_axis',(-1.,0.,0.));
#679=DIRECTION('',(0.,1.,0.));
#680=DIRECTION('',(-1.,0.,0.));
#681=DIRECTION('',(0.,-1.,0.));
#682=DIRECTION('',(1.,0.,0.));
#683=DIRECTION('',(-1.,0.,0.));
#684=DIRECTION('',(-3.88416218527752E-17,1.,0.));
#685=DIRECTION('',(1.,0.,0.));
#686=DIRECTION('',(0.,-1.,0.));
#687=DIRECTION('center_axis',(0.,1.,-1.22464679914735E-16));
#688=DIRECTION('ref_axis',(-1.,0.,0.));
#689=DIRECTION('',(0.,1.22464679914735E-16,1.));
#690=DIRECTION('',(-1.,0.,0.));
#691=DIRECTION('',(0.,1.22464679914735E-16,1.));
#692=DIRECTION('center_axis',(-1.,-3.88416218527752E-17,4.7567267875693E-33));
#693=DIRECTION('ref_axis',(3.88416218527752E-17,-1.,1.22464679914735E-16));
#694=DIRECTION('',(0.,1.22464679914735E-16,1.));
#695=DIRECTION('',(3.88416218527752E-17,-1.,0.));
#696=DIRECTION('center_axis',(1.,0.,0.));
#697=DIRECTION('ref_axis',(0.,1.,-1.22464679914735E-16));
#698=DIRECTION('',(0.,1.22464679914735E-16,1.));
#699=DIRECTION('',(0.,-1.,1.22464679914735E-16));
#700=DIRECTION('',(0.,-1.,1.22464679914735E-16));
#701=DIRECTION('',(0.,1.22464679914735E-16,1.));
#702=DIRECTION('center_axis',(0.,-1.,1.22464679914735E-16));
#703=DIRECTION('ref_axis',(1.,0.,0.));
#704=DIRECTION('',(0.,1.22464679914735E-16,1.));
#705=DIRECTION('',(-1.,0.,0.));
#706=DIRECTION('center_axis',(0.,-1.,1.22464679914735E-16));
#707=DIRECTION('ref_axis',(1.,0.,0.));
#708=DIRECTION('',(0.,1.22464679914735E-16,1.));
#709=DIRECTION('',(1.,0.,0.));
#710=DIRECTION('center_axis',(1.,0.,0.));
#711=DIRECTION('ref_axis',(0.,1.,-1.22464679914735E-16));
#712=DIRECTION('',(0.,1.,0.));
#713=DIRECTION('center_axis',(0.,0.,1.));
#714=DIRECTION('ref_axis',(4.92690621705954E-49,1.,0.));
#715=DIRECTION('center_axis',(-1.,0.,0.));
#716=DIRECTION('ref_axis',(0.,-1.,1.22464679914735E-16));
#717=DIRECTION('',(0.,1.22464679914735E-16,1.));
#718=DIRECTION('',(0.,1.,-1.22464679914735E-16));
#719=DIRECTION('center_axis',(0.,1.,-1.22464679914735E-16));
#720=DIRECTION('ref_axis',(-1.,0.,0.));
#721=DIRECTION('',(1.,0.,0.));
#722=DIRECTION('center_axis',(0.,1.22464679914735E-16,1.));
#723=DIRECTION('ref_axis',(1.,0.,0.));
#724=CARTESIAN_POINT('',(0.,0.,0.));
#725=CARTESIAN_POINT('Origin',(-0.786830073660134,269.63916992634,-122.));
#726=CARTESIAN_POINT('',(14.2131699263399,269.63916992634,-122.));
#727=CARTESIAN_POINT('',(-0.786830073660134,269.63916992634,-122.));
#728=CARTESIAN_POINT('',(-40.7868300736601,269.63916992634,-122.));
#729=CARTESIAN_POINT('',(14.2131699263399,269.63916992634,-142.));
#730=CARTESIAN_POINT('',(14.2131699263399,269.63916992634,-122.));
#731=CARTESIAN_POINT('',(-0.786830073660134,269.63916992634,-142.));
#732=CARTESIAN_POINT('',(-0.786830073660134,269.63916992634,-142.));
#733=CARTESIAN_POINT('',(-0.786830073660134,269.63916992634,-122.));
#734=CARTESIAN_POINT('Origin',(-0.786830073660134,228.63916992634,-122.));
#735=CARTESIAN_POINT('',(-0.786830073660134,228.63916992634,-122.));
#736=CARTESIAN_POINT('',(-0.786830073660134,238.88916992634,-122.));
#737=CARTESIAN_POINT('',(-0.786830073660134,228.63916992634,-142.));
#738=CARTESIAN_POINT('',(-0.786830073660134,228.63916992634,-142.));
#739=CARTESIAN_POINT('',(-0.786830073660134,228.63916992634,-122.));
#740=CARTESIAN_POINT('Origin',(14.2131699263399,228.63916992634,-122.));
#741=CARTESIAN_POINT('',(14.2131699263399,228.63916992634,-122.));
#742=CARTESIAN_POINT('',(-33.2868300736601,228.63916992634,-122.));
#743=CARTESIAN_POINT('',(14.2131699263399,228.63916992634,-142.));
#744=CARTESIAN_POINT('',(14.2131699263399,228.63916992634,-142.));
#745=CARTESIAN_POINT('',(14.2131699263399,228.63916992634,-122.));
#746=CARTESIAN_POINT('Origin',(6.71316992633987,249.13916992634,-142.));
#747=CARTESIAN_POINT('',(14.2131699263399,269.63916992634,-142.));
#748=CARTESIAN_POINT('Origin',(-145.78683007366,291.13916992634,-122.));
#749=CARTESIAN_POINT('',(-145.78683007366,207.13916992634,-117.));
#750=CARTESIAN_POINT('',(-145.78683007366,291.13916992634,-117.));
#751=CARTESIAN_POINT('',(-145.78683007366,227.26416992634,-117.));
#752=CARTESIAN_POINT('',(-145.78683007366,207.13916992634,-122.));
#753=CARTESIAN_POINT('',(-145.78683007366,207.13916992634,-122.));
#754=CARTESIAN_POINT('',(-145.78683007366,291.13916992634,-122.));
#755=CARTESIAN_POINT('',(-145.78683007366,270.13916992634,-122.));
#756=CARTESIAN_POINT('',(-145.78683007366,291.13916992634,-122.));
#757=CARTESIAN_POINT('Origin',(-15.7868300736601,291.13916992634,-122.));
#758=CARTESIAN_POINT('',(-15.7868300736601,291.13916992634,-117.));
#759=CARTESIAN_POINT('',(-5.41183007366014,291.13916992634,-117.));
#760=CARTESIAN_POINT('',(-15.7868300736601,291.13916992634,-122.));
#761=CARTESIAN_POINT('',(-48.2868300736601,291.13916992634,-122.));
#762=CARTESIAN_POINT('',(-15.7868300736601,291.13916992634,-122.));
#763=CARTESIAN_POINT('Origin',(-15.7868300736601,207.13916992634,-122.));
#764=CARTESIAN_POINT('',(-15.7868300736601,207.13916992634,-117.));
#765=CARTESIAN_POINT('',(-15.7868300736601,185.26416992634,-117.));
#766=CARTESIAN_POINT('',(-15.7868300736601,207.13916992634,-122.));
#767=CARTESIAN_POINT('',(-15.7868300736601,228.13916992634,-122.));
#768=CARTESIAN_POINT('',(-15.7868300736601,207.13916992634,-122.));
#769=CARTESIAN_POINT('Origin',(-145.78683007366,207.13916992634,-122.));
#770=CARTESIAN_POINT('',(-70.4118300736601,207.13916992634,-117.));
#771=CARTESIAN_POINT('',(-113.28683007366,207.13916992634,-122.));
#772=CARTESIAN_POINT('Origin',(-168.16183007366,245.13916992634,-112.));
#773=CARTESIAN_POINT('',(-168.16183007366,245.13916992634,-112.));
#774=CARTESIAN_POINT('',(-174.16183007366,245.13916992634,-112.));
#775=CARTESIAN_POINT('',(-124.47433007366,245.13916992634,-112.));
#776=CARTESIAN_POINT('',(-168.16183007366,245.13916992634,-118.));
#777=CARTESIAN_POINT('',(-168.16183007366,245.13916992634,-112.));
#778=CARTESIAN_POINT('',(-174.16183007366,245.13916992634,-118.));
#779=CARTESIAN_POINT('',(-174.16183007366,245.13916992634,-118.));
#780=CARTESIAN_POINT('',(-174.16183007366,245.13916992634,-112.));
#781=CARTESIAN_POINT('Origin',(-168.16183007366,253.13916992634,-112.));
#782=CARTESIAN_POINT('',(-168.16183007366,253.13916992634,-112.));
#783=CARTESIAN_POINT('',(-168.16183007366,251.13916992634,-112.));
#784=CARTESIAN_POINT('',(-168.16183007366,253.13916992634,-118.));
#785=CARTESIAN_POINT('',(-168.16183007366,253.13916992634,-112.));
#786=CARTESIAN_POINT('',(-168.16183007366,245.13916992634,-118.));
#787=CARTESIAN_POINT('Origin',(-174.16183007366,253.13916992634,-112.));
#788=CARTESIAN_POINT('',(-174.16183007366,253.13916992634,-112.));
#789=CARTESIAN_POINT('',(-127.47433007366,253.13916992634,-112.));
#790=CARTESIAN_POINT('',(-174.16183007366,253.13916992634,-118.));
#791=CARTESIAN_POINT('',(-174.16183007366,253.13916992634,-112.));
#792=CARTESIAN_POINT('',(-168.16183007366,253.13916992634,-118.));
#793=CARTESIAN_POINT('Origin',(-174.16183007366,245.13916992634,-112.));
#794=CARTESIAN_POINT('',(-174.16183007366,247.13916992634,-112.));
#795=CARTESIAN_POINT('',(-174.16183007366,253.13916992634,-118.));
#796=CARTESIAN_POINT('Origin',(-171.16183007366,249.13916992634,-118.));
#797=CARTESIAN_POINT('Origin',(6.58816992633987,253.13916992634,-112.));
#798=CARTESIAN_POINT('',(6.58816992633987,253.13916992634,-112.));
#799=CARTESIAN_POINT('',(12.5881699263399,253.13916992634,-112.));
#800=CARTESIAN_POINT('',(-37.0993300736601,253.13916992634,-112.));
#801=CARTESIAN_POINT('',(6.58816992633987,253.13916992634,-118.));
#802=CARTESIAN_POINT('',(6.58816992633987,253.13916992634,-112.));
#803=CARTESIAN_POINT('',(12.5881699263399,253.13916992634,-118.));
#804=CARTESIAN_POINT('',(6.58816992633987,253.13916992634,-118.));
#805=CARTESIAN_POINT('',(12.5881699263399,253.13916992634,-112.));
#806=CARTESIAN_POINT('Origin',(6.58816992633987,245.13916992634,-112.));
#807=CARTESIAN_POINT('',(6.58816992633987,245.13916992634,-112.));
#808=CARTESIAN_POINT('',(6.58816992633987,247.13916992634,-112.));
#809=CARTESIAN_POINT('',(6.58816992633987,245.13916992634,-118.));
#810=CARTESIAN_POINT('',(6.58816992633987,245.13916992634,-112.));
#811=CARTESIAN_POINT('',(6.58816992633987,245.13916992634,-118.));
#812=CARTESIAN_POINT('Origin',(12.5881699263399,245.13916992634,-112.));
#813=CARTESIAN_POINT('',(12.5881699263399,245.13916992634,-112.));
#814=CARTESIAN_POINT('',(-34.0993300736601,245.13916992634,-112.));
#815=CARTESIAN_POINT('',(12.5881699263399,245.13916992634,-118.));
#816=CARTESIAN_POINT('',(12.5881699263399,245.13916992634,-112.));
#817=CARTESIAN_POINT('',(12.5881699263399,245.13916992634,-118.));
#818=CARTESIAN_POINT('Origin',(12.5881699263399,253.13916992634,-112.));
#819=CARTESIAN_POINT('',(12.5881699263399,251.13916992634,-112.));
#820=CARTESIAN_POINT('',(12.5881699263399,253.13916992634,-118.));
#821=CARTESIAN_POINT('Origin',(9.58816992633988,249.13916992634,-118.));
#822=CARTESIAN_POINT('Origin',(-80.7868300736601,249.13916992634,-112.));
#823=CARTESIAN_POINT('',(-175.78683007366,154.13916992634,-112.));
#824=CARTESIAN_POINT('',(-175.78683007366,344.13916992634,-112.));
#825=CARTESIAN_POINT('',(-175.78683007366,296.63916992634,-112.));
#826=CARTESIAN_POINT('',(14.2131699263399,154.13916992634,-112.));
#827=CARTESIAN_POINT('',(-128.28683007366,154.13916992634,-112.));
#828=CARTESIAN_POINT('',(14.2131699263399,344.13916992634,-112.));
#829=CARTESIAN_POINT('',(14.2131699263399,201.63916992634,-112.));
#830=CARTESIAN_POINT('',(-33.2868300736601,344.13916992634,-112.));
#831=CARTESIAN_POINT('',(4.96316992633986,334.88916992634,-112.));
#832=CARTESIAN_POINT('',(-166.53683007366,334.88916992634,-112.));
#833=CARTESIAN_POINT('',(-123.66183007366,334.88916992634,-112.));
#834=CARTESIAN_POINT('',(4.96316992633987,163.38916992634,-112.));
#835=CARTESIAN_POINT('',(4.96316992633986,292.01416992634,-112.));
#836=CARTESIAN_POINT('',(-166.53683007366,163.38916992634,-112.));
#837=CARTESIAN_POINT('',(-37.9118300736601,163.38916992634,-112.));
#838=CARTESIAN_POINT('',(-166.53683007366,206.26416992634,-112.));
#839=CARTESIAN_POINT('Origin',(4.96316992633987,163.38916992634,-122.));
#840=CARTESIAN_POINT('',(4.96316992633986,163.38916992634,-117.));
#841=CARTESIAN_POINT('',(4.96316992633987,163.38916992634,-122.));
#842=CARTESIAN_POINT('',(-166.53683007366,163.38916992634,-117.));
#843=CARTESIAN_POINT('',(4.96316992633986,163.38916992634,-117.));
#844=CARTESIAN_POINT('',(-166.53683007366,163.38916992634,-122.));
#845=CARTESIAN_POINT('Origin',(4.96316992633986,334.88916992634,-122.));
#846=CARTESIAN_POINT('',(4.96316992633986,334.88916992634,-117.));
#847=CARTESIAN_POINT('',(4.96316992633986,334.88916992634,-122.));
#848=CARTESIAN_POINT('',(4.96316992633986,249.13916992634,-117.));
#849=CARTESIAN_POINT('Origin',(14.2131699263399,154.13916992634,-122.));
#850=CARTESIAN_POINT('',(14.2131699263399,154.13916992634,-122.));
#851=CARTESIAN_POINT('',(14.2131699263399,154.13916992634,-122.));
#852=CARTESIAN_POINT('',(14.2131699263399,344.13916992634,-122.));
#853=CARTESIAN_POINT('',(14.2131699263399,344.13916992634,-122.));
#854=CARTESIAN_POINT('',(14.2131699263399,344.13916992634,-122.));
#855=CARTESIAN_POINT('',(14.2131699263399,344.13916992634,-122.));
#856=CARTESIAN_POINT('Origin',(-175.78683007366,154.13916992634,-122.));
#857=CARTESIAN_POINT('',(-175.78683007366,154.13916992634,-122.));
#858=CARTESIAN_POINT('',(-175.78683007366,154.13916992634,-122.));
#859=CARTESIAN_POINT('',(14.2131699263399,154.13916992634,-122.));
#860=CARTESIAN_POINT('Origin',(-166.53683007366,334.88916992634,-122.));
#861=CARTESIAN_POINT('',(-166.53683007366,334.88916992634,-117.));
#862=CARTESIAN_POINT('',(-166.53683007366,334.88916992634,-122.));
#863=CARTESIAN_POINT('',(-80.7868300736601,334.88916992634,-117.));
#864=CARTESIAN_POINT('Origin',(-166.53683007366,163.38916992634,-122.));
#865=CARTESIAN_POINT('',(-166.53683007366,163.38916992634,-117.));
#866=CARTESIAN_POINT('Origin',(4.96316992633986,163.38916992634,-117.));
#867=CARTESIAN_POINT('Origin',(-175.78683007366,344.13916992634,-122.));
#868=CARTESIAN_POINT('',(-175.78683007366,344.13916992634,-122.));
#869=CARTESIAN_POINT('',(-175.78683007366,344.13916992634,-122.));
#870=CARTESIAN_POINT('',(-175.78683007366,154.13916992634,-122.));
#871=CARTESIAN_POINT('Origin',(14.2131699263399,344.13916992634,-122.));
#872=CARTESIAN_POINT('',(-175.78683007366,344.13916992634,-122.));
#873=CARTESIAN_POINT('Origin',(-80.7868300736601,249.13916992634,-122.));
#874=UNCERTAINTY_MEASURE_WITH_UNIT(LENGTH_MEASURE(0.01),#878,
'DISTANCE_ACCURACY_VALUE',
'Maximum model space distance between geometric entities at asserted c
onnectivities');
#875=UNCERTAINTY_MEASURE_WITH_UNIT(LENGTH_MEASURE(0.01),#878,
'DISTANCE_ACCURACY_VALUE',
'Maximum model space distance between geometric entities at asserted c
onnectivities');
#876=(
GEOMETRIC_REPRESENTATION_CONTEXT(3)
GLOBAL_UNCERTAINTY_ASSIGNED_CONTEXT((#874))
GLOBAL_UNIT_ASSIGNED_CONTEXT((#878,#880,#881))
REPRESENTATION_CONTEXT('','3D')
);
#877=(
GEOMETRIC_REPRESENTATION_CONTEXT(3)
GLOBAL_UNCERTAINTY_ASSIGNED_CONTEXT((#875))
GLOBAL_UNIT_ASSIGNED_CONTEXT((#878,#880,#881))
REPRESENTATION_CONTEXT('','3D')
);
#878=(
LENGTH_UNIT()
NAMED_UNIT(*)
SI_UNIT(.MILLI.,.METRE.)
);
#879=(
LENGTH_UNIT()
NAMED_UNIT(*)
SI_UNIT($,.METRE.)
);
#880=(
NAMED_UNIT(*)
PLANE_ANGLE_UNIT()
SI_UNIT($,.RADIAN.)
);
#881=(
NAMED_UNIT(*)
SI_UNIT($,.STERADIAN.)
SOLID_ANGLE_UNIT()
);
#882=SHAPE_DEFINITION_REPRESENTATION(#883,#884);
#883=PRODUCT_DEFINITION_SHAPE('',$,#886);
#884=SHAPE_REPRESENTATION('',(#562),#876);
#885=PRODUCT_DEFINITION_CONTEXT('part definition',#890,'design');
#886=PRODUCT_DEFINITION('2026-09-10-11-18-18-663','CaseL_top',#887,#885);
#887=PRODUCT_DEFINITION_FORMATION('',$,#892);
#888=PRODUCT_RELATED_PRODUCT_CATEGORY('CaseL_top','CaseL_top',(#892));
#889=APPLICATION_PROTOCOL_DEFINITION('international standard',
'automotive_design',2009,#890);
#890=APPLICATION_CONTEXT(
'Core Data for Automotive Mechanical Design Process');
#891=PRODUCT_CONTEXT('part definition',#890,'mechanical');
#892=PRODUCT('2026-09-10-11-18-18-663','CaseL_top',$,(#891));
#893=PRESENTATION_STYLE_ASSIGNMENT((#895));
#894=PRESENTATION_STYLE_ASSIGNMENT((#896));
#895=SURFACE_STYLE_USAGE(.BOTH.,#897);
#896=SURFACE_STYLE_USAGE(.BOTH.,#898);
#897=SURFACE_SIDE_STYLE('',(#899));
#898=SURFACE_SIDE_STYLE('',(#900));
#899=SURFACE_STYLE_FILL_AREA(#901);
#900=SURFACE_STYLE_FILL_AREA(#902);
#901=FILL_AREA_STYLE('Steel - Satin',(#903));
#902=FILL_AREA_STYLE('ABS (White)',(#904));
#903=FILL_AREA_STYLE_COLOUR('Steel - Satin',#905);
#904=FILL_AREA_STYLE_COLOUR('ABS (White)',#906);
#905=COLOUR_RGB('Steel - Satin',0.627450980392157,0.627450980392157,0.627450980392157);
#906=COLOUR_RGB('ABS (White)',0.964705882352941,0.964705882352941,0.952941176470588);
ENDSEC;
END-ISO-10303-21;
