ISO-10303-21;
HEADER;
/* Generated by software containing ST-Developer
 * from STEP Tools, Inc. (www.steptools.com) 
 */

FILE_DESCRIPTION(
/* description */ (''),
/* implementation_level */ '2;1');

FILE_NAME(
/* name */ 'Inner Axis (1) (1).step',
/* time_stamp */ '2026-09-10T11:18:54-06:00',
/* author */ (''),
/* organization */ (''),
/* preprocessor_version */ 'ST-DEVELOPER v20.2',
/* originating_system */ 'Autodesk Translation Framework v15.15.0.0',
/* authorisation */ '');

FILE_SCHEMA (('AUTOMOTIVE_DESIGN { 1 0 10303 214 3 1 1 }'));
ENDSEC;

DATA;
#10=MECHANICAL_DESIGN_GEOMETRIC_PRESENTATION_REPRESENTATION('',(#13),#723);
#11=SHAPE_REPRESENTATION_RELATIONSHIP('SRR','None',#730,#12);
#12=ADVANCED_BREP_SHAPE_REPRESENTATION('',(#14),#722);
#13=STYLED_ITEM('',(#740),#14);
#14=MANIFOLD_SOLID_BREP('Inner Axis (1) (1)',#431);
#15=PLANE('',#451);
#16=PLANE('',#452);
#17=PLANE('',#453);
#18=PLANE('',#454);
#19=PLANE('',#455);
#20=PLANE('',#458);
#21=PLANE('',#461);
#22=PLANE('',#464);
#23=PLANE('',#465);
#24=PLANE('',#466);
#25=PLANE('',#470);
#26=PLANE('',#474);
#27=PLANE('',#475);
#28=PLANE('',#476);
#29=PLANE('',#477);
#30=PLANE('',#478);
#31=FACE_OUTER_BOUND('',#53,.T.);
#32=FACE_OUTER_BOUND('',#54,.T.);
#33=FACE_OUTER_BOUND('',#55,.T.);
#34=FACE_OUTER_BOUND('',#56,.T.);
#35=FACE_OUTER_BOUND('',#57,.T.);
#36=FACE_OUTER_BOUND('',#58,.T.);
#37=FACE_OUTER_BOUND('',#59,.T.);
#38=FACE_OUTER_BOUND('',#60,.T.);
#39=FACE_OUTER_BOUND('',#61,.T.);
#40=FACE_OUTER_BOUND('',#62,.T.);
#41=FACE_OUTER_BOUND('',#63,.T.);
#42=FACE_OUTER_BOUND('',#64,.T.);
#43=FACE_OUTER_BOUND('',#65,.T.);
#44=FACE_OUTER_BOUND('',#66,.T.);
#45=FACE_OUTER_BOUND('',#67,.T.);
#46=FACE_OUTER_BOUND('',#68,.T.);
#47=FACE_OUTER_BOUND('',#69,.T.);
#48=FACE_OUTER_BOUND('',#70,.T.);
#49=FACE_OUTER_BOUND('',#71,.T.);
#50=FACE_OUTER_BOUND('',#72,.T.);
#51=FACE_OUTER_BOUND('',#73,.T.);
#52=FACE_OUTER_BOUND('',#74,.T.);
#53=EDGE_LOOP('',(#283,#284,#285,#286));
#54=EDGE_LOOP('',(#287,#288,#289,#290));
#55=EDGE_LOOP('',(#291,#292,#293,#294,#295,#296,#297,#298));
#56=EDGE_LOOP('',(#299,#300,#301,#302));
#57=EDGE_LOOP('',(#303,#304,#305,#306));
#58=EDGE_LOOP('',(#307,#308,#309,#310));
#59=EDGE_LOOP('',(#311,#312,#313,#314,#315,#316,#317,#318));
#60=EDGE_LOOP('',(#319,#320,#321,#322,#323,#324,#325,#326));
#61=EDGE_LOOP('',(#327,#328,#329,#330));
#62=EDGE_LOOP('',(#331,#332,#333,#334));
#63=EDGE_LOOP('',(#335,#336,#337,#338));
#64=EDGE_LOOP('',(#339,#340,#341,#342));
#65=EDGE_LOOP('',(#343,#344,#345,#346));
#66=EDGE_LOOP('',(#347,#348,#349,#350,#351,#352,#353,#354));
#67=EDGE_LOOP('',(#355,#356,#357,#358));
#68=EDGE_LOOP('',(#359,#360,#361,#362,#363,#364,#365,#366));
#69=EDGE_LOOP('',(#367,#368,#369,#370));
#70=EDGE_LOOP('',(#371,#372,#373,#374,#375,#376,#377,#378,#379,#380,#381,
#382));
#71=EDGE_LOOP('',(#383,#384,#385,#386));
#72=EDGE_LOOP('',(#387,#388,#389,#390));
#73=EDGE_LOOP('',(#391,#392,#393,#394));
#74=EDGE_LOOP('',(#395,#396,#397,#398,#399,#400,#401,#402));
#75=LINE('',#603,#123);
#76=LINE('',#606,#124);
#77=LINE('',#612,#125);
#78=LINE('',#615,#126);
#79=LINE('',#618,#127);
#80=LINE('',#620,#128);
#81=LINE('',#621,#129);
#82=LINE('',#623,#130);
#83=LINE('',#625,#131);
#84=LINE('',#626,#132);
#85=LINE('',#630,#133);
#86=LINE('',#631,#134);
#87=LINE('',#632,#135);
#88=LINE('',#634,#136);
#89=LINE('',#636,#137);
#90=LINE('',#640,#138);
#91=LINE('',#642,#139);
#92=LINE('',#646,#140);
#93=LINE('',#648,#141);
#94=LINE('',#650,#142);
#95=LINE('',#653,#143);
#96=LINE('',#656,#144);
#97=LINE('',#660,#145);
#98=LINE('',#662,#146);
#99=LINE('',#664,#147);
#100=LINE('',#667,#148);
#101=LINE('',#669,#149);
#102=LINE('',#670,#150);
#103=LINE('',#672,#151);
#104=LINE('',#674,#152);
#105=LINE('',#675,#153);
#106=LINE('',#677,#154);
#107=LINE('',#681,#155);
#108=LINE('',#683,#156);
#109=LINE('',#684,#157);
#110=LINE('',#690,#158);
#111=LINE('',#693,#159);
#112=LINE('',#695,#160);
#113=LINE('',#696,#161);
#114=LINE('',#702,#162);
#115=LINE('',#705,#163);
#116=LINE('',#707,#164);
#117=LINE('',#708,#165);
#118=LINE('',#712,#166);
#119=LINE('',#713,#167);
#120=LINE('',#714,#168);
#121=LINE('',#716,#169);
#122=LINE('',#718,#170);
#123=VECTOR('',#485,10.);
#124=VECTOR('',#488,10.);
#125=VECTOR('',#493,10.);
#126=VECTOR('',#496,10.);
#127=VECTOR('',#499,10.);
#128=VECTOR('',#500,10.);
#129=VECTOR('',#501,10.);
#130=VECTOR('',#502,10.);
#131=VECTOR('',#503,10.);
#132=VECTOR('',#504,10.);
#133=VECTOR('',#507,10.);
#134=VECTOR('',#508,10.);
#135=VECTOR('',#509,10.);
#136=VECTOR('',#512,10.);
#137=VECTOR('',#515,10.);
#138=VECTOR('',#518,10.);
#139=VECTOR('',#519,10.);
#140=VECTOR('',#522,10.);
#141=VECTOR('',#523,10.);
#142=VECTOR('',#524,10.);
#143=VECTOR('',#527,10.);
#144=VECTOR('',#530,10.);
#145=VECTOR('',#533,10.);
#146=VECTOR('',#534,10.);
#147=VECTOR('',#535,10.);
#148=VECTOR('',#538,10.);
#149=VECTOR('',#541,10.);
#150=VECTOR('',#542,10.);
#151=VECTOR('',#545,10.);
#152=VECTOR('',#548,10.);
#153=VECTOR('',#549,10.);
#154=VECTOR('',#552,10.);
#155=VECTOR('',#557,10.);
#156=VECTOR('',#558,10.);
#157=VECTOR('',#559,10.);
#158=VECTOR('',#564,10.);
#159=VECTOR('',#567,10.);
#160=VECTOR('',#570,10.);
#161=VECTOR('',#571,10.);
#162=VECTOR('',#578,10.);
#163=VECTOR('',#581,10.);
#164=VECTOR('',#582,10.);
#165=VECTOR('',#583,10.);
#166=VECTOR('',#586,10.);
#167=VECTOR('',#587,10.);
#168=VECTOR('',#588,10.);
#169=VECTOR('',#591,10.);
#170=VECTOR('',#594,10.);
#171=CIRCLE('',#446,25.);
#172=CIRCLE('',#447,25.);
#173=CIRCLE('',#449,50.);
#174=CIRCLE('',#450,50.);
#175=CIRCLE('',#456,25.);
#176=CIRCLE('',#457,50.);
#177=CIRCLE('',#459,50.);
#178=CIRCLE('',#460,25.);
#179=CIRCLE('',#468,25.);
#180=CIRCLE('',#469,25.);
#181=CIRCLE('',#472,50.);
#182=CIRCLE('',#473,50.);
#183=VERTEX_POINT('',#599);
#184=VERTEX_POINT('',#600);
#185=VERTEX_POINT('',#602);
#186=VERTEX_POINT('',#604);
#187=VERTEX_POINT('',#608);
#188=VERTEX_POINT('',#609);
#189=VERTEX_POINT('',#611);
#190=VERTEX_POINT('',#613);
#191=VERTEX_POINT('',#617);
#192=VERTEX_POINT('',#619);
#193=VERTEX_POINT('',#622);
#194=VERTEX_POINT('',#624);
#195=VERTEX_POINT('',#628);
#196=VERTEX_POINT('',#629);
#197=VERTEX_POINT('',#638);
#198=VERTEX_POINT('',#639);
#199=VERTEX_POINT('',#641);
#200=VERTEX_POINT('',#643);
#201=VERTEX_POINT('',#645);
#202=VERTEX_POINT('',#647);
#203=VERTEX_POINT('',#649);
#204=VERTEX_POINT('',#651);
#205=VERTEX_POINT('',#655);
#206=VERTEX_POINT('',#657);
#207=VERTEX_POINT('',#659);
#208=VERTEX_POINT('',#661);
#209=VERTEX_POINT('',#663);
#210=VERTEX_POINT('',#665);
#211=VERTEX_POINT('',#680);
#212=VERTEX_POINT('',#682);
#213=VERTEX_POINT('',#686);
#214=VERTEX_POINT('',#687);
#215=VERTEX_POINT('',#689);
#216=VERTEX_POINT('',#691);
#217=VERTEX_POINT('',#698);
#218=VERTEX_POINT('',#700);
#219=VERTEX_POINT('',#704);
#220=VERTEX_POINT('',#706);
#221=VERTEX_POINT('',#710);
#222=VERTEX_POINT('',#711);
#223=EDGE_CURVE('',#183,#184,#171,.T.);
#224=EDGE_CURVE('',#184,#185,#75,.T.);
#225=EDGE_CURVE('',#185,#186,#172,.T.);
#226=EDGE_CURVE('',#186,#183,#76,.T.);
#227=EDGE_CURVE('',#187,#188,#173,.T.);
#228=EDGE_CURVE('',#188,#189,#77,.T.);
#229=EDGE_CURVE('',#189,#190,#174,.T.);
#230=EDGE_CURVE('',#190,#187,#78,.T.);
#231=EDGE_CURVE('',#191,#189,#79,.T.);
#232=EDGE_CURVE('',#192,#191,#80,.T.);
#233=EDGE_CURVE('',#184,#192,#81,.T.);
#234=EDGE_CURVE('',#183,#193,#82,.T.);
#235=EDGE_CURVE('',#193,#194,#83,.T.);
#236=EDGE_CURVE('',#194,#190,#84,.T.);
#237=EDGE_CURVE('',#195,#196,#85,.T.);
#238=EDGE_CURVE('',#194,#195,#86,.T.);
#239=EDGE_CURVE('',#196,#193,#87,.T.);
#240=EDGE_CURVE('',#186,#196,#88,.T.);
#241=EDGE_CURVE('',#195,#187,#89,.T.);
#242=EDGE_CURVE('',#197,#198,#90,.T.);
#243=EDGE_CURVE('',#199,#197,#91,.T.);
#244=EDGE_CURVE('',#200,#199,#175,.T.);
#245=EDGE_CURVE('',#201,#200,#92,.T.);
#246=EDGE_CURVE('',#201,#202,#93,.T.);
#247=EDGE_CURVE('',#203,#202,#94,.T.);
#248=EDGE_CURVE('',#204,#203,#176,.T.);
#249=EDGE_CURVE('',#198,#204,#95,.T.);
#250=EDGE_CURVE('',#191,#205,#96,.T.);
#251=EDGE_CURVE('',#206,#205,#177,.T.);
#252=EDGE_CURVE('',#206,#207,#97,.T.);
#253=EDGE_CURVE('',#207,#208,#98,.T.);
#254=EDGE_CURVE('',#209,#208,#99,.T.);
#255=EDGE_CURVE('',#210,#209,#178,.T.);
#256=EDGE_CURVE('',#210,#192,#100,.T.);
#257=EDGE_CURVE('',#202,#207,#101,.T.);
#258=EDGE_CURVE('',#203,#206,#102,.T.);
#259=EDGE_CURVE('',#205,#204,#103,.T.);
#260=EDGE_CURVE('',#209,#200,#104,.T.);
#261=EDGE_CURVE('',#199,#210,#105,.T.);
#262=EDGE_CURVE('',#208,#201,#106,.T.);
#263=EDGE_CURVE('',#188,#211,#107,.T.);
#264=EDGE_CURVE('',#212,#211,#108,.T.);
#265=EDGE_CURVE('',#212,#198,#109,.T.);
#266=EDGE_CURVE('',#213,#214,#179,.T.);
#267=EDGE_CURVE('',#214,#215,#110,.T.);
#268=EDGE_CURVE('',#215,#216,#180,.T.);
#269=EDGE_CURVE('',#216,#213,#111,.T.);
#270=EDGE_CURVE('',#197,#215,#112,.T.);
#271=EDGE_CURVE('',#214,#185,#113,.T.);
#272=EDGE_CURVE('',#217,#212,#181,.T.);
#273=EDGE_CURVE('',#211,#218,#182,.T.);
#274=EDGE_CURVE('',#218,#217,#114,.T.);
#275=EDGE_CURVE('',#213,#219,#115,.T.);
#276=EDGE_CURVE('',#219,#220,#116,.T.);
#277=EDGE_CURVE('',#220,#218,#117,.T.);
#278=EDGE_CURVE('',#221,#222,#118,.T.);
#279=EDGE_CURVE('',#220,#221,#119,.T.);
#280=EDGE_CURVE('',#222,#219,#120,.T.);
#281=EDGE_CURVE('',#216,#222,#121,.T.);
#282=EDGE_CURVE('',#221,#217,#122,.T.);
#283=ORIENTED_EDGE('',*,*,#223,.T.);
#284=ORIENTED_EDGE('',*,*,#224,.T.);
#285=ORIENTED_EDGE('',*,*,#225,.T.);
#286=ORIENTED_EDGE('',*,*,#226,.T.);
#287=ORIENTED_EDGE('',*,*,#227,.T.);
#288=ORIENTED_EDGE('',*,*,#228,.T.);
#289=ORIENTED_EDGE('',*,*,#229,.T.);
#290=ORIENTED_EDGE('',*,*,#230,.T.);
#291=ORIENTED_EDGE('',*,*,#229,.F.);
#292=ORIENTED_EDGE('',*,*,#231,.F.);
#293=ORIENTED_EDGE('',*,*,#232,.F.);
#294=ORIENTED_EDGE('',*,*,#233,.F.);
#295=ORIENTED_EDGE('',*,*,#223,.F.);
#296=ORIENTED_EDGE('',*,*,#234,.T.);
#297=ORIENTED_EDGE('',*,*,#235,.T.);
#298=ORIENTED_EDGE('',*,*,#236,.T.);
#299=ORIENTED_EDGE('',*,*,#237,.F.);
#300=ORIENTED_EDGE('',*,*,#238,.F.);
#301=ORIENTED_EDGE('',*,*,#235,.F.);
#302=ORIENTED_EDGE('',*,*,#239,.F.);
#303=ORIENTED_EDGE('',*,*,#226,.F.);
#304=ORIENTED_EDGE('',*,*,#240,.T.);
#305=ORIENTED_EDGE('',*,*,#239,.T.);
#306=ORIENTED_EDGE('',*,*,#234,.F.);
#307=ORIENTED_EDGE('',*,*,#230,.F.);
#308=ORIENTED_EDGE('',*,*,#236,.F.);
#309=ORIENTED_EDGE('',*,*,#238,.T.);
#310=ORIENTED_EDGE('',*,*,#241,.T.);
#311=ORIENTED_EDGE('',*,*,#242,.F.);
#312=ORIENTED_EDGE('',*,*,#243,.F.);
#313=ORIENTED_EDGE('',*,*,#244,.F.);
#314=ORIENTED_EDGE('',*,*,#245,.F.);
#315=ORIENTED_EDGE('',*,*,#246,.T.);
#316=ORIENTED_EDGE('',*,*,#247,.F.);
#317=ORIENTED_EDGE('',*,*,#248,.F.);
#318=ORIENTED_EDGE('',*,*,#249,.F.);
#319=ORIENTED_EDGE('',*,*,#232,.T.);
#320=ORIENTED_EDGE('',*,*,#250,.T.);
#321=ORIENTED_EDGE('',*,*,#251,.F.);
#322=ORIENTED_EDGE('',*,*,#252,.T.);
#323=ORIENTED_EDGE('',*,*,#253,.T.);
#324=ORIENTED_EDGE('',*,*,#254,.F.);
#325=ORIENTED_EDGE('',*,*,#255,.F.);
#326=ORIENTED_EDGE('',*,*,#256,.T.);
#327=ORIENTED_EDGE('',*,*,#257,.T.);
#328=ORIENTED_EDGE('',*,*,#252,.F.);
#329=ORIENTED_EDGE('',*,*,#258,.F.);
#330=ORIENTED_EDGE('',*,*,#247,.T.);
#331=ORIENTED_EDGE('',*,*,#251,.T.);
#332=ORIENTED_EDGE('',*,*,#259,.T.);
#333=ORIENTED_EDGE('',*,*,#248,.T.);
#334=ORIENTED_EDGE('',*,*,#258,.T.);
#335=ORIENTED_EDGE('',*,*,#255,.T.);
#336=ORIENTED_EDGE('',*,*,#260,.T.);
#337=ORIENTED_EDGE('',*,*,#244,.T.);
#338=ORIENTED_EDGE('',*,*,#261,.T.);
#339=ORIENTED_EDGE('',*,*,#262,.T.);
#340=ORIENTED_EDGE('',*,*,#245,.T.);
#341=ORIENTED_EDGE('',*,*,#260,.F.);
#342=ORIENTED_EDGE('',*,*,#254,.T.);
#343=ORIENTED_EDGE('',*,*,#253,.F.);
#344=ORIENTED_EDGE('',*,*,#257,.F.);
#345=ORIENTED_EDGE('',*,*,#246,.F.);
#346=ORIENTED_EDGE('',*,*,#262,.F.);
#347=ORIENTED_EDGE('',*,*,#263,.T.);
#348=ORIENTED_EDGE('',*,*,#264,.F.);
#349=ORIENTED_EDGE('',*,*,#265,.T.);
#350=ORIENTED_EDGE('',*,*,#249,.T.);
#351=ORIENTED_EDGE('',*,*,#259,.F.);
#352=ORIENTED_EDGE('',*,*,#250,.F.);
#353=ORIENTED_EDGE('',*,*,#231,.T.);
#354=ORIENTED_EDGE('',*,*,#228,.F.);
#355=ORIENTED_EDGE('',*,*,#266,.T.);
#356=ORIENTED_EDGE('',*,*,#267,.T.);
#357=ORIENTED_EDGE('',*,*,#268,.T.);
#358=ORIENTED_EDGE('',*,*,#269,.T.);
#359=ORIENTED_EDGE('',*,*,#270,.T.);
#360=ORIENTED_EDGE('',*,*,#267,.F.);
#361=ORIENTED_EDGE('',*,*,#271,.T.);
#362=ORIENTED_EDGE('',*,*,#224,.F.);
#363=ORIENTED_EDGE('',*,*,#233,.T.);
#364=ORIENTED_EDGE('',*,*,#256,.F.);
#365=ORIENTED_EDGE('',*,*,#261,.F.);
#366=ORIENTED_EDGE('',*,*,#243,.T.);
#367=ORIENTED_EDGE('',*,*,#272,.T.);
#368=ORIENTED_EDGE('',*,*,#264,.T.);
#369=ORIENTED_EDGE('',*,*,#273,.T.);
#370=ORIENTED_EDGE('',*,*,#274,.T.);
#371=ORIENTED_EDGE('',*,*,#273,.F.);
#372=ORIENTED_EDGE('',*,*,#263,.F.);
#373=ORIENTED_EDGE('',*,*,#227,.F.);
#374=ORIENTED_EDGE('',*,*,#241,.F.);
#375=ORIENTED_EDGE('',*,*,#237,.T.);
#376=ORIENTED_EDGE('',*,*,#240,.F.);
#377=ORIENTED_EDGE('',*,*,#225,.F.);
#378=ORIENTED_EDGE('',*,*,#271,.F.);
#379=ORIENTED_EDGE('',*,*,#266,.F.);
#380=ORIENTED_EDGE('',*,*,#275,.T.);
#381=ORIENTED_EDGE('',*,*,#276,.T.);
#382=ORIENTED_EDGE('',*,*,#277,.T.);
#383=ORIENTED_EDGE('',*,*,#278,.F.);
#384=ORIENTED_EDGE('',*,*,#279,.F.);
#385=ORIENTED_EDGE('',*,*,#276,.F.);
#386=ORIENTED_EDGE('',*,*,#280,.F.);
#387=ORIENTED_EDGE('',*,*,#269,.F.);
#388=ORIENTED_EDGE('',*,*,#281,.T.);
#389=ORIENTED_EDGE('',*,*,#280,.T.);
#390=ORIENTED_EDGE('',*,*,#275,.F.);
#391=ORIENTED_EDGE('',*,*,#274,.F.);
#392=ORIENTED_EDGE('',*,*,#277,.F.);
#393=ORIENTED_EDGE('',*,*,#279,.T.);
#394=ORIENTED_EDGE('',*,*,#282,.T.);
#395=ORIENTED_EDGE('',*,*,#242,.T.);
#396=ORIENTED_EDGE('',*,*,#265,.F.);
#397=ORIENTED_EDGE('',*,*,#272,.F.);
#398=ORIENTED_EDGE('',*,*,#282,.F.);
#399=ORIENTED_EDGE('',*,*,#278,.T.);
#400=ORIENTED_EDGE('',*,*,#281,.F.);
#401=ORIENTED_EDGE('',*,*,#268,.F.);
#402=ORIENTED_EDGE('',*,*,#270,.F.);
#403=CYLINDRICAL_SURFACE('',#445,25.);
#404=CYLINDRICAL_SURFACE('',#448,50.);
#405=CYLINDRICAL_SURFACE('',#462,50.);
#406=CYLINDRICAL_SURFACE('',#463,25.);
#407=CYLINDRICAL_SURFACE('',#467,25.);
#408=CYLINDRICAL_SURFACE('',#471,50.);
#409=ADVANCED_FACE('',(#31),#403,.F.);
#410=ADVANCED_FACE('',(#32),#404,.T.);
#411=ADVANCED_FACE('',(#33),#15,.T.);
#412=ADVANCED_FACE('',(#34),#16,.T.);
#413=ADVANCED_FACE('',(#35),#17,.T.);
#414=ADVANCED_FACE('',(#36),#18,.T.);
#415=ADVANCED_FACE('',(#37),#19,.T.);
#416=ADVANCED_FACE('',(#38),#20,.T.);
#417=ADVANCED_FACE('',(#39),#21,.T.);
#418=ADVANCED_FACE('',(#40),#405,.T.);
#419=ADVANCED_FACE('',(#41),#406,.F.);
#420=ADVANCED_FACE('',(#42),#22,.T.);
#421=ADVANCED_FACE('',(#43),#23,.T.);
#422=ADVANCED_FACE('',(#44),#24,.T.);
#423=ADVANCED_FACE('',(#45),#407,.F.);
#424=ADVANCED_FACE('',(#46),#25,.F.);
#425=ADVANCED_FACE('',(#47),#408,.T.);
#426=ADVANCED_FACE('',(#48),#26,.T.);
#427=ADVANCED_FACE('',(#49),#27,.T.);
#428=ADVANCED_FACE('',(#50),#28,.T.);
#429=ADVANCED_FACE('',(#51),#29,.T.);
#430=ADVANCED_FACE('',(#52),#30,.T.);
#431=CLOSED_SHELL('',(#409,#410,#411,#412,#413,#414,#415,#416,#417,#418,
#419,#420,#421,#422,#423,#424,#425,#426,#427,#428,#429,#430));
#432=DERIVED_UNIT_ELEMENT(#434,1.);
#433=DERIVED_UNIT_ELEMENT(#725,-3.);
#434=(
MASS_UNIT()
NAMED_UNIT(*)
SI_UNIT(.KILO.,.GRAM.)
);
#435=DERIVED_UNIT((#432,#433));
#436=MEASURE_REPRESENTATION_ITEM('density measure',
POSITIVE_RATIO_MEASURE(7850.),#435);
#437=PROPERTY_DEFINITION_REPRESENTATION(#442,#439);
#438=PROPERTY_DEFINITION_REPRESENTATION(#443,#440);
#439=REPRESENTATION('material name',(#441),#722);
#440=REPRESENTATION('density',(#436),#722);
#441=DESCRIPTIVE_REPRESENTATION_ITEM('Steel','Steel');
#442=PROPERTY_DEFINITION('material property','material name',#732);
#443=PROPERTY_DEFINITION('material property','density of part',#732);
#444=AXIS2_PLACEMENT_3D('',#597,#479,#480);
#445=AXIS2_PLACEMENT_3D('',#598,#481,#482);
#446=AXIS2_PLACEMENT_3D('',#601,#483,#484);
#447=AXIS2_PLACEMENT_3D('',#605,#486,#487);
#448=AXIS2_PLACEMENT_3D('',#607,#489,#490);
#449=AXIS2_PLACEMENT_3D('',#610,#491,#492);
#450=AXIS2_PLACEMENT_3D('',#614,#494,#495);
#451=AXIS2_PLACEMENT_3D('',#616,#497,#498);
#452=AXIS2_PLACEMENT_3D('',#627,#505,#506);
#453=AXIS2_PLACEMENT_3D('',#633,#510,#511);
#454=AXIS2_PLACEMENT_3D('',#635,#513,#514);
#455=AXIS2_PLACEMENT_3D('',#637,#516,#517);
#456=AXIS2_PLACEMENT_3D('',#644,#520,#521);
#457=AXIS2_PLACEMENT_3D('',#652,#525,#526);
#458=AXIS2_PLACEMENT_3D('',#654,#528,#529);
#459=AXIS2_PLACEMENT_3D('',#658,#531,#532);
#460=AXIS2_PLACEMENT_3D('',#666,#536,#537);
#461=AXIS2_PLACEMENT_3D('',#668,#539,#540);
#462=AXIS2_PLACEMENT_3D('',#671,#543,#544);
#463=AXIS2_PLACEMENT_3D('',#673,#546,#547);
#464=AXIS2_PLACEMENT_3D('',#676,#550,#551);
#465=AXIS2_PLACEMENT_3D('',#678,#553,#554);
#466=AXIS2_PLACEMENT_3D('',#679,#555,#556);
#467=AXIS2_PLACEMENT_3D('',#685,#560,#561);
#468=AXIS2_PLACEMENT_3D('',#688,#562,#563);
#469=AXIS2_PLACEMENT_3D('',#692,#565,#566);
#470=AXIS2_PLACEMENT_3D('',#694,#568,#569);
#471=AXIS2_PLACEMENT_3D('',#697,#572,#573);
#472=AXIS2_PLACEMENT_3D('',#699,#574,#575);
#473=AXIS2_PLACEMENT_3D('',#701,#576,#577);
#474=AXIS2_PLACEMENT_3D('',#703,#579,#580);
#475=AXIS2_PLACEMENT_3D('',#709,#584,#585);
#476=AXIS2_PLACEMENT_3D('',#715,#589,#590);
#477=AXIS2_PLACEMENT_3D('',#717,#592,#593);
#478=AXIS2_PLACEMENT_3D('',#719,#595,#596);
#479=DIRECTION('axis',(0.,0.,1.));
#480=DIRECTION('refdir',(1.,0.,0.));
#481=DIRECTION('center_axis',(-1.,0.,0.));
#482=DIRECTION('ref_axis',(0.,-0.707106781186547,-0.707106781186547));
#483=DIRECTION('center_axis',(1.,0.,0.));
#484=DIRECTION('ref_axis',(0.,-0.707106781186547,-0.707106781186547));
#485=DIRECTION('',(-1.,0.,0.));
#486=DIRECTION('center_axis',(-1.,0.,0.));
#487=DIRECTION('ref_axis',(0.,-0.707106781186547,-0.707106781186547));
#488=DIRECTION('',(1.,0.,0.));
#489=DIRECTION('center_axis',(-1.,0.,0.));
#490=DIRECTION('ref_axis',(0.,-0.707106781186547,-0.707106781186547));
#491=DIRECTION('center_axis',(1.,0.,0.));
#492=DIRECTION('ref_axis',(0.,-0.707106781186547,-0.707106781186547));
#493=DIRECTION('',(1.,0.,0.));
#494=DIRECTION('center_axis',(-1.,0.,0.));
#495=DIRECTION('ref_axis',(0.,-0.707106781186547,-0.707106781186547));
#496=DIRECTION('',(-1.,0.,0.));
#497=DIRECTION('center_axis',(1.,0.,0.));
#498=DIRECTION('ref_axis',(0.,1.,0.));
#499=DIRECTION('',(0.,-1.,0.));
#500=DIRECTION('',(0.,-3.94745964311167E-16,-1.));
#501=DIRECTION('',(0.,1.,0.));
#502=DIRECTION('',(0.,0.,1.));
#503=DIRECTION('',(0.,-1.,0.));
#504=DIRECTION('',(0.,0.,-1.));
#505=DIRECTION('center_axis',(0.,0.,1.));
#506=DIRECTION('ref_axis',(1.,0.,0.));
#507=DIRECTION('',(0.,1.,0.));
#508=DIRECTION('',(-1.,0.,0.));
#509=DIRECTION('',(1.,0.,0.));
#510=DIRECTION('center_axis',(0.,1.,0.));
#511=DIRECTION('ref_axis',(-1.,0.,0.));
#512=DIRECTION('',(0.,0.,1.));
#513=DIRECTION('center_axis',(0.,-1.,0.));
#514=DIRECTION('ref_axis',(1.,0.,0.));
#515=DIRECTION('',(0.,0.,-1.));
#516=DIRECTION('center_axis',(0.,1.,-3.94745964311167E-16));
#517=DIRECTION('ref_axis',(-1.,0.,0.));
#518=DIRECTION('',(3.39727436131979E-32,1.60071043120708E-16,-1.));
#519=DIRECTION('',(-1.,0.,0.));
#520=DIRECTION('center_axis',(0.,1.,-3.94745964311167E-16));
#521=DIRECTION('ref_axis',(0.707106781186547,0.,-0.707106781186547));
#522=DIRECTION('',(0.,0.,-1.));
#523=DIRECTION('',(1.,0.,0.));
#524=DIRECTION('',(0.,3.94745964311167E-16,1.));
#525=DIRECTION('center_axis',(0.,-1.,3.94745964311167E-16));
#526=DIRECTION('ref_axis',(0.707106781186547,0.,-0.707106781186547));
#527=DIRECTION('',(1.,0.,0.));
#528=DIRECTION('center_axis',(0.,-1.,3.94745964311167E-16));
#529=DIRECTION('ref_axis',(1.,0.,0.));
#530=DIRECTION('',(1.,0.,0.));
#531=DIRECTION('center_axis',(0.,1.,-3.94745964311167E-16));
#532=DIRECTION('ref_axis',(0.707106781186547,0.,-0.707106781186547));
#533=DIRECTION('',(0.,3.94745964311167E-16,1.));
#534=DIRECTION('',(-1.,0.,0.));
#535=DIRECTION('',(0.,3.94745964311167E-16,1.));
#536=DIRECTION('center_axis',(0.,-1.,3.94745964311167E-16));
#537=DIRECTION('ref_axis',(0.707106781186547,0.,-0.707106781186547));
#538=DIRECTION('',(-1.,0.,0.));
#539=DIRECTION('center_axis',(1.,0.,0.));
#540=DIRECTION('ref_axis',(0.,1.,0.));
#541=DIRECTION('',(0.,-1.,0.));
#542=DIRECTION('',(0.,-1.,0.));
#543=DIRECTION('center_axis',(0.,-1.,0.));
#544=DIRECTION('ref_axis',(0.707106781186547,0.,-0.707106781186547));
#545=DIRECTION('',(0.,1.,0.));
#546=DIRECTION('center_axis',(0.,1.,0.));
#547=DIRECTION('ref_axis',(0.707106781186547,0.,-0.707106781186547));
#548=DIRECTION('',(0.,1.,0.));
#549=DIRECTION('',(0.,-1.,0.));
#550=DIRECTION('center_axis',(-1.,0.,0.));
#551=DIRECTION('ref_axis',(0.,-1.,0.));
#552=DIRECTION('',(0.,1.,0.));
#553=DIRECTION('center_axis',(0.,0.,1.));
#554=DIRECTION('ref_axis',(1.,0.,0.));
#555=DIRECTION('center_axis',(-1.43696945538026E-32,-2.34674921190458E-16,
-1.));
#556=DIRECTION('ref_axis',(1.,-1.22464679914735E-16,1.43696945538026E-32));
#557=DIRECTION('',(1.22464679914735E-16,1.,-2.34674921190458E-16));
#558=DIRECTION('',(-1.,1.22464679914735E-16,-1.43696945538026E-32));
#559=DIRECTION('',(-1.22464679914735E-16,-1.,2.34674921190458E-16));
#560=DIRECTION('center_axis',(1.,-1.22464679914735E-16,1.43696945538026E-32));
#561=DIRECTION('ref_axis',(8.65956056235493E-17,0.707106781186547,-0.707106781186548));
#562=DIRECTION('center_axis',(-1.,1.22464679914735E-16,-1.43696945538026E-32));
#563=DIRECTION('ref_axis',(8.65956056235493E-17,0.707106781186547,-0.707106781186548));
#564=DIRECTION('',(1.,-1.22464679914735E-16,1.43696945538026E-32));
#565=DIRECTION('center_axis',(1.,-1.22464679914735E-16,1.43696945538026E-32));
#566=DIRECTION('ref_axis',(8.65956056235493E-17,0.707106781186547,-0.707106781186548));
#567=DIRECTION('',(-1.,1.22464679914735E-16,-1.43696945538026E-32));
#568=DIRECTION('center_axis',(-1.43696945538026E-32,-2.34674921190458E-16,
-1.));
#569=DIRECTION('ref_axis',(-1.,1.22464679914735E-16,-1.43696945538026E-32));
#570=DIRECTION('',(1.22464679914735E-16,1.,-2.34674921190458E-16));
#571=DIRECTION('',(0.,-1.,0.));
#572=DIRECTION('center_axis',(1.,-1.22464679914735E-16,1.43696945538026E-32));
#573=DIRECTION('ref_axis',(8.65956056235493E-17,0.707106781186547,-0.707106781186548));
#574=DIRECTION('center_axis',(-1.,1.22464679914735E-16,-1.43696945538026E-32));
#575=DIRECTION('ref_axis',(8.65956056235493E-17,0.707106781186547,-0.707106781186548));
#576=DIRECTION('center_axis',(1.,-1.22464679914735E-16,1.43696945538026E-32));
#577=DIRECTION('ref_axis',(8.65956056235493E-17,0.707106781186547,-0.707106781186548));
#578=DIRECTION('',(1.,-1.22464679914735E-16,1.43696945538026E-32));
#579=DIRECTION('center_axis',(-1.,1.22464679914735E-16,-1.43696945538026E-32));
#580=DIRECTION('ref_axis',(-1.22464679914735E-16,-1.,2.34674921190458E-16));
#581=DIRECTION('',(1.43696945538026E-32,2.34674921190458E-16,1.));
#582=DIRECTION('',(1.22464679914735E-16,1.,-2.34674921190458E-16));
#583=DIRECTION('',(-1.43696945538026E-32,-2.34674921190458E-16,-1.));
#584=DIRECTION('center_axis',(1.43696945538026E-32,2.34674921190458E-16,
1.));
#585=DIRECTION('ref_axis',(-1.,1.22464679914735E-16,-1.43696945538026E-32));
#586=DIRECTION('',(-1.22464679914735E-16,-1.,2.34674921190458E-16));
#587=DIRECTION('',(1.,-1.22464679914735E-16,1.43696945538026E-32));
#588=DIRECTION('',(-1.,1.22464679914735E-16,-1.43696945538026E-32));
#589=DIRECTION('center_axis',(-1.22464679914735E-16,-1.,2.34674921190458E-16));
#590=DIRECTION('ref_axis',(1.,-1.22464679914735E-16,1.43696945538026E-32));
#591=DIRECTION('',(1.43696945538026E-32,2.34674921190458E-16,1.));
#592=DIRECTION('center_axis',(1.22464679914735E-16,1.,-2.34674921190458E-16));
#593=DIRECTION('ref_axis',(-1.,1.22464679914735E-16,-1.43696945538026E-32));
#594=DIRECTION('',(-1.43696945538026E-32,-2.34674921190458E-16,-1.));
#595=DIRECTION('center_axis',(1.,-1.22464679914735E-16,1.43696945538026E-32));
#596=DIRECTION('ref_axis',(1.22464679914735E-16,1.,-2.34674921190458E-16));
#597=CARTESIAN_POINT('',(0.,0.,0.));
#598=CARTESIAN_POINT('Origin',(-41.3133989751756,161.63916992634,-173.));
#599=CARTESIAN_POINT('',(-60.2868300736601,136.63916992634,-173.));
#600=CARTESIAN_POINT('',(-60.2868300736601,161.63916992634,-198.));
#601=CARTESIAN_POINT('Origin',(-60.2868300736601,161.63916992634,-173.));
#602=CARTESIAN_POINT('',(-101.28683007366,161.63916992634,-198.));
#603=CARTESIAN_POINT('',(-41.3133989751756,161.63916992634,-198.));
#604=CARTESIAN_POINT('',(-101.28683007366,136.63916992634,-173.));
#605=CARTESIAN_POINT('Origin',(-101.28683007366,161.63916992634,-173.));
#606=CARTESIAN_POINT('',(-41.3133989751756,136.63916992634,-173.));
#607=CARTESIAN_POINT('Origin',(-61.8133989751756,161.74516992634,-168.));
#608=CARTESIAN_POINT('',(-101.28683007366,111.74516992634,-168.));
#609=CARTESIAN_POINT('',(-101.28683007366,161.74516992634,-218.));
#610=CARTESIAN_POINT('Origin',(-101.28683007366,161.74516992634,-168.));
#611=CARTESIAN_POINT('',(-60.2868300736601,161.74516992634,-218.));
#612=CARTESIAN_POINT('',(-61.8133989751756,161.74516992634,-218.));
#613=CARTESIAN_POINT('',(-60.2868300736601,111.74516992634,-168.));
#614=CARTESIAN_POINT('Origin',(-60.2868300736601,161.74516992634,-168.));
#615=CARTESIAN_POINT('',(-61.8133989751756,111.74516992634,-168.));
#616=CARTESIAN_POINT('Origin',(-60.2868300736601,111.74516992634,-198.));
#617=CARTESIAN_POINT('',(-60.2868300736601,228.63916992634,-218.));
#618=CARTESIAN_POINT('',(-60.2868300736601,111.74516992634,-218.));
#619=CARTESIAN_POINT('',(-60.2868300736601,228.63916992634,-198.));
#620=CARTESIAN_POINT('',(-60.2868300736601,228.63916992634,-183.));
#621=CARTESIAN_POINT('',(-60.2868300736601,111.74516992634,-198.));
#622=CARTESIAN_POINT('',(-60.2868300736601,136.63916992634,-138.));
#623=CARTESIAN_POINT('',(-60.2868300736601,136.63916992634,-198.));
#624=CARTESIAN_POINT('',(-60.2868300736601,111.74516992634,-138.));
#625=CARTESIAN_POINT('',(-60.2868300736601,117.96866992634,-138.));
#626=CARTESIAN_POINT('',(-60.2868300736601,111.74516992634,-198.));
#627=CARTESIAN_POINT('Origin',(-80.7868300736601,124.19216992634,-138.));
#628=CARTESIAN_POINT('',(-101.28683007366,111.74516992634,-138.));
#629=CARTESIAN_POINT('',(-101.28683007366,136.63916992634,-138.));
#630=CARTESIAN_POINT('',(-101.28683007366,130.41566992634,-138.));
#631=CARTESIAN_POINT('',(-91.0368300736601,111.74516992634,-138.));
#632=CARTESIAN_POINT('',(-70.5368300736601,136.63916992634,-138.));
#633=CARTESIAN_POINT('Origin',(-60.2868300736601,136.63916992634,-198.));
#634=CARTESIAN_POINT('',(-101.28683007366,136.63916992634,-198.));
#635=CARTESIAN_POINT('Origin',(-101.28683007366,111.74516992634,-198.));
#636=CARTESIAN_POINT('',(-101.28683007366,111.74516992634,-198.));
#637=CARTESIAN_POINT('Origin',(56.606894320278,269.63916992634,-168.));
#638=CARTESIAN_POINT('',(-60.2868300736601,269.63916992634,-198.));
#639=CARTESIAN_POINT('',(-60.2868300736601,269.63916992634,-218.));
#640=CARTESIAN_POINT('',(-60.2868300736601,269.63916992634,-181.5));
#641=CARTESIAN_POINT('',(6.71316992633987,269.63916992634,-198.));
#642=CARTESIAN_POINT('',(-60.2868300736601,269.63916992634,-198.));
#643=CARTESIAN_POINT('',(31.7131699263399,269.63916992634,-173.));
#644=CARTESIAN_POINT('Origin',(6.71316992633987,269.63916992634,-173.));
#645=CARTESIAN_POINT('',(31.7131699263399,269.63916992634,-112.));
#646=CARTESIAN_POINT('',(31.7131699263399,269.63916992634,-168.));
#647=CARTESIAN_POINT('',(56.606894320278,269.63916992634,-112.));
#648=CARTESIAN_POINT('',(50.3834632217935,269.63916992634,-112.));
#649=CARTESIAN_POINT('',(56.606894320278,269.63916992634,-168.));
#650=CARTESIAN_POINT('',(56.606894320278,269.63916992634,-168.));
#651=CARTESIAN_POINT('',(6.60689432027802,269.63916992634,-218.));
#652=CARTESIAN_POINT('Origin',(6.60689432027802,269.63916992634,-168.));
#653=CARTESIAN_POINT('',(-60.2868300736601,269.63916992634,-218.));
#654=CARTESIAN_POINT('Origin',(31.7131699263399,228.63916992634,-168.));
#655=CARTESIAN_POINT('',(6.60689432027802,228.63916992634,-218.));
#656=CARTESIAN_POINT('',(-22.3399678766911,228.63916992634,-218.));
#657=CARTESIAN_POINT('',(56.606894320278,228.63916992634,-168.));
#658=CARTESIAN_POINT('Origin',(6.60689432027802,228.63916992634,-168.));
#659=CARTESIAN_POINT('',(56.606894320278,228.63916992634,-112.));
#660=CARTESIAN_POINT('',(56.606894320278,228.63916992634,-168.));
#661=CARTESIAN_POINT('',(31.7131699263399,228.63916992634,-112.));
#662=CARTESIAN_POINT('',(37.9366010248244,228.63916992634,-112.));
#663=CARTESIAN_POINT('',(31.7131699263399,228.63916992634,-173.));
#664=CARTESIAN_POINT('',(31.7131699263399,228.63916992634,-168.));
#665=CARTESIAN_POINT('',(6.71316992633987,228.63916992634,-198.));
#666=CARTESIAN_POINT('Origin',(6.71316992633987,228.63916992634,-173.));
#667=CARTESIAN_POINT('',(-22.3399678766911,228.63916992634,-198.));
#668=CARTESIAN_POINT('Origin',(56.606894320278,228.63916992634,-168.));
#669=CARTESIAN_POINT('',(56.606894320278,238.88916992634,-112.));
#670=CARTESIAN_POINT('',(56.606894320278,209.66566992634,-168.));
#671=CARTESIAN_POINT('Origin',(6.60689432027802,209.66566992634,-168.));
#672=CARTESIAN_POINT('',(6.60689432027802,209.66566992634,-218.));
#673=CARTESIAN_POINT('Origin',(6.71316992633987,230.16566992634,-173.));
#674=CARTESIAN_POINT('',(31.7131699263399,230.16566992634,-173.));
#675=CARTESIAN_POINT('',(6.71316992633987,230.16566992634,-198.));
#676=CARTESIAN_POINT('Origin',(31.7131699263399,269.63916992634,-168.));
#677=CARTESIAN_POINT('',(31.7131699263399,259.38916992634,-112.));
#678=CARTESIAN_POINT('Origin',(44.1600321233089,249.13916992634,-112.));
#679=CARTESIAN_POINT('Origin',(-139.233692270629,307.58616992634,-218.));
#680=CARTESIAN_POINT('',(-101.28683007366,336.53316992634,-218.));
#681=CARTESIAN_POINT('',(-101.28683007366,386.53316992634,-218.));
#682=CARTESIAN_POINT('',(-60.2868300736601,336.53316992634,-218.));
#683=CARTESIAN_POINT('',(-99.7602611721447,336.53316992634,-218.));
#684=CARTESIAN_POINT('',(-60.2868300736601,361.63916992634,-218.));
#685=CARTESIAN_POINT('Origin',(-120.260261172145,336.63916992634,-173.));
#686=CARTESIAN_POINT('',(-101.28683007366,361.63916992634,-173.));
#687=CARTESIAN_POINT('',(-101.28683007366,336.63916992634,-198.));
#688=CARTESIAN_POINT('Origin',(-101.28683007366,336.63916992634,-173.));
#689=CARTESIAN_POINT('',(-60.2868300736601,336.63916992634,-198.));
#690=CARTESIAN_POINT('',(-120.260261172145,336.63916992634,-198.));
#691=CARTESIAN_POINT('',(-60.2868300736601,361.63916992634,-173.));
#692=CARTESIAN_POINT('Origin',(-60.2868300736601,336.63916992634,-173.));
#693=CARTESIAN_POINT('',(-120.260261172145,361.63916992634,-173.));
#694=CARTESIAN_POINT('Origin',(-139.233692270629,307.58616992634,-198.));
#695=CARTESIAN_POINT('',(-60.2868300736601,361.63916992634,-198.));
#696=CARTESIAN_POINT('',(-101.28683007366,136.63916992634,-198.));
#697=CARTESIAN_POINT('Origin',(-99.7602611721447,336.53316992634,-168.));
#698=CARTESIAN_POINT('',(-60.2868300736601,386.53316992634,-168.));
#699=CARTESIAN_POINT('Origin',(-60.2868300736601,336.53316992634,-168.));
#700=CARTESIAN_POINT('',(-101.28683007366,386.53316992634,-168.));
#701=CARTESIAN_POINT('Origin',(-101.28683007366,336.53316992634,-168.));
#702=CARTESIAN_POINT('',(-99.7602611721447,386.53316992634,-168.));
#703=CARTESIAN_POINT('Origin',(-101.28683007366,386.53316992634,-198.));
#704=CARTESIAN_POINT('',(-101.28683007366,361.63916992634,-138.));
#705=CARTESIAN_POINT('',(-101.28683007366,361.63916992634,-198.));
#706=CARTESIAN_POINT('',(-101.28683007366,386.53316992634,-138.));
#707=CARTESIAN_POINT('',(-101.28683007366,380.30966992634,-138.));
#708=CARTESIAN_POINT('',(-101.28683007366,386.53316992634,-198.));
#709=CARTESIAN_POINT('Origin',(-80.7868300736601,374.08616992634,-138.));
#710=CARTESIAN_POINT('',(-60.2868300736601,386.53316992634,-138.));
#711=CARTESIAN_POINT('',(-60.2868300736601,361.63916992634,-138.));
#712=CARTESIAN_POINT('',(-60.2868300736601,367.86266992634,-138.));
#713=CARTESIAN_POINT('',(-70.5368300736601,386.53316992634,-138.));
#714=CARTESIAN_POINT('',(-91.0368300736601,361.63916992634,-138.));
#715=CARTESIAN_POINT('Origin',(-101.28683007366,361.63916992634,-198.));
#716=CARTESIAN_POINT('',(-60.2868300736601,361.63916992634,-198.));
#717=CARTESIAN_POINT('Origin',(-60.2868300736601,386.53316992634,-198.));
#718=CARTESIAN_POINT('',(-60.2868300736601,386.53316992634,-198.));
#719=CARTESIAN_POINT('Origin',(-60.2868300736601,361.63916992634,-198.));
#720=UNCERTAINTY_MEASURE_WITH_UNIT(LENGTH_MEASURE(0.01),#724,
'DISTANCE_ACCURACY_VALUE',
'Maximum model space distance between geometric entities at asserted c
onnectivities');
#721=UNCERTAINTY_MEASURE_WITH_UNIT(LENGTH_MEASURE(0.01),#724,
'DISTANCE_ACCURACY_VALUE',
'Maximum model space distance between geometric entities at asserted c
onnectivities');
#722=(
GEOMETRIC_REPRESENTATION_CONTEXT(3)
GLOBAL_UNCERTAINTY_ASSIGNED_CONTEXT((#720))
GLOBAL_UNIT_ASSIGNED_CONTEXT((#724,#726,#727))
REPRESENTATION_CONTEXT('','3D')
);
#723=(
GEOMETRIC_REPRESENTATION_CONTEXT(3)
GLOBAL_UNCERTAINTY_ASSIGNED_CONTEXT((#721))
GLOBAL_UNIT_ASSIGNED_CONTEXT((#724,#726,#727))
REPRESENTATION_CONTEXT('','3D')
);
#724=(
LENGTH_UNIT()
NAMED_UNIT(*)
SI_UNIT(.MILLI.,.METRE.)
);
#725=(
LENGTH_UNIT()
NAMED_UNIT(*)
SI_UNIT($,.METRE.)
);
#726=(
NAMED_UNIT(*)
PLANE_ANGLE_UNIT()
SI_UNIT($,.RADIAN.)
);
#727=(
NAMED_UNIT(*)
SI_UNIT($,.STERADIAN.)
SOLID_ANGLE_UNIT()
);
#728=SHAPE_DEFINITION_REPRESENTATION(#729,#730);
#729=PRODUCT_DEFINITION_SHAPE('',$,#732);
#730=SHAPE_REPRESENTATION('',(#444),#722);
#731=PRODUCT_DEFINITION_CONTEXT('part definition',#736,'design');
#732=PRODUCT_DEFINITION('2026-09-10-11-18-54-129','Inner Axis (1) (1)',
#733,#731);
#733=PRODUCT_DEFINITION_FORMATION('',$,#738);
#734=PRODUCT_RELATED_PRODUCT_CATEGORY('Inner Axis (1) (1)',
'Inner Axis (1) (1)',(#738));
#735=APPLICATION_PROTOCOL_DEFINITION('international standard',
'automotive_design',2009,#736);
#736=APPLICATION_CONTEXT(
'Core Data for Automotive Mechanical Design Process');
#737=PRODUCT_CONTEXT('part definition',#736,'mechanical');
#738=PRODUCT('2026-09-10-11-18-54-129','Inner Axis (1) (1)',$,(#737));
#739=PRESENTATION_STYLE_ASSIGNMENT((#741));
#740=PRESENTATION_STYLE_ASSIGNMENT((#742));
#741=SURFACE_STYLE_USAGE(.BOTH.,#743);
#742=SURFACE_STYLE_USAGE(.BOTH.,#744);
#743=SURFACE_SIDE_STYLE('',(#745));
#744=SURFACE_SIDE_STYLE('',(#746));
#745=SURFACE_STYLE_FILL_AREA(#747);
#746=SURFACE_STYLE_FILL_AREA(#748);
#747=FILL_AREA_STYLE('Steel - Satin',(#749));
#748=FILL_AREA_STYLE('ABS (White)',(#750));
#749=FILL_AREA_STYLE_COLOUR('Steel - Satin',#751);
#750=FILL_AREA_STYLE_COLOUR('ABS (White)',#752);
#751=COLOUR_RGB('Steel - Satin',0.627450980392157,0.627450980392157,0.627450980392157);
#752=COLOUR_RGB('ABS (White)',0.964705882352941,0.964705882352941,0.952941176470588);
ENDSEC;
END-ISO-10303-21;
