ISO-10303-21;
HEADER;
/* Generated by software containing ST-Developer
 * from STEP Tools, Inc. (www.steptools.com) 
 */

FILE_DESCRIPTION(
/* description */ (''),
/* implementation_level */ '2;1');

FILE_NAME(
/* name */ 'CaseL_Bottom.step',
/* time_stamp */ '2026-09-13T20:03:15-06:00',
/* author */ (''),
/* organization */ (''),
/* preprocessor_version */ 'ST-DEVELOPER v20.2',
/* originating_system */ 'Autodesk Translation Framework v15.15.0.0',
/* authorisation */ '');

FILE_SCHEMA (('AUTOMOTIVE_DESIGN { 1 0 10303 214 3 1 1 }'));
ENDSEC;

DATA;
#10=MECHANICAL_DESIGN_GEOMETRIC_PRESENTATION_REPRESENTATION('',(#13),#745);
#11=SHAPE_REPRESENTATION_RELATIONSHIP('SRR','None',#752,#12);
#12=ADVANCED_BREP_SHAPE_REPRESENTATION('',(#14),#744);
#13=STYLED_ITEM('',(#761),#14);
#14=MANIFOLD_SOLID_BREP('Body1',#465);
#15=FACE_BOUND('',#46,.T.);
#16=FACE_BOUND('',#68,.T.);
#17=FACE_BOUND('',#69,.T.);
#18=FACE_BOUND('',#70,.T.);
#19=FACE_BOUND('',#74,.T.);
#20=FACE_OUTER_BOUND('',#45,.T.);
#21=FACE_OUTER_BOUND('',#47,.T.);
#22=FACE_OUTER_BOUND('',#48,.T.);
#23=FACE_OUTER_BOUND('',#49,.T.);
#24=FACE_OUTER_BOUND('',#50,.T.);
#25=FACE_OUTER_BOUND('',#51,.T.);
#26=FACE_OUTER_BOUND('',#52,.T.);
#27=FACE_OUTER_BOUND('',#53,.T.);
#28=FACE_OUTER_BOUND('',#54,.T.);
#29=FACE_OUTER_BOUND('',#55,.T.);
#30=FACE_OUTER_BOUND('',#56,.T.);
#31=FACE_OUTER_BOUND('',#57,.T.);
#32=FACE_OUTER_BOUND('',#58,.T.);
#33=FACE_OUTER_BOUND('',#59,.T.);
#34=FACE_OUTER_BOUND('',#60,.T.);
#35=FACE_OUTER_BOUND('',#61,.T.);
#36=FACE_OUTER_BOUND('',#62,.T.);
#37=FACE_OUTER_BOUND('',#63,.T.);
#38=FACE_OUTER_BOUND('',#64,.T.);
#39=FACE_OUTER_BOUND('',#65,.T.);
#40=FACE_OUTER_BOUND('',#66,.T.);
#41=FACE_OUTER_BOUND('',#67,.T.);
#42=FACE_OUTER_BOUND('',#71,.T.);
#43=FACE_OUTER_BOUND('',#72,.T.);
#44=FACE_OUTER_BOUND('',#73,.T.);
#45=EDGE_LOOP('',(#295,#296,#297,#298));
#46=EDGE_LOOP('',(#299,#300,#301,#302));
#47=EDGE_LOOP('',(#303,#304,#305,#306));
#48=EDGE_LOOP('',(#307,#308,#309,#310));
#49=EDGE_LOOP('',(#311,#312,#313,#314));
#50=EDGE_LOOP('',(#315,#316,#317,#318));
#51=EDGE_LOOP('',(#319,#320,#321,#322));
#52=EDGE_LOOP('',(#323,#324,#325,#326));
#53=EDGE_LOOP('',(#327,#328,#329,#330));
#54=EDGE_LOOP('',(#331,#332,#333,#334));
#55=EDGE_LOOP('',(#335,#336,#337,#338));
#56=EDGE_LOOP('',(#339,#340,#341,#342));
#57=EDGE_LOOP('',(#343,#344,#345,#346));
#58=EDGE_LOOP('',(#347,#348,#349,#350));
#59=EDGE_LOOP('',(#351,#352,#353,#354));
#60=EDGE_LOOP('',(#355,#356,#357,#358));
#61=EDGE_LOOP('',(#359,#360,#361,#362));
#62=EDGE_LOOP('',(#363,#364,#365,#366));
#63=EDGE_LOOP('',(#367,#368,#369,#370));
#64=EDGE_LOOP('',(#371,#372,#373,#374));
#65=EDGE_LOOP('',(#375,#376,#377,#378));
#66=EDGE_LOOP('',(#379,#380,#381,#382));
#67=EDGE_LOOP('',(#383,#384,#385,#386));
#68=EDGE_LOOP('',(#387,#388,#389,#390));
#69=EDGE_LOOP('',(#391,#392,#393,#394));
#70=EDGE_LOOP('',(#395,#396,#397,#398));
#71=EDGE_LOOP('',(#399,#400,#401,#402));
#72=EDGE_LOOP('',(#403,#404,#405,#406));
#73=EDGE_LOOP('',(#407,#408,#409,#410));
#74=EDGE_LOOP('',(#411,#412,#413,#414));
#75=LINE('',#620,#135);
#76=LINE('',#622,#136);
#77=LINE('',#624,#137);
#78=LINE('',#625,#138);
#79=LINE('',#628,#139);
#80=LINE('',#630,#140);
#81=LINE('',#632,#141);
#82=LINE('',#633,#142);
#83=LINE('',#636,#143);
#84=LINE('',#638,#144);
#85=LINE('',#639,#145);
#86=LINE('',#642,#146);
#87=LINE('',#643,#147);
#88=LINE('',#646,#148);
#89=LINE('',#648,#149);
#90=LINE('',#649,#150);
#91=LINE('',#652,#151);
#92=LINE('',#653,#152);
#93=LINE('',#657,#153);
#94=LINE('',#659,#154);
#95=LINE('',#661,#155);
#96=LINE('',#662,#156);
#97=LINE('',#665,#157);
#98=LINE('',#667,#158);
#99=LINE('',#668,#159);
#100=LINE('',#671,#160);
#101=LINE('',#673,#161);
#102=LINE('',#674,#162);
#103=LINE('',#676,#163);
#104=LINE('',#677,#164);
#105=LINE('',#681,#165);
#106=LINE('',#683,#166);
#107=LINE('',#685,#167);
#108=LINE('',#686,#168);
#109=LINE('',#690,#169);
#110=LINE('',#692,#170);
#111=LINE('',#694,#171);
#112=LINE('',#695,#172);
#113=LINE('',#698,#173);
#114=LINE('',#700,#174);
#115=LINE('',#701,#175);
#116=LINE('',#704,#176);
#117=LINE('',#705,#177);
#118=LINE('',#708,#178);
#119=LINE('',#710,#179);
#120=LINE('',#711,#180);
#121=LINE('',#714,#181);
#122=LINE('',#715,#182);
#123=LINE('',#718,#183);
#124=LINE('',#719,#184);
#125=LINE('',#721,#185);
#126=LINE('',#724,#186);
#127=LINE('',#725,#187);
#128=LINE('',#727,#188);
#129=LINE('',#730,#189);
#130=LINE('',#731,#190);
#131=LINE('',#733,#191);
#132=LINE('',#737,#192);
#133=LINE('',#738,#193);
#134=LINE('',#740,#194);
#135=VECTOR('',#508,10.);
#136=VECTOR('',#509,10.);
#137=VECTOR('',#510,10.);
#138=VECTOR('',#511,10.);
#139=VECTOR('',#512,10.);
#140=VECTOR('',#513,10.);
#141=VECTOR('',#514,10.);
#142=VECTOR('',#515,10.);
#143=VECTOR('',#518,10.);
#144=VECTOR('',#519,10.);
#145=VECTOR('',#520,10.);
#146=VECTOR('',#523,10.);
#147=VECTOR('',#524,10.);
#148=VECTOR('',#527,10.);
#149=VECTOR('',#528,10.);
#150=VECTOR('',#529,10.);
#151=VECTOR('',#532,10.);
#152=VECTOR('',#533,10.);
#153=VECTOR('',#536,10.);
#154=VECTOR('',#537,10.);
#155=VECTOR('',#538,10.);
#156=VECTOR('',#539,10.);
#157=VECTOR('',#542,10.);
#158=VECTOR('',#543,10.);
#159=VECTOR('',#544,10.);
#160=VECTOR('',#547,10.);
#161=VECTOR('',#548,10.);
#162=VECTOR('',#549,10.);
#163=VECTOR('',#552,10.);
#164=VECTOR('',#553,10.);
#165=VECTOR('',#556,10.);
#166=VECTOR('',#557,10.);
#167=VECTOR('',#558,10.);
#168=VECTOR('',#559,10.);
#169=VECTOR('',#562,10.);
#170=VECTOR('',#563,10.);
#171=VECTOR('',#564,10.);
#172=VECTOR('',#565,10.);
#173=VECTOR('',#568,10.);
#174=VECTOR('',#569,10.);
#175=VECTOR('',#570,10.);
#176=VECTOR('',#573,10.);
#177=VECTOR('',#574,10.);
#178=VECTOR('',#577,10.);
#179=VECTOR('',#578,10.);
#180=VECTOR('',#579,10.);
#181=VECTOR('',#582,10.);
#182=VECTOR('',#583,10.);
#183=VECTOR('',#586,10.);
#184=VECTOR('',#587,10.);
#185=VECTOR('',#590,10.);
#186=VECTOR('',#593,10.);
#187=VECTOR('',#594,10.);
#188=VECTOR('',#597,10.);
#189=VECTOR('',#600,10.);
#190=VECTOR('',#601,10.);
#191=VECTOR('',#604,10.);
#192=VECTOR('',#609,10.);
#193=VECTOR('',#610,10.);
#194=VECTOR('',#613,10.);
#195=VERTEX_POINT('',#618);
#196=VERTEX_POINT('',#619);
#197=VERTEX_POINT('',#621);
#198=VERTEX_POINT('',#623);
#199=VERTEX_POINT('',#626);
#200=VERTEX_POINT('',#627);
#201=VERTEX_POINT('',#629);
#202=VERTEX_POINT('',#631);
#203=VERTEX_POINT('',#635);
#204=VERTEX_POINT('',#637);
#205=VERTEX_POINT('',#641);
#206=VERTEX_POINT('',#645);
#207=VERTEX_POINT('',#647);
#208=VERTEX_POINT('',#651);
#209=VERTEX_POINT('',#655);
#210=VERTEX_POINT('',#656);
#211=VERTEX_POINT('',#658);
#212=VERTEX_POINT('',#660);
#213=VERTEX_POINT('',#664);
#214=VERTEX_POINT('',#666);
#215=VERTEX_POINT('',#670);
#216=VERTEX_POINT('',#672);
#217=VERTEX_POINT('',#679);
#218=VERTEX_POINT('',#680);
#219=VERTEX_POINT('',#682);
#220=VERTEX_POINT('',#684);
#221=VERTEX_POINT('',#688);
#222=VERTEX_POINT('',#689);
#223=VERTEX_POINT('',#691);
#224=VERTEX_POINT('',#693);
#225=VERTEX_POINT('',#697);
#226=VERTEX_POINT('',#699);
#227=VERTEX_POINT('',#703);
#228=VERTEX_POINT('',#707);
#229=VERTEX_POINT('',#709);
#230=VERTEX_POINT('',#713);
#231=VERTEX_POINT('',#717);
#232=VERTEX_POINT('',#723);
#233=VERTEX_POINT('',#729);
#234=VERTEX_POINT('',#736);
#235=EDGE_CURVE('',#195,#196,#75,.T.);
#236=EDGE_CURVE('',#197,#195,#76,.T.);
#237=EDGE_CURVE('',#198,#197,#77,.T.);
#238=EDGE_CURVE('',#196,#198,#78,.T.);
#239=EDGE_CURVE('',#199,#200,#79,.T.);
#240=EDGE_CURVE('',#201,#199,#80,.T.);
#241=EDGE_CURVE('',#202,#201,#81,.T.);
#242=EDGE_CURVE('',#200,#202,#82,.T.);
#243=EDGE_CURVE('',#199,#203,#83,.T.);
#244=EDGE_CURVE('',#204,#203,#84,.T.);
#245=EDGE_CURVE('',#201,#204,#85,.T.);
#246=EDGE_CURVE('',#205,#200,#86,.T.);
#247=EDGE_CURVE('',#203,#205,#87,.T.);
#248=EDGE_CURVE('',#206,#195,#88,.T.);
#249=EDGE_CURVE('',#207,#206,#89,.T.);
#250=EDGE_CURVE('',#207,#197,#90,.T.);
#251=EDGE_CURVE('',#208,#196,#91,.T.);
#252=EDGE_CURVE('',#206,#208,#92,.T.);
#253=EDGE_CURVE('',#209,#210,#93,.T.);
#254=EDGE_CURVE('',#209,#211,#94,.T.);
#255=EDGE_CURVE('',#212,#211,#95,.T.);
#256=EDGE_CURVE('',#210,#212,#96,.T.);
#257=EDGE_CURVE('',#213,#209,#97,.T.);
#258=EDGE_CURVE('',#213,#214,#98,.T.);
#259=EDGE_CURVE('',#211,#214,#99,.T.);
#260=EDGE_CURVE('',#215,#213,#100,.T.);
#261=EDGE_CURVE('',#215,#216,#101,.T.);
#262=EDGE_CURVE('',#214,#216,#102,.T.);
#263=EDGE_CURVE('',#210,#215,#103,.T.);
#264=EDGE_CURVE('',#216,#212,#104,.T.);
#265=EDGE_CURVE('',#217,#218,#105,.T.);
#266=EDGE_CURVE('',#219,#217,#106,.T.);
#267=EDGE_CURVE('',#220,#219,#107,.T.);
#268=EDGE_CURVE('',#218,#220,#108,.T.);
#269=EDGE_CURVE('',#221,#222,#109,.T.);
#270=EDGE_CURVE('',#223,#221,#110,.T.);
#271=EDGE_CURVE('',#224,#223,#111,.T.);
#272=EDGE_CURVE('',#222,#224,#112,.T.);
#273=EDGE_CURVE('',#217,#225,#113,.T.);
#274=EDGE_CURVE('',#226,#225,#114,.T.);
#275=EDGE_CURVE('',#219,#226,#115,.T.);
#276=EDGE_CURVE('',#218,#227,#116,.T.);
#277=EDGE_CURVE('',#225,#227,#117,.T.);
#278=EDGE_CURVE('',#221,#228,#118,.T.);
#279=EDGE_CURVE('',#229,#228,#119,.T.);
#280=EDGE_CURVE('',#223,#229,#120,.T.);
#281=EDGE_CURVE('',#222,#230,#121,.T.);
#282=EDGE_CURVE('',#228,#230,#122,.T.);
#283=EDGE_CURVE('',#231,#226,#123,.T.);
#284=EDGE_CURVE('',#220,#231,#124,.T.);
#285=EDGE_CURVE('',#227,#231,#125,.T.);
#286=EDGE_CURVE('',#232,#229,#126,.T.);
#287=EDGE_CURVE('',#224,#232,#127,.T.);
#288=EDGE_CURVE('',#230,#232,#128,.T.);
#289=EDGE_CURVE('',#233,#198,#129,.T.);
#290=EDGE_CURVE('',#208,#233,#130,.T.);
#291=EDGE_CURVE('',#233,#207,#131,.T.);
#292=EDGE_CURVE('',#202,#234,#132,.T.);
#293=EDGE_CURVE('',#205,#234,#133,.T.);
#294=EDGE_CURVE('',#234,#204,#134,.T.);
#295=ORIENTED_EDGE('',*,*,#235,.F.);
#296=ORIENTED_EDGE('',*,*,#236,.F.);
#297=ORIENTED_EDGE('',*,*,#237,.F.);
#298=ORIENTED_EDGE('',*,*,#238,.F.);
#299=ORIENTED_EDGE('',*,*,#239,.F.);
#300=ORIENTED_EDGE('',*,*,#240,.F.);
#301=ORIENTED_EDGE('',*,*,#241,.F.);
#302=ORIENTED_EDGE('',*,*,#242,.F.);
#303=ORIENTED_EDGE('',*,*,#240,.T.);
#304=ORIENTED_EDGE('',*,*,#243,.T.);
#305=ORIENTED_EDGE('',*,*,#244,.F.);
#306=ORIENTED_EDGE('',*,*,#245,.F.);
#307=ORIENTED_EDGE('',*,*,#239,.T.);
#308=ORIENTED_EDGE('',*,*,#246,.F.);
#309=ORIENTED_EDGE('',*,*,#247,.F.);
#310=ORIENTED_EDGE('',*,*,#243,.F.);
#311=ORIENTED_EDGE('',*,*,#236,.T.);
#312=ORIENTED_EDGE('',*,*,#248,.F.);
#313=ORIENTED_EDGE('',*,*,#249,.F.);
#314=ORIENTED_EDGE('',*,*,#250,.T.);
#315=ORIENTED_EDGE('',*,*,#235,.T.);
#316=ORIENTED_EDGE('',*,*,#251,.F.);
#317=ORIENTED_EDGE('',*,*,#252,.F.);
#318=ORIENTED_EDGE('',*,*,#248,.T.);
#319=ORIENTED_EDGE('',*,*,#253,.F.);
#320=ORIENTED_EDGE('',*,*,#254,.T.);
#321=ORIENTED_EDGE('',*,*,#255,.F.);
#322=ORIENTED_EDGE('',*,*,#256,.F.);
#323=ORIENTED_EDGE('',*,*,#257,.F.);
#324=ORIENTED_EDGE('',*,*,#258,.T.);
#325=ORIENTED_EDGE('',*,*,#259,.F.);
#326=ORIENTED_EDGE('',*,*,#254,.F.);
#327=ORIENTED_EDGE('',*,*,#260,.F.);
#328=ORIENTED_EDGE('',*,*,#261,.T.);
#329=ORIENTED_EDGE('',*,*,#262,.F.);
#330=ORIENTED_EDGE('',*,*,#258,.F.);
#331=ORIENTED_EDGE('',*,*,#263,.F.);
#332=ORIENTED_EDGE('',*,*,#256,.T.);
#333=ORIENTED_EDGE('',*,*,#264,.F.);
#334=ORIENTED_EDGE('',*,*,#261,.F.);
#335=ORIENTED_EDGE('',*,*,#265,.F.);
#336=ORIENTED_EDGE('',*,*,#266,.F.);
#337=ORIENTED_EDGE('',*,*,#267,.F.);
#338=ORIENTED_EDGE('',*,*,#268,.F.);
#339=ORIENTED_EDGE('',*,*,#269,.F.);
#340=ORIENTED_EDGE('',*,*,#270,.F.);
#341=ORIENTED_EDGE('',*,*,#271,.F.);
#342=ORIENTED_EDGE('',*,*,#272,.F.);
#343=ORIENTED_EDGE('',*,*,#266,.T.);
#344=ORIENTED_EDGE('',*,*,#273,.T.);
#345=ORIENTED_EDGE('',*,*,#274,.F.);
#346=ORIENTED_EDGE('',*,*,#275,.F.);
#347=ORIENTED_EDGE('',*,*,#265,.T.);
#348=ORIENTED_EDGE('',*,*,#276,.T.);
#349=ORIENTED_EDGE('',*,*,#277,.F.);
#350=ORIENTED_EDGE('',*,*,#273,.F.);
#351=ORIENTED_EDGE('',*,*,#270,.T.);
#352=ORIENTED_EDGE('',*,*,#278,.T.);
#353=ORIENTED_EDGE('',*,*,#279,.F.);
#354=ORIENTED_EDGE('',*,*,#280,.F.);
#355=ORIENTED_EDGE('',*,*,#269,.T.);
#356=ORIENTED_EDGE('',*,*,#281,.T.);
#357=ORIENTED_EDGE('',*,*,#282,.F.);
#358=ORIENTED_EDGE('',*,*,#278,.F.);
#359=ORIENTED_EDGE('',*,*,#267,.T.);
#360=ORIENTED_EDGE('',*,*,#275,.T.);
#361=ORIENTED_EDGE('',*,*,#283,.F.);
#362=ORIENTED_EDGE('',*,*,#284,.F.);
#363=ORIENTED_EDGE('',*,*,#268,.T.);
#364=ORIENTED_EDGE('',*,*,#284,.T.);
#365=ORIENTED_EDGE('',*,*,#285,.F.);
#366=ORIENTED_EDGE('',*,*,#276,.F.);
#367=ORIENTED_EDGE('',*,*,#271,.T.);
#368=ORIENTED_EDGE('',*,*,#280,.T.);
#369=ORIENTED_EDGE('',*,*,#286,.F.);
#370=ORIENTED_EDGE('',*,*,#287,.F.);
#371=ORIENTED_EDGE('',*,*,#272,.T.);
#372=ORIENTED_EDGE('',*,*,#287,.T.);
#373=ORIENTED_EDGE('',*,*,#288,.F.);
#374=ORIENTED_EDGE('',*,*,#281,.F.);
#375=ORIENTED_EDGE('',*,*,#238,.T.);
#376=ORIENTED_EDGE('',*,*,#289,.F.);
#377=ORIENTED_EDGE('',*,*,#290,.F.);
#378=ORIENTED_EDGE('',*,*,#251,.T.);
#379=ORIENTED_EDGE('',*,*,#237,.T.);
#380=ORIENTED_EDGE('',*,*,#250,.F.);
#381=ORIENTED_EDGE('',*,*,#291,.F.);
#382=ORIENTED_EDGE('',*,*,#289,.T.);
#383=ORIENTED_EDGE('',*,*,#290,.T.);
#384=ORIENTED_EDGE('',*,*,#291,.T.);
#385=ORIENTED_EDGE('',*,*,#249,.T.);
#386=ORIENTED_EDGE('',*,*,#252,.T.);
#387=ORIENTED_EDGE('',*,*,#264,.T.);
#388=ORIENTED_EDGE('',*,*,#255,.T.);
#389=ORIENTED_EDGE('',*,*,#259,.T.);
#390=ORIENTED_EDGE('',*,*,#262,.T.);
#391=ORIENTED_EDGE('',*,*,#277,.T.);
#392=ORIENTED_EDGE('',*,*,#285,.T.);
#393=ORIENTED_EDGE('',*,*,#283,.T.);
#394=ORIENTED_EDGE('',*,*,#274,.T.);
#395=ORIENTED_EDGE('',*,*,#282,.T.);
#396=ORIENTED_EDGE('',*,*,#288,.T.);
#397=ORIENTED_EDGE('',*,*,#286,.T.);
#398=ORIENTED_EDGE('',*,*,#279,.T.);
#399=ORIENTED_EDGE('',*,*,#242,.T.);
#400=ORIENTED_EDGE('',*,*,#292,.T.);
#401=ORIENTED_EDGE('',*,*,#293,.F.);
#402=ORIENTED_EDGE('',*,*,#246,.T.);
#403=ORIENTED_EDGE('',*,*,#241,.T.);
#404=ORIENTED_EDGE('',*,*,#245,.T.);
#405=ORIENTED_EDGE('',*,*,#294,.F.);
#406=ORIENTED_EDGE('',*,*,#292,.F.);
#407=ORIENTED_EDGE('',*,*,#260,.T.);
#408=ORIENTED_EDGE('',*,*,#257,.T.);
#409=ORIENTED_EDGE('',*,*,#253,.T.);
#410=ORIENTED_EDGE('',*,*,#263,.T.);
#411=ORIENTED_EDGE('',*,*,#247,.T.);
#412=ORIENTED_EDGE('',*,*,#293,.T.);
#413=ORIENTED_EDGE('',*,*,#294,.T.);
#414=ORIENTED_EDGE('',*,*,#244,.T.);
#415=PLANE('',#479);
#416=PLANE('',#480);
#417=PLANE('',#481);
#418=PLANE('',#482);
#419=PLANE('',#483);
#420=PLANE('',#484);
#421=PLANE('',#485);
#422=PLANE('',#486);
#423=PLANE('',#487);
#424=PLANE('',#488);
#425=PLANE('',#489);
#426=PLANE('',#490);
#427=PLANE('',#491);
#428=PLANE('',#492);
#429=PLANE('',#493);
#430=PLANE('',#494);
#431=PLANE('',#495);
#432=PLANE('',#496);
#433=PLANE('',#497);
#434=PLANE('',#498);
#435=PLANE('',#499);
#436=PLANE('',#500);
#437=PLANE('',#501);
#438=PLANE('',#502);
#439=PLANE('',#503);
#440=ADVANCED_FACE('',(#20,#15),#415,.T.);
#441=ADVANCED_FACE('',(#21),#416,.T.);
#442=ADVANCED_FACE('',(#22),#417,.T.);
#443=ADVANCED_FACE('',(#23),#418,.T.);
#444=ADVANCED_FACE('',(#24),#419,.T.);
#445=ADVANCED_FACE('',(#25),#420,.F.);
#446=ADVANCED_FACE('',(#26),#421,.F.);
#447=ADVANCED_FACE('',(#27),#422,.F.);
#448=ADVANCED_FACE('',(#28),#423,.F.);
#449=ADVANCED_FACE('',(#29),#424,.F.);
#450=ADVANCED_FACE('',(#30),#425,.F.);
#451=ADVANCED_FACE('',(#31),#426,.T.);
#452=ADVANCED_FACE('',(#32),#427,.T.);
#453=ADVANCED_FACE('',(#33),#428,.T.);
#454=ADVANCED_FACE('',(#34),#429,.T.);
#455=ADVANCED_FACE('',(#35),#430,.T.);
#456=ADVANCED_FACE('',(#36),#431,.T.);
#457=ADVANCED_FACE('',(#37),#432,.T.);
#458=ADVANCED_FACE('',(#38),#433,.T.);
#459=ADVANCED_FACE('',(#39),#434,.T.);
#460=ADVANCED_FACE('',(#40),#435,.T.);
#461=ADVANCED_FACE('',(#41,#16,#17,#18),#436,.T.);
#462=ADVANCED_FACE('',(#42),#437,.T.);
#463=ADVANCED_FACE('',(#43),#438,.T.);
#464=ADVANCED_FACE('',(#44,#19),#439,.F.);
#465=CLOSED_SHELL('',(#440,#441,#442,#443,#444,#445,#446,#447,#448,#449,
#450,#451,#452,#453,#454,#455,#456,#457,#458,#459,#460,#461,#462,#463,#464));
#466=DERIVED_UNIT_ELEMENT(#468,1.);
#467=DERIVED_UNIT_ELEMENT(#747,-3.);
#468=(
MASS_UNIT()
NAMED_UNIT(*)
SI_UNIT(.KILO.,.GRAM.)
);
#469=DERIVED_UNIT((#466,#467));
#470=MEASURE_REPRESENTATION_ITEM('density measure',
POSITIVE_RATIO_MEASURE(7850.),#469);
#471=PROPERTY_DEFINITION_REPRESENTATION(#476,#473);
#472=PROPERTY_DEFINITION_REPRESENTATION(#477,#474);
#473=REPRESENTATION('material name',(#475),#744);
#474=REPRESENTATION('density',(#470),#744);
#475=DESCRIPTIVE_REPRESENTATION_ITEM('Steel','Steel');
#476=PROPERTY_DEFINITION('material property','material name',#754);
#477=PROPERTY_DEFINITION('material property','density of part',#754);
#478=AXIS2_PLACEMENT_3D('',#616,#504,#505);
#479=AXIS2_PLACEMENT_3D('',#617,#506,#507);
#480=AXIS2_PLACEMENT_3D('',#634,#516,#517);
#481=AXIS2_PLACEMENT_3D('',#640,#521,#522);
#482=AXIS2_PLACEMENT_3D('',#644,#525,#526);
#483=AXIS2_PLACEMENT_3D('',#650,#530,#531);
#484=AXIS2_PLACEMENT_3D('',#654,#534,#535);
#485=AXIS2_PLACEMENT_3D('',#663,#540,#541);
#486=AXIS2_PLACEMENT_3D('',#669,#545,#546);
#487=AXIS2_PLACEMENT_3D('',#675,#550,#551);
#488=AXIS2_PLACEMENT_3D('',#678,#554,#555);
#489=AXIS2_PLACEMENT_3D('',#687,#560,#561);
#490=AXIS2_PLACEMENT_3D('',#696,#566,#567);
#491=AXIS2_PLACEMENT_3D('',#702,#571,#572);
#492=AXIS2_PLACEMENT_3D('',#706,#575,#576);
#493=AXIS2_PLACEMENT_3D('',#712,#580,#581);
#494=AXIS2_PLACEMENT_3D('',#716,#584,#585);
#495=AXIS2_PLACEMENT_3D('',#720,#588,#589);
#496=AXIS2_PLACEMENT_3D('',#722,#591,#592);
#497=AXIS2_PLACEMENT_3D('',#726,#595,#596);
#498=AXIS2_PLACEMENT_3D('',#728,#598,#599);
#499=AXIS2_PLACEMENT_3D('',#732,#602,#603);
#500=AXIS2_PLACEMENT_3D('',#734,#605,#606);
#501=AXIS2_PLACEMENT_3D('',#735,#607,#608);
#502=AXIS2_PLACEMENT_3D('',#739,#611,#612);
#503=AXIS2_PLACEMENT_3D('',#741,#614,#615);
#504=DIRECTION('axis',(0.,0.,1.));
#505=DIRECTION('refdir',(1.,0.,0.));
#506=DIRECTION('center_axis',(0.,0.,1.));
#507=DIRECTION('ref_axis',(1.,0.,0.));
#508=DIRECTION('',(-1.,0.,0.));
#509=DIRECTION('',(0.,-1.,0.));
#510=DIRECTION('',(1.,0.,0.));
#511=DIRECTION('',(0.,1.,0.));
#512=DIRECTION('',(-1.,0.,0.));
#513=DIRECTION('',(1.05735526154777E-16,1.,0.));
#514=DIRECTION('',(1.,0.,0.));
#515=DIRECTION('',(0.,-1.,0.));
#516=DIRECTION('center_axis',(-1.,1.05735526154777E-16,0.));
#517=DIRECTION('ref_axis',(1.05735526154777E-16,1.,0.));
#518=DIRECTION('',(0.,0.,-1.));
#519=DIRECTION('',(1.05735526154777E-16,1.,0.));
#520=DIRECTION('',(0.,0.,-1.));
#521=DIRECTION('center_axis',(0.,-1.,0.));
#522=DIRECTION('ref_axis',(-1.,0.,0.));
#523=DIRECTION('',(0.,0.,1.));
#524=DIRECTION('',(-1.,0.,0.));
#525=DIRECTION('center_axis',(1.,0.,0.));
#526=DIRECTION('ref_axis',(0.,1.,-1.22464679914735E-16));
#527=DIRECTION('',(0.,1.22464679914735E-16,1.));
#528=DIRECTION('',(0.,-1.,0.));
#529=DIRECTION('',(0.,1.22464679914735E-16,1.));
#530=DIRECTION('center_axis',(0.,-1.,1.22464679914735E-16));
#531=DIRECTION('ref_axis',(1.,0.,0.));
#532=DIRECTION('',(0.,1.22464679914735E-16,1.));
#533=DIRECTION('',(-1.,0.,0.));
#534=DIRECTION('center_axis',(0.,1.,0.));
#535=DIRECTION('ref_axis',(1.,0.,0.));
#536=DIRECTION('',(1.,0.,0.));
#537=DIRECTION('',(0.,0.,-1.));
#538=DIRECTION('',(-1.,0.,0.));
#539=DIRECTION('',(0.,0.,-1.));
#540=DIRECTION('center_axis',(-1.,0.,0.));
#541=DIRECTION('ref_axis',(0.,1.,0.));
#542=DIRECTION('',(0.,1.,0.));
#543=DIRECTION('',(0.,0.,-1.));
#544=DIRECTION('',(0.,-1.,0.));
#545=DIRECTION('center_axis',(0.,-1.,0.));
#546=DIRECTION('ref_axis',(-1.,0.,0.));
#547=DIRECTION('',(-1.,0.,0.));
#548=DIRECTION('',(0.,0.,-1.));
#549=DIRECTION('',(1.,0.,0.));
#550=DIRECTION('center_axis',(1.,-8.39122053495758E-17,0.));
#551=DIRECTION('ref_axis',(-8.39122053495758E-17,-1.,0.));
#552=DIRECTION('',(-8.39122053495758E-17,-1.,0.));
#553=DIRECTION('',(8.39122053495758E-17,1.,0.));
#554=DIRECTION('center_axis',(0.,0.,1.));
#555=DIRECTION('ref_axis',(1.,0.,0.));
#556=DIRECTION('',(0.,-1.,0.));
#557=DIRECTION('',(-1.,0.,0.));
#558=DIRECTION('',(0.,1.,0.));
#559=DIRECTION('',(1.,0.,0.));
#560=DIRECTION('center_axis',(0.,0.,1.));
#561=DIRECTION('ref_axis',(1.,0.,0.));
#562=DIRECTION('',(0.,1.,0.));
#563=DIRECTION('',(1.,0.,0.));
#564=DIRECTION('',(0.,-1.,0.));
#565=DIRECTION('',(-1.,0.,0.));
#566=DIRECTION('center_axis',(0.,1.,0.));
#567=DIRECTION('ref_axis',(-1.,0.,0.));
#568=DIRECTION('',(0.,0.,1.));
#569=DIRECTION('',(-1.,0.,0.));
#570=DIRECTION('',(0.,0.,1.));
#571=DIRECTION('center_axis',(-1.,0.,0.));
#572=DIRECTION('ref_axis',(0.,-1.,0.));
#573=DIRECTION('',(0.,0.,1.));
#574=DIRECTION('',(0.,-1.,0.));
#575=DIRECTION('center_axis',(0.,-1.,0.));
#576=DIRECTION('ref_axis',(1.,0.,0.));
#577=DIRECTION('',(0.,0.,1.));
#578=DIRECTION('',(1.,0.,0.));
#579=DIRECTION('',(0.,0.,1.));
#580=DIRECTION('center_axis',(1.,0.,0.));
#581=DIRECTION('ref_axis',(0.,1.,0.));
#582=DIRECTION('',(0.,0.,1.));
#583=DIRECTION('',(0.,1.,0.));
#584=DIRECTION('center_axis',(1.,0.,0.));
#585=DIRECTION('ref_axis',(0.,1.,0.));
#586=DIRECTION('',(0.,1.,0.));
#587=DIRECTION('',(0.,0.,1.));
#588=DIRECTION('center_axis',(0.,-1.,0.));
#589=DIRECTION('ref_axis',(1.,0.,0.));
#590=DIRECTION('',(1.,0.,0.));
#591=DIRECTION('center_axis',(-1.,0.,0.));
#592=DIRECTION('ref_axis',(0.,-1.,0.));
#593=DIRECTION('',(0.,-1.,0.));
#594=DIRECTION('',(0.,0.,1.));
#595=DIRECTION('center_axis',(0.,1.,0.));
#596=DIRECTION('ref_axis',(-1.,0.,0.));
#597=DIRECTION('',(-1.,0.,0.));
#598=DIRECTION('center_axis',(-1.,0.,0.));
#599=DIRECTION('ref_axis',(0.,-1.,1.22464679914735E-16));
#600=DIRECTION('',(0.,1.22464679914735E-16,1.));
#601=DIRECTION('',(0.,1.,0.));
#602=DIRECTION('center_axis',(0.,1.,-1.22464679914735E-16));
#603=DIRECTION('ref_axis',(-1.,0.,0.));
#604=DIRECTION('',(1.,0.,0.));
#605=DIRECTION('center_axis',(0.,0.,-1.));
#606=DIRECTION('ref_axis',(-1.,0.,0.));
#607=DIRECTION('center_axis',(1.,0.,0.));
#608=DIRECTION('ref_axis',(0.,-1.,0.));
#609=DIRECTION('',(0.,0.,-1.));
#610=DIRECTION('',(0.,-1.,0.));
#611=DIRECTION('center_axis',(0.,1.,0.));
#612=DIRECTION('ref_axis',(1.,0.,0.));
#613=DIRECTION('',(1.,0.,0.));
#614=DIRECTION('center_axis',(0.,0.,1.));
#615=DIRECTION('ref_axis',(1.,0.,0.));
#616=CARTESIAN_POINT('',(0.,0.,0.));
#617=CARTESIAN_POINT('Origin',(-80.7868300736601,249.13916992634,-102.09398018796));
#618=CARTESIAN_POINT('',(14.2131699263399,154.13916992634,-102.09398018796));
#619=CARTESIAN_POINT('',(-175.78683007366,154.13916992634,-102.09398018796));
#620=CARTESIAN_POINT('',(-128.28683007366,154.13916992634,-102.09398018796));
#621=CARTESIAN_POINT('',(14.2131699263399,344.13916992634,-102.09398018796));
#622=CARTESIAN_POINT('',(14.2131699263399,201.63916992634,-102.09398018796));
#623=CARTESIAN_POINT('',(-175.78683007366,344.13916992634,-102.09398018796));
#624=CARTESIAN_POINT('',(-33.2868300736601,344.13916992634,-102.09398018796));
#625=CARTESIAN_POINT('',(-175.78683007366,296.63916992634,-102.09398018796));
#626=CARTESIAN_POINT('',(-15.7868300736601,291.13916992634,-102.09398018796));
#627=CARTESIAN_POINT('',(-145.78683007366,291.13916992634,-102.09398018796));
#628=CARTESIAN_POINT('',(-48.2868300736601,291.13916992634,-102.09398018796));
#629=CARTESIAN_POINT('',(-15.7868300736601,207.13916992634,-102.09398018796));
#630=CARTESIAN_POINT('',(-15.7868300736601,228.13916992634,-102.09398018796));
#631=CARTESIAN_POINT('',(-145.78683007366,207.13916992634,-102.09398018796));
#632=CARTESIAN_POINT('',(-113.28683007366,207.13916992634,-102.09398018796));
#633=CARTESIAN_POINT('',(-145.78683007366,270.13916992634,-102.09398018796));
#634=CARTESIAN_POINT('Origin',(-15.7868300736601,207.13916992634,-100.));
#635=CARTESIAN_POINT('',(-15.7868300736601,291.13916992634,-107.09398018796));
#636=CARTESIAN_POINT('',(-15.7868300736601,291.13916992634,-100.));
#637=CARTESIAN_POINT('',(-15.7868300736601,207.13916992634,-107.09398018796));
#638=CARTESIAN_POINT('',(-15.7868300736601,228.13916992634,-107.09398018796));
#639=CARTESIAN_POINT('',(-15.7868300736601,207.13916992634,-100.));
#640=CARTESIAN_POINT('Origin',(-15.7868300736601,291.13916992634,-100.));
#641=CARTESIAN_POINT('',(-145.78683007366,291.13916992634,-107.09398018796));
#642=CARTESIAN_POINT('',(-145.78683007366,291.13916992634,-100.));
#643=CARTESIAN_POINT('',(-48.2868300736601,291.13916992634,-107.09398018796));
#644=CARTESIAN_POINT('Origin',(14.2131699263399,154.13916992634,-120.));
#645=CARTESIAN_POINT('',(14.2131699263399,154.13916992634,-110.));
#646=CARTESIAN_POINT('',(14.2131699263399,154.13916992634,-120.));
#647=CARTESIAN_POINT('',(14.2131699263399,344.13916992634,-110.));
#648=CARTESIAN_POINT('',(14.2131699263399,201.63916992634,-110.));
#649=CARTESIAN_POINT('',(14.2131699263399,344.13916992634,-120.));
#650=CARTESIAN_POINT('Origin',(-175.78683007366,154.13916992634,-120.));
#651=CARTESIAN_POINT('',(-175.78683007366,154.13916992634,-110.));
#652=CARTESIAN_POINT('',(-175.78683007366,154.13916992634,-120.));
#653=CARTESIAN_POINT('',(-128.28683007366,154.13916992634,-110.));
#654=CARTESIAN_POINT('Origin',(-166.78683007366,335.13916992634,-100.));
#655=CARTESIAN_POINT('',(-166.78683007366,335.13916992634,-107.09398018796));
#656=CARTESIAN_POINT('',(5.21316992633988,335.13916992634,-107.09398018796));
#657=CARTESIAN_POINT('',(-123.78683007366,335.13916992634,-107.09398018796));
#658=CARTESIAN_POINT('',(-166.78683007366,335.13916992634,-110.));
#659=CARTESIAN_POINT('',(-166.78683007366,335.13916992634,-100.));
#660=CARTESIAN_POINT('',(5.21316992633988,335.13916992634,-110.));
#661=CARTESIAN_POINT('',(-123.78683007366,335.13916992634,-110.));
#662=CARTESIAN_POINT('',(5.21316992633988,335.13916992634,-100.));
#663=CARTESIAN_POINT('Origin',(-166.78683007366,163.13916992634,-100.));
#664=CARTESIAN_POINT('',(-166.78683007366,163.13916992634,-107.09398018796));
#665=CARTESIAN_POINT('',(-166.78683007366,206.13916992634,-107.09398018796));
#666=CARTESIAN_POINT('',(-166.78683007366,163.13916992634,-110.));
#667=CARTESIAN_POINT('',(-166.78683007366,163.13916992634,-100.));
#668=CARTESIAN_POINT('',(-166.78683007366,206.13916992634,-110.));
#669=CARTESIAN_POINT('Origin',(5.21316992633987,163.13916992634,-100.));
#670=CARTESIAN_POINT('',(5.21316992633987,163.13916992634,-107.09398018796));
#671=CARTESIAN_POINT('',(-37.7868300736601,163.13916992634,-107.09398018796));
#672=CARTESIAN_POINT('',(5.21316992633987,163.13916992634,-110.));
#673=CARTESIAN_POINT('',(5.21316992633987,163.13916992634,-100.));
#674=CARTESIAN_POINT('',(-37.7868300736601,163.13916992634,-110.));
#675=CARTESIAN_POINT('Origin',(5.21316992633988,335.13916992634,-100.));
#676=CARTESIAN_POINT('',(5.21316992633988,292.13916992634,-107.09398018796));
#677=CARTESIAN_POINT('',(5.21316992633988,292.13916992634,-110.));
#678=CARTESIAN_POINT('Origin',(-171.16183007366,249.13916992634,-118.));
#679=CARTESIAN_POINT('',(-174.16183007366,253.13916992634,-118.));
#680=CARTESIAN_POINT('',(-174.16183007366,245.13916992634,-118.));
#681=CARTESIAN_POINT('',(-174.16183007366,251.13916992634,-118.));
#682=CARTESIAN_POINT('',(-168.16183007366,253.13916992634,-118.));
#683=CARTESIAN_POINT('',(-169.66183007366,253.13916992634,-118.));
#684=CARTESIAN_POINT('',(-168.16183007366,245.13916992634,-118.));
#685=CARTESIAN_POINT('',(-168.16183007366,247.13916992634,-118.));
#686=CARTESIAN_POINT('',(-172.66183007366,245.13916992634,-118.));
#687=CARTESIAN_POINT('Origin',(9.58816992633988,249.13916992634,-118.));
#688=CARTESIAN_POINT('',(12.5881699263399,245.13916992634,-118.));
#689=CARTESIAN_POINT('',(12.5881699263399,253.13916992634,-118.));
#690=CARTESIAN_POINT('',(12.5881699263399,247.13916992634,-118.));
#691=CARTESIAN_POINT('',(6.58816992633987,245.13916992634,-118.));
#692=CARTESIAN_POINT('',(8.08816992633988,245.13916992634,-118.));
#693=CARTESIAN_POINT('',(6.58816992633987,253.13916992634,-118.));
#694=CARTESIAN_POINT('',(6.58816992633987,251.13916992634,-118.));
#695=CARTESIAN_POINT('',(11.0881699263399,253.13916992634,-118.));
#696=CARTESIAN_POINT('Origin',(-168.16183007366,253.13916992634,-130.));
#697=CARTESIAN_POINT('',(-174.16183007366,253.13916992634,-110.));
#698=CARTESIAN_POINT('',(-174.16183007366,253.13916992634,-130.));
#699=CARTESIAN_POINT('',(-168.16183007366,253.13916992634,-110.));
#700=CARTESIAN_POINT('',(-124.47433007366,253.13916992634,-110.));
#701=CARTESIAN_POINT('',(-168.16183007366,253.13916992634,-130.));
#702=CARTESIAN_POINT('Origin',(-174.16183007366,253.13916992634,-130.));
#703=CARTESIAN_POINT('',(-174.16183007366,245.13916992634,-110.));
#704=CARTESIAN_POINT('',(-174.16183007366,245.13916992634,-130.));
#705=CARTESIAN_POINT('',(-174.16183007366,251.13916992634,-110.));
#706=CARTESIAN_POINT('Origin',(6.58816992633987,245.13916992634,-130.));
#707=CARTESIAN_POINT('',(12.5881699263399,245.13916992634,-110.));
#708=CARTESIAN_POINT('',(12.5881699263399,245.13916992634,-130.));
#709=CARTESIAN_POINT('',(6.58816992633987,245.13916992634,-110.));
#710=CARTESIAN_POINT('',(-37.0993300736601,245.13916992634,-110.));
#711=CARTESIAN_POINT('',(6.58816992633987,245.13916992634,-130.));
#712=CARTESIAN_POINT('Origin',(12.5881699263399,245.13916992634,-130.));
#713=CARTESIAN_POINT('',(12.5881699263399,253.13916992634,-110.));
#714=CARTESIAN_POINT('',(12.5881699263399,253.13916992634,-130.));
#715=CARTESIAN_POINT('',(12.5881699263399,247.13916992634,-110.));
#716=CARTESIAN_POINT('Origin',(-168.16183007366,245.13916992634,-130.));
#717=CARTESIAN_POINT('',(-168.16183007366,245.13916992634,-110.));
#718=CARTESIAN_POINT('',(-168.16183007366,247.13916992634,-110.));
#719=CARTESIAN_POINT('',(-168.16183007366,245.13916992634,-130.));
#720=CARTESIAN_POINT('Origin',(-174.16183007366,245.13916992634,-130.));
#721=CARTESIAN_POINT('',(-127.47433007366,245.13916992634,-110.));
#722=CARTESIAN_POINT('Origin',(6.58816992633987,253.13916992634,-130.));
#723=CARTESIAN_POINT('',(6.58816992633987,253.13916992634,-110.));
#724=CARTESIAN_POINT('',(6.58816992633987,251.13916992634,-110.));
#725=CARTESIAN_POINT('',(6.58816992633987,253.13916992634,-130.));
#726=CARTESIAN_POINT('Origin',(12.5881699263399,253.13916992634,-130.));
#727=CARTESIAN_POINT('',(-34.0993300736601,253.13916992634,-110.));
#728=CARTESIAN_POINT('Origin',(-175.78683007366,344.13916992634,-120.));
#729=CARTESIAN_POINT('',(-175.78683007366,344.13916992634,-110.));
#730=CARTESIAN_POINT('',(-175.78683007366,344.13916992634,-120.));
#731=CARTESIAN_POINT('',(-175.78683007366,296.63916992634,-110.));
#732=CARTESIAN_POINT('Origin',(14.2131699263399,344.13916992634,-120.));
#733=CARTESIAN_POINT('',(-33.2868300736601,344.13916992634,-110.));
#734=CARTESIAN_POINT('Origin',(-80.7868300736601,249.13916992634,-110.));
#735=CARTESIAN_POINT('Origin',(-145.78683007366,291.13916992634,-100.));
#736=CARTESIAN_POINT('',(-145.78683007366,207.13916992634,-107.09398018796));
#737=CARTESIAN_POINT('',(-145.78683007366,207.13916992634,-100.));
#738=CARTESIAN_POINT('',(-145.78683007366,270.13916992634,-107.09398018796));
#739=CARTESIAN_POINT('Origin',(-145.78683007366,207.13916992634,-100.));
#740=CARTESIAN_POINT('',(-113.28683007366,207.13916992634,-107.09398018796));
#741=CARTESIAN_POINT('Origin',(-80.7868300736601,249.13916992634,-107.09398018796));
#742=UNCERTAINTY_MEASURE_WITH_UNIT(LENGTH_MEASURE(0.01),#746,
'DISTANCE_ACCURACY_VALUE',
'Maximum model space distance between geometric entities at asserted c
onnectivities');
#743=UNCERTAINTY_MEASURE_WITH_UNIT(LENGTH_MEASURE(0.01),#746,
'DISTANCE_ACCURACY_VALUE',
'Maximum model space distance between geometric entities at asserted c
onnectivities');
#744=(
GEOMETRIC_REPRESENTATION_CONTEXT(3)
GLOBAL_UNCERTAINTY_ASSIGNED_CONTEXT((#742))
GLOBAL_UNIT_ASSIGNED_CONTEXT((#746,#748,#749))
REPRESENTATION_CONTEXT('','3D')
);
#745=(
GEOMETRIC_REPRESENTATION_CONTEXT(3)
GLOBAL_UNCERTAINTY_ASSIGNED_CONTEXT((#743))
GLOBAL_UNIT_ASSIGNED_CONTEXT((#746,#748,#749))
REPRESENTATION_CONTEXT('','3D')
);
#746=(
LENGTH_UNIT()
NAMED_UNIT(*)
SI_UNIT(.MILLI.,.METRE.)
);
#747=(
LENGTH_UNIT()
NAMED_UNIT(*)
SI_UNIT($,.METRE.)
);
#748=(
NAMED_UNIT(*)
PLANE_ANGLE_UNIT()
SI_UNIT($,.RADIAN.)
);
#749=(
NAMED_UNIT(*)
SI_UNIT($,.STERADIAN.)
SOLID_ANGLE_UNIT()
);
#750=SHAPE_DEFINITION_REPRESENTATION(#751,#752);
#751=PRODUCT_DEFINITION_SHAPE('',$,#754);
#752=SHAPE_REPRESENTATION('',(#478),#744);
#753=PRODUCT_DEFINITION_CONTEXT('part definition',#758,'design');
#754=PRODUCT_DEFINITION('2026-09-13-20-03-15-848','CaseL_Bottom',#755,#753);
#755=PRODUCT_DEFINITION_FORMATION('',$,#760);
#756=PRODUCT_RELATED_PRODUCT_CATEGORY('CaseL_Bottom','CaseL_Bottom',(#760));
#757=APPLICATION_PROTOCOL_DEFINITION('international standard',
'automotive_design',2009,#758);
#758=APPLICATION_CONTEXT(
'Core Data for Automotive Mechanical Design Process');
#759=PRODUCT_CONTEXT('part definition',#758,'mechanical');
#760=PRODUCT('2026-09-13-20-03-15-848','CaseL_Bottom',$,(#759));
#761=PRESENTATION_STYLE_ASSIGNMENT((#762));
#762=SURFACE_STYLE_USAGE(.BOTH.,#763);
#763=SURFACE_SIDE_STYLE('',(#764));
#764=SURFACE_STYLE_FILL_AREA(#765);
#765=FILL_AREA_STYLE('Steel - Satin',(#766));
#766=FILL_AREA_STYLE_COLOUR('Steel - Satin',#767);
#767=COLOUR_RGB('Steel - Satin',0.627450980392157,0.627450980392157,0.627450980392157);
ENDSEC;
END-ISO-10303-21;
