ISO-10303-21;
HEADER;
/* Generated by software containing ST-Developer
 * from STEP Tools, Inc. (www.steptools.com) 
 */

FILE_DESCRIPTION(
/* description */ (''),
/* implementation_level */ '2;1');

FILE_NAME(
/* name */ 'CaseL_Top.step',
/* time_stamp */ '2026-09-13T20:04:12-06:00',
/* author */ (''),
/* organization */ (''),
/* preprocessor_version */ 'ST-DEVELOPER v20.2',
/* originating_system */ 'Autodesk Translation Framework v15.15.0.0',
/* authorisation */ '');

FILE_SCHEMA (('AUTOMOTIVE_DESIGN { 1 0 10303 214 3 1 1 }','AP242_MANAGED_MODEL_BASED_3D_ENGINEERING_MIM_LF { 1 0 10303 442 3 1 4 }'));
ENDSEC;

DATA;
#10=MECHANICAL_DESIGN_GEOMETRIC_PRESENTATION_REPRESENTATION('',(#13),#1405);
#11=SHAPE_REPRESENTATION_RELATIONSHIP('SRR','None',#1412,#12);
#12=ADVANCED_BREP_SHAPE_REPRESENTATION('',(#14),#1404);
#13=STYLED_ITEM('',(#1421),#14);
#14=MANIFOLD_SOLID_BREP('Body1',#871);
#15=FACE_BOUND('',#144,.T.);
#16=FACE_BOUND('',#145,.T.);
#17=FACE_BOUND('',#146,.T.);
#18=FACE_BOUND('',#153,.T.);
#19=FACE_BOUND('',#156,.T.);
#20=FACE_BOUND('',#161,.T.);
#21=PLANE('',#890);
#22=PLANE('',#891);
#23=PLANE('',#892);
#24=PLANE('',#893);
#25=PLANE('',#894);
#26=PLANE('',#898);
#27=PLANE('',#902);
#28=PLANE('',#903);
#29=PLANE('',#904);
#30=PLANE('',#905);
#31=PLANE('',#906);
#32=PLANE('',#907);
#33=PLANE('',#908);
#34=PLANE('',#909);
#35=PLANE('',#910);
#36=PLANE('',#911);
#37=PLANE('',#912);
#38=PLANE('',#913);
#39=PLANE('',#914);
#40=PLANE('',#915);
#41=PLANE('',#916);
#42=PLANE('',#917);
#43=PLANE('',#918);
#44=PLANE('',#919);
#45=PLANE('',#920);
#46=PLANE('',#921);
#47=PLANE('',#922);
#48=PLANE('',#923);
#49=PLANE('',#924);
#50=PLANE('',#925);
#51=PLANE('',#926);
#52=PLANE('',#927);
#53=PLANE('',#928);
#54=PLANE('',#929);
#55=PLANE('',#930);
#56=PLANE('',#931);
#57=PLANE('',#932);
#58=PLANE('',#933);
#59=PLANE('',#934);
#60=PLANE('',#935);
#61=PLANE('',#936);
#62=PLANE('',#937);
#63=PLANE('',#938);
#64=FACE_OUTER_BOUND('',#110,.T.);
#65=FACE_OUTER_BOUND('',#111,.T.);
#66=FACE_OUTER_BOUND('',#112,.T.);
#67=FACE_OUTER_BOUND('',#113,.T.);
#68=FACE_OUTER_BOUND('',#114,.T.);
#69=FACE_OUTER_BOUND('',#115,.T.);
#70=FACE_OUTER_BOUND('',#116,.T.);
#71=FACE_OUTER_BOUND('',#117,.T.);
#72=FACE_OUTER_BOUND('',#118,.T.);
#73=FACE_OUTER_BOUND('',#119,.T.);
#74=FACE_OUTER_BOUND('',#120,.T.);
#75=FACE_OUTER_BOUND('',#121,.T.);
#76=FACE_OUTER_BOUND('',#122,.T.);
#77=FACE_OUTER_BOUND('',#123,.T.);
#78=FACE_OUTER_BOUND('',#124,.T.);
#79=FACE_OUTER_BOUND('',#125,.T.);
#80=FACE_OUTER_BOUND('',#126,.T.);
#81=FACE_OUTER_BOUND('',#127,.T.);
#82=FACE_OUTER_BOUND('',#128,.T.);
#83=FACE_OUTER_BOUND('',#129,.T.);
#84=FACE_OUTER_BOUND('',#130,.T.);
#85=FACE_OUTER_BOUND('',#131,.T.);
#86=FACE_OUTER_BOUND('',#132,.T.);
#87=FACE_OUTER_BOUND('',#133,.T.);
#88=FACE_OUTER_BOUND('',#134,.T.);
#89=FACE_OUTER_BOUND('',#135,.T.);
#90=FACE_OUTER_BOUND('',#136,.T.);
#91=FACE_OUTER_BOUND('',#137,.T.);
#92=FACE_OUTER_BOUND('',#138,.T.);
#93=FACE_OUTER_BOUND('',#139,.T.);
#94=FACE_OUTER_BOUND('',#140,.T.);
#95=FACE_OUTER_BOUND('',#141,.T.);
#96=FACE_OUTER_BOUND('',#142,.T.);
#97=FACE_OUTER_BOUND('',#143,.T.);
#98=FACE_OUTER_BOUND('',#147,.T.);
#99=FACE_OUTER_BOUND('',#148,.T.);
#100=FACE_OUTER_BOUND('',#149,.T.);
#101=FACE_OUTER_BOUND('',#150,.T.);
#102=FACE_OUTER_BOUND('',#151,.T.);
#103=FACE_OUTER_BOUND('',#152,.T.);
#104=FACE_OUTER_BOUND('',#154,.T.);
#105=FACE_OUTER_BOUND('',#155,.T.);
#106=FACE_OUTER_BOUND('',#157,.T.);
#107=FACE_OUTER_BOUND('',#158,.T.);
#108=FACE_OUTER_BOUND('',#159,.T.);
#109=FACE_OUTER_BOUND('',#160,.T.);
#110=EDGE_LOOP('',(#586,#587,#588,#589,#590,#591));
#111=EDGE_LOOP('',(#592,#593));
#112=EDGE_LOOP('',(#594,#595,#596,#597));
#113=EDGE_LOOP('',(#598,#599,#600,#601));
#114=EDGE_LOOP('',(#602,#603,#604,#605));
#115=EDGE_LOOP('',(#606,#607,#608,#609));
#116=EDGE_LOOP('',(#610,#611,#612,#613));
#117=EDGE_LOOP('',(#614,#615,#616,#617));
#118=EDGE_LOOP('',(#618,#619,#620,#621));
#119=EDGE_LOOP('',(#622,#623,#624,#625));
#120=EDGE_LOOP('',(#626,#627,#628,#629,#630,#631));
#121=EDGE_LOOP('',(#632,#633,#634,#635));
#122=EDGE_LOOP('',(#636,#637,#638,#639,#640,#641));
#123=EDGE_LOOP('',(#642,#643,#644,#645,#646,#647));
#124=EDGE_LOOP('',(#648,#649,#650,#651));
#125=EDGE_LOOP('',(#652,#653,#654,#655));
#126=EDGE_LOOP('',(#656,#657,#658,#659,#660,#661,#662,#663));
#127=EDGE_LOOP('',(#664,#665,#666,#667));
#128=EDGE_LOOP('',(#668,#669,#670,#671));
#129=EDGE_LOOP('',(#672,#673,#674,#675,#676,#677));
#130=EDGE_LOOP('',(#678,#679,#680,#681));
#131=EDGE_LOOP('',(#682,#683,#684,#685,#686,#687,#688,#689));
#132=EDGE_LOOP('',(#690,#691,#692,#693));
#133=EDGE_LOOP('',(#694,#695,#696,#697));
#134=EDGE_LOOP('',(#698,#699,#700,#701));
#135=EDGE_LOOP('',(#702,#703,#704,#705));
#136=EDGE_LOOP('',(#706,#707,#708,#709));
#137=EDGE_LOOP('',(#710,#711,#712,#713));
#138=EDGE_LOOP('',(#714,#715,#716,#717));
#139=EDGE_LOOP('',(#718,#719,#720,#721));
#140=EDGE_LOOP('',(#722,#723,#724,#725));
#141=EDGE_LOOP('',(#726,#727,#728,#729));
#142=EDGE_LOOP('',(#730,#731,#732,#733));
#143=EDGE_LOOP('',(#734,#735,#736,#737));
#144=EDGE_LOOP('',(#738,#739,#740,#741));
#145=EDGE_LOOP('',(#742,#743,#744,#745));
#146=EDGE_LOOP('',(#746,#747,#748,#749));
#147=EDGE_LOOP('',(#750,#751,#752,#753));
#148=EDGE_LOOP('',(#754,#755,#756,#757));
#149=EDGE_LOOP('',(#758,#759,#760,#761));
#150=EDGE_LOOP('',(#762,#763,#764,#765));
#151=EDGE_LOOP('',(#766,#767,#768,#769));
#152=EDGE_LOOP('',(#770,#771,#772,#773));
#153=EDGE_LOOP('',(#774,#775,#776,#777));
#154=EDGE_LOOP('',(#778,#779,#780,#781));
#155=EDGE_LOOP('',(#782,#783,#784,#785,#786,#787,#788,#789,#790,#791,#792,
#793,#794,#795));
#156=EDGE_LOOP('',(#796,#797,#798,#799));
#157=EDGE_LOOP('',(#800,#801,#802,#803));
#158=EDGE_LOOP('',(#804,#805,#806,#807));
#159=EDGE_LOOP('',(#808,#809,#810,#811,#812,#813));
#160=EDGE_LOOP('',(#814,#815,#816,#817));
#161=EDGE_LOOP('',(#818,#819,#820,#821));
#162=CIRCLE('',#886,6.00000000000001);
#163=CIRCLE('',#887,6.00000000000001);
#164=CIRCLE('',#888,6.00000000000001);
#165=CIRCLE('',#889,6.00000000000001);
#166=CIRCLE('',#896,2.455);
#167=CIRCLE('',#897,2.455);
#168=CIRCLE('',#900,2.455);
#169=CIRCLE('',#901,2.455);
#170=LINE('',#1163,#280);
#171=LINE('',#1167,#281);
#172=LINE('',#1174,#282);
#173=LINE('',#1177,#283);
#174=LINE('',#1179,#284);
#175=LINE('',#1180,#285);
#176=LINE('',#1183,#286);
#177=LINE('',#1185,#287);
#178=LINE('',#1186,#288);
#179=LINE('',#1189,#289);
#180=LINE('',#1190,#290);
#181=LINE('',#1194,#291);
#182=LINE('',#1196,#292);
#183=LINE('',#1198,#293);
#184=LINE('',#1199,#294);
#185=LINE('',#1205,#295);
#186=LINE('',#1208,#296);
#187=LINE('',#1210,#297);
#188=LINE('',#1211,#298);
#189=LINE('',#1218,#299);
#190=LINE('',#1220,#300);
#191=LINE('',#1222,#301);
#192=LINE('',#1224,#302);
#193=LINE('',#1225,#303);
#194=LINE('',#1229,#304);
#195=LINE('',#1231,#305);
#196=LINE('',#1233,#306);
#197=LINE('',#1234,#307);
#198=LINE('',#1237,#308);
#199=LINE('',#1239,#309);
#200=LINE('',#1241,#310);
#201=LINE('',#1242,#311);
#202=LINE('',#1244,#312);
#203=LINE('',#1245,#313);
#204=LINE('',#1248,#314);
#205=LINE('',#1251,#315);
#206=LINE('',#1253,#316);
#207=LINE('',#1255,#317);
#208=LINE('',#1257,#318);
#209=LINE('',#1258,#319);
#210=LINE('',#1261,#320);
#211=LINE('',#1263,#321);
#212=LINE('',#1264,#322);
#213=LINE('',#1267,#323);
#214=LINE('',#1268,#324);
#215=LINE('',#1272,#325);
#216=LINE('',#1274,#326);
#217=LINE('',#1276,#327);
#218=LINE('',#1278,#328);
#219=LINE('',#1280,#329);
#220=LINE('',#1281,#330);
#221=LINE('',#1284,#331);
#222=LINE('',#1286,#332);
#223=LINE('',#1287,#333);
#224=LINE('',#1291,#334);
#225=LINE('',#1292,#335);
#226=LINE('',#1294,#336);
#227=LINE('',#1296,#337);
#228=LINE('',#1298,#338);
#229=LINE('',#1300,#339);
#230=LINE('',#1301,#340);
#231=LINE('',#1305,#341);
#232=LINE('',#1307,#342);
#233=LINE('',#1309,#343);
#234=LINE('',#1310,#344);
#235=LINE('',#1313,#345);
#236=LINE('',#1315,#346);
#237=LINE('',#1316,#347);
#238=LINE('',#1319,#348);
#239=LINE('',#1321,#349);
#240=LINE('',#1322,#350);
#241=LINE('',#1324,#351);
#242=LINE('',#1325,#352);
#243=LINE('',#1328,#353);
#244=LINE('',#1329,#354);
#245=LINE('',#1331,#355);
#246=LINE('',#1335,#356);
#247=LINE('',#1337,#357);
#248=LINE('',#1339,#358);
#249=LINE('',#1340,#359);
#250=LINE('',#1343,#360);
#251=LINE('',#1345,#361);
#252=LINE('',#1346,#362);
#253=LINE('',#1349,#363);
#254=LINE('',#1351,#364);
#255=LINE('',#1352,#365);
#256=LINE('',#1354,#366);
#257=LINE('',#1355,#367);
#258=LINE('',#1358,#368);
#259=LINE('',#1359,#369);
#260=LINE('',#1362,#370);
#261=LINE('',#1364,#371);
#262=LINE('',#1366,#372);
#263=LINE('',#1367,#373);
#264=LINE('',#1370,#374);
#265=LINE('',#1372,#375);
#266=LINE('',#1373,#376);
#267=LINE('',#1376,#377);
#268=LINE('',#1377,#378);
#269=LINE('',#1379,#379);
#270=LINE('',#1382,#380);
#271=LINE('',#1383,#381);
#272=LINE('',#1385,#382);
#273=LINE('',#1388,#383);
#274=LINE('',#1390,#384);
#275=LINE('',#1393,#385);
#276=LINE('',#1394,#386);
#277=LINE('',#1397,#387);
#278=LINE('',#1398,#388);
#279=LINE('',#1400,#389);
#280=VECTOR('',#943,10.);
#281=VECTOR('',#946,10.);
#282=VECTOR('',#955,10.);
#283=VECTOR('',#958,10.);
#284=VECTOR('',#959,10.);
#285=VECTOR('',#960,10.);
#286=VECTOR('',#963,10.);
#287=VECTOR('',#964,10.);
#288=VECTOR('',#965,10.);
#289=VECTOR('',#968,10.);
#290=VECTOR('',#969,10.);
#291=VECTOR('',#972,10.);
#292=VECTOR('',#973,10.);
#293=VECTOR('',#974,10.);
#294=VECTOR('',#975,10.);
#295=VECTOR('',#982,10.);
#296=VECTOR('',#985,10.);
#297=VECTOR('',#986,10.);
#298=VECTOR('',#987,10.);
#299=VECTOR('',#998,10.);
#300=VECTOR('',#999,10.);
#301=VECTOR('',#1000,10.);
#302=VECTOR('',#1001,10.);
#303=VECTOR('',#1002,10.);
#304=VECTOR('',#1005,10.);
#305=VECTOR('',#1006,10.);
#306=VECTOR('',#1007,10.);
#307=VECTOR('',#1008,10.);
#308=VECTOR('',#1011,10.);
#309=VECTOR('',#1012,10.);
#310=VECTOR('',#1013,10.);
#311=VECTOR('',#1014,10.);
#312=VECTOR('',#1017,10.);
#313=VECTOR('',#1018,10.);
#314=VECTOR('',#1023,10.);
#315=VECTOR('',#1026,10.);
#316=VECTOR('',#1027,10.);
#317=VECTOR('',#1028,10.);
#318=VECTOR('',#1029,10.);
#319=VECTOR('',#1030,10.);
#320=VECTOR('',#1033,10.);
#321=VECTOR('',#1034,10.);
#322=VECTOR('',#1035,10.);
#323=VECTOR('',#1038,10.);
#324=VECTOR('',#1039,10.);
#325=VECTOR('',#1042,10.);
#326=VECTOR('',#1043,10.);
#327=VECTOR('',#1044,10.);
#328=VECTOR('',#1045,10.);
#329=VECTOR('',#1046,10.);
#330=VECTOR('',#1047,10.);
#331=VECTOR('',#1050,10.);
#332=VECTOR('',#1051,10.);
#333=VECTOR('',#1052,10.);
#334=VECTOR('',#1055,10.);
#335=VECTOR('',#1056,10.);
#336=VECTOR('',#1057,10.);
#337=VECTOR('',#1058,10.);
#338=VECTOR('',#1059,10.);
#339=VECTOR('',#1060,10.);
#340=VECTOR('',#1061,10.);
#341=VECTOR('',#1064,10.);
#342=VECTOR('',#1065,10.);
#343=VECTOR('',#1066,10.);
#344=VECTOR('',#1067,10.);
#345=VECTOR('',#1070,10.);
#346=VECTOR('',#1071,10.);
#347=VECTOR('',#1072,10.);
#348=VECTOR('',#1075,10.);
#349=VECTOR('',#1076,10.);
#350=VECTOR('',#1077,10.);
#351=VECTOR('',#1080,10.);
#352=VECTOR('',#1081,10.);
#353=VECTOR('',#1084,10.);
#354=VECTOR('',#1085,10.);
#355=VECTOR('',#1088,10.);
#356=VECTOR('',#1091,10.);
#357=VECTOR('',#1092,10.);
#358=VECTOR('',#1093,10.);
#359=VECTOR('',#1094,10.);
#360=VECTOR('',#1097,10.);
#361=VECTOR('',#1098,10.);
#362=VECTOR('',#1099,10.);
#363=VECTOR('',#1102,10.);
#364=VECTOR('',#1103,10.);
#365=VECTOR('',#1104,10.);
#366=VECTOR('',#1107,10.);
#367=VECTOR('',#1108,10.);
#368=VECTOR('',#1113,10.);
#369=VECTOR('',#1114,10.);
#370=VECTOR('',#1115,10.);
#371=VECTOR('',#1116,10.);
#372=VECTOR('',#1117,10.);
#373=VECTOR('',#1118,10.);
#374=VECTOR('',#1121,10.);
#375=VECTOR('',#1122,10.);
#376=VECTOR('',#1123,10.);
#377=VECTOR('',#1126,10.);
#378=VECTOR('',#1127,10.);
#379=VECTOR('',#1130,10.);
#380=VECTOR('',#1133,10.);
#381=VECTOR('',#1134,10.);
#382=VECTOR('',#1137,10.);
#383=VECTOR('',#1142,10.);
#384=VECTOR('',#1145,10.);
#385=VECTOR('',#1148,10.);
#386=VECTOR('',#1149,10.);
#387=VECTOR('',#1152,10.);
#388=VECTOR('',#1153,10.);
#389=VECTOR('',#1156,10.);
#390=VERTEX_POINT('',#1161);
#391=VERTEX_POINT('',#1162);
#392=VERTEX_POINT('',#1164);
#393=VERTEX_POINT('',#1166);
#394=VERTEX_POINT('',#1168);
#395=VERTEX_POINT('',#1170);
#396=VERTEX_POINT('',#1176);
#397=VERTEX_POINT('',#1178);
#398=VERTEX_POINT('',#1182);
#399=VERTEX_POINT('',#1184);
#400=VERTEX_POINT('',#1188);
#401=VERTEX_POINT('',#1192);
#402=VERTEX_POINT('',#1193);
#403=VERTEX_POINT('',#1195);
#404=VERTEX_POINT('',#1197);
#405=VERTEX_POINT('',#1201);
#406=VERTEX_POINT('',#1203);
#407=VERTEX_POINT('',#1207);
#408=VERTEX_POINT('',#1209);
#409=VERTEX_POINT('',#1217);
#410=VERTEX_POINT('',#1219);
#411=VERTEX_POINT('',#1221);
#412=VERTEX_POINT('',#1223);
#413=VERTEX_POINT('',#1227);
#414=VERTEX_POINT('',#1228);
#415=VERTEX_POINT('',#1230);
#416=VERTEX_POINT('',#1232);
#417=VERTEX_POINT('',#1236);
#418=VERTEX_POINT('',#1238);
#419=VERTEX_POINT('',#1240);
#420=VERTEX_POINT('',#1250);
#421=VERTEX_POINT('',#1252);
#422=VERTEX_POINT('',#1254);
#423=VERTEX_POINT('',#1256);
#424=VERTEX_POINT('',#1260);
#425=VERTEX_POINT('',#1262);
#426=VERTEX_POINT('',#1266);
#427=VERTEX_POINT('',#1270);
#428=VERTEX_POINT('',#1271);
#429=VERTEX_POINT('',#1273);
#430=VERTEX_POINT('',#1275);
#431=VERTEX_POINT('',#1277);
#432=VERTEX_POINT('',#1279);
#433=VERTEX_POINT('',#1283);
#434=VERTEX_POINT('',#1285);
#435=VERTEX_POINT('',#1289);
#436=VERTEX_POINT('',#1290);
#437=VERTEX_POINT('',#1293);
#438=VERTEX_POINT('',#1295);
#439=VERTEX_POINT('',#1297);
#440=VERTEX_POINT('',#1299);
#441=VERTEX_POINT('',#1303);
#442=VERTEX_POINT('',#1304);
#443=VERTEX_POINT('',#1306);
#444=VERTEX_POINT('',#1308);
#445=VERTEX_POINT('',#1312);
#446=VERTEX_POINT('',#1314);
#447=VERTEX_POINT('',#1318);
#448=VERTEX_POINT('',#1320);
#449=VERTEX_POINT('',#1327);
#450=VERTEX_POINT('',#1333);
#451=VERTEX_POINT('',#1334);
#452=VERTEX_POINT('',#1336);
#453=VERTEX_POINT('',#1338);
#454=VERTEX_POINT('',#1342);
#455=VERTEX_POINT('',#1344);
#456=VERTEX_POINT('',#1348);
#457=VERTEX_POINT('',#1350);
#458=VERTEX_POINT('',#1360);
#459=VERTEX_POINT('',#1361);
#460=VERTEX_POINT('',#1363);
#461=VERTEX_POINT('',#1365);
#462=VERTEX_POINT('',#1369);
#463=VERTEX_POINT('',#1371);
#464=VERTEX_POINT('',#1375);
#465=VERTEX_POINT('',#1381);
#466=VERTEX_POINT('',#1392);
#467=VERTEX_POINT('',#1396);
#468=EDGE_CURVE('',#390,#391,#170,.T.);
#469=EDGE_CURVE('',#392,#390,#162,.T.);
#470=EDGE_CURVE('',#393,#392,#171,.T.);
#471=EDGE_CURVE('',#394,#393,#163,.T.);
#472=EDGE_CURVE('',#395,#394,#164,.T.);
#473=EDGE_CURVE('',#391,#395,#165,.T.);
#474=EDGE_CURVE('',#395,#394,#172,.T.);
#475=EDGE_CURVE('',#396,#395,#173,.T.);
#476=EDGE_CURVE('',#397,#396,#174,.T.);
#477=EDGE_CURVE('',#391,#397,#175,.T.);
#478=EDGE_CURVE('',#398,#393,#176,.T.);
#479=EDGE_CURVE('',#398,#399,#177,.T.);
#480=EDGE_CURVE('',#394,#399,#178,.T.);
#481=EDGE_CURVE('',#392,#400,#179,.T.);
#482=EDGE_CURVE('',#400,#398,#180,.T.);
#483=EDGE_CURVE('',#401,#402,#181,.T.);
#484=EDGE_CURVE('',#401,#403,#182,.T.);
#485=EDGE_CURVE('',#403,#404,#183,.T.);
#486=EDGE_CURVE('',#402,#404,#184,.T.);
#487=EDGE_CURVE('',#402,#405,#166,.T.);
#488=EDGE_CURVE('',#404,#406,#167,.T.);
#489=EDGE_CURVE('',#405,#406,#185,.T.);
#490=EDGE_CURVE('',#405,#407,#186,.T.);
#491=EDGE_CURVE('',#406,#408,#187,.T.);
#492=EDGE_CURVE('',#407,#408,#188,.T.);
#493=EDGE_CURVE('',#407,#401,#168,.T.);
#494=EDGE_CURVE('',#408,#403,#169,.T.);
#495=EDGE_CURVE('',#409,#396,#189,.T.);
#496=EDGE_CURVE('',#410,#409,#190,.T.);
#497=EDGE_CURVE('',#410,#411,#191,.T.);
#498=EDGE_CURVE('',#412,#411,#192,.T.);
#499=EDGE_CURVE('',#397,#412,#193,.T.);
#500=EDGE_CURVE('',#413,#414,#194,.T.);
#501=EDGE_CURVE('',#415,#413,#195,.T.);
#502=EDGE_CURVE('',#416,#415,#196,.T.);
#503=EDGE_CURVE('',#414,#416,#197,.T.);
#504=EDGE_CURVE('',#399,#417,#198,.T.);
#505=EDGE_CURVE('',#400,#418,#199,.T.);
#506=EDGE_CURVE('',#418,#419,#200,.T.);
#507=EDGE_CURVE('',#417,#419,#201,.T.);
#508=EDGE_CURVE('',#412,#390,#202,.T.);
#509=EDGE_CURVE('',#411,#418,#203,.T.);
#510=EDGE_CURVE('',#419,#410,#204,.T.);
#511=EDGE_CURVE('',#420,#409,#205,.T.);
#512=EDGE_CURVE('',#420,#421,#206,.T.);
#513=EDGE_CURVE('',#421,#422,#207,.T.);
#514=EDGE_CURVE('',#423,#422,#208,.T.);
#515=EDGE_CURVE('',#417,#423,#209,.T.);
#516=EDGE_CURVE('',#424,#415,#210,.T.);
#517=EDGE_CURVE('',#425,#424,#211,.T.);
#518=EDGE_CURVE('',#425,#416,#212,.T.);
#519=EDGE_CURVE('',#426,#413,#213,.T.);
#520=EDGE_CURVE('',#424,#426,#214,.T.);
#521=EDGE_CURVE('',#427,#428,#215,.T.);
#522=EDGE_CURVE('',#429,#427,#216,.T.);
#523=EDGE_CURVE('',#430,#429,#217,.T.);
#524=EDGE_CURVE('',#430,#431,#218,.T.);
#525=EDGE_CURVE('',#431,#432,#219,.T.);
#526=EDGE_CURVE('',#428,#432,#220,.T.);
#527=EDGE_CURVE('',#427,#433,#221,.T.);
#528=EDGE_CURVE('',#434,#433,#222,.T.);
#529=EDGE_CURVE('',#429,#434,#223,.T.);
#530=EDGE_CURVE('',#435,#436,#224,.T.);
#531=EDGE_CURVE('',#435,#431,#225,.T.);
#532=EDGE_CURVE('',#437,#430,#226,.T.);
#533=EDGE_CURVE('',#437,#438,#227,.T.);
#534=EDGE_CURVE('',#438,#439,#228,.T.);
#535=EDGE_CURVE('',#440,#439,#229,.T.);
#536=EDGE_CURVE('',#436,#440,#230,.T.);
#537=EDGE_CURVE('',#441,#442,#231,.T.);
#538=EDGE_CURVE('',#443,#441,#232,.T.);
#539=EDGE_CURVE('',#444,#443,#233,.T.);
#540=EDGE_CURVE('',#444,#442,#234,.T.);
#541=EDGE_CURVE('',#442,#445,#235,.T.);
#542=EDGE_CURVE('',#446,#444,#236,.T.);
#543=EDGE_CURVE('',#446,#445,#237,.T.);
#544=EDGE_CURVE('',#445,#447,#238,.T.);
#545=EDGE_CURVE('',#448,#446,#239,.T.);
#546=EDGE_CURVE('',#448,#447,#240,.T.);
#547=EDGE_CURVE('',#447,#441,#241,.T.);
#548=EDGE_CURVE('',#443,#448,#242,.T.);
#549=EDGE_CURVE('',#449,#414,#243,.T.);
#550=EDGE_CURVE('',#426,#449,#244,.T.);
#551=EDGE_CURVE('',#449,#425,#245,.T.);
#552=EDGE_CURVE('',#450,#451,#246,.T.);
#553=EDGE_CURVE('',#450,#452,#247,.T.);
#554=EDGE_CURVE('',#452,#453,#248,.T.);
#555=EDGE_CURVE('',#451,#453,#249,.T.);
#556=EDGE_CURVE('',#454,#450,#250,.T.);
#557=EDGE_CURVE('',#454,#455,#251,.T.);
#558=EDGE_CURVE('',#455,#452,#252,.T.);
#559=EDGE_CURVE('',#456,#454,#253,.T.);
#560=EDGE_CURVE('',#456,#457,#254,.T.);
#561=EDGE_CURVE('',#457,#455,#255,.T.);
#562=EDGE_CURVE('',#451,#456,#256,.T.);
#563=EDGE_CURVE('',#453,#457,#257,.T.);
#564=EDGE_CURVE('',#439,#421,#258,.T.);
#565=EDGE_CURVE('',#422,#438,#259,.T.);
#566=EDGE_CURVE('',#458,#459,#260,.T.);
#567=EDGE_CURVE('',#460,#458,#261,.T.);
#568=EDGE_CURVE('',#461,#460,#262,.T.);
#569=EDGE_CURVE('',#459,#461,#263,.T.);
#570=EDGE_CURVE('',#462,#460,#264,.T.);
#571=EDGE_CURVE('',#462,#463,#265,.T.);
#572=EDGE_CURVE('',#463,#461,#266,.T.);
#573=EDGE_CURVE('',#464,#458,#267,.T.);
#574=EDGE_CURVE('',#464,#462,#268,.T.);
#575=EDGE_CURVE('',#440,#420,#269,.T.);
#576=EDGE_CURVE('',#465,#459,#270,.T.);
#577=EDGE_CURVE('',#465,#464,#271,.T.);
#578=EDGE_CURVE('',#463,#465,#272,.T.);
#579=EDGE_CURVE('',#423,#437,#273,.T.);
#580=EDGE_CURVE('',#434,#436,#274,.T.);
#581=EDGE_CURVE('',#435,#466,#275,.T.);
#582=EDGE_CURVE('',#432,#466,#276,.T.);
#583=EDGE_CURVE('',#467,#428,#277,.T.);
#584=EDGE_CURVE('',#433,#467,#278,.T.);
#585=EDGE_CURVE('',#466,#467,#279,.T.);
#586=ORIENTED_EDGE('',*,*,#468,.F.);
#587=ORIENTED_EDGE('',*,*,#469,.F.);
#588=ORIENTED_EDGE('',*,*,#470,.F.);
#589=ORIENTED_EDGE('',*,*,#471,.F.);
#590=ORIENTED_EDGE('',*,*,#472,.F.);
#591=ORIENTED_EDGE('',*,*,#473,.F.);
#592=ORIENTED_EDGE('',*,*,#474,.F.);
#593=ORIENTED_EDGE('',*,*,#472,.T.);
#594=ORIENTED_EDGE('',*,*,#473,.T.);
#595=ORIENTED_EDGE('',*,*,#475,.F.);
#596=ORIENTED_EDGE('',*,*,#476,.F.);
#597=ORIENTED_EDGE('',*,*,#477,.F.);
#598=ORIENTED_EDGE('',*,*,#471,.T.);
#599=ORIENTED_EDGE('',*,*,#478,.F.);
#600=ORIENTED_EDGE('',*,*,#479,.T.);
#601=ORIENTED_EDGE('',*,*,#480,.F.);
#602=ORIENTED_EDGE('',*,*,#470,.T.);
#603=ORIENTED_EDGE('',*,*,#481,.T.);
#604=ORIENTED_EDGE('',*,*,#482,.T.);
#605=ORIENTED_EDGE('',*,*,#478,.T.);
#606=ORIENTED_EDGE('',*,*,#483,.F.);
#607=ORIENTED_EDGE('',*,*,#484,.T.);
#608=ORIENTED_EDGE('',*,*,#485,.T.);
#609=ORIENTED_EDGE('',*,*,#486,.F.);
#610=ORIENTED_EDGE('',*,*,#487,.F.);
#611=ORIENTED_EDGE('',*,*,#486,.T.);
#612=ORIENTED_EDGE('',*,*,#488,.T.);
#613=ORIENTED_EDGE('',*,*,#489,.F.);
#614=ORIENTED_EDGE('',*,*,#490,.F.);
#615=ORIENTED_EDGE('',*,*,#489,.T.);
#616=ORIENTED_EDGE('',*,*,#491,.T.);
#617=ORIENTED_EDGE('',*,*,#492,.F.);
#618=ORIENTED_EDGE('',*,*,#493,.F.);
#619=ORIENTED_EDGE('',*,*,#492,.T.);
#620=ORIENTED_EDGE('',*,*,#494,.T.);
#621=ORIENTED_EDGE('',*,*,#484,.F.);
#622=ORIENTED_EDGE('',*,*,#494,.F.);
#623=ORIENTED_EDGE('',*,*,#491,.F.);
#624=ORIENTED_EDGE('',*,*,#488,.F.);
#625=ORIENTED_EDGE('',*,*,#485,.F.);
#626=ORIENTED_EDGE('',*,*,#495,.F.);
#627=ORIENTED_EDGE('',*,*,#496,.F.);
#628=ORIENTED_EDGE('',*,*,#497,.T.);
#629=ORIENTED_EDGE('',*,*,#498,.F.);
#630=ORIENTED_EDGE('',*,*,#499,.F.);
#631=ORIENTED_EDGE('',*,*,#476,.T.);
#632=ORIENTED_EDGE('',*,*,#500,.F.);
#633=ORIENTED_EDGE('',*,*,#501,.F.);
#634=ORIENTED_EDGE('',*,*,#502,.F.);
#635=ORIENTED_EDGE('',*,*,#503,.F.);
#636=ORIENTED_EDGE('',*,*,#504,.F.);
#637=ORIENTED_EDGE('',*,*,#479,.F.);
#638=ORIENTED_EDGE('',*,*,#482,.F.);
#639=ORIENTED_EDGE('',*,*,#505,.T.);
#640=ORIENTED_EDGE('',*,*,#506,.T.);
#641=ORIENTED_EDGE('',*,*,#507,.F.);
#642=ORIENTED_EDGE('',*,*,#469,.T.);
#643=ORIENTED_EDGE('',*,*,#508,.F.);
#644=ORIENTED_EDGE('',*,*,#498,.T.);
#645=ORIENTED_EDGE('',*,*,#509,.T.);
#646=ORIENTED_EDGE('',*,*,#505,.F.);
#647=ORIENTED_EDGE('',*,*,#481,.F.);
#648=ORIENTED_EDGE('',*,*,#468,.T.);
#649=ORIENTED_EDGE('',*,*,#477,.T.);
#650=ORIENTED_EDGE('',*,*,#499,.T.);
#651=ORIENTED_EDGE('',*,*,#508,.T.);
#652=ORIENTED_EDGE('',*,*,#510,.F.);
#653=ORIENTED_EDGE('',*,*,#506,.F.);
#654=ORIENTED_EDGE('',*,*,#509,.F.);
#655=ORIENTED_EDGE('',*,*,#497,.F.);
#656=ORIENTED_EDGE('',*,*,#507,.T.);
#657=ORIENTED_EDGE('',*,*,#510,.T.);
#658=ORIENTED_EDGE('',*,*,#496,.T.);
#659=ORIENTED_EDGE('',*,*,#511,.F.);
#660=ORIENTED_EDGE('',*,*,#512,.T.);
#661=ORIENTED_EDGE('',*,*,#513,.T.);
#662=ORIENTED_EDGE('',*,*,#514,.F.);
#663=ORIENTED_EDGE('',*,*,#515,.F.);
#664=ORIENTED_EDGE('',*,*,#502,.T.);
#665=ORIENTED_EDGE('',*,*,#516,.F.);
#666=ORIENTED_EDGE('',*,*,#517,.F.);
#667=ORIENTED_EDGE('',*,*,#518,.T.);
#668=ORIENTED_EDGE('',*,*,#501,.T.);
#669=ORIENTED_EDGE('',*,*,#519,.F.);
#670=ORIENTED_EDGE('',*,*,#520,.F.);
#671=ORIENTED_EDGE('',*,*,#516,.T.);
#672=ORIENTED_EDGE('',*,*,#521,.F.);
#673=ORIENTED_EDGE('',*,*,#522,.F.);
#674=ORIENTED_EDGE('',*,*,#523,.F.);
#675=ORIENTED_EDGE('',*,*,#524,.T.);
#676=ORIENTED_EDGE('',*,*,#525,.T.);
#677=ORIENTED_EDGE('',*,*,#526,.F.);
#678=ORIENTED_EDGE('',*,*,#527,.T.);
#679=ORIENTED_EDGE('',*,*,#528,.F.);
#680=ORIENTED_EDGE('',*,*,#529,.F.);
#681=ORIENTED_EDGE('',*,*,#522,.T.);
#682=ORIENTED_EDGE('',*,*,#530,.F.);
#683=ORIENTED_EDGE('',*,*,#531,.T.);
#684=ORIENTED_EDGE('',*,*,#524,.F.);
#685=ORIENTED_EDGE('',*,*,#532,.F.);
#686=ORIENTED_EDGE('',*,*,#533,.T.);
#687=ORIENTED_EDGE('',*,*,#534,.T.);
#688=ORIENTED_EDGE('',*,*,#535,.F.);
#689=ORIENTED_EDGE('',*,*,#536,.F.);
#690=ORIENTED_EDGE('',*,*,#537,.F.);
#691=ORIENTED_EDGE('',*,*,#538,.F.);
#692=ORIENTED_EDGE('',*,*,#539,.F.);
#693=ORIENTED_EDGE('',*,*,#540,.T.);
#694=ORIENTED_EDGE('',*,*,#541,.F.);
#695=ORIENTED_EDGE('',*,*,#540,.F.);
#696=ORIENTED_EDGE('',*,*,#542,.F.);
#697=ORIENTED_EDGE('',*,*,#543,.T.);
#698=ORIENTED_EDGE('',*,*,#544,.F.);
#699=ORIENTED_EDGE('',*,*,#543,.F.);
#700=ORIENTED_EDGE('',*,*,#545,.F.);
#701=ORIENTED_EDGE('',*,*,#546,.T.);
#702=ORIENTED_EDGE('',*,*,#547,.F.);
#703=ORIENTED_EDGE('',*,*,#546,.F.);
#704=ORIENTED_EDGE('',*,*,#548,.F.);
#705=ORIENTED_EDGE('',*,*,#538,.T.);
#706=ORIENTED_EDGE('',*,*,#500,.T.);
#707=ORIENTED_EDGE('',*,*,#549,.F.);
#708=ORIENTED_EDGE('',*,*,#550,.F.);
#709=ORIENTED_EDGE('',*,*,#519,.T.);
#710=ORIENTED_EDGE('',*,*,#503,.T.);
#711=ORIENTED_EDGE('',*,*,#518,.F.);
#712=ORIENTED_EDGE('',*,*,#551,.F.);
#713=ORIENTED_EDGE('',*,*,#549,.T.);
#714=ORIENTED_EDGE('',*,*,#552,.F.);
#715=ORIENTED_EDGE('',*,*,#553,.T.);
#716=ORIENTED_EDGE('',*,*,#554,.T.);
#717=ORIENTED_EDGE('',*,*,#555,.F.);
#718=ORIENTED_EDGE('',*,*,#556,.F.);
#719=ORIENTED_EDGE('',*,*,#557,.T.);
#720=ORIENTED_EDGE('',*,*,#558,.T.);
#721=ORIENTED_EDGE('',*,*,#553,.F.);
#722=ORIENTED_EDGE('',*,*,#559,.F.);
#723=ORIENTED_EDGE('',*,*,#560,.T.);
#724=ORIENTED_EDGE('',*,*,#561,.T.);
#725=ORIENTED_EDGE('',*,*,#557,.F.);
#726=ORIENTED_EDGE('',*,*,#562,.F.);
#727=ORIENTED_EDGE('',*,*,#555,.T.);
#728=ORIENTED_EDGE('',*,*,#563,.T.);
#729=ORIENTED_EDGE('',*,*,#560,.F.);
#730=ORIENTED_EDGE('',*,*,#563,.F.);
#731=ORIENTED_EDGE('',*,*,#554,.F.);
#732=ORIENTED_EDGE('',*,*,#558,.F.);
#733=ORIENTED_EDGE('',*,*,#561,.F.);
#734=ORIENTED_EDGE('',*,*,#513,.F.);
#735=ORIENTED_EDGE('',*,*,#564,.F.);
#736=ORIENTED_EDGE('',*,*,#534,.F.);
#737=ORIENTED_EDGE('',*,*,#565,.F.);
#738=ORIENTED_EDGE('',*,*,#550,.T.);
#739=ORIENTED_EDGE('',*,*,#551,.T.);
#740=ORIENTED_EDGE('',*,*,#517,.T.);
#741=ORIENTED_EDGE('',*,*,#520,.T.);
#742=ORIENTED_EDGE('',*,*,#552,.T.);
#743=ORIENTED_EDGE('',*,*,#562,.T.);
#744=ORIENTED_EDGE('',*,*,#559,.T.);
#745=ORIENTED_EDGE('',*,*,#556,.T.);
#746=ORIENTED_EDGE('',*,*,#566,.F.);
#747=ORIENTED_EDGE('',*,*,#567,.F.);
#748=ORIENTED_EDGE('',*,*,#568,.F.);
#749=ORIENTED_EDGE('',*,*,#569,.F.);
#750=ORIENTED_EDGE('',*,*,#568,.T.);
#751=ORIENTED_EDGE('',*,*,#570,.F.);
#752=ORIENTED_EDGE('',*,*,#571,.T.);
#753=ORIENTED_EDGE('',*,*,#572,.T.);
#754=ORIENTED_EDGE('',*,*,#567,.T.);
#755=ORIENTED_EDGE('',*,*,#573,.F.);
#756=ORIENTED_EDGE('',*,*,#574,.T.);
#757=ORIENTED_EDGE('',*,*,#570,.T.);
#758=ORIENTED_EDGE('',*,*,#564,.T.);
#759=ORIENTED_EDGE('',*,*,#512,.F.);
#760=ORIENTED_EDGE('',*,*,#575,.F.);
#761=ORIENTED_EDGE('',*,*,#535,.T.);
#762=ORIENTED_EDGE('',*,*,#566,.T.);
#763=ORIENTED_EDGE('',*,*,#576,.F.);
#764=ORIENTED_EDGE('',*,*,#577,.T.);
#765=ORIENTED_EDGE('',*,*,#573,.T.);
#766=ORIENTED_EDGE('',*,*,#569,.T.);
#767=ORIENTED_EDGE('',*,*,#572,.F.);
#768=ORIENTED_EDGE('',*,*,#578,.T.);
#769=ORIENTED_EDGE('',*,*,#576,.T.);
#770=ORIENTED_EDGE('',*,*,#578,.F.);
#771=ORIENTED_EDGE('',*,*,#571,.F.);
#772=ORIENTED_EDGE('',*,*,#574,.F.);
#773=ORIENTED_EDGE('',*,*,#577,.F.);
#774=ORIENTED_EDGE('',*,*,#537,.T.);
#775=ORIENTED_EDGE('',*,*,#541,.T.);
#776=ORIENTED_EDGE('',*,*,#544,.T.);
#777=ORIENTED_EDGE('',*,*,#547,.T.);
#778=ORIENTED_EDGE('',*,*,#565,.T.);
#779=ORIENTED_EDGE('',*,*,#533,.F.);
#780=ORIENTED_EDGE('',*,*,#579,.F.);
#781=ORIENTED_EDGE('',*,*,#514,.T.);
#782=ORIENTED_EDGE('',*,*,#504,.T.);
#783=ORIENTED_EDGE('',*,*,#515,.T.);
#784=ORIENTED_EDGE('',*,*,#579,.T.);
#785=ORIENTED_EDGE('',*,*,#532,.T.);
#786=ORIENTED_EDGE('',*,*,#523,.T.);
#787=ORIENTED_EDGE('',*,*,#529,.T.);
#788=ORIENTED_EDGE('',*,*,#580,.T.);
#789=ORIENTED_EDGE('',*,*,#536,.T.);
#790=ORIENTED_EDGE('',*,*,#575,.T.);
#791=ORIENTED_EDGE('',*,*,#511,.T.);
#792=ORIENTED_EDGE('',*,*,#495,.T.);
#793=ORIENTED_EDGE('',*,*,#475,.T.);
#794=ORIENTED_EDGE('',*,*,#474,.T.);
#795=ORIENTED_EDGE('',*,*,#480,.T.);
#796=ORIENTED_EDGE('',*,*,#539,.T.);
#797=ORIENTED_EDGE('',*,*,#548,.T.);
#798=ORIENTED_EDGE('',*,*,#545,.T.);
#799=ORIENTED_EDGE('',*,*,#542,.T.);
#800=ORIENTED_EDGE('',*,*,#531,.F.);
#801=ORIENTED_EDGE('',*,*,#581,.T.);
#802=ORIENTED_EDGE('',*,*,#582,.F.);
#803=ORIENTED_EDGE('',*,*,#525,.F.);
#804=ORIENTED_EDGE('',*,*,#521,.T.);
#805=ORIENTED_EDGE('',*,*,#583,.F.);
#806=ORIENTED_EDGE('',*,*,#584,.F.);
#807=ORIENTED_EDGE('',*,*,#527,.F.);
#808=ORIENTED_EDGE('',*,*,#584,.T.);
#809=ORIENTED_EDGE('',*,*,#585,.F.);
#810=ORIENTED_EDGE('',*,*,#581,.F.);
#811=ORIENTED_EDGE('',*,*,#530,.T.);
#812=ORIENTED_EDGE('',*,*,#580,.F.);
#813=ORIENTED_EDGE('',*,*,#528,.T.);
#814=ORIENTED_EDGE('',*,*,#585,.T.);
#815=ORIENTED_EDGE('',*,*,#583,.T.);
#816=ORIENTED_EDGE('',*,*,#526,.T.);
#817=ORIENTED_EDGE('',*,*,#582,.T.);
#818=ORIENTED_EDGE('',*,*,#490,.T.);
#819=ORIENTED_EDGE('',*,*,#493,.T.);
#820=ORIENTED_EDGE('',*,*,#483,.T.);
#821=ORIENTED_EDGE('',*,*,#487,.T.);
#822=CYLINDRICAL_SURFACE('',#885,6.00000000000001);
#823=CYLINDRICAL_SURFACE('',#895,2.455);
#824=CYLINDRICAL_SURFACE('',#899,2.455);
#825=ADVANCED_FACE('',(#64),#822,.F.);
#826=ADVANCED_FACE('',(#65),#21,.F.);
#827=ADVANCED_FACE('',(#66),#22,.T.);
#828=ADVANCED_FACE('',(#67),#23,.T.);
#829=ADVANCED_FACE('',(#68),#24,.T.);
#830=ADVANCED_FACE('',(#69),#25,.F.);
#831=ADVANCED_FACE('',(#70),#823,.F.);
#832=ADVANCED_FACE('',(#71),#26,.F.);
#833=ADVANCED_FACE('',(#72),#824,.F.);
#834=ADVANCED_FACE('',(#73),#27,.F.);
#835=ADVANCED_FACE('',(#74),#28,.T.);
#836=ADVANCED_FACE('',(#75),#29,.T.);
#837=ADVANCED_FACE('',(#76),#30,.T.);
#838=ADVANCED_FACE('',(#77),#31,.T.);
#839=ADVANCED_FACE('',(#78),#32,.T.);
#840=ADVANCED_FACE('',(#79),#33,.T.);
#841=ADVANCED_FACE('',(#80),#34,.T.);
#842=ADVANCED_FACE('',(#81),#35,.F.);
#843=ADVANCED_FACE('',(#82),#36,.F.);
#844=ADVANCED_FACE('',(#83),#37,.T.);
#845=ADVANCED_FACE('',(#84),#38,.T.);
#846=ADVANCED_FACE('',(#85),#39,.T.);
#847=ADVANCED_FACE('',(#86),#40,.F.);
#848=ADVANCED_FACE('',(#87),#41,.F.);
#849=ADVANCED_FACE('',(#88),#42,.F.);
#850=ADVANCED_FACE('',(#89),#43,.F.);
#851=ADVANCED_FACE('',(#90),#44,.F.);
#852=ADVANCED_FACE('',(#91),#45,.F.);
#853=ADVANCED_FACE('',(#92),#46,.F.);
#854=ADVANCED_FACE('',(#93),#47,.F.);
#855=ADVANCED_FACE('',(#94),#48,.F.);
#856=ADVANCED_FACE('',(#95),#49,.F.);
#857=ADVANCED_FACE('',(#96),#50,.F.);
#858=ADVANCED_FACE('',(#97,#15,#16,#17),#51,.F.);
#859=ADVANCED_FACE('',(#98),#52,.T.);
#860=ADVANCED_FACE('',(#99),#53,.T.);
#861=ADVANCED_FACE('',(#100),#54,.T.);
#862=ADVANCED_FACE('',(#101),#55,.T.);
#863=ADVANCED_FACE('',(#102),#56,.T.);
#864=ADVANCED_FACE('',(#103,#18),#57,.T.);
#865=ADVANCED_FACE('',(#104),#58,.T.);
#866=ADVANCED_FACE('',(#105,#19),#59,.F.);
#867=ADVANCED_FACE('',(#106),#60,.T.);
#868=ADVANCED_FACE('',(#107),#61,.T.);
#869=ADVANCED_FACE('',(#108),#62,.T.);
#870=ADVANCED_FACE('',(#109,#20),#63,.T.);
#871=CLOSED_SHELL('',(#825,#826,#827,#828,#829,#830,#831,#832,#833,#834,
#835,#836,#837,#838,#839,#840,#841,#842,#843,#844,#845,#846,#847,#848,#849,
#850,#851,#852,#853,#854,#855,#856,#857,#858,#859,#860,#861,#862,#863,#864,
#865,#866,#867,#868,#869,#870));
#872=DERIVED_UNIT_ELEMENT(#874,1.);
#873=DERIVED_UNIT_ELEMENT(#1407,-3.);
#874=(
MASS_UNIT()
NAMED_UNIT(*)
SI_UNIT(.KILO.,.GRAM.)
);
#875=DERIVED_UNIT((#872,#873));
#876=MEASURE_REPRESENTATION_ITEM('density measure',
POSITIVE_RATIO_MEASURE(7850.),#875);
#877=PROPERTY_DEFINITION_REPRESENTATION(#882,#879);
#878=PROPERTY_DEFINITION_REPRESENTATION(#883,#880);
#879=REPRESENTATION('material name',(#881),#1404);
#880=REPRESENTATION('density',(#876),#1404);
#881=DESCRIPTIVE_REPRESENTATION_ITEM('Steel','Steel');
#882=PROPERTY_DEFINITION('material property','material name',#1414);
#883=PROPERTY_DEFINITION('material property','density of part',#1414);
#884=AXIS2_PLACEMENT_3D('',#1159,#939,#940);
#885=AXIS2_PLACEMENT_3D('',#1160,#941,#942);
#886=AXIS2_PLACEMENT_3D('',#1165,#944,#945);
#887=AXIS2_PLACEMENT_3D('',#1169,#947,#948);
#888=AXIS2_PLACEMENT_3D('',#1171,#949,#950);
#889=AXIS2_PLACEMENT_3D('',#1172,#951,#952);
#890=AXIS2_PLACEMENT_3D('',#1173,#953,#954);
#891=AXIS2_PLACEMENT_3D('',#1175,#956,#957);
#892=AXIS2_PLACEMENT_3D('',#1181,#961,#962);
#893=AXIS2_PLACEMENT_3D('',#1187,#966,#967);
#894=AXIS2_PLACEMENT_3D('',#1191,#970,#971);
#895=AXIS2_PLACEMENT_3D('',#1200,#976,#977);
#896=AXIS2_PLACEMENT_3D('',#1202,#978,#979);
#897=AXIS2_PLACEMENT_3D('',#1204,#980,#981);
#898=AXIS2_PLACEMENT_3D('',#1206,#983,#984);
#899=AXIS2_PLACEMENT_3D('',#1212,#988,#989);
#900=AXIS2_PLACEMENT_3D('',#1213,#990,#991);
#901=AXIS2_PLACEMENT_3D('',#1214,#992,#993);
#902=AXIS2_PLACEMENT_3D('',#1215,#994,#995);
#903=AXIS2_PLACEMENT_3D('',#1216,#996,#997);
#904=AXIS2_PLACEMENT_3D('',#1226,#1003,#1004);
#905=AXIS2_PLACEMENT_3D('',#1235,#1009,#1010);
#906=AXIS2_PLACEMENT_3D('',#1243,#1015,#1016);
#907=AXIS2_PLACEMENT_3D('',#1246,#1019,#1020);
#908=AXIS2_PLACEMENT_3D('',#1247,#1021,#1022);
#909=AXIS2_PLACEMENT_3D('',#1249,#1024,#1025);
#910=AXIS2_PLACEMENT_3D('',#1259,#1031,#1032);
#911=AXIS2_PLACEMENT_3D('',#1265,#1036,#1037);
#912=AXIS2_PLACEMENT_3D('',#1269,#1040,#1041);
#913=AXIS2_PLACEMENT_3D('',#1282,#1048,#1049);
#914=AXIS2_PLACEMENT_3D('',#1288,#1053,#1054);
#915=AXIS2_PLACEMENT_3D('',#1302,#1062,#1063);
#916=AXIS2_PLACEMENT_3D('',#1311,#1068,#1069);
#917=AXIS2_PLACEMENT_3D('',#1317,#1073,#1074);
#918=AXIS2_PLACEMENT_3D('',#1323,#1078,#1079);
#919=AXIS2_PLACEMENT_3D('',#1326,#1082,#1083);
#920=AXIS2_PLACEMENT_3D('',#1330,#1086,#1087);
#921=AXIS2_PLACEMENT_3D('',#1332,#1089,#1090);
#922=AXIS2_PLACEMENT_3D('',#1341,#1095,#1096);
#923=AXIS2_PLACEMENT_3D('',#1347,#1100,#1101);
#924=AXIS2_PLACEMENT_3D('',#1353,#1105,#1106);
#925=AXIS2_PLACEMENT_3D('',#1356,#1109,#1110);
#926=AXIS2_PLACEMENT_3D('',#1357,#1111,#1112);
#927=AXIS2_PLACEMENT_3D('',#1368,#1119,#1120);
#928=AXIS2_PLACEMENT_3D('',#1374,#1124,#1125);
#929=AXIS2_PLACEMENT_3D('',#1378,#1128,#1129);
#930=AXIS2_PLACEMENT_3D('',#1380,#1131,#1132);
#931=AXIS2_PLACEMENT_3D('',#1384,#1135,#1136);
#932=AXIS2_PLACEMENT_3D('',#1386,#1138,#1139);
#933=AXIS2_PLACEMENT_3D('',#1387,#1140,#1141);
#934=AXIS2_PLACEMENT_3D('',#1389,#1143,#1144);
#935=AXIS2_PLACEMENT_3D('',#1391,#1146,#1147);
#936=AXIS2_PLACEMENT_3D('',#1395,#1150,#1151);
#937=AXIS2_PLACEMENT_3D('',#1399,#1154,#1155);
#938=AXIS2_PLACEMENT_3D('',#1401,#1157,#1158);
#939=DIRECTION('axis',(0.,0.,1.));
#940=DIRECTION('refdir',(1.,0.,0.));
#941=DIRECTION('center_axis',(1.,0.,0.));
#942=DIRECTION('ref_axis',(0.,-6.12323399573677E-17,1.));
#943=DIRECTION('',(1.,0.,0.));
#944=DIRECTION('center_axis',(1.,0.,0.));
#945=DIRECTION('ref_axis',(0.,-1.,0.));
#946=DIRECTION('',(-1.,0.,0.));
#947=DIRECTION('center_axis',(-1.,0.,0.));
#948=DIRECTION('ref_axis',(0.,-1.,0.));
#949=DIRECTION('center_axis',(-1.,0.,0.));
#950=DIRECTION('ref_axis',(0.,-1.,0.));
#951=DIRECTION('center_axis',(-1.,0.,0.));
#952=DIRECTION('ref_axis',(0.,-1.,0.));
#953=DIRECTION('center_axis',(1.,0.,0.));
#954=DIRECTION('ref_axis',(0.,0.,-1.));
#955=DIRECTION('',(0.,1.,-1.22464679914735E-16));
#956=DIRECTION('center_axis',(1.,0.,0.));
#957=DIRECTION('ref_axis',(0.,1.,0.));
#958=DIRECTION('',(0.,1.,-1.22464679914735E-16));
#959=DIRECTION('',(0.,0.,1.));
#960=DIRECTION('',(0.,-1.,0.));
#961=DIRECTION('center_axis',(1.,0.,0.));
#962=DIRECTION('ref_axis',(0.,1.,0.));
#963=DIRECTION('',(0.,-1.,0.));
#964=DIRECTION('',(0.,0.,1.));
#965=DIRECTION('',(0.,1.,-1.22464679914735E-16));
#966=DIRECTION('center_axis',(0.,0.,-1.));
#967=DIRECTION('ref_axis',(1.,0.,0.));
#968=DIRECTION('',(0.,1.,0.));
#969=DIRECTION('',(1.,-1.36642833800019E-15,0.));
#970=DIRECTION('center_axis',(-1.19626522433031E-14,1.,-9.51435131404215E-17));
#971=DIRECTION('ref_axis',(-1.72696653092465E-15,-9.51435131404421E-17,
-1.));
#972=DIRECTION('',(0.,-9.51435131404215E-17,-1.));
#973=DIRECTION('',(-1.,-1.19626522433031E-14,1.72696653092465E-15));
#974=DIRECTION('',(-1.72696653092465E-15,-9.51435131404421E-17,-1.));
#975=DIRECTION('',(-1.,-1.19626522433031E-14,1.72696653092465E-15));
#976=DIRECTION('center_axis',(-1.,-1.19626522433031E-14,1.72696653092465E-15));
#977=DIRECTION('ref_axis',(-1.19626522433031E-14,1.,-9.51435131404215E-17));
#978=DIRECTION('center_axis',(-1.,0.,0.));
#979=DIRECTION('ref_axis',(-1.19626522433031E-14,1.,-9.51435131404215E-17));
#980=DIRECTION('center_axis',(-1.,-1.19626522433031E-14,1.72696653092465E-15));
#981=DIRECTION('ref_axis',(-1.19626522433031E-14,1.,-9.51435131404215E-17));
#982=DIRECTION('',(-1.,-1.19626522433031E-14,1.72696653092465E-15));
#983=DIRECTION('center_axis',(1.19626522433031E-14,-1.,9.51435131404215E-17));
#984=DIRECTION('ref_axis',(1.72696653092465E-15,9.51435131404421E-17,1.));
#985=DIRECTION('',(0.,9.51435131404215E-17,1.));
#986=DIRECTION('',(1.72696653092465E-15,9.51435131404421E-17,1.));
#987=DIRECTION('',(-1.,-1.19626522433031E-14,1.72696653092465E-15));
#988=DIRECTION('center_axis',(-1.,-1.19626522433031E-14,1.72696653092465E-15));
#989=DIRECTION('ref_axis',(-1.19626522433031E-14,1.,-9.51435131404215E-17));
#990=DIRECTION('center_axis',(-1.,0.,0.));
#991=DIRECTION('ref_axis',(-1.19626522433031E-14,1.,-9.51435131404215E-17));
#992=DIRECTION('center_axis',(-1.,-1.19626522433031E-14,1.72696653092465E-15));
#993=DIRECTION('ref_axis',(-1.19626522433031E-14,1.,-9.51435131404215E-17));
#994=DIRECTION('center_axis',(-1.,-1.19626522433031E-14,1.72696653092465E-15));
#995=DIRECTION('ref_axis',(-1.19626522433031E-14,1.,-9.51435131404215E-17));
#996=DIRECTION('center_axis',(-1.36642833800019E-15,-1.,0.));
#997=DIRECTION('ref_axis',(1.,-1.36642833800019E-15,0.));
#998=DIRECTION('',(1.,-1.36642833800019E-15,1.67339209039617E-31));
#999=DIRECTION('',(0.,0.,-1.));
#1000=DIRECTION('',(-1.,1.36642833800019E-15,0.));
#1001=DIRECTION('',(0.,0.,1.));
#1002=DIRECTION('',(-1.,1.36642833800019E-15,0.));
#1003=DIRECTION('center_axis',(0.,0.,1.));
#1004=DIRECTION('ref_axis',(1.,0.,0.));
#1005=DIRECTION('',(-1.,0.,0.));
#1006=DIRECTION('',(0.,-1.,0.));
#1007=DIRECTION('',(1.,0.,0.));
#1008=DIRECTION('',(0.,1.,0.));
#1009=DIRECTION('center_axis',(1.36642833800019E-15,1.,0.));
#1010=DIRECTION('ref_axis',(-1.,1.36642833800019E-15,0.));
#1011=DIRECTION('',(-1.,1.36642833800019E-15,-1.67339209039617E-31));
#1012=DIRECTION('',(0.,0.,1.));
#1013=DIRECTION('',(1.,-1.36642833800019E-15,0.));
#1014=DIRECTION('',(0.,0.,1.));
#1015=DIRECTION('center_axis',(-1.,0.,0.));
#1016=DIRECTION('ref_axis',(0.,-1.,0.));
#1017=DIRECTION('',(0.,1.,0.));
#1018=DIRECTION('',(0.,1.,0.));
#1019=DIRECTION('center_axis',(0.,0.,-1.));
#1020=DIRECTION('ref_axis',(1.,0.,0.));
#1021=DIRECTION('center_axis',(0.,0.,1.));
#1022=DIRECTION('ref_axis',(1.,0.,0.));
#1023=DIRECTION('',(0.,-1.,0.));
#1024=DIRECTION('center_axis',(-1.,0.,0.));
#1025=DIRECTION('ref_axis',(0.,-1.,1.22464679914735E-16));
#1026=DIRECTION('',(0.,1.,-1.22464679914735E-16));
#1027=DIRECTION('',(0.,1.22464679914735E-16,1.));
#1028=DIRECTION('',(0.,1.,0.));
#1029=DIRECTION('',(0.,1.22464679914735E-16,1.));
#1030=DIRECTION('',(0.,1.,-1.22464679914735E-16));
#1031=DIRECTION('center_axis',(0.,1.,0.));
#1032=DIRECTION('ref_axis',(1.,0.,0.));
#1033=DIRECTION('',(0.,0.,-1.));
#1034=DIRECTION('',(1.,0.,0.));
#1035=DIRECTION('',(0.,0.,-1.));
#1036=DIRECTION('center_axis',(1.,0.,0.));
#1037=DIRECTION('ref_axis',(0.,-1.,0.));
#1038=DIRECTION('',(0.,0.,-1.));
#1039=DIRECTION('',(0.,-1.,0.));
#1040=DIRECTION('center_axis',(0.,1.,0.));
#1041=DIRECTION('ref_axis',(0.,0.,1.));
#1042=DIRECTION('',(1.,0.,0.));
#1043=DIRECTION('',(0.,0.,-1.));
#1044=DIRECTION('',(-1.,0.,0.));
#1045=DIRECTION('',(0.,0.,1.));
#1046=DIRECTION('',(1.,0.,0.));
#1047=DIRECTION('',(0.,0.,1.));
#1048=DIRECTION('center_axis',(-1.,0.,0.));
#1049=DIRECTION('ref_axis',(0.,1.,0.));
#1050=DIRECTION('',(0.,-1.,0.));
#1051=DIRECTION('',(0.,0.,-1.));
#1052=DIRECTION('',(0.,-1.,1.22464679914735E-16));
#1053=DIRECTION('center_axis',(1.,0.,0.));
#1054=DIRECTION('ref_axis',(0.,1.,-1.22464679914735E-16));
#1055=DIRECTION('',(0.,0.,-1.));
#1056=DIRECTION('',(0.,1.,0.));
#1057=DIRECTION('',(0.,-1.,1.22464679914735E-16));
#1058=DIRECTION('',(0.,1.22464679914735E-16,1.));
#1059=DIRECTION('',(0.,-1.,0.));
#1060=DIRECTION('',(0.,1.22464679914735E-16,1.));
#1061=DIRECTION('',(0.,-1.,1.22464679914735E-16));
#1062=DIRECTION('center_axis',(-1.,0.,0.));
#1063=DIRECTION('ref_axis',(0.,-1.,0.));
#1064=DIRECTION('',(0.,1.,0.));
#1065=DIRECTION('',(0.,0.,1.));
#1066=DIRECTION('',(0.,-1.,1.22464679914735E-16));
#1067=DIRECTION('',(0.,0.,1.));
#1068=DIRECTION('center_axis',(0.,1.,0.));
#1069=DIRECTION('ref_axis',(-1.,0.,0.));
#1070=DIRECTION('',(1.,0.,0.));
#1071=DIRECTION('',(-1.,0.,0.));
#1072=DIRECTION('',(0.,0.,1.));
#1073=DIRECTION('center_axis',(1.,0.,0.));
#1074=DIRECTION('ref_axis',(0.,1.,0.));
#1075=DIRECTION('',(0.,-1.,0.));
#1076=DIRECTION('',(0.,1.,-1.22464679914735E-16));
#1077=DIRECTION('',(0.,0.,1.));
#1078=DIRECTION('center_axis',(0.,-1.,0.));
#1079=DIRECTION('ref_axis',(1.,0.,0.));
#1080=DIRECTION('',(-1.,0.,0.));
#1081=DIRECTION('',(1.,0.,0.));
#1082=DIRECTION('center_axis',(0.,-1.,0.));
#1083=DIRECTION('ref_axis',(-1.,0.,0.));
#1084=DIRECTION('',(0.,0.,-1.));
#1085=DIRECTION('',(-1.,0.,0.));
#1086=DIRECTION('center_axis',(-1.,0.,0.));
#1087=DIRECTION('ref_axis',(0.,1.,0.));
#1088=DIRECTION('',(0.,1.,0.));
#1089=DIRECTION('center_axis',(0.,1.,0.));
#1090=DIRECTION('ref_axis',(1.,0.,0.));
#1091=DIRECTION('',(1.,0.,0.));
#1092=DIRECTION('',(0.,0.,-1.));
#1093=DIRECTION('',(1.,0.,0.));
#1094=DIRECTION('',(0.,0.,-1.));
#1095=DIRECTION('center_axis',(-1.,0.,0.));
#1096=DIRECTION('ref_axis',(0.,1.,0.));
#1097=DIRECTION('',(0.,1.,0.));
#1098=DIRECTION('',(0.,0.,-1.));
#1099=DIRECTION('',(0.,1.,0.));
#1100=DIRECTION('center_axis',(0.,-1.,0.));
#1101=DIRECTION('ref_axis',(-1.,0.,0.));
#1102=DIRECTION('',(-1.,0.,0.));
#1103=DIRECTION('',(0.,0.,-1.));
#1104=DIRECTION('',(-1.,0.,0.));
#1105=DIRECTION('center_axis',(1.,0.,0.));
#1106=DIRECTION('ref_axis',(0.,-1.,0.));
#1107=DIRECTION('',(0.,-1.,0.));
#1108=DIRECTION('',(0.,-1.,0.));
#1109=DIRECTION('center_axis',(0.,0.,-1.));
#1110=DIRECTION('ref_axis',(-1.,0.,0.));
#1111=DIRECTION('center_axis',(0.,0.,-1.));
#1112=DIRECTION('ref_axis',(-1.,0.,0.));
#1113=DIRECTION('',(-1.,0.,0.));
#1114=DIRECTION('',(1.,0.,0.));
#1115=DIRECTION('',(-1.,0.,0.));
#1116=DIRECTION('',(-3.88416218527752E-17,1.,0.));
#1117=DIRECTION('',(1.,0.,0.));
#1118=DIRECTION('',(0.,-1.,0.));
#1119=DIRECTION('center_axis',(0.,1.,-1.22464679914735E-16));
#1120=DIRECTION('ref_axis',(-1.,0.,0.));
#1121=DIRECTION('',(0.,1.22464679914735E-16,1.));
#1122=DIRECTION('',(-1.,0.,0.));
#1123=DIRECTION('',(0.,1.22464679914735E-16,1.));
#1124=DIRECTION('center_axis',(-1.,-3.88416218527752E-17,4.7567267875693E-33));
#1125=DIRECTION('ref_axis',(3.88416218527752E-17,-1.,1.22464679914735E-16));
#1126=DIRECTION('',(0.,1.22464679914735E-16,1.));
#1127=DIRECTION('',(3.88416218527752E-17,-1.,0.));
#1128=DIRECTION('center_axis',(0.,-1.,1.22464679914735E-16));
#1129=DIRECTION('ref_axis',(1.,0.,0.));
#1130=DIRECTION('',(-1.,0.,0.));
#1131=DIRECTION('center_axis',(0.,-1.,1.22464679914735E-16));
#1132=DIRECTION('ref_axis',(1.,0.,0.));
#1133=DIRECTION('',(0.,1.22464679914735E-16,1.));
#1134=DIRECTION('',(1.,0.,0.));
#1135=DIRECTION('center_axis',(1.,0.,0.));
#1136=DIRECTION('ref_axis',(0.,1.,-1.22464679914735E-16));
#1137=DIRECTION('',(0.,1.,0.));
#1138=DIRECTION('center_axis',(0.,0.,1.));
#1139=DIRECTION('ref_axis',(4.92690621705954E-49,1.,0.));
#1140=DIRECTION('center_axis',(0.,1.,-1.22464679914735E-16));
#1141=DIRECTION('ref_axis',(-1.,0.,0.));
#1142=DIRECTION('',(1.,0.,0.));
#1143=DIRECTION('center_axis',(0.,1.22464679914735E-16,1.));
#1144=DIRECTION('ref_axis',(1.,0.,0.));
#1145=DIRECTION('',(1.,0.,0.));
#1146=DIRECTION('center_axis',(0.,0.,1.));
#1147=DIRECTION('ref_axis',(0.,-1.,0.));
#1148=DIRECTION('',(1.,0.,0.));
#1149=DIRECTION('',(0.,-1.,0.));
#1150=DIRECTION('center_axis',(0.,0.,-1.));
#1151=DIRECTION('ref_axis',(0.,1.,0.));
#1152=DIRECTION('',(0.,1.,0.));
#1153=DIRECTION('',(1.,0.,0.));
#1154=DIRECTION('center_axis',(0.,-1.,0.));
#1155=DIRECTION('ref_axis',(0.,0.,-1.));
#1156=DIRECTION('',(0.,0.,-1.));
#1157=DIRECTION('center_axis',(1.,0.,0.));
#1158=DIRECTION('ref_axis',(0.,0.,-1.));
#1159=CARTESIAN_POINT('',(0.,0.,0.));
#1160=CARTESIAN_POINT('Origin',(-218.180554467598,249.13916992634,-124.214952384006));
#1161=CARTESIAN_POINT('',(-186.78683007366,246.128515885411,-129.404939112875));
#1162=CARTESIAN_POINT('',(-160.78683007366,246.128515885411,-129.404939112875));
#1163=CARTESIAN_POINT('',(-218.180554467598,246.128515885411,-129.404939112875));
#1164=CARTESIAN_POINT('',(-186.78683007366,252.149823967269,-129.404939112875));
#1165=CARTESIAN_POINT('Origin',(-186.78683007366,249.13916992634,-124.214952384006));
#1166=CARTESIAN_POINT('',(-160.78683007366,252.149823967269,-129.404939112875));
#1167=CARTESIAN_POINT('',(-218.180554467598,252.149823967269,-129.404939112875));
#1168=CARTESIAN_POINT('',(-160.78683007366,254.715368087864,-122.));
#1169=CARTESIAN_POINT('Origin',(-160.78683007366,249.13916992634,-124.214952384006));
#1170=CARTESIAN_POINT('',(-160.78683007366,243.562971764816,-122.));
#1171=CARTESIAN_POINT('Origin',(-160.78683007366,249.13916992634,-124.214952384006));
#1172=CARTESIAN_POINT('Origin',(-160.78683007366,249.13916992634,-124.214952384006));
#1173=CARTESIAN_POINT('Origin',(-160.78683007366,249.13916992634,-124.214952384006));
#1174=CARTESIAN_POINT('',(-160.78683007366,238.88916992634,-122.));
#1175=CARTESIAN_POINT('Origin',(-160.78683007366,228.63916992634,-129.404939112875));
#1176=CARTESIAN_POINT('',(-160.78683007366,228.63916992634,-122.));
#1177=CARTESIAN_POINT('',(-160.78683007366,238.88916992634,-122.));
#1178=CARTESIAN_POINT('',(-160.78683007366,228.63916992634,-129.404939112875));
#1179=CARTESIAN_POINT('',(-160.78683007366,228.63916992634,-129.404939112875));
#1180=CARTESIAN_POINT('',(-160.78683007366,269.63916992634,-129.404939112875));
#1181=CARTESIAN_POINT('Origin',(-160.78683007366,228.63916992634,-129.404939112875));
#1182=CARTESIAN_POINT('',(-160.78683007366,269.63916992634,-129.404939112875));
#1183=CARTESIAN_POINT('',(-160.78683007366,269.63916992634,-129.404939112875));
#1184=CARTESIAN_POINT('',(-160.78683007366,269.63916992634,-122.));
#1185=CARTESIAN_POINT('',(-160.78683007366,269.63916992634,-129.404939112875));
#1186=CARTESIAN_POINT('',(-160.78683007366,238.88916992634,-122.));
#1187=CARTESIAN_POINT('Origin',(-173.78683007366,249.13916992634,-129.404939112875));
#1188=CARTESIAN_POINT('',(-186.78683007366,269.63916992634,-129.404939112875));
#1189=CARTESIAN_POINT('',(-186.78683007366,228.63916992634,-129.404939112875));
#1190=CARTESIAN_POINT('',(-186.78683007366,269.63916992634,-129.404939112875));
#1191=CARTESIAN_POINT('Origin',(27.3631699263399,250.59916992634,-122.241316894737));
#1192=CARTESIAN_POINT('',(25.2131699263399,250.59916992634,-122.241316894737));
#1193=CARTESIAN_POINT('',(25.2131699263399,250.59916992634,-126.188683105263));
#1194=CARTESIAN_POINT('',(25.2131699263399,250.59916992634,-122.885726279505));
#1195=CARTESIAN_POINT('',(19.4631699263399,250.59916992634,-122.241316894737));
#1196=CARTESIAN_POINT('',(27.3631699263399,250.59916992634,-122.241316894737));
#1197=CARTESIAN_POINT('',(19.4631699263399,250.59916992634,-126.188683105263));
#1198=CARTESIAN_POINT('',(19.4631699263399,250.59916992634,-126.188683105263));
#1199=CARTESIAN_POINT('',(27.3631699263399,250.59916992634,-126.188683105263));
#1200=CARTESIAN_POINT('Origin',(27.3631699263399,249.13916992634,-124.215));
#1201=CARTESIAN_POINT('',(25.2131699263399,247.67916992634,-126.188683105263));
#1202=CARTESIAN_POINT('Origin',(25.2131699263399,249.13916992634,-124.215));
#1203=CARTESIAN_POINT('',(19.4631699263399,247.67916992634,-126.188683105263));
#1204=CARTESIAN_POINT('Origin',(19.4631699263399,249.13916992634,-124.215));
#1205=CARTESIAN_POINT('',(27.3631699263399,247.67916992634,-126.188683105263));
#1206=CARTESIAN_POINT('Origin',(27.3631699263399,247.67916992634,-126.188683105263));
#1207=CARTESIAN_POINT('',(25.2131699263399,247.67916992634,-122.241316894737));
#1208=CARTESIAN_POINT('',(25.2131699263399,247.67916992634,-124.859409384768));
#1209=CARTESIAN_POINT('',(19.4631699263399,247.67916992634,-122.241316894737));
#1210=CARTESIAN_POINT('',(19.4631699263399,247.67916992634,-122.241316894737));
#1211=CARTESIAN_POINT('',(27.3631699263399,247.67916992634,-122.241316894737));
#1212=CARTESIAN_POINT('Origin',(27.3631699263399,249.13916992634,-124.215));
#1213=CARTESIAN_POINT('Origin',(25.2131699263399,249.13916992634,-124.215));
#1214=CARTESIAN_POINT('Origin',(19.4631699263399,249.13916992634,-124.215));
#1215=CARTESIAN_POINT('Origin',(19.4631699263399,249.13916992634,-124.215));
#1216=CARTESIAN_POINT('Origin',(-186.78683007366,228.63916992634,-129.404939112875));
#1217=CARTESIAN_POINT('',(-175.78683007366,228.63916992634,-122.));
#1218=CARTESIAN_POINT('',(-133.78683007366,228.63916992634,-122.));
#1219=CARTESIAN_POINT('',(-175.78683007366,228.63916992634,-117.655332215671));
#1220=CARTESIAN_POINT('',(-175.78683007366,228.63916992634,-125.702469556438));
#1221=CARTESIAN_POINT('',(-186.78683007366,228.63916992634,-117.655332215671));
#1222=CARTESIAN_POINT('',(-180.28683007366,228.63916992634,-117.655332215671));
#1223=CARTESIAN_POINT('',(-186.78683007366,228.63916992634,-129.404939112875));
#1224=CARTESIAN_POINT('',(-186.78683007366,228.63916992634,-129.404939112875));
#1225=CARTESIAN_POINT('',(-160.78683007366,228.63916992634,-129.404939112875));
#1226=CARTESIAN_POINT('Origin',(-173.78683007366,249.13916992634,-117.655332215671));
#1227=CARTESIAN_POINT('',(-168.16183007366,245.13916992634,-117.655332215671));
#1228=CARTESIAN_POINT('',(-174.16183007366,245.13916992634,-117.655332215671));
#1229=CARTESIAN_POINT('',(-170.97433007366,245.13916992634,-117.655332215671));
#1230=CARTESIAN_POINT('',(-168.16183007366,253.13916992634,-117.655332215671));
#1231=CARTESIAN_POINT('',(-168.16183007366,251.13916992634,-117.655332215671));
#1232=CARTESIAN_POINT('',(-174.16183007366,253.13916992634,-117.655332215671));
#1233=CARTESIAN_POINT('',(-173.97433007366,253.13916992634,-117.655332215671));
#1234=CARTESIAN_POINT('',(-174.16183007366,247.13916992634,-117.655332215671));
#1235=CARTESIAN_POINT('Origin',(-160.78683007366,269.63916992634,-129.404939112875));
#1236=CARTESIAN_POINT('',(-175.78683007366,269.63916992634,-122.));
#1237=CARTESIAN_POINT('',(-120.78683007366,269.63916992634,-122.));
#1238=CARTESIAN_POINT('',(-186.78683007366,269.63916992634,-117.655332215671));
#1239=CARTESIAN_POINT('',(-186.78683007366,269.63916992634,-129.404939112875));
#1240=CARTESIAN_POINT('',(-175.78683007366,269.63916992634,-117.655332215671));
#1241=CARTESIAN_POINT('',(-167.28683007366,269.63916992634,-117.655332215671));
#1242=CARTESIAN_POINT('',(-175.78683007366,269.63916992634,-125.702469556438));
#1243=CARTESIAN_POINT('Origin',(-186.78683007366,269.63916992634,-129.404939112875));
#1244=CARTESIAN_POINT('',(-186.78683007366,228.63916992634,-129.404939112875));
#1245=CARTESIAN_POINT('',(-186.78683007366,259.38916992634,-117.655332215671));
#1246=CARTESIAN_POINT('Origin',(-173.78683007366,249.13916992634,-129.404939112875));
#1247=CARTESIAN_POINT('Origin',(-173.78683007366,249.13916992634,-117.655332215671));
#1248=CARTESIAN_POINT('',(-175.78683007366,296.63916992634,-117.655332215671));
#1249=CARTESIAN_POINT('Origin',(-175.78683007366,344.13916992634,-122.));
#1250=CARTESIAN_POINT('',(-175.78683007366,154.13916992634,-122.));
#1251=CARTESIAN_POINT('',(-175.78683007366,154.13916992634,-122.));
#1252=CARTESIAN_POINT('',(-175.78683007366,154.13916992634,-112.));
#1253=CARTESIAN_POINT('',(-175.78683007366,154.13916992634,-122.));
#1254=CARTESIAN_POINT('',(-175.78683007366,344.13916992634,-112.));
#1255=CARTESIAN_POINT('',(-175.78683007366,296.63916992634,-112.));
#1256=CARTESIAN_POINT('',(-175.78683007366,344.13916992634,-122.));
#1257=CARTESIAN_POINT('',(-175.78683007366,344.13916992634,-122.));
#1258=CARTESIAN_POINT('',(-175.78683007366,154.13916992634,-122.));
#1259=CARTESIAN_POINT('Origin',(-174.16183007366,253.13916992634,-112.));
#1260=CARTESIAN_POINT('',(-168.16183007366,253.13916992634,-112.));
#1261=CARTESIAN_POINT('',(-168.16183007366,253.13916992634,-112.));
#1262=CARTESIAN_POINT('',(-174.16183007366,253.13916992634,-112.));
#1263=CARTESIAN_POINT('',(-127.47433007366,253.13916992634,-112.));
#1264=CARTESIAN_POINT('',(-174.16183007366,253.13916992634,-112.));
#1265=CARTESIAN_POINT('Origin',(-168.16183007366,253.13916992634,-112.));
#1266=CARTESIAN_POINT('',(-168.16183007366,245.13916992634,-112.));
#1267=CARTESIAN_POINT('',(-168.16183007366,245.13916992634,-112.));
#1268=CARTESIAN_POINT('',(-168.16183007366,251.13916992634,-112.));
#1269=CARTESIAN_POINT('Origin',(14.2131699263399,269.63916992634,-129.404939112875));
#1270=CARTESIAN_POINT('',(-0.786830073660134,269.63916992634,-129.404939112875));
#1271=CARTESIAN_POINT('',(25.2131699263399,269.63916992634,-129.404939112875));
#1272=CARTESIAN_POINT('',(14.2131699263399,269.63916992634,-129.404939112875));
#1273=CARTESIAN_POINT('',(-0.786830073660134,269.63916992634,-122.));
#1274=CARTESIAN_POINT('',(-0.786830073660134,269.63916992634,-122.));
#1275=CARTESIAN_POINT('',(14.2131699263399,269.63916992634,-122.));
#1276=CARTESIAN_POINT('',(-40.7868300736601,269.63916992634,-122.));
#1277=CARTESIAN_POINT('',(14.2131699263399,269.63916992634,-117.655332215671));
#1278=CARTESIAN_POINT('',(14.2131699263399,269.63916992634,-129.404939112875));
#1279=CARTESIAN_POINT('',(25.2131699263399,269.63916992634,-117.655332215671));
#1280=CARTESIAN_POINT('',(14.2131699263399,269.63916992634,-117.655332215671));
#1281=CARTESIAN_POINT('',(25.2131699263399,269.63916992634,-129.404939112875));
#1282=CARTESIAN_POINT('Origin',(-0.786830073660134,228.63916992634,-122.));
#1283=CARTESIAN_POINT('',(-0.786830073660134,228.63916992634,-129.404939112875));
#1284=CARTESIAN_POINT('',(-0.786830073660134,238.88916992634,-129.404939112875));
#1285=CARTESIAN_POINT('',(-0.786830073660134,228.63916992634,-122.));
#1286=CARTESIAN_POINT('',(-0.786830073660134,228.63916992634,-122.));
#1287=CARTESIAN_POINT('',(-0.786830073660134,238.88916992634,-122.));
#1288=CARTESIAN_POINT('Origin',(14.2131699263399,154.13916992634,-122.));
#1289=CARTESIAN_POINT('',(14.2131699263399,228.63916992634,-117.655332215671));
#1290=CARTESIAN_POINT('',(14.2131699263399,228.63916992634,-122.));
#1291=CARTESIAN_POINT('',(14.2131699263399,228.63916992634,-122.));
#1292=CARTESIAN_POINT('',(14.2131699263399,228.63916992634,-117.655332215671));
#1293=CARTESIAN_POINT('',(14.2131699263399,344.13916992634,-122.));
#1294=CARTESIAN_POINT('',(14.2131699263399,344.13916992634,-122.));
#1295=CARTESIAN_POINT('',(14.2131699263399,344.13916992634,-112.));
#1296=CARTESIAN_POINT('',(14.2131699263399,344.13916992634,-122.));
#1297=CARTESIAN_POINT('',(14.2131699263399,154.13916992634,-112.));
#1298=CARTESIAN_POINT('',(14.2131699263399,201.63916992634,-112.));
#1299=CARTESIAN_POINT('',(14.2131699263399,154.13916992634,-122.));
#1300=CARTESIAN_POINT('',(14.2131699263399,154.13916992634,-122.));
#1301=CARTESIAN_POINT('',(14.2131699263399,344.13916992634,-122.));
#1302=CARTESIAN_POINT('Origin',(-145.78683007366,291.13916992634,-122.));
#1303=CARTESIAN_POINT('',(-145.78683007366,207.13916992634,-117.));
#1304=CARTESIAN_POINT('',(-145.78683007366,291.13916992634,-117.));
#1305=CARTESIAN_POINT('',(-145.78683007366,227.26416992634,-117.));
#1306=CARTESIAN_POINT('',(-145.78683007366,207.13916992634,-122.));
#1307=CARTESIAN_POINT('',(-145.78683007366,207.13916992634,-122.));
#1308=CARTESIAN_POINT('',(-145.78683007366,291.13916992634,-122.));
#1309=CARTESIAN_POINT('',(-145.78683007366,270.13916992634,-122.));
#1310=CARTESIAN_POINT('',(-145.78683007366,291.13916992634,-122.));
#1311=CARTESIAN_POINT('Origin',(-15.7868300736601,291.13916992634,-122.));
#1312=CARTESIAN_POINT('',(-15.7868300736601,291.13916992634,-117.));
#1313=CARTESIAN_POINT('',(-5.41183007366014,291.13916992634,-117.));
#1314=CARTESIAN_POINT('',(-15.7868300736601,291.13916992634,-122.));
#1315=CARTESIAN_POINT('',(-48.2868300736601,291.13916992634,-122.));
#1316=CARTESIAN_POINT('',(-15.7868300736601,291.13916992634,-122.));
#1317=CARTESIAN_POINT('Origin',(-15.7868300736601,207.13916992634,-122.));
#1318=CARTESIAN_POINT('',(-15.7868300736601,207.13916992634,-117.));
#1319=CARTESIAN_POINT('',(-15.7868300736601,185.26416992634,-117.));
#1320=CARTESIAN_POINT('',(-15.7868300736601,207.13916992634,-122.));
#1321=CARTESIAN_POINT('',(-15.7868300736601,228.13916992634,-122.));
#1322=CARTESIAN_POINT('',(-15.7868300736601,207.13916992634,-122.));
#1323=CARTESIAN_POINT('Origin',(-145.78683007366,207.13916992634,-122.));
#1324=CARTESIAN_POINT('',(-70.4118300736601,207.13916992634,-117.));
#1325=CARTESIAN_POINT('',(-113.28683007366,207.13916992634,-122.));
#1326=CARTESIAN_POINT('Origin',(-168.16183007366,245.13916992634,-112.));
#1327=CARTESIAN_POINT('',(-174.16183007366,245.13916992634,-112.));
#1328=CARTESIAN_POINT('',(-174.16183007366,245.13916992634,-112.));
#1329=CARTESIAN_POINT('',(-124.47433007366,245.13916992634,-112.));
#1330=CARTESIAN_POINT('Origin',(-174.16183007366,245.13916992634,-112.));
#1331=CARTESIAN_POINT('',(-174.16183007366,247.13916992634,-112.));
#1332=CARTESIAN_POINT('Origin',(6.58816992633987,253.13916992634,-112.));
#1333=CARTESIAN_POINT('',(6.58816992633987,253.13916992634,-112.));
#1334=CARTESIAN_POINT('',(12.5881699263399,253.13916992634,-112.));
#1335=CARTESIAN_POINT('',(-37.0993300736601,253.13916992634,-112.));
#1336=CARTESIAN_POINT('',(6.58816992633987,253.13916992634,-118.));
#1337=CARTESIAN_POINT('',(6.58816992633987,253.13916992634,-112.));
#1338=CARTESIAN_POINT('',(12.5881699263399,253.13916992634,-118.));
#1339=CARTESIAN_POINT('',(6.58816992633987,253.13916992634,-118.));
#1340=CARTESIAN_POINT('',(12.5881699263399,253.13916992634,-112.));
#1341=CARTESIAN_POINT('Origin',(6.58816992633987,245.13916992634,-112.));
#1342=CARTESIAN_POINT('',(6.58816992633987,245.13916992634,-112.));
#1343=CARTESIAN_POINT('',(6.58816992633987,247.13916992634,-112.));
#1344=CARTESIAN_POINT('',(6.58816992633987,245.13916992634,-118.));
#1345=CARTESIAN_POINT('',(6.58816992633987,245.13916992634,-112.));
#1346=CARTESIAN_POINT('',(6.58816992633987,245.13916992634,-118.));
#1347=CARTESIAN_POINT('Origin',(12.5881699263399,245.13916992634,-112.));
#1348=CARTESIAN_POINT('',(12.5881699263399,245.13916992634,-112.));
#1349=CARTESIAN_POINT('',(-34.0993300736601,245.13916992634,-112.));
#1350=CARTESIAN_POINT('',(12.5881699263399,245.13916992634,-118.));
#1351=CARTESIAN_POINT('',(12.5881699263399,245.13916992634,-112.));
#1352=CARTESIAN_POINT('',(12.5881699263399,245.13916992634,-118.));
#1353=CARTESIAN_POINT('Origin',(12.5881699263399,253.13916992634,-112.));
#1354=CARTESIAN_POINT('',(12.5881699263399,251.13916992634,-112.));
#1355=CARTESIAN_POINT('',(12.5881699263399,253.13916992634,-118.));
#1356=CARTESIAN_POINT('Origin',(9.58816992633988,249.13916992634,-118.));
#1357=CARTESIAN_POINT('Origin',(-80.7868300736601,249.13916992634,-112.));
#1358=CARTESIAN_POINT('',(-128.28683007366,154.13916992634,-112.));
#1359=CARTESIAN_POINT('',(-33.2868300736601,344.13916992634,-112.));
#1360=CARTESIAN_POINT('',(4.96316992633986,334.88916992634,-112.));
#1361=CARTESIAN_POINT('',(-166.53683007366,334.88916992634,-112.));
#1362=CARTESIAN_POINT('',(-123.66183007366,334.88916992634,-112.));
#1363=CARTESIAN_POINT('',(4.96316992633987,163.38916992634,-112.));
#1364=CARTESIAN_POINT('',(4.96316992633986,292.01416992634,-112.));
#1365=CARTESIAN_POINT('',(-166.53683007366,163.38916992634,-112.));
#1366=CARTESIAN_POINT('',(-37.9118300736601,163.38916992634,-112.));
#1367=CARTESIAN_POINT('',(-166.53683007366,206.26416992634,-112.));
#1368=CARTESIAN_POINT('Origin',(4.96316992633987,163.38916992634,-122.));
#1369=CARTESIAN_POINT('',(4.96316992633986,163.38916992634,-117.));
#1370=CARTESIAN_POINT('',(4.96316992633987,163.38916992634,-122.));
#1371=CARTESIAN_POINT('',(-166.53683007366,163.38916992634,-117.));
#1372=CARTESIAN_POINT('',(4.96316992633986,163.38916992634,-117.));
#1373=CARTESIAN_POINT('',(-166.53683007366,163.38916992634,-122.));
#1374=CARTESIAN_POINT('Origin',(4.96316992633986,334.88916992634,-122.));
#1375=CARTESIAN_POINT('',(4.96316992633986,334.88916992634,-117.));
#1376=CARTESIAN_POINT('',(4.96316992633986,334.88916992634,-122.));
#1377=CARTESIAN_POINT('',(4.96316992633986,249.13916992634,-117.));
#1378=CARTESIAN_POINT('Origin',(-175.78683007366,154.13916992634,-122.));
#1379=CARTESIAN_POINT('',(14.2131699263399,154.13916992634,-122.));
#1380=CARTESIAN_POINT('Origin',(-166.53683007366,334.88916992634,-122.));
#1381=CARTESIAN_POINT('',(-166.53683007366,334.88916992634,-117.));
#1382=CARTESIAN_POINT('',(-166.53683007366,334.88916992634,-122.));
#1383=CARTESIAN_POINT('',(-80.7868300736601,334.88916992634,-117.));
#1384=CARTESIAN_POINT('Origin',(-166.53683007366,163.38916992634,-122.));
#1385=CARTESIAN_POINT('',(-166.53683007366,163.38916992634,-117.));
#1386=CARTESIAN_POINT('Origin',(4.96316992633986,163.38916992634,-117.));
#1387=CARTESIAN_POINT('Origin',(14.2131699263399,344.13916992634,-122.));
#1388=CARTESIAN_POINT('',(-175.78683007366,344.13916992634,-122.));
#1389=CARTESIAN_POINT('Origin',(-80.7868300736601,249.13916992634,-122.));
#1390=CARTESIAN_POINT('',(-33.2868300736601,228.63916992634,-122.));
#1391=CARTESIAN_POINT('Origin',(14.2131699263399,269.63916992634,-117.655332215671));
#1392=CARTESIAN_POINT('',(25.2131699263399,228.63916992634,-117.655332215671));
#1393=CARTESIAN_POINT('',(14.2131699263399,228.63916992634,-117.655332215671));
#1394=CARTESIAN_POINT('',(25.2131699263399,228.63916992634,-117.655332215671));
#1395=CARTESIAN_POINT('Origin',(14.2131699263399,228.63916992634,-129.404939112875));
#1396=CARTESIAN_POINT('',(25.2131699263399,228.63916992634,-129.404939112875));
#1397=CARTESIAN_POINT('',(25.2131699263399,228.63916992634,-129.404939112875));
#1398=CARTESIAN_POINT('',(14.2131699263399,228.63916992634,-129.404939112875));
#1399=CARTESIAN_POINT('Origin',(14.2131699263399,228.63916992634,-117.655332215671));
#1400=CARTESIAN_POINT('',(25.2131699263399,228.63916992634,-122.));
#1401=CARTESIAN_POINT('Origin',(25.2131699263399,249.13916992634,-123.530135664273));
#1402=UNCERTAINTY_MEASURE_WITH_UNIT(LENGTH_MEASURE(0.01),#1406,
'DISTANCE_ACCURACY_VALUE',
'Maximum model space distance between geometric entities at asserted c
onnectivities');
#1403=UNCERTAINTY_MEASURE_WITH_UNIT(LENGTH_MEASURE(0.01),#1406,
'DISTANCE_ACCURACY_VALUE',
'Maximum model space distance between geometric entities at asserted c
onnectivities');
#1404=(
GEOMETRIC_REPRESENTATION_CONTEXT(3)
GLOBAL_UNCERTAINTY_ASSIGNED_CONTEXT((#1402))
GLOBAL_UNIT_ASSIGNED_CONTEXT((#1406,#1408,#1409))
REPRESENTATION_CONTEXT('','3D')
);
#1405=(
GEOMETRIC_REPRESENTATION_CONTEXT(3)
GLOBAL_UNCERTAINTY_ASSIGNED_CONTEXT((#1403))
GLOBAL_UNIT_ASSIGNED_CONTEXT((#1406,#1408,#1409))
REPRESENTATION_CONTEXT('','3D')
);
#1406=(
LENGTH_UNIT()
NAMED_UNIT(*)
SI_UNIT(.MILLI.,.METRE.)
);
#1407=(
LENGTH_UNIT()
NAMED_UNIT(*)
SI_UNIT($,.METRE.)
);
#1408=(
NAMED_UNIT(*)
PLANE_ANGLE_UNIT()
SI_UNIT($,.RADIAN.)
);
#1409=(
NAMED_UNIT(*)
SI_UNIT($,.STERADIAN.)
SOLID_ANGLE_UNIT()
);
#1410=SHAPE_DEFINITION_REPRESENTATION(#1411,#1412);
#1411=PRODUCT_DEFINITION_SHAPE('',$,#1414);
#1412=SHAPE_REPRESENTATION('',(#884),#1404);
#1413=PRODUCT_DEFINITION_CONTEXT('part definition',#1418,'design');
#1414=PRODUCT_DEFINITION('2026-09-13-20-04-12-591','CaseL_top',#1415,#1413);
#1415=PRODUCT_DEFINITION_FORMATION('',$,#1420);
#1416=PRODUCT_RELATED_PRODUCT_CATEGORY('CaseL_top','CaseL_top',(#1420));
#1417=APPLICATION_PROTOCOL_DEFINITION('international standard',
'automotive_design',2009,#1418);
#1418=APPLICATION_CONTEXT(
'Core Data for Automotive Mechanical Design Process');
#1419=PRODUCT_CONTEXT('part definition',#1418,'mechanical');
#1420=PRODUCT('2026-09-13-20-04-12-591','CaseL_top',$,(#1419));
#1421=PRESENTATION_STYLE_ASSIGNMENT((#1422));
#1422=SURFACE_STYLE_USAGE(.BOTH.,#1423);
#1423=SURFACE_SIDE_STYLE('',(#1424));
#1424=SURFACE_STYLE_FILL_AREA(#1425);
#1425=FILL_AREA_STYLE('Steel - Satin',(#1426));
#1426=FILL_AREA_STYLE_COLOUR('Steel - Satin',#1427);
#1427=COLOUR_RGB('Steel - Satin',0.627450980392157,0.627450980392157,0.627450980392157);
ENDSEC;
END-ISO-10303-21;
