ISO-10303-21;
HEADER;
/* Generated by software containing ST-Developer
 * from STEP Tools, Inc. (www.steptools.com) 
 */

FILE_DESCRIPTION(
/* description */ (''),
/* implementation_level */ '2;1');

FILE_NAME(
/* name */ 'InnerAxis.step',
/* time_stamp */ '2026-09-13T20:04:00-06:00',
/* author */ (''),
/* organization */ (''),
/* preprocessor_version */ 'ST-DEVELOPER v20.2',
/* originating_system */ 'Autodesk Translation Framework v15.15.0.0',
/* authorisation */ '');

FILE_SCHEMA (('AUTOMOTIVE_DESIGN { 1 0 10303 214 3 1 1 }'));
ENDSEC;

DATA;
#10=MECHANICAL_DESIGN_GEOMETRIC_PRESENTATION_REPRESENTATION('',(#13),#1392);
#11=SHAPE_REPRESENTATION_RELATIONSHIP('SRR','None',#1399,#12);
#12=ADVANCED_BREP_SHAPE_REPRESENTATION('',(#14),#1391);
#13=STYLED_ITEM('',(#1408),#14);
#14=MANIFOLD_SOLID_BREP('Body1',#836);
#15=FACE_BOUND('',#109,.T.);
#16=FACE_BOUND('',#115,.T.);
#17=FACE_BOUND('',#117,.T.);
#18=FACE_BOUND('',#124,.T.);
#19=FACE_BOUND('',#134,.T.);
#20=FACE_BOUND('',#138,.T.);
#21=PLANE('',#853);
#22=PLANE('',#856);
#23=PLANE('',#857);
#24=PLANE('',#858);
#25=PLANE('',#862);
#26=PLANE('',#866);
#27=PLANE('',#870);
#28=PLANE('',#874);
#29=PLANE('',#875);
#30=PLANE('',#876);
#31=PLANE('',#883);
#32=PLANE('',#884);
#33=PLANE('',#885);
#34=PLANE('',#886);
#35=PLANE('',#887);
#36=PLANE('',#890);
#37=PLANE('',#893);
#38=PLANE('',#896);
#39=PLANE('',#897);
#40=PLANE('',#902);
#41=PLANE('',#903);
#42=PLANE('',#904);
#43=PLANE('',#905);
#44=PLANE('',#909);
#45=PLANE('',#913);
#46=PLANE('',#914);
#47=PLANE('',#915);
#48=PLANE('',#916);
#49=PLANE('',#917);
#50=PLANE('',#918);
#51=FACE_OUTER_BOUND('',#94,.T.);
#52=FACE_OUTER_BOUND('',#95,.T.);
#53=FACE_OUTER_BOUND('',#96,.T.);
#54=FACE_OUTER_BOUND('',#97,.T.);
#55=FACE_OUTER_BOUND('',#98,.T.);
#56=FACE_OUTER_BOUND('',#99,.T.);
#57=FACE_OUTER_BOUND('',#100,.T.);
#58=FACE_OUTER_BOUND('',#101,.T.);
#59=FACE_OUTER_BOUND('',#102,.T.);
#60=FACE_OUTER_BOUND('',#103,.T.);
#61=FACE_OUTER_BOUND('',#104,.T.);
#62=FACE_OUTER_BOUND('',#105,.T.);
#63=FACE_OUTER_BOUND('',#106,.T.);
#64=FACE_OUTER_BOUND('',#107,.T.);
#65=FACE_OUTER_BOUND('',#108,.T.);
#66=FACE_OUTER_BOUND('',#110,.T.);
#67=FACE_OUTER_BOUND('',#111,.T.);
#68=FACE_OUTER_BOUND('',#112,.T.);
#69=FACE_OUTER_BOUND('',#113,.T.);
#70=FACE_OUTER_BOUND('',#114,.T.);
#71=FACE_OUTER_BOUND('',#116,.T.);
#72=FACE_OUTER_BOUND('',#118,.T.);
#73=FACE_OUTER_BOUND('',#119,.T.);
#74=FACE_OUTER_BOUND('',#120,.T.);
#75=FACE_OUTER_BOUND('',#121,.T.);
#76=FACE_OUTER_BOUND('',#122,.T.);
#77=FACE_OUTER_BOUND('',#123,.T.);
#78=FACE_OUTER_BOUND('',#125,.T.);
#79=FACE_OUTER_BOUND('',#126,.T.);
#80=FACE_OUTER_BOUND('',#127,.T.);
#81=FACE_OUTER_BOUND('',#128,.T.);
#82=FACE_OUTER_BOUND('',#129,.T.);
#83=FACE_OUTER_BOUND('',#130,.T.);
#84=FACE_OUTER_BOUND('',#131,.T.);
#85=FACE_OUTER_BOUND('',#132,.T.);
#86=FACE_OUTER_BOUND('',#133,.T.);
#87=FACE_OUTER_BOUND('',#135,.T.);
#88=FACE_OUTER_BOUND('',#136,.T.);
#89=FACE_OUTER_BOUND('',#137,.T.);
#90=FACE_OUTER_BOUND('',#139,.T.);
#91=FACE_OUTER_BOUND('',#140,.T.);
#92=FACE_OUTER_BOUND('',#141,.T.);
#93=FACE_OUTER_BOUND('',#142,.T.);
#94=EDGE_LOOP('',(#546,#547,#548,#549));
#95=EDGE_LOOP('',(#550,#551,#552,#553,#554,#555,#556,#557,#558));
#96=EDGE_LOOP('',(#559,#560,#561,#562));
#97=EDGE_LOOP('',(#563,#564,#565,#566));
#98=EDGE_LOOP('',(#567,#568,#569,#570));
#99=EDGE_LOOP('',(#571,#572,#573,#574));
#100=EDGE_LOOP('',(#575,#576,#577,#578));
#101=EDGE_LOOP('',(#579,#580,#581,#582));
#102=EDGE_LOOP('',(#583,#584,#585,#586));
#103=EDGE_LOOP('',(#587,#588,#589,#590));
#104=EDGE_LOOP('',(#591,#592,#593,#594));
#105=EDGE_LOOP('',(#595,#596,#597,#598));
#106=EDGE_LOOP('',(#599,#600,#601,#602));
#107=EDGE_LOOP('',(#603,#604,#605,#606));
#108=EDGE_LOOP('',(#607,#608,#609,#610));
#109=EDGE_LOOP('',(#611,#612,#613,#614));
#110=EDGE_LOOP('',(#615,#616,#617,#618));
#111=EDGE_LOOP('',(#619,#620,#621,#622));
#112=EDGE_LOOP('',(#623,#624,#625,#626,#627,#628,#629,#630));
#113=EDGE_LOOP('',(#631,#632,#633,#634));
#114=EDGE_LOOP('',(#635,#636,#637,#638));
#115=EDGE_LOOP('',(#639));
#116=EDGE_LOOP('',(#640,#641,#642,#643));
#117=EDGE_LOOP('',(#644));
#118=EDGE_LOOP('',(#645,#646,#647,#648,#649,#650,#651,#652));
#119=EDGE_LOOP('',(#653,#654,#655,#656,#657,#658,#659,#660));
#120=EDGE_LOOP('',(#661,#662,#663,#664));
#121=EDGE_LOOP('',(#665,#666,#667,#668));
#122=EDGE_LOOP('',(#669,#670,#671,#672));
#123=EDGE_LOOP('',(#673,#674,#675,#676));
#124=EDGE_LOOP('',(#677,#678,#679,#680));
#125=EDGE_LOOP('',(#681,#682,#683,#684));
#126=EDGE_LOOP('',(#685,#686,#687,#688));
#127=EDGE_LOOP('',(#689,#690,#691,#692));
#128=EDGE_LOOP('',(#693,#694,#695,#696,#697,#698,#699,#700));
#129=EDGE_LOOP('',(#701,#702,#703,#704));
#130=EDGE_LOOP('',(#705,#706,#707,#708));
#131=EDGE_LOOP('',(#709,#710,#711,#712,#713,#714,#715,#716,#717));
#132=EDGE_LOOP('',(#718,#719,#720,#721));
#133=EDGE_LOOP('',(#722,#723,#724,#725));
#134=EDGE_LOOP('',(#726));
#135=EDGE_LOOP('',(#727,#728,#729,#730));
#136=EDGE_LOOP('',(#731,#732,#733,#734,#735,#736,#737,#738));
#137=EDGE_LOOP('',(#739,#740,#741,#742));
#138=EDGE_LOOP('',(#743));
#139=EDGE_LOOP('',(#744,#745,#746,#747));
#140=EDGE_LOOP('',(#748,#749,#750,#751,#752,#753,#754,#755));
#141=EDGE_LOOP('',(#756,#757,#758,#759,#760,#761,#762,#763,#764,#765,#766,
#767));
#142=EDGE_LOOP('',(#768,#769,#770,#771,#772,#773,#774,#775,#776,#777,#778,
#779));
#143=LINE('',#1155,#234);
#144=LINE('',#1160,#235);
#145=LINE('',#1162,#236);
#146=LINE('',#1166,#237);
#147=LINE('',#1168,#238);
#148=LINE('',#1170,#239);
#149=LINE('',#1172,#240);
#150=LINE('',#1175,#241);
#151=LINE('',#1179,#242);
#152=LINE('',#1181,#243);
#153=LINE('',#1183,#244);
#154=LINE('',#1184,#245);
#155=LINE('',#1187,#246);
#156=LINE('',#1189,#247);
#157=LINE('',#1190,#248);
#158=LINE('',#1193,#249);
#159=LINE('',#1195,#250);
#160=LINE('',#1196,#251);
#161=LINE('',#1205,#252);
#162=LINE('',#1210,#253);
#163=LINE('',#1212,#254);
#164=LINE('',#1214,#255);
#165=LINE('',#1215,#256);
#166=LINE('',#1221,#257);
#167=LINE('',#1224,#258);
#168=LINE('',#1226,#259);
#169=LINE('',#1227,#260);
#170=LINE('',#1234,#261);
#171=LINE('',#1236,#262);
#172=LINE('',#1237,#263);
#173=LINE('',#1240,#264);
#174=LINE('',#1241,#265);
#175=LINE('',#1247,#266);
#176=LINE('',#1250,#267);
#177=LINE('',#1256,#268);
#178=LINE('',#1259,#269);
#179=LINE('',#1262,#270);
#180=LINE('',#1264,#271);
#181=LINE('',#1265,#272);
#182=LINE('',#1267,#273);
#183=LINE('',#1269,#274);
#184=LINE('',#1270,#275);
#185=LINE('',#1274,#276);
#186=LINE('',#1275,#277);
#187=LINE('',#1276,#278);
#188=LINE('',#1278,#279);
#189=LINE('',#1280,#280);
#190=LINE('',#1284,#281);
#191=LINE('',#1286,#282);
#192=LINE('',#1290,#283);
#193=LINE('',#1292,#284);
#194=LINE('',#1294,#285);
#195=LINE('',#1297,#286);
#196=LINE('',#1300,#287);
#197=LINE('',#1304,#288);
#198=LINE('',#1306,#289);
#199=LINE('',#1308,#290);
#200=LINE('',#1311,#291);
#201=LINE('',#1313,#292);
#202=LINE('',#1314,#293);
#203=LINE('',#1316,#294);
#204=LINE('',#1318,#295);
#205=LINE('',#1319,#296);
#206=LINE('',#1321,#297);
#207=LINE('',#1325,#298);
#208=LINE('',#1328,#299);
#209=LINE('',#1332,#300);
#210=LINE('',#1336,#301);
#211=LINE('',#1337,#302);
#212=LINE('',#1338,#303);
#213=LINE('',#1341,#304);
#214=LINE('',#1342,#305);
#215=LINE('',#1344,#306);
#216=LINE('',#1346,#307);
#217=LINE('',#1347,#308);
#218=LINE('',#1353,#309);
#219=LINE('',#1356,#310);
#220=LINE('',#1359,#311);
#221=LINE('',#1361,#312);
#222=LINE('',#1362,#313);
#223=LINE('',#1368,#314);
#224=LINE('',#1371,#315);
#225=LINE('',#1374,#316);
#226=LINE('',#1375,#317);
#227=LINE('',#1376,#318);
#228=LINE('',#1377,#319);
#229=LINE('',#1380,#320);
#230=LINE('',#1381,#321);
#231=LINE('',#1383,#322);
#232=LINE('',#1385,#323);
#233=LINE('',#1386,#324);
#234=VECTOR('',#925,6.00000000000001);
#235=VECTOR('',#930,10.);
#236=VECTOR('',#931,10.);
#237=VECTOR('',#934,10.);
#238=VECTOR('',#935,10.);
#239=VECTOR('',#936,10.);
#240=VECTOR('',#937,10.);
#241=VECTOR('',#940,10.);
#242=VECTOR('',#943,10.);
#243=VECTOR('',#944,10.);
#244=VECTOR('',#945,10.);
#245=VECTOR('',#946,10.);
#246=VECTOR('',#949,10.);
#247=VECTOR('',#950,10.);
#248=VECTOR('',#951,10.);
#249=VECTOR('',#954,10.);
#250=VECTOR('',#955,10.);
#251=VECTOR('',#956,10.);
#252=VECTOR('',#969,6.);
#253=VECTOR('',#974,10.);
#254=VECTOR('',#975,10.);
#255=VECTOR('',#976,10.);
#256=VECTOR('',#977,10.);
#257=VECTOR('',#984,10.);
#258=VECTOR('',#987,10.);
#259=VECTOR('',#988,10.);
#260=VECTOR('',#989,10.);
#261=VECTOR('',#1000,10.);
#262=VECTOR('',#1001,10.);
#263=VECTOR('',#1002,10.);
#264=VECTOR('',#1005,10.);
#265=VECTOR('',#1006,10.);
#266=VECTOR('',#1011,10.);
#267=VECTOR('',#1014,10.);
#268=VECTOR('',#1019,10.);
#269=VECTOR('',#1022,10.);
#270=VECTOR('',#1025,10.);
#271=VECTOR('',#1026,10.);
#272=VECTOR('',#1027,10.);
#273=VECTOR('',#1028,10.);
#274=VECTOR('',#1029,10.);
#275=VECTOR('',#1030,10.);
#276=VECTOR('',#1033,10.);
#277=VECTOR('',#1034,10.);
#278=VECTOR('',#1035,10.);
#279=VECTOR('',#1038,10.);
#280=VECTOR('',#1041,10.);
#281=VECTOR('',#1044,10.);
#282=VECTOR('',#1045,10.);
#283=VECTOR('',#1048,10.);
#284=VECTOR('',#1049,10.);
#285=VECTOR('',#1050,10.);
#286=VECTOR('',#1053,10.);
#287=VECTOR('',#1056,10.);
#288=VECTOR('',#1059,10.);
#289=VECTOR('',#1060,10.);
#290=VECTOR('',#1061,10.);
#291=VECTOR('',#1064,10.);
#292=VECTOR('',#1067,10.);
#293=VECTOR('',#1068,10.);
#294=VECTOR('',#1071,10.);
#295=VECTOR('',#1074,10.);
#296=VECTOR('',#1075,10.);
#297=VECTOR('',#1078,10.);
#298=VECTOR('',#1083,10.);
#299=VECTOR('',#1086,10.);
#300=VECTOR('',#1091,10.);
#301=VECTOR('',#1094,10.);
#302=VECTOR('',#1095,10.);
#303=VECTOR('',#1096,10.);
#304=VECTOR('',#1099,10.);
#305=VECTOR('',#1100,10.);
#306=VECTOR('',#1103,10.);
#307=VECTOR('',#1106,10.);
#308=VECTOR('',#1107,10.);
#309=VECTOR('',#1112,10.);
#310=VECTOR('',#1115,10.);
#311=VECTOR('',#1118,10.);
#312=VECTOR('',#1119,10.);
#313=VECTOR('',#1120,10.);
#314=VECTOR('',#1125,10.);
#315=VECTOR('',#1128,10.);
#316=VECTOR('',#1131,10.);
#317=VECTOR('',#1132,10.);
#318=VECTOR('',#1133,10.);
#319=VECTOR('',#1134,10.);
#320=VECTOR('',#1137,10.);
#321=VECTOR('',#1138,10.);
#322=VECTOR('',#1141,10.);
#323=VECTOR('',#1144,10.);
#324=VECTOR('',#1145,10.);
#325=CIRCLE('',#851,6.00000000000001);
#326=CIRCLE('',#852,6.00000000000001);
#327=CIRCLE('',#854,25.);
#328=CIRCLE('',#855,50.);
#329=CIRCLE('',#860,14.);
#330=CIRCLE('',#861,14.);
#331=CIRCLE('',#864,6.);
#332=CIRCLE('',#865,6.);
#333=CIRCLE('',#868,2.455);
#334=CIRCLE('',#869,2.455);
#335=CIRCLE('',#872,2.455);
#336=CIRCLE('',#873,2.455);
#337=CIRCLE('',#878,25.);
#338=CIRCLE('',#879,25.);
#339=CIRCLE('',#881,50.);
#340=CIRCLE('',#882,50.);
#341=CIRCLE('',#888,25.);
#342=CIRCLE('',#889,50.);
#343=CIRCLE('',#891,50.);
#344=CIRCLE('',#892,25.);
#345=CIRCLE('',#899,25.);
#346=CIRCLE('',#901,50.);
#347=CIRCLE('',#907,25.);
#348=CIRCLE('',#908,25.);
#349=CIRCLE('',#911,50.);
#350=CIRCLE('',#912,50.);
#351=VERTEX_POINT('',#1152);
#352=VERTEX_POINT('',#1154);
#353=VERTEX_POINT('',#1158);
#354=VERTEX_POINT('',#1159);
#355=VERTEX_POINT('',#1161);
#356=VERTEX_POINT('',#1163);
#357=VERTEX_POINT('',#1165);
#358=VERTEX_POINT('',#1167);
#359=VERTEX_POINT('',#1169);
#360=VERTEX_POINT('',#1171);
#361=VERTEX_POINT('',#1173);
#362=VERTEX_POINT('',#1177);
#363=VERTEX_POINT('',#1178);
#364=VERTEX_POINT('',#1180);
#365=VERTEX_POINT('',#1182);
#366=VERTEX_POINT('',#1186);
#367=VERTEX_POINT('',#1188);
#368=VERTEX_POINT('',#1192);
#369=VERTEX_POINT('',#1194);
#370=VERTEX_POINT('',#1202);
#371=VERTEX_POINT('',#1204);
#372=VERTEX_POINT('',#1208);
#373=VERTEX_POINT('',#1209);
#374=VERTEX_POINT('',#1211);
#375=VERTEX_POINT('',#1213);
#376=VERTEX_POINT('',#1217);
#377=VERTEX_POINT('',#1219);
#378=VERTEX_POINT('',#1223);
#379=VERTEX_POINT('',#1225);
#380=VERTEX_POINT('',#1233);
#381=VERTEX_POINT('',#1235);
#382=VERTEX_POINT('',#1239);
#383=VERTEX_POINT('',#1243);
#384=VERTEX_POINT('',#1244);
#385=VERTEX_POINT('',#1246);
#386=VERTEX_POINT('',#1248);
#387=VERTEX_POINT('',#1252);
#388=VERTEX_POINT('',#1253);
#389=VERTEX_POINT('',#1255);
#390=VERTEX_POINT('',#1257);
#391=VERTEX_POINT('',#1261);
#392=VERTEX_POINT('',#1263);
#393=VERTEX_POINT('',#1266);
#394=VERTEX_POINT('',#1268);
#395=VERTEX_POINT('',#1272);
#396=VERTEX_POINT('',#1273);
#397=VERTEX_POINT('',#1282);
#398=VERTEX_POINT('',#1283);
#399=VERTEX_POINT('',#1285);
#400=VERTEX_POINT('',#1287);
#401=VERTEX_POINT('',#1289);
#402=VERTEX_POINT('',#1291);
#403=VERTEX_POINT('',#1293);
#404=VERTEX_POINT('',#1295);
#405=VERTEX_POINT('',#1299);
#406=VERTEX_POINT('',#1301);
#407=VERTEX_POINT('',#1303);
#408=VERTEX_POINT('',#1305);
#409=VERTEX_POINT('',#1307);
#410=VERTEX_POINT('',#1309);
#411=VERTEX_POINT('',#1324);
#412=VERTEX_POINT('',#1326);
#413=VERTEX_POINT('',#1330);
#414=VERTEX_POINT('',#1334);
#415=VERTEX_POINT('',#1335);
#416=VERTEX_POINT('',#1340);
#417=VERTEX_POINT('',#1349);
#418=VERTEX_POINT('',#1350);
#419=VERTEX_POINT('',#1352);
#420=VERTEX_POINT('',#1354);
#421=VERTEX_POINT('',#1358);
#422=VERTEX_POINT('',#1360);
#423=VERTEX_POINT('',#1364);
#424=VERTEX_POINT('',#1365);
#425=VERTEX_POINT('',#1367);
#426=VERTEX_POINT('',#1369);
#427=VERTEX_POINT('',#1373);
#428=VERTEX_POINT('',#1379);
#429=EDGE_CURVE('',#351,#351,#325,.T.);
#430=EDGE_CURVE('',#351,#352,#143,.T.);
#431=EDGE_CURVE('',#352,#352,#326,.T.);
#432=EDGE_CURVE('',#353,#354,#144,.T.);
#433=EDGE_CURVE('',#355,#354,#145,.T.);
#434=EDGE_CURVE('',#356,#355,#327,.T.);
#435=EDGE_CURVE('',#356,#357,#146,.T.);
#436=EDGE_CURVE('',#357,#358,#147,.T.);
#437=EDGE_CURVE('',#359,#358,#148,.T.);
#438=EDGE_CURVE('',#360,#359,#149,.T.);
#439=EDGE_CURVE('',#361,#360,#328,.T.);
#440=EDGE_CURVE('',#353,#361,#150,.T.);
#441=EDGE_CURVE('',#362,#363,#151,.T.);
#442=EDGE_CURVE('',#362,#364,#152,.T.);
#443=EDGE_CURVE('',#365,#364,#153,.T.);
#444=EDGE_CURVE('',#363,#365,#154,.T.);
#445=EDGE_CURVE('',#363,#366,#155,.T.);
#446=EDGE_CURVE('',#367,#365,#156,.T.);
#447=EDGE_CURVE('',#366,#367,#157,.T.);
#448=EDGE_CURVE('',#366,#368,#158,.T.);
#449=EDGE_CURVE('',#369,#367,#159,.T.);
#450=EDGE_CURVE('',#369,#368,#160,.T.);
#451=EDGE_CURVE('',#368,#362,#329,.T.);
#452=EDGE_CURVE('',#369,#364,#330,.T.);
#453=EDGE_CURVE('',#370,#370,#331,.T.);
#454=EDGE_CURVE('',#370,#371,#161,.T.);
#455=EDGE_CURVE('',#371,#371,#332,.T.);
#456=EDGE_CURVE('',#372,#373,#162,.T.);
#457=EDGE_CURVE('',#372,#374,#163,.T.);
#458=EDGE_CURVE('',#374,#375,#164,.T.);
#459=EDGE_CURVE('',#373,#375,#165,.T.);
#460=EDGE_CURVE('',#373,#376,#333,.T.);
#461=EDGE_CURVE('',#375,#377,#334,.T.);
#462=EDGE_CURVE('',#376,#377,#166,.T.);
#463=EDGE_CURVE('',#376,#378,#167,.T.);
#464=EDGE_CURVE('',#377,#379,#168,.T.);
#465=EDGE_CURVE('',#378,#379,#169,.T.);
#466=EDGE_CURVE('',#378,#372,#335,.T.);
#467=EDGE_CURVE('',#379,#374,#336,.T.);
#468=EDGE_CURVE('',#360,#380,#170,.T.);
#469=EDGE_CURVE('',#381,#359,#171,.T.);
#470=EDGE_CURVE('',#380,#381,#172,.T.);
#471=EDGE_CURVE('',#358,#382,#173,.T.);
#472=EDGE_CURVE('',#382,#381,#174,.T.);
#473=EDGE_CURVE('',#383,#384,#337,.T.);
#474=EDGE_CURVE('',#384,#385,#175,.T.);
#475=EDGE_CURVE('',#385,#386,#338,.T.);
#476=EDGE_CURVE('',#386,#383,#176,.T.);
#477=EDGE_CURVE('',#387,#388,#339,.T.);
#478=EDGE_CURVE('',#388,#389,#177,.T.);
#479=EDGE_CURVE('',#389,#390,#340,.T.);
#480=EDGE_CURVE('',#390,#387,#178,.T.);
#481=EDGE_CURVE('',#391,#389,#179,.T.);
#482=EDGE_CURVE('',#392,#391,#180,.T.);
#483=EDGE_CURVE('',#384,#392,#181,.T.);
#484=EDGE_CURVE('',#383,#393,#182,.T.);
#485=EDGE_CURVE('',#393,#394,#183,.T.);
#486=EDGE_CURVE('',#394,#390,#184,.T.);
#487=EDGE_CURVE('',#395,#396,#185,.T.);
#488=EDGE_CURVE('',#394,#395,#186,.T.);
#489=EDGE_CURVE('',#396,#393,#187,.T.);
#490=EDGE_CURVE('',#386,#396,#188,.T.);
#491=EDGE_CURVE('',#395,#387,#189,.T.);
#492=EDGE_CURVE('',#397,#398,#190,.T.);
#493=EDGE_CURVE('',#399,#397,#191,.T.);
#494=EDGE_CURVE('',#400,#399,#341,.T.);
#495=EDGE_CURVE('',#401,#400,#192,.T.);
#496=EDGE_CURVE('',#401,#402,#193,.T.);
#497=EDGE_CURVE('',#403,#402,#194,.T.);
#498=EDGE_CURVE('',#404,#403,#342,.T.);
#499=EDGE_CURVE('',#398,#404,#195,.T.);
#500=EDGE_CURVE('',#391,#405,#196,.T.);
#501=EDGE_CURVE('',#406,#405,#343,.T.);
#502=EDGE_CURVE('',#406,#407,#197,.T.);
#503=EDGE_CURVE('',#407,#408,#198,.T.);
#504=EDGE_CURVE('',#409,#408,#199,.T.);
#505=EDGE_CURVE('',#410,#409,#344,.T.);
#506=EDGE_CURVE('',#410,#392,#200,.T.);
#507=EDGE_CURVE('',#402,#407,#201,.T.);
#508=EDGE_CURVE('',#403,#406,#202,.T.);
#509=EDGE_CURVE('',#405,#404,#203,.T.);
#510=EDGE_CURVE('',#409,#400,#204,.T.);
#511=EDGE_CURVE('',#399,#410,#205,.T.);
#512=EDGE_CURVE('',#408,#401,#206,.T.);
#513=EDGE_CURVE('',#355,#411,#207,.T.);
#514=EDGE_CURVE('',#411,#412,#345,.T.);
#515=EDGE_CURVE('',#412,#356,#208,.T.);
#516=EDGE_CURVE('',#380,#413,#346,.T.);
#517=EDGE_CURVE('',#413,#361,#209,.T.);
#518=EDGE_CURVE('',#414,#415,#210,.T.);
#519=EDGE_CURVE('',#388,#414,#211,.T.);
#520=EDGE_CURVE('',#415,#385,#212,.T.);
#521=EDGE_CURVE('',#382,#416,#213,.T.);
#522=EDGE_CURVE('',#416,#357,#214,.T.);
#523=EDGE_CURVE('',#412,#416,#215,.T.);
#524=EDGE_CURVE('',#413,#398,#216,.T.);
#525=EDGE_CURVE('',#397,#411,#217,.T.);
#526=EDGE_CURVE('',#417,#418,#347,.T.);
#527=EDGE_CURVE('',#418,#419,#218,.T.);
#528=EDGE_CURVE('',#419,#420,#348,.T.);
#529=EDGE_CURVE('',#420,#417,#219,.T.);
#530=EDGE_CURVE('',#418,#421,#220,.T.);
#531=EDGE_CURVE('',#421,#422,#221,.T.);
#532=EDGE_CURVE('',#419,#422,#222,.T.);
#533=EDGE_CURVE('',#423,#424,#349,.T.);
#534=EDGE_CURVE('',#424,#425,#223,.T.);
#535=EDGE_CURVE('',#425,#426,#350,.T.);
#536=EDGE_CURVE('',#426,#423,#224,.T.);
#537=EDGE_CURVE('',#425,#427,#225,.T.);
#538=EDGE_CURVE('',#427,#421,#226,.T.);
#539=EDGE_CURVE('',#354,#417,#227,.T.);
#540=EDGE_CURVE('',#426,#353,#228,.T.);
#541=EDGE_CURVE('',#424,#428,#229,.T.);
#542=EDGE_CURVE('',#428,#427,#230,.T.);
#543=EDGE_CURVE('',#422,#428,#231,.T.);
#544=EDGE_CURVE('',#414,#423,#232,.T.);
#545=EDGE_CURVE('',#420,#415,#233,.T.);
#546=ORIENTED_EDGE('',*,*,#429,.F.);
#547=ORIENTED_EDGE('',*,*,#430,.T.);
#548=ORIENTED_EDGE('',*,*,#431,.F.);
#549=ORIENTED_EDGE('',*,*,#430,.F.);
#550=ORIENTED_EDGE('',*,*,#432,.T.);
#551=ORIENTED_EDGE('',*,*,#433,.F.);
#552=ORIENTED_EDGE('',*,*,#434,.F.);
#553=ORIENTED_EDGE('',*,*,#435,.T.);
#554=ORIENTED_EDGE('',*,*,#436,.T.);
#555=ORIENTED_EDGE('',*,*,#437,.F.);
#556=ORIENTED_EDGE('',*,*,#438,.F.);
#557=ORIENTED_EDGE('',*,*,#439,.F.);
#558=ORIENTED_EDGE('',*,*,#440,.F.);
#559=ORIENTED_EDGE('',*,*,#441,.F.);
#560=ORIENTED_EDGE('',*,*,#442,.T.);
#561=ORIENTED_EDGE('',*,*,#443,.F.);
#562=ORIENTED_EDGE('',*,*,#444,.F.);
#563=ORIENTED_EDGE('',*,*,#445,.F.);
#564=ORIENTED_EDGE('',*,*,#444,.T.);
#565=ORIENTED_EDGE('',*,*,#446,.F.);
#566=ORIENTED_EDGE('',*,*,#447,.F.);
#567=ORIENTED_EDGE('',*,*,#448,.F.);
#568=ORIENTED_EDGE('',*,*,#447,.T.);
#569=ORIENTED_EDGE('',*,*,#449,.F.);
#570=ORIENTED_EDGE('',*,*,#450,.T.);
#571=ORIENTED_EDGE('',*,*,#451,.F.);
#572=ORIENTED_EDGE('',*,*,#450,.F.);
#573=ORIENTED_EDGE('',*,*,#452,.T.);
#574=ORIENTED_EDGE('',*,*,#442,.F.);
#575=ORIENTED_EDGE('',*,*,#452,.F.);
#576=ORIENTED_EDGE('',*,*,#449,.T.);
#577=ORIENTED_EDGE('',*,*,#446,.T.);
#578=ORIENTED_EDGE('',*,*,#443,.T.);
#579=ORIENTED_EDGE('',*,*,#453,.F.);
#580=ORIENTED_EDGE('',*,*,#454,.T.);
#581=ORIENTED_EDGE('',*,*,#455,.F.);
#582=ORIENTED_EDGE('',*,*,#454,.F.);
#583=ORIENTED_EDGE('',*,*,#456,.F.);
#584=ORIENTED_EDGE('',*,*,#457,.T.);
#585=ORIENTED_EDGE('',*,*,#458,.T.);
#586=ORIENTED_EDGE('',*,*,#459,.F.);
#587=ORIENTED_EDGE('',*,*,#460,.F.);
#588=ORIENTED_EDGE('',*,*,#459,.T.);
#589=ORIENTED_EDGE('',*,*,#461,.T.);
#590=ORIENTED_EDGE('',*,*,#462,.F.);
#591=ORIENTED_EDGE('',*,*,#463,.F.);
#592=ORIENTED_EDGE('',*,*,#462,.T.);
#593=ORIENTED_EDGE('',*,*,#464,.T.);
#594=ORIENTED_EDGE('',*,*,#465,.F.);
#595=ORIENTED_EDGE('',*,*,#466,.F.);
#596=ORIENTED_EDGE('',*,*,#465,.T.);
#597=ORIENTED_EDGE('',*,*,#467,.T.);
#598=ORIENTED_EDGE('',*,*,#457,.F.);
#599=ORIENTED_EDGE('',*,*,#467,.F.);
#600=ORIENTED_EDGE('',*,*,#464,.F.);
#601=ORIENTED_EDGE('',*,*,#461,.F.);
#602=ORIENTED_EDGE('',*,*,#458,.F.);
#603=ORIENTED_EDGE('',*,*,#468,.F.);
#604=ORIENTED_EDGE('',*,*,#438,.T.);
#605=ORIENTED_EDGE('',*,*,#469,.F.);
#606=ORIENTED_EDGE('',*,*,#470,.F.);
#607=ORIENTED_EDGE('',*,*,#469,.T.);
#608=ORIENTED_EDGE('',*,*,#437,.T.);
#609=ORIENTED_EDGE('',*,*,#471,.T.);
#610=ORIENTED_EDGE('',*,*,#472,.T.);
#611=ORIENTED_EDGE('',*,*,#463,.T.);
#612=ORIENTED_EDGE('',*,*,#466,.T.);
#613=ORIENTED_EDGE('',*,*,#456,.T.);
#614=ORIENTED_EDGE('',*,*,#460,.T.);
#615=ORIENTED_EDGE('',*,*,#473,.T.);
#616=ORIENTED_EDGE('',*,*,#474,.T.);
#617=ORIENTED_EDGE('',*,*,#475,.T.);
#618=ORIENTED_EDGE('',*,*,#476,.T.);
#619=ORIENTED_EDGE('',*,*,#477,.T.);
#620=ORIENTED_EDGE('',*,*,#478,.T.);
#621=ORIENTED_EDGE('',*,*,#479,.T.);
#622=ORIENTED_EDGE('',*,*,#480,.T.);
#623=ORIENTED_EDGE('',*,*,#479,.F.);
#624=ORIENTED_EDGE('',*,*,#481,.F.);
#625=ORIENTED_EDGE('',*,*,#482,.F.);
#626=ORIENTED_EDGE('',*,*,#483,.F.);
#627=ORIENTED_EDGE('',*,*,#473,.F.);
#628=ORIENTED_EDGE('',*,*,#484,.T.);
#629=ORIENTED_EDGE('',*,*,#485,.T.);
#630=ORIENTED_EDGE('',*,*,#486,.T.);
#631=ORIENTED_EDGE('',*,*,#487,.F.);
#632=ORIENTED_EDGE('',*,*,#488,.F.);
#633=ORIENTED_EDGE('',*,*,#485,.F.);
#634=ORIENTED_EDGE('',*,*,#489,.F.);
#635=ORIENTED_EDGE('',*,*,#476,.F.);
#636=ORIENTED_EDGE('',*,*,#490,.T.);
#637=ORIENTED_EDGE('',*,*,#489,.T.);
#638=ORIENTED_EDGE('',*,*,#484,.F.);
#639=ORIENTED_EDGE('',*,*,#453,.T.);
#640=ORIENTED_EDGE('',*,*,#480,.F.);
#641=ORIENTED_EDGE('',*,*,#486,.F.);
#642=ORIENTED_EDGE('',*,*,#488,.T.);
#643=ORIENTED_EDGE('',*,*,#491,.T.);
#644=ORIENTED_EDGE('',*,*,#455,.T.);
#645=ORIENTED_EDGE('',*,*,#492,.F.);
#646=ORIENTED_EDGE('',*,*,#493,.F.);
#647=ORIENTED_EDGE('',*,*,#494,.F.);
#648=ORIENTED_EDGE('',*,*,#495,.F.);
#649=ORIENTED_EDGE('',*,*,#496,.T.);
#650=ORIENTED_EDGE('',*,*,#497,.F.);
#651=ORIENTED_EDGE('',*,*,#498,.F.);
#652=ORIENTED_EDGE('',*,*,#499,.F.);
#653=ORIENTED_EDGE('',*,*,#482,.T.);
#654=ORIENTED_EDGE('',*,*,#500,.T.);
#655=ORIENTED_EDGE('',*,*,#501,.F.);
#656=ORIENTED_EDGE('',*,*,#502,.T.);
#657=ORIENTED_EDGE('',*,*,#503,.T.);
#658=ORIENTED_EDGE('',*,*,#504,.F.);
#659=ORIENTED_EDGE('',*,*,#505,.F.);
#660=ORIENTED_EDGE('',*,*,#506,.T.);
#661=ORIENTED_EDGE('',*,*,#507,.T.);
#662=ORIENTED_EDGE('',*,*,#502,.F.);
#663=ORIENTED_EDGE('',*,*,#508,.F.);
#664=ORIENTED_EDGE('',*,*,#497,.T.);
#665=ORIENTED_EDGE('',*,*,#501,.T.);
#666=ORIENTED_EDGE('',*,*,#509,.T.);
#667=ORIENTED_EDGE('',*,*,#498,.T.);
#668=ORIENTED_EDGE('',*,*,#508,.T.);
#669=ORIENTED_EDGE('',*,*,#505,.T.);
#670=ORIENTED_EDGE('',*,*,#510,.T.);
#671=ORIENTED_EDGE('',*,*,#494,.T.);
#672=ORIENTED_EDGE('',*,*,#511,.T.);
#673=ORIENTED_EDGE('',*,*,#512,.T.);
#674=ORIENTED_EDGE('',*,*,#495,.T.);
#675=ORIENTED_EDGE('',*,*,#510,.F.);
#676=ORIENTED_EDGE('',*,*,#504,.T.);
#677=ORIENTED_EDGE('',*,*,#448,.T.);
#678=ORIENTED_EDGE('',*,*,#451,.T.);
#679=ORIENTED_EDGE('',*,*,#441,.T.);
#680=ORIENTED_EDGE('',*,*,#445,.T.);
#681=ORIENTED_EDGE('',*,*,#503,.F.);
#682=ORIENTED_EDGE('',*,*,#507,.F.);
#683=ORIENTED_EDGE('',*,*,#496,.F.);
#684=ORIENTED_EDGE('',*,*,#512,.F.);
#685=ORIENTED_EDGE('',*,*,#434,.T.);
#686=ORIENTED_EDGE('',*,*,#513,.T.);
#687=ORIENTED_EDGE('',*,*,#514,.T.);
#688=ORIENTED_EDGE('',*,*,#515,.T.);
#689=ORIENTED_EDGE('',*,*,#516,.T.);
#690=ORIENTED_EDGE('',*,*,#517,.T.);
#691=ORIENTED_EDGE('',*,*,#439,.T.);
#692=ORIENTED_EDGE('',*,*,#468,.T.);
#693=ORIENTED_EDGE('',*,*,#518,.F.);
#694=ORIENTED_EDGE('',*,*,#519,.F.);
#695=ORIENTED_EDGE('',*,*,#477,.F.);
#696=ORIENTED_EDGE('',*,*,#491,.F.);
#697=ORIENTED_EDGE('',*,*,#487,.T.);
#698=ORIENTED_EDGE('',*,*,#490,.F.);
#699=ORIENTED_EDGE('',*,*,#475,.F.);
#700=ORIENTED_EDGE('',*,*,#520,.F.);
#701=ORIENTED_EDGE('',*,*,#521,.F.);
#702=ORIENTED_EDGE('',*,*,#471,.F.);
#703=ORIENTED_EDGE('',*,*,#436,.F.);
#704=ORIENTED_EDGE('',*,*,#522,.F.);
#705=ORIENTED_EDGE('',*,*,#515,.F.);
#706=ORIENTED_EDGE('',*,*,#523,.T.);
#707=ORIENTED_EDGE('',*,*,#522,.T.);
#708=ORIENTED_EDGE('',*,*,#435,.F.);
#709=ORIENTED_EDGE('',*,*,#492,.T.);
#710=ORIENTED_EDGE('',*,*,#524,.F.);
#711=ORIENTED_EDGE('',*,*,#516,.F.);
#712=ORIENTED_EDGE('',*,*,#470,.T.);
#713=ORIENTED_EDGE('',*,*,#472,.F.);
#714=ORIENTED_EDGE('',*,*,#521,.T.);
#715=ORIENTED_EDGE('',*,*,#523,.F.);
#716=ORIENTED_EDGE('',*,*,#514,.F.);
#717=ORIENTED_EDGE('',*,*,#525,.F.);
#718=ORIENTED_EDGE('',*,*,#526,.T.);
#719=ORIENTED_EDGE('',*,*,#527,.T.);
#720=ORIENTED_EDGE('',*,*,#528,.T.);
#721=ORIENTED_EDGE('',*,*,#529,.T.);
#722=ORIENTED_EDGE('',*,*,#527,.F.);
#723=ORIENTED_EDGE('',*,*,#530,.T.);
#724=ORIENTED_EDGE('',*,*,#531,.T.);
#725=ORIENTED_EDGE('',*,*,#532,.F.);
#726=ORIENTED_EDGE('',*,*,#431,.T.);
#727=ORIENTED_EDGE('',*,*,#533,.T.);
#728=ORIENTED_EDGE('',*,*,#534,.T.);
#729=ORIENTED_EDGE('',*,*,#535,.T.);
#730=ORIENTED_EDGE('',*,*,#536,.T.);
#731=ORIENTED_EDGE('',*,*,#535,.F.);
#732=ORIENTED_EDGE('',*,*,#537,.T.);
#733=ORIENTED_EDGE('',*,*,#538,.T.);
#734=ORIENTED_EDGE('',*,*,#530,.F.);
#735=ORIENTED_EDGE('',*,*,#526,.F.);
#736=ORIENTED_EDGE('',*,*,#539,.F.);
#737=ORIENTED_EDGE('',*,*,#432,.F.);
#738=ORIENTED_EDGE('',*,*,#540,.F.);
#739=ORIENTED_EDGE('',*,*,#534,.F.);
#740=ORIENTED_EDGE('',*,*,#541,.T.);
#741=ORIENTED_EDGE('',*,*,#542,.T.);
#742=ORIENTED_EDGE('',*,*,#537,.F.);
#743=ORIENTED_EDGE('',*,*,#429,.T.);
#744=ORIENTED_EDGE('',*,*,#531,.F.);
#745=ORIENTED_EDGE('',*,*,#538,.F.);
#746=ORIENTED_EDGE('',*,*,#542,.F.);
#747=ORIENTED_EDGE('',*,*,#543,.F.);
#748=ORIENTED_EDGE('',*,*,#533,.F.);
#749=ORIENTED_EDGE('',*,*,#544,.F.);
#750=ORIENTED_EDGE('',*,*,#518,.T.);
#751=ORIENTED_EDGE('',*,*,#545,.F.);
#752=ORIENTED_EDGE('',*,*,#528,.F.);
#753=ORIENTED_EDGE('',*,*,#532,.T.);
#754=ORIENTED_EDGE('',*,*,#543,.T.);
#755=ORIENTED_EDGE('',*,*,#541,.F.);
#756=ORIENTED_EDGE('',*,*,#536,.F.);
#757=ORIENTED_EDGE('',*,*,#540,.T.);
#758=ORIENTED_EDGE('',*,*,#440,.T.);
#759=ORIENTED_EDGE('',*,*,#517,.F.);
#760=ORIENTED_EDGE('',*,*,#524,.T.);
#761=ORIENTED_EDGE('',*,*,#499,.T.);
#762=ORIENTED_EDGE('',*,*,#509,.F.);
#763=ORIENTED_EDGE('',*,*,#500,.F.);
#764=ORIENTED_EDGE('',*,*,#481,.T.);
#765=ORIENTED_EDGE('',*,*,#478,.F.);
#766=ORIENTED_EDGE('',*,*,#519,.T.);
#767=ORIENTED_EDGE('',*,*,#544,.T.);
#768=ORIENTED_EDGE('',*,*,#529,.F.);
#769=ORIENTED_EDGE('',*,*,#545,.T.);
#770=ORIENTED_EDGE('',*,*,#520,.T.);
#771=ORIENTED_EDGE('',*,*,#474,.F.);
#772=ORIENTED_EDGE('',*,*,#483,.T.);
#773=ORIENTED_EDGE('',*,*,#506,.F.);
#774=ORIENTED_EDGE('',*,*,#511,.F.);
#775=ORIENTED_EDGE('',*,*,#493,.T.);
#776=ORIENTED_EDGE('',*,*,#525,.T.);
#777=ORIENTED_EDGE('',*,*,#513,.F.);
#778=ORIENTED_EDGE('',*,*,#433,.T.);
#779=ORIENTED_EDGE('',*,*,#539,.T.);
#780=CYLINDRICAL_SURFACE('',#850,6.00000000000001);
#781=CYLINDRICAL_SURFACE('',#859,14.);
#782=CYLINDRICAL_SURFACE('',#863,6.);
#783=CYLINDRICAL_SURFACE('',#867,2.455);
#784=CYLINDRICAL_SURFACE('',#871,2.455);
#785=CYLINDRICAL_SURFACE('',#877,25.);
#786=CYLINDRICAL_SURFACE('',#880,50.);
#787=CYLINDRICAL_SURFACE('',#894,50.);
#788=CYLINDRICAL_SURFACE('',#895,25.);
#789=CYLINDRICAL_SURFACE('',#898,25.);
#790=CYLINDRICAL_SURFACE('',#900,50.);
#791=CYLINDRICAL_SURFACE('',#906,25.);
#792=CYLINDRICAL_SURFACE('',#910,50.);
#793=ADVANCED_FACE('',(#51),#780,.F.);
#794=ADVANCED_FACE('',(#52),#21,.T.);
#795=ADVANCED_FACE('',(#53),#22,.F.);
#796=ADVANCED_FACE('',(#54),#23,.F.);
#797=ADVANCED_FACE('',(#55),#24,.F.);
#798=ADVANCED_FACE('',(#56),#781,.F.);
#799=ADVANCED_FACE('',(#57),#25,.F.);
#800=ADVANCED_FACE('',(#58),#782,.F.);
#801=ADVANCED_FACE('',(#59),#26,.F.);
#802=ADVANCED_FACE('',(#60),#783,.F.);
#803=ADVANCED_FACE('',(#61),#27,.F.);
#804=ADVANCED_FACE('',(#62),#784,.F.);
#805=ADVANCED_FACE('',(#63),#28,.F.);
#806=ADVANCED_FACE('',(#64),#29,.T.);
#807=ADVANCED_FACE('',(#65,#15),#30,.T.);
#808=ADVANCED_FACE('',(#66),#785,.F.);
#809=ADVANCED_FACE('',(#67),#786,.T.);
#810=ADVANCED_FACE('',(#68),#31,.T.);
#811=ADVANCED_FACE('',(#69),#32,.T.);
#812=ADVANCED_FACE('',(#70,#16),#33,.T.);
#813=ADVANCED_FACE('',(#71,#17),#34,.T.);
#814=ADVANCED_FACE('',(#72),#35,.T.);
#815=ADVANCED_FACE('',(#73),#36,.T.);
#816=ADVANCED_FACE('',(#74),#37,.T.);
#817=ADVANCED_FACE('',(#75),#787,.T.);
#818=ADVANCED_FACE('',(#76),#788,.F.);
#819=ADVANCED_FACE('',(#77,#18),#38,.T.);
#820=ADVANCED_FACE('',(#78),#39,.T.);
#821=ADVANCED_FACE('',(#79),#789,.F.);
#822=ADVANCED_FACE('',(#80),#790,.T.);
#823=ADVANCED_FACE('',(#81),#40,.T.);
#824=ADVANCED_FACE('',(#82),#41,.T.);
#825=ADVANCED_FACE('',(#83),#42,.T.);
#826=ADVANCED_FACE('',(#84),#43,.T.);
#827=ADVANCED_FACE('',(#85),#791,.F.);
#828=ADVANCED_FACE('',(#86,#19),#44,.T.);
#829=ADVANCED_FACE('',(#87),#792,.T.);
#830=ADVANCED_FACE('',(#88),#45,.T.);
#831=ADVANCED_FACE('',(#89,#20),#46,.T.);
#832=ADVANCED_FACE('',(#90),#47,.T.);
#833=ADVANCED_FACE('',(#91),#48,.T.);
#834=ADVANCED_FACE('',(#92),#49,.T.);
#835=ADVANCED_FACE('',(#93),#50,.T.);
#836=CLOSED_SHELL('',(#793,#794,#795,#796,#797,#798,#799,#800,#801,#802,
#803,#804,#805,#806,#807,#808,#809,#810,#811,#812,#813,#814,#815,#816,#817,
#818,#819,#820,#821,#822,#823,#824,#825,#826,#827,#828,#829,#830,#831,#832,
#833,#834,#835));
#837=DERIVED_UNIT_ELEMENT(#839,1.);
#838=DERIVED_UNIT_ELEMENT(#1394,-3.);
#839=(
MASS_UNIT()
NAMED_UNIT(*)
SI_UNIT(.KILO.,.GRAM.)
);
#840=DERIVED_UNIT((#837,#838));
#841=MEASURE_REPRESENTATION_ITEM('density measure',
POSITIVE_RATIO_MEASURE(7850.),#840);
#842=PROPERTY_DEFINITION_REPRESENTATION(#847,#844);
#843=PROPERTY_DEFINITION_REPRESENTATION(#848,#845);
#844=REPRESENTATION('material name',(#846),#1391);
#845=REPRESENTATION('density',(#841),#1391);
#846=DESCRIPTIVE_REPRESENTATION_ITEM('Steel','Steel');
#847=PROPERTY_DEFINITION('material property','material name',#1401);
#848=PROPERTY_DEFINITION('material property','density of part',#1401);
#849=AXIS2_PLACEMENT_3D('',#1150,#919,#920);
#850=AXIS2_PLACEMENT_3D('',#1151,#921,#922);
#851=AXIS2_PLACEMENT_3D('',#1153,#923,#924);
#852=AXIS2_PLACEMENT_3D('',#1156,#926,#927);
#853=AXIS2_PLACEMENT_3D('',#1157,#928,#929);
#854=AXIS2_PLACEMENT_3D('',#1164,#932,#933);
#855=AXIS2_PLACEMENT_3D('',#1174,#938,#939);
#856=AXIS2_PLACEMENT_3D('',#1176,#941,#942);
#857=AXIS2_PLACEMENT_3D('',#1185,#947,#948);
#858=AXIS2_PLACEMENT_3D('',#1191,#952,#953);
#859=AXIS2_PLACEMENT_3D('',#1197,#957,#958);
#860=AXIS2_PLACEMENT_3D('',#1198,#959,#960);
#861=AXIS2_PLACEMENT_3D('',#1199,#961,#962);
#862=AXIS2_PLACEMENT_3D('',#1200,#963,#964);
#863=AXIS2_PLACEMENT_3D('',#1201,#965,#966);
#864=AXIS2_PLACEMENT_3D('',#1203,#967,#968);
#865=AXIS2_PLACEMENT_3D('',#1206,#970,#971);
#866=AXIS2_PLACEMENT_3D('',#1207,#972,#973);
#867=AXIS2_PLACEMENT_3D('',#1216,#978,#979);
#868=AXIS2_PLACEMENT_3D('',#1218,#980,#981);
#869=AXIS2_PLACEMENT_3D('',#1220,#982,#983);
#870=AXIS2_PLACEMENT_3D('',#1222,#985,#986);
#871=AXIS2_PLACEMENT_3D('',#1228,#990,#991);
#872=AXIS2_PLACEMENT_3D('',#1229,#992,#993);
#873=AXIS2_PLACEMENT_3D('',#1230,#994,#995);
#874=AXIS2_PLACEMENT_3D('',#1231,#996,#997);
#875=AXIS2_PLACEMENT_3D('',#1232,#998,#999);
#876=AXIS2_PLACEMENT_3D('',#1238,#1003,#1004);
#877=AXIS2_PLACEMENT_3D('',#1242,#1007,#1008);
#878=AXIS2_PLACEMENT_3D('',#1245,#1009,#1010);
#879=AXIS2_PLACEMENT_3D('',#1249,#1012,#1013);
#880=AXIS2_PLACEMENT_3D('',#1251,#1015,#1016);
#881=AXIS2_PLACEMENT_3D('',#1254,#1017,#1018);
#882=AXIS2_PLACEMENT_3D('',#1258,#1020,#1021);
#883=AXIS2_PLACEMENT_3D('',#1260,#1023,#1024);
#884=AXIS2_PLACEMENT_3D('',#1271,#1031,#1032);
#885=AXIS2_PLACEMENT_3D('',#1277,#1036,#1037);
#886=AXIS2_PLACEMENT_3D('',#1279,#1039,#1040);
#887=AXIS2_PLACEMENT_3D('',#1281,#1042,#1043);
#888=AXIS2_PLACEMENT_3D('',#1288,#1046,#1047);
#889=AXIS2_PLACEMENT_3D('',#1296,#1051,#1052);
#890=AXIS2_PLACEMENT_3D('',#1298,#1054,#1055);
#891=AXIS2_PLACEMENT_3D('',#1302,#1057,#1058);
#892=AXIS2_PLACEMENT_3D('',#1310,#1062,#1063);
#893=AXIS2_PLACEMENT_3D('',#1312,#1065,#1066);
#894=AXIS2_PLACEMENT_3D('',#1315,#1069,#1070);
#895=AXIS2_PLACEMENT_3D('',#1317,#1072,#1073);
#896=AXIS2_PLACEMENT_3D('',#1320,#1076,#1077);
#897=AXIS2_PLACEMENT_3D('',#1322,#1079,#1080);
#898=AXIS2_PLACEMENT_3D('',#1323,#1081,#1082);
#899=AXIS2_PLACEMENT_3D('',#1327,#1084,#1085);
#900=AXIS2_PLACEMENT_3D('',#1329,#1087,#1088);
#901=AXIS2_PLACEMENT_3D('',#1331,#1089,#1090);
#902=AXIS2_PLACEMENT_3D('',#1333,#1092,#1093);
#903=AXIS2_PLACEMENT_3D('',#1339,#1097,#1098);
#904=AXIS2_PLACEMENT_3D('',#1343,#1101,#1102);
#905=AXIS2_PLACEMENT_3D('',#1345,#1104,#1105);
#906=AXIS2_PLACEMENT_3D('',#1348,#1108,#1109);
#907=AXIS2_PLACEMENT_3D('',#1351,#1110,#1111);
#908=AXIS2_PLACEMENT_3D('',#1355,#1113,#1114);
#909=AXIS2_PLACEMENT_3D('',#1357,#1116,#1117);
#910=AXIS2_PLACEMENT_3D('',#1363,#1121,#1122);
#911=AXIS2_PLACEMENT_3D('',#1366,#1123,#1124);
#912=AXIS2_PLACEMENT_3D('',#1370,#1126,#1127);
#913=AXIS2_PLACEMENT_3D('',#1372,#1129,#1130);
#914=AXIS2_PLACEMENT_3D('',#1378,#1135,#1136);
#915=AXIS2_PLACEMENT_3D('',#1382,#1139,#1140);
#916=AXIS2_PLACEMENT_3D('',#1384,#1142,#1143);
#917=AXIS2_PLACEMENT_3D('',#1387,#1146,#1147);
#918=AXIS2_PLACEMENT_3D('',#1388,#1148,#1149);
#919=DIRECTION('axis',(0.,0.,1.));
#920=DIRECTION('refdir',(1.,0.,0.));
#921=DIRECTION('center_axis',(1.,0.,0.));
#922=DIRECTION('ref_axis',(0.,-1.,0.));
#923=DIRECTION('center_axis',(1.,0.,0.));
#924=DIRECTION('ref_axis',(0.,-1.,0.));
#925=DIRECTION('',(1.,0.,0.));
#926=DIRECTION('center_axis',(-1.,0.,0.));
#927=DIRECTION('ref_axis',(0.,-1.,0.));
#928=DIRECTION('center_axis',(-1.,1.22464679914735E-16,-1.43696945538026E-32));
#929=DIRECTION('ref_axis',(-1.22464679914735E-16,-1.,2.34674921190458E-16));
#930=DIRECTION('',(0.,0.,1.));
#931=DIRECTION('',(0.,-1.,0.));
#932=DIRECTION('center_axis',(-1.,1.22464679914735E-16,-1.43696945538026E-32));
#933=DIRECTION('ref_axis',(8.65956056235493E-17,0.707106781186547,-0.707106781186548));
#934=DIRECTION('',(1.43696945538026E-32,2.34674921190458E-16,1.));
#935=DIRECTION('',(0.,1.,0.));
#936=DIRECTION('',(1.43696945538026E-32,2.34674921190458E-16,1.));
#937=DIRECTION('',(0.,1.,0.));
#938=DIRECTION('center_axis',(1.,-1.22464679914735E-16,1.43696945538026E-32));
#939=DIRECTION('ref_axis',(8.65956056235493E-17,0.707106781186547,-0.707106781186548));
#940=DIRECTION('',(1.22464679914735E-16,1.,-2.34674921190458E-16));
#941=DIRECTION('center_axis',(1.19626522433031E-14,-1.,9.51435131404215E-17));
#942=DIRECTION('ref_axis',(-1.72696653092465E-15,-9.51435131404421E-17,
-1.));
#943=DIRECTION('',(0.,-9.51435131404215E-17,-1.));
#944=DIRECTION('',(1.,1.19626522433031E-14,-1.72696653092465E-15));
#945=DIRECTION('',(1.72696653092465E-15,9.51435131404421E-17,1.));
#946=DIRECTION('',(1.,1.19626522433031E-14,-1.72696653092465E-15));
#947=DIRECTION('center_axis',(-1.72696653092465E-15,-9.51435131404421E-17,
-1.));
#948=DIRECTION('ref_axis',(-1.19626522433031E-14,1.,-9.51435131404215E-17));
#949=DIRECTION('',(0.,1.,-9.51435131404421E-17));
#950=DIRECTION('',(1.19626522433031E-14,-1.,9.51435131404215E-17));
#951=DIRECTION('',(1.,1.19626522433031E-14,-1.72696653092465E-15));
#952=DIRECTION('center_axis',(-1.19626522433031E-14,1.,-9.51435131404215E-17));
#953=DIRECTION('ref_axis',(1.72696653092465E-15,9.51435131404421E-17,1.));
#954=DIRECTION('',(0.,9.51435131404215E-17,1.));
#955=DIRECTION('',(-1.72696653092465E-15,-9.51435131404421E-17,-1.));
#956=DIRECTION('',(-1.,-1.19626522433031E-14,1.72696653092465E-15));
#957=DIRECTION('center_axis',(1.,1.19626522433031E-14,-1.72696653092465E-15));
#958=DIRECTION('ref_axis',(1.72696653092464E-15,2.78840533012545E-16,1.));
#959=DIRECTION('center_axis',(1.,0.,0.));
#960=DIRECTION('ref_axis',(1.19626522433031E-14,-1.,9.51435131404215E-17));
#961=DIRECTION('center_axis',(1.,1.19626522433031E-14,-1.72696653092465E-15));
#962=DIRECTION('ref_axis',(1.19626522433031E-14,-1.,9.51435131404215E-17));
#963=DIRECTION('center_axis',(1.,1.19626522433031E-14,-1.72696653092465E-15));
#964=DIRECTION('ref_axis',(1.19626522433031E-14,-1.,9.51435131404215E-17));
#965=DIRECTION('center_axis',(0.,-1.,0.));
#966=DIRECTION('ref_axis',(-1.,0.,0.));
#967=DIRECTION('center_axis',(0.,-1.,0.));
#968=DIRECTION('ref_axis',(-1.,0.,0.));
#969=DIRECTION('',(0.,-1.,0.));
#970=DIRECTION('center_axis',(0.,1.,0.));
#971=DIRECTION('ref_axis',(-1.,0.,0.));
#972=DIRECTION('center_axis',(-1.,-1.13520304267922E-14,1.76941963956225E-15));
#973=DIRECTION('ref_axis',(-1.76941963956225E-15,5.55111512312339E-17,-1.));
#974=DIRECTION('',(-1.76941963956225E-15,0.,-1.));
#975=DIRECTION('',(1.13520304267922E-14,-1.,-5.5511151231254E-17));
#976=DIRECTION('',(-1.76941963956225E-15,5.55111512312339E-17,-1.));
#977=DIRECTION('',(1.13520304267922E-14,-1.,-5.5511151231254E-17));
#978=DIRECTION('center_axis',(1.13520304267922E-14,-1.,-5.5511151231254E-17));
#979=DIRECTION('ref_axis',(-1.,-1.13520304267922E-14,1.76941963956225E-15));
#980=DIRECTION('center_axis',(0.,-1.,0.));
#981=DIRECTION('ref_axis',(-1.,-1.13520304267922E-14,1.76941963956225E-15));
#982=DIRECTION('center_axis',(1.13520304267922E-14,-1.,-5.5511151231254E-17));
#983=DIRECTION('ref_axis',(-1.,-1.13520304267922E-14,1.76941963956225E-15));
#984=DIRECTION('',(1.13520304267922E-14,-1.,-5.5511151231254E-17));
#985=DIRECTION('center_axis',(1.,1.13520304267922E-14,-1.76941963956225E-15));
#986=DIRECTION('ref_axis',(1.76941963956225E-15,-5.55111512312339E-17,1.));
#987=DIRECTION('',(1.76941963956225E-15,0.,1.));
#988=DIRECTION('',(1.76941963956225E-15,-5.55111512312339E-17,1.));
#989=DIRECTION('',(1.13520304267922E-14,-1.,-5.5511151231254E-17));
#990=DIRECTION('center_axis',(1.13520304267922E-14,-1.,-5.5511151231254E-17));
#991=DIRECTION('ref_axis',(-1.,-1.13520304267922E-14,1.76941963956225E-15));
#992=DIRECTION('center_axis',(0.,-1.,0.));
#993=DIRECTION('ref_axis',(-1.,-1.13520304267922E-14,1.76941963956225E-15));
#994=DIRECTION('center_axis',(1.13520304267922E-14,-1.,-5.5511151231254E-17));
#995=DIRECTION('ref_axis',(-1.,-1.13520304267922E-14,1.76941963956225E-15));
#996=DIRECTION('center_axis',(1.13520304267922E-14,-1.,-5.5511151231254E-17));
#997=DIRECTION('ref_axis',(-1.,-1.13520304267922E-14,1.76941963956225E-15));
#998=DIRECTION('center_axis',(1.43696945538026E-32,0.,-1.));
#999=DIRECTION('ref_axis',(-1.,1.22464679914735E-16,-1.43696945538026E-32));
#1000=DIRECTION('',(1.,-1.22464679914735E-16,1.43696945538026E-32));
#1001=DIRECTION('',(-1.,1.22464679914735E-16,-1.43696945538026E-32));
#1002=DIRECTION('',(0.,1.,0.));
#1003=DIRECTION('center_axis',(0.,1.,0.));
#1004=DIRECTION('ref_axis',(0.,0.,1.));
#1005=DIRECTION('',(1.,-1.22464679914735E-16,1.43696945538026E-32));
#1006=DIRECTION('',(-1.43696945538026E-32,-2.34674921190458E-16,-1.));
#1007=DIRECTION('center_axis',(-1.,0.,0.));
#1008=DIRECTION('ref_axis',(0.,-0.707106781186547,-0.707106781186547));
#1009=DIRECTION('center_axis',(1.,0.,0.));
#1010=DIRECTION('ref_axis',(0.,-0.707106781186547,-0.707106781186547));
#1011=DIRECTION('',(-1.,0.,0.));
#1012=DIRECTION('center_axis',(-1.,0.,0.));
#1013=DIRECTION('ref_axis',(0.,-0.707106781186547,-0.707106781186547));
#1014=DIRECTION('',(1.,0.,0.));
#1015=DIRECTION('center_axis',(-1.,0.,0.));
#1016=DIRECTION('ref_axis',(0.,-0.707106781186547,-0.707106781186547));
#1017=DIRECTION('center_axis',(1.,0.,0.));
#1018=DIRECTION('ref_axis',(0.,-0.707106781186547,-0.707106781186547));
#1019=DIRECTION('',(1.,0.,0.));
#1020=DIRECTION('center_axis',(-1.,0.,0.));
#1021=DIRECTION('ref_axis',(0.,-0.707106781186547,-0.707106781186547));
#1022=DIRECTION('',(-1.,0.,0.));
#1023=DIRECTION('center_axis',(1.,0.,0.));
#1024=DIRECTION('ref_axis',(0.,1.,0.));
#1025=DIRECTION('',(0.,-1.,0.));
#1026=DIRECTION('',(0.,-3.94745964311167E-16,-1.));
#1027=DIRECTION('',(0.,1.,0.));
#1028=DIRECTION('',(0.,0.,1.));
#1029=DIRECTION('',(0.,-1.,0.));
#1030=DIRECTION('',(0.,0.,-1.));
#1031=DIRECTION('center_axis',(0.,0.,1.));
#1032=DIRECTION('ref_axis',(1.,0.,0.));
#1033=DIRECTION('',(0.,1.,0.));
#1034=DIRECTION('',(-1.,0.,0.));
#1035=DIRECTION('',(1.,0.,0.));
#1036=DIRECTION('center_axis',(0.,1.,0.));
#1037=DIRECTION('ref_axis',(-1.,0.,0.));
#1038=DIRECTION('',(0.,0.,1.));
#1039=DIRECTION('center_axis',(0.,-1.,0.));
#1040=DIRECTION('ref_axis',(1.,0.,0.));
#1041=DIRECTION('',(0.,0.,-1.));
#1042=DIRECTION('center_axis',(0.,1.,-3.94745964311167E-16));
#1043=DIRECTION('ref_axis',(-1.,0.,0.));
#1044=DIRECTION('',(3.39727436131979E-32,1.60071043120708E-16,-1.));
#1045=DIRECTION('',(-1.,0.,0.));
#1046=DIRECTION('center_axis',(0.,1.,-3.94745964311167E-16));
#1047=DIRECTION('ref_axis',(0.707106781186547,0.,-0.707106781186547));
#1048=DIRECTION('',(0.,0.,-1.));
#1049=DIRECTION('',(1.,0.,0.));
#1050=DIRECTION('',(0.,3.94745964311167E-16,1.));
#1051=DIRECTION('center_axis',(0.,-1.,3.94745964311167E-16));
#1052=DIRECTION('ref_axis',(0.707106781186547,0.,-0.707106781186547));
#1053=DIRECTION('',(1.,0.,0.));
#1054=DIRECTION('center_axis',(0.,-1.,3.94745964311167E-16));
#1055=DIRECTION('ref_axis',(1.,0.,0.));
#1056=DIRECTION('',(1.,0.,0.));
#1057=DIRECTION('center_axis',(0.,1.,-3.94745964311167E-16));
#1058=DIRECTION('ref_axis',(0.707106781186547,0.,-0.707106781186547));
#1059=DIRECTION('',(0.,3.94745964311167E-16,1.));
#1060=DIRECTION('',(-1.,0.,0.));
#1061=DIRECTION('',(0.,3.94745964311167E-16,1.));
#1062=DIRECTION('center_axis',(0.,-1.,3.94745964311167E-16));
#1063=DIRECTION('ref_axis',(0.707106781186547,0.,-0.707106781186547));
#1064=DIRECTION('',(-1.,0.,0.));
#1065=DIRECTION('center_axis',(1.,0.,0.));
#1066=DIRECTION('ref_axis',(0.,1.,0.));
#1067=DIRECTION('',(0.,-1.,0.));
#1068=DIRECTION('',(0.,-1.,0.));
#1069=DIRECTION('center_axis',(0.,-1.,0.));
#1070=DIRECTION('ref_axis',(0.707106781186547,0.,-0.707106781186547));
#1071=DIRECTION('',(0.,1.,0.));
#1072=DIRECTION('center_axis',(0.,1.,0.));
#1073=DIRECTION('ref_axis',(0.707106781186547,0.,-0.707106781186547));
#1074=DIRECTION('',(0.,1.,0.));
#1075=DIRECTION('',(0.,-1.,0.));
#1076=DIRECTION('center_axis',(-1.,0.,0.));
#1077=DIRECTION('ref_axis',(0.,-1.,0.));
#1078=DIRECTION('',(0.,1.,0.));
#1079=DIRECTION('center_axis',(0.,0.,1.));
#1080=DIRECTION('ref_axis',(1.,0.,0.));
#1081=DIRECTION('center_axis',(1.,-1.22464679914735E-16,1.43696945538026E-32));
#1082=DIRECTION('ref_axis',(8.65956056235493E-17,0.707106781186547,-0.707106781186548));
#1083=DIRECTION('',(1.,-1.22464679914735E-16,1.43696945538026E-32));
#1084=DIRECTION('center_axis',(1.,-1.22464679914735E-16,1.43696945538026E-32));
#1085=DIRECTION('ref_axis',(8.65956056235493E-17,0.707106781186547,-0.707106781186548));
#1086=DIRECTION('',(-1.,1.22464679914735E-16,-1.43696945538026E-32));
#1087=DIRECTION('center_axis',(1.,-1.22464679914735E-16,1.43696945538026E-32));
#1088=DIRECTION('ref_axis',(8.65956056235493E-17,0.707106781186547,-0.707106781186548));
#1089=DIRECTION('center_axis',(-1.,1.22464679914735E-16,-1.43696945538026E-32));
#1090=DIRECTION('ref_axis',(8.65956056235493E-17,0.707106781186547,-0.707106781186548));
#1091=DIRECTION('',(-1.,1.22464679914735E-16,-1.43696945538026E-32));
#1092=DIRECTION('center_axis',(-1.,1.22464679914735E-16,-1.43696945538026E-32));
#1093=DIRECTION('ref_axis',(-1.22464679914735E-16,-1.,2.34674921190458E-16));
#1094=DIRECTION('',(0.,0.,1.));
#1095=DIRECTION('',(1.22464679914735E-16,1.,-2.34674921190458E-16));
#1096=DIRECTION('',(0.,-1.,0.));
#1097=DIRECTION('center_axis',(1.43696945538026E-32,2.34674921190458E-16,
1.));
#1098=DIRECTION('ref_axis',(-1.,1.22464679914735E-16,-1.43696945538026E-32));
#1099=DIRECTION('',(-1.22464679914735E-16,-1.,2.34674921190458E-16));
#1100=DIRECTION('',(-1.,1.22464679914735E-16,-1.43696945538026E-32));
#1101=DIRECTION('center_axis',(-1.22464679914735E-16,-1.,2.34674921190458E-16));
#1102=DIRECTION('ref_axis',(1.,-1.22464679914735E-16,1.43696945538026E-32));
#1103=DIRECTION('',(1.43696945538026E-32,2.34674921190458E-16,1.));
#1104=DIRECTION('center_axis',(1.,-1.22464679914735E-16,1.43696945538026E-32));
#1105=DIRECTION('ref_axis',(1.22464679914735E-16,1.,-2.34674921190458E-16));
#1106=DIRECTION('',(-1.22464679914735E-16,-1.,2.34674921190458E-16));
#1107=DIRECTION('',(1.22464679914735E-16,1.,-2.34674921190458E-16));
#1108=DIRECTION('center_axis',(0.,-1.,0.));
#1109=DIRECTION('ref_axis',(-0.707106781186547,0.,-0.707106781186547));
#1110=DIRECTION('center_axis',(0.,1.,0.));
#1111=DIRECTION('ref_axis',(-0.707106781186547,0.,-0.707106781186547));
#1112=DIRECTION('',(0.,-1.,0.));
#1113=DIRECTION('center_axis',(0.,-1.,0.));
#1114=DIRECTION('ref_axis',(-0.707106781186547,0.,-0.707106781186547));
#1115=DIRECTION('',(0.,1.,0.));
#1116=DIRECTION('center_axis',(1.,0.,0.));
#1117=DIRECTION('ref_axis',(0.,1.,0.));
#1118=DIRECTION('',(0.,0.,1.));
#1119=DIRECTION('',(0.,-1.,0.));
#1120=DIRECTION('',(0.,0.,1.));
#1121=DIRECTION('center_axis',(0.,-1.,0.));
#1122=DIRECTION('ref_axis',(-0.707106781186547,0.,-0.707106781186547));
#1123=DIRECTION('center_axis',(0.,1.,0.));
#1124=DIRECTION('ref_axis',(-0.707106781186547,0.,-0.707106781186547));
#1125=DIRECTION('',(0.,1.,0.));
#1126=DIRECTION('center_axis',(0.,-1.,0.));
#1127=DIRECTION('ref_axis',(-0.707106781186547,0.,-0.707106781186547));
#1128=DIRECTION('',(0.,-1.,0.));
#1129=DIRECTION('center_axis',(0.,1.,0.));
#1130=DIRECTION('ref_axis',(-1.,0.,7.17700998263186E-33));
#1131=DIRECTION('',(0.,0.,1.));
#1132=DIRECTION('',(1.,0.,0.));
#1133=DIRECTION('',(-1.,0.,7.17700998263186E-33));
#1134=DIRECTION('',(1.,0.,-7.17700998263186E-33));
#1135=DIRECTION('center_axis',(-1.,0.,0.));
#1136=DIRECTION('ref_axis',(0.,-1.,0.));
#1137=DIRECTION('',(0.,0.,1.));
#1138=DIRECTION('',(0.,1.,0.));
#1139=DIRECTION('center_axis',(0.,0.,1.));
#1140=DIRECTION('ref_axis',(1.,0.,0.));
#1141=DIRECTION('',(-1.,0.,0.));
#1142=DIRECTION('center_axis',(0.,-1.,0.));
#1143=DIRECTION('ref_axis',(1.,0.,-7.17700998263186E-33));
#1144=DIRECTION('',(-1.,0.,7.17700998263186E-33));
#1145=DIRECTION('',(1.,0.,-7.17700998263186E-33));
#1146=DIRECTION('center_axis',(0.,0.,-1.));
#1147=DIRECTION('ref_axis',(1.,0.,0.));
#1148=DIRECTION('center_axis',(0.,0.,1.));
#1149=DIRECTION('ref_axis',(1.,0.,0.));
#1150=CARTESIAN_POINT('',(0.,0.,0.));
#1151=CARTESIAN_POINT('Origin',(-218.180554467598,249.13916992634,-124.214952384006));
#1152=CARTESIAN_POINT('',(-218.180554467598,255.13916992634,-124.214952384006));
#1153=CARTESIAN_POINT('Origin',(-218.180554467598,249.13916992634,-124.214952384006));
#1154=CARTESIAN_POINT('',(-193.286554467598,255.13916992634,-124.214952384006));
#1155=CARTESIAN_POINT('',(-218.180554467598,255.13916992634,-124.214952384006));
#1156=CARTESIAN_POINT('Origin',(-193.286554467598,249.13916992634,-124.214952384006));
#1157=CARTESIAN_POINT('Origin',(-101.28683007366,386.53316992634,-198.));
#1158=CARTESIAN_POINT('',(-101.28683007366,269.63916992634,-218.));
#1159=CARTESIAN_POINT('',(-101.28683007366,269.63916992634,-198.));
#1160=CARTESIAN_POINT('',(-101.28683007366,269.63916992634,-218.));
#1161=CARTESIAN_POINT('',(-101.28683007366,336.63916992634,-198.));
#1162=CARTESIAN_POINT('',(-101.28683007366,136.63916992634,-198.));
#1163=CARTESIAN_POINT('',(-101.28683007366,361.63916992634,-173.));
#1164=CARTESIAN_POINT('Origin',(-101.28683007366,336.63916992634,-173.));
#1165=CARTESIAN_POINT('',(-101.28683007366,361.63916992634,-138.));
#1166=CARTESIAN_POINT('',(-101.28683007366,361.63916992634,-198.));
#1167=CARTESIAN_POINT('',(-101.28683007366,391.53316992634,-138.));
#1168=CARTESIAN_POINT('',(-101.28683007366,386.53316992634,-138.));
#1169=CARTESIAN_POINT('',(-101.28683007366,391.53316992634,-168.));
#1170=CARTESIAN_POINT('',(-101.28683007366,391.53316992634,-198.));
#1171=CARTESIAN_POINT('',(-101.28683007366,386.53316992634,-168.));
#1172=CARTESIAN_POINT('',(-101.28683007366,386.53316992634,-168.));
#1173=CARTESIAN_POINT('',(-101.28683007366,336.53316992634,-218.));
#1174=CARTESIAN_POINT('Origin',(-101.28683007366,336.53316992634,-168.));
#1175=CARTESIAN_POINT('',(-101.28683007366,386.53316992634,-218.));
#1176=CARTESIAN_POINT('Origin',(29.09316992634,241.85416992634,-143.955282305324));
#1177=CARTESIAN_POINT('',(31.7131699263399,241.85416992634,-143.955282305324));
#1178=CARTESIAN_POINT('',(31.7131699263399,241.85416992634,-148.635282305324));
#1179=CARTESIAN_POINT('',(31.7131699263399,241.85416992634,-155.977641152662));
#1180=CARTESIAN_POINT('',(48.32316992634,241.85416992634,-143.955282305324));
#1181=CARTESIAN_POINT('',(29.09316992634,241.85416992634,-143.955282305324));
#1182=CARTESIAN_POINT('',(48.32316992634,241.85416992634,-148.635282305324));
#1183=CARTESIAN_POINT('',(48.32316992634,241.85416992634,-145.125282305324));
#1184=CARTESIAN_POINT('',(29.09316992634,241.85416992634,-148.635282305324));
#1185=CARTESIAN_POINT('Origin',(29.09316992634,241.85416992634,-148.635282305324));
#1186=CARTESIAN_POINT('',(31.7131699263399,256.42416992634,-148.635282305324));
#1187=CARTESIAN_POINT('',(31.7131699263399,255.74666992634,-148.635282305324));
#1188=CARTESIAN_POINT('',(48.3231699263398,256.42416992634,-148.635282305324));
#1189=CARTESIAN_POINT('',(48.3231699263399,245.49666992634,-148.635282305324));
#1190=CARTESIAN_POINT('',(29.0931699263398,256.42416992634,-148.635282305324));
#1191=CARTESIAN_POINT('Origin',(29.0931699263398,256.42416992634,-148.635282305324));
#1192=CARTESIAN_POINT('',(31.7131699263399,256.42416992634,-143.955282305324));
#1193=CARTESIAN_POINT('',(31.7131699263399,256.42416992634,-158.317641152662));
#1194=CARTESIAN_POINT('',(48.3231699263398,256.42416992634,-143.955282305324));
#1195=CARTESIAN_POINT('',(48.3231699263398,256.42416992634,-147.465282305324));
#1196=CARTESIAN_POINT('',(29.0931699263398,256.42416992634,-143.955282305324));
#1197=CARTESIAN_POINT('Origin',(29.0931699263399,249.13916992634,-132.));
#1198=CARTESIAN_POINT('Origin',(31.7131699263402,249.13916992634,-132.));
#1199=CARTESIAN_POINT('Origin',(48.3231699263399,249.13916992634,-132.));
#1200=CARTESIAN_POINT('Origin',(48.3231699263399,249.13916992634,-132.));
#1201=CARTESIAN_POINT('Origin',(-80.7868300736601,136.63916992634,-150.));
#1202=CARTESIAN_POINT('',(-74.7868300736601,136.63916992634,-150.));
#1203=CARTESIAN_POINT('Origin',(-80.7868300736601,136.63916992634,-150.));
#1204=CARTESIAN_POINT('',(-74.7868300736601,111.74516992634,-150.));
#1205=CARTESIAN_POINT('',(-74.7868300736601,136.63916992634,-150.));
#1206=CARTESIAN_POINT('Origin',(-80.7868300736601,111.74516992634,-150.));
#1207=CARTESIAN_POINT('Origin',(-82.2468279158426,394.179180903738,-148.935939277598));
#1208=CARTESIAN_POINT('',(-82.2468279158426,391.53316992634,-148.935939277598));
#1209=CARTESIAN_POINT('',(-82.2468279158426,391.53316992634,-152.883305488123));
#1210=CARTESIAN_POINT('',(-82.2468279158427,391.53316992634,-173.467969638799));
#1211=CARTESIAN_POINT('',(-82.2468279158426,386.279180903738,-148.935939277598));
#1212=CARTESIAN_POINT('',(-82.2468279158426,394.179180903738,-148.935939277598));
#1213=CARTESIAN_POINT('',(-82.2468279158426,386.279180903738,-152.883305488123));
#1214=CARTESIAN_POINT('',(-82.2468279158426,386.279180903738,-152.883305488123));
#1215=CARTESIAN_POINT('',(-82.2468279158427,394.179180903738,-152.883305488123));
#1216=CARTESIAN_POINT('Origin',(-80.7868279158427,394.179180903738,-150.909622382861));
#1217=CARTESIAN_POINT('',(-79.3268279158426,391.53316992634,-152.883305488123));
#1218=CARTESIAN_POINT('Origin',(-80.7868279158426,391.53316992634,-150.909622382861));
#1219=CARTESIAN_POINT('',(-79.3268279158426,386.279180903738,-152.883305488123));
#1220=CARTESIAN_POINT('Origin',(-80.7868279158426,386.279180903738,-150.909622382861));
#1221=CARTESIAN_POINT('',(-79.3268279158427,394.179180903738,-152.883305488123));
#1222=CARTESIAN_POINT('Origin',(-79.3268279158427,394.179180903738,-152.883305488123));
#1223=CARTESIAN_POINT('',(-79.3268279158426,391.53316992634,-148.935939277598));
#1224=CARTESIAN_POINT('',(-79.3268279158427,391.53316992634,-175.441652744062));
#1225=CARTESIAN_POINT('',(-79.3268279158426,386.279180903738,-148.935939277598));
#1226=CARTESIAN_POINT('',(-79.3268279158426,386.279180903738,-148.935939277598));
#1227=CARTESIAN_POINT('',(-79.3268279158427,394.179180903738,-148.935939277598));
#1228=CARTESIAN_POINT('Origin',(-80.7868279158427,394.179180903738,-150.909622382861));
#1229=CARTESIAN_POINT('Origin',(-80.7868279158426,391.53316992634,-150.909622382861));
#1230=CARTESIAN_POINT('Origin',(-80.7868279158426,386.279180903738,-150.909622382861));
#1231=CARTESIAN_POINT('Origin',(-80.7868279158426,386.279180903738,-150.909622382861));
#1232=CARTESIAN_POINT('Origin',(-60.2868300736601,386.53316992634,-168.));
#1233=CARTESIAN_POINT('',(-60.2868300736601,386.53316992634,-168.));
#1234=CARTESIAN_POINT('',(-99.7602611721447,386.53316992634,-168.));
#1235=CARTESIAN_POINT('',(-60.2868300736601,391.53316992634,-168.));
#1236=CARTESIAN_POINT('',(-99.7602611721447,391.53316992634,-168.));
#1237=CARTESIAN_POINT('',(-60.2868300736601,386.53316992634,-168.));
#1238=CARTESIAN_POINT('Origin',(-60.2868300736601,391.53316992634,-198.));
#1239=CARTESIAN_POINT('',(-60.2868300736601,391.53316992634,-138.));
#1240=CARTESIAN_POINT('',(-70.5368300736601,391.53316992634,-138.));
#1241=CARTESIAN_POINT('',(-60.2868300736601,391.53316992634,-198.));
#1242=CARTESIAN_POINT('Origin',(-41.3133989751756,161.63916992634,-173.));
#1243=CARTESIAN_POINT('',(-60.2868300736601,136.63916992634,-173.));
#1244=CARTESIAN_POINT('',(-60.2868300736601,161.63916992634,-198.));
#1245=CARTESIAN_POINT('Origin',(-60.2868300736601,161.63916992634,-173.));
#1246=CARTESIAN_POINT('',(-101.28683007366,161.63916992634,-198.));
#1247=CARTESIAN_POINT('',(-41.3133989751756,161.63916992634,-198.));
#1248=CARTESIAN_POINT('',(-101.28683007366,136.63916992634,-173.));
#1249=CARTESIAN_POINT('Origin',(-101.28683007366,161.63916992634,-173.));
#1250=CARTESIAN_POINT('',(-41.3133989751756,136.63916992634,-173.));
#1251=CARTESIAN_POINT('Origin',(-61.8133989751756,161.74516992634,-168.));
#1252=CARTESIAN_POINT('',(-101.28683007366,111.74516992634,-168.));
#1253=CARTESIAN_POINT('',(-101.28683007366,161.74516992634,-218.));
#1254=CARTESIAN_POINT('Origin',(-101.28683007366,161.74516992634,-168.));
#1255=CARTESIAN_POINT('',(-60.2868300736601,161.74516992634,-218.));
#1256=CARTESIAN_POINT('',(-61.8133989751756,161.74516992634,-218.));
#1257=CARTESIAN_POINT('',(-60.2868300736601,111.74516992634,-168.));
#1258=CARTESIAN_POINT('Origin',(-60.2868300736601,161.74516992634,-168.));
#1259=CARTESIAN_POINT('',(-61.8133989751756,111.74516992634,-168.));
#1260=CARTESIAN_POINT('Origin',(-60.2868300736601,111.74516992634,-198.));
#1261=CARTESIAN_POINT('',(-60.2868300736601,228.63916992634,-218.));
#1262=CARTESIAN_POINT('',(-60.2868300736601,111.74516992634,-218.));
#1263=CARTESIAN_POINT('',(-60.2868300736601,228.63916992634,-198.));
#1264=CARTESIAN_POINT('',(-60.2868300736601,228.63916992634,-183.));
#1265=CARTESIAN_POINT('',(-60.2868300736601,111.74516992634,-198.));
#1266=CARTESIAN_POINT('',(-60.2868300736601,136.63916992634,-138.));
#1267=CARTESIAN_POINT('',(-60.2868300736601,136.63916992634,-198.));
#1268=CARTESIAN_POINT('',(-60.2868300736601,111.74516992634,-138.));
#1269=CARTESIAN_POINT('',(-60.2868300736601,117.96866992634,-138.));
#1270=CARTESIAN_POINT('',(-60.2868300736601,111.74516992634,-198.));
#1271=CARTESIAN_POINT('Origin',(-80.7868300736601,124.19216992634,-138.));
#1272=CARTESIAN_POINT('',(-101.28683007366,111.74516992634,-138.));
#1273=CARTESIAN_POINT('',(-101.28683007366,136.63916992634,-138.));
#1274=CARTESIAN_POINT('',(-101.28683007366,130.41566992634,-138.));
#1275=CARTESIAN_POINT('',(-91.0368300736601,111.74516992634,-138.));
#1276=CARTESIAN_POINT('',(-70.5368300736601,136.63916992634,-138.));
#1277=CARTESIAN_POINT('Origin',(-60.2868300736601,136.63916992634,-198.));
#1278=CARTESIAN_POINT('',(-101.28683007366,136.63916992634,-198.));
#1279=CARTESIAN_POINT('Origin',(-101.28683007366,111.74516992634,-198.));
#1280=CARTESIAN_POINT('',(-101.28683007366,111.74516992634,-198.));
#1281=CARTESIAN_POINT('Origin',(56.606894320278,269.63916992634,-168.));
#1282=CARTESIAN_POINT('',(-60.2868300736601,269.63916992634,-198.));
#1283=CARTESIAN_POINT('',(-60.2868300736601,269.63916992634,-218.));
#1284=CARTESIAN_POINT('',(-60.2868300736601,269.63916992634,-181.5));
#1285=CARTESIAN_POINT('',(6.71316992633987,269.63916992634,-198.));
#1286=CARTESIAN_POINT('',(-60.2868300736601,269.63916992634,-198.));
#1287=CARTESIAN_POINT('',(31.7131699263399,269.63916992634,-173.));
#1288=CARTESIAN_POINT('Origin',(6.71316992633987,269.63916992634,-173.));
#1289=CARTESIAN_POINT('',(31.7131699263399,269.63916992634,-112.));
#1290=CARTESIAN_POINT('',(31.7131699263399,269.63916992634,-168.));
#1291=CARTESIAN_POINT('',(56.606894320278,269.63916992634,-112.));
#1292=CARTESIAN_POINT('',(50.3834632217935,269.63916992634,-112.));
#1293=CARTESIAN_POINT('',(56.606894320278,269.63916992634,-168.));
#1294=CARTESIAN_POINT('',(56.606894320278,269.63916992634,-168.));
#1295=CARTESIAN_POINT('',(6.60689432027802,269.63916992634,-218.));
#1296=CARTESIAN_POINT('Origin',(6.60689432027802,269.63916992634,-168.));
#1297=CARTESIAN_POINT('',(-60.2868300736601,269.63916992634,-218.));
#1298=CARTESIAN_POINT('Origin',(31.7131699263399,228.63916992634,-168.));
#1299=CARTESIAN_POINT('',(6.60689432027802,228.63916992634,-218.));
#1300=CARTESIAN_POINT('',(-22.3399678766911,228.63916992634,-218.));
#1301=CARTESIAN_POINT('',(56.606894320278,228.63916992634,-168.));
#1302=CARTESIAN_POINT('Origin',(6.60689432027802,228.63916992634,-168.));
#1303=CARTESIAN_POINT('',(56.606894320278,228.63916992634,-112.));
#1304=CARTESIAN_POINT('',(56.606894320278,228.63916992634,-168.));
#1305=CARTESIAN_POINT('',(31.7131699263399,228.63916992634,-112.));
#1306=CARTESIAN_POINT('',(37.9366010248244,228.63916992634,-112.));
#1307=CARTESIAN_POINT('',(31.7131699263399,228.63916992634,-173.));
#1308=CARTESIAN_POINT('',(31.7131699263399,228.63916992634,-168.));
#1309=CARTESIAN_POINT('',(6.71316992633987,228.63916992634,-198.));
#1310=CARTESIAN_POINT('Origin',(6.71316992633987,228.63916992634,-173.));
#1311=CARTESIAN_POINT('',(-22.3399678766911,228.63916992634,-198.));
#1312=CARTESIAN_POINT('Origin',(56.606894320278,228.63916992634,-168.));
#1313=CARTESIAN_POINT('',(56.606894320278,238.88916992634,-112.));
#1314=CARTESIAN_POINT('',(56.606894320278,209.66566992634,-168.));
#1315=CARTESIAN_POINT('Origin',(6.60689432027802,209.66566992634,-168.));
#1316=CARTESIAN_POINT('',(6.60689432027802,209.66566992634,-218.));
#1317=CARTESIAN_POINT('Origin',(6.71316992633987,230.16566992634,-173.));
#1318=CARTESIAN_POINT('',(31.7131699263399,230.16566992634,-173.));
#1319=CARTESIAN_POINT('',(6.71316992633987,230.16566992634,-198.));
#1320=CARTESIAN_POINT('Origin',(31.7131699263399,269.63916992634,-168.));
#1321=CARTESIAN_POINT('',(31.7131699263399,259.38916992634,-112.));
#1322=CARTESIAN_POINT('Origin',(44.1600321233089,249.13916992634,-112.));
#1323=CARTESIAN_POINT('Origin',(-120.260261172145,336.63916992634,-173.));
#1324=CARTESIAN_POINT('',(-60.2868300736601,336.63916992634,-198.));
#1325=CARTESIAN_POINT('',(-120.260261172145,336.63916992634,-198.));
#1326=CARTESIAN_POINT('',(-60.2868300736601,361.63916992634,-173.));
#1327=CARTESIAN_POINT('Origin',(-60.2868300736601,336.63916992634,-173.));
#1328=CARTESIAN_POINT('',(-120.260261172145,361.63916992634,-173.));
#1329=CARTESIAN_POINT('Origin',(-99.7602611721447,336.53316992634,-168.));
#1330=CARTESIAN_POINT('',(-60.2868300736601,336.53316992634,-218.));
#1331=CARTESIAN_POINT('Origin',(-60.2868300736601,336.53316992634,-168.));
#1332=CARTESIAN_POINT('',(-99.7602611721447,336.53316992634,-218.));
#1333=CARTESIAN_POINT('Origin',(-101.28683007366,386.53316992634,-198.));
#1334=CARTESIAN_POINT('',(-101.28683007366,228.63916992634,-218.));
#1335=CARTESIAN_POINT('',(-101.28683007366,228.63916992634,-198.));
#1336=CARTESIAN_POINT('',(-101.28683007366,228.63916992634,-218.));
#1337=CARTESIAN_POINT('',(-101.28683007366,386.53316992634,-218.));
#1338=CARTESIAN_POINT('',(-101.28683007366,136.63916992634,-198.));
#1339=CARTESIAN_POINT('Origin',(-80.7868300736601,374.08616992634,-138.));
#1340=CARTESIAN_POINT('',(-60.2868300736601,361.63916992634,-138.));
#1341=CARTESIAN_POINT('',(-60.2868300736601,367.86266992634,-138.));
#1342=CARTESIAN_POINT('',(-91.0368300736601,361.63916992634,-138.));
#1343=CARTESIAN_POINT('Origin',(-101.28683007366,361.63916992634,-198.));
#1344=CARTESIAN_POINT('',(-60.2868300736601,361.63916992634,-198.));
#1345=CARTESIAN_POINT('Origin',(-60.2868300736601,361.63916992634,-198.));
#1346=CARTESIAN_POINT('',(-60.2868300736601,361.63916992634,-218.));
#1347=CARTESIAN_POINT('',(-60.2868300736601,361.63916992634,-198.));
#1348=CARTESIAN_POINT('Origin',(-168.286554467598,238.88916992634,-173.));
#1349=CARTESIAN_POINT('',(-168.286554467598,269.63916992634,-198.));
#1350=CARTESIAN_POINT('',(-193.286554467598,269.63916992634,-173.));
#1351=CARTESIAN_POINT('Origin',(-168.286554467598,269.63916992634,-173.));
#1352=CARTESIAN_POINT('',(-193.286554467598,228.63916992634,-173.));
#1353=CARTESIAN_POINT('',(-193.286554467598,238.88916992634,-173.));
#1354=CARTESIAN_POINT('',(-168.286554467598,228.63916992634,-198.));
#1355=CARTESIAN_POINT('Origin',(-168.286554467598,228.63916992634,-173.));
#1356=CARTESIAN_POINT('',(-168.286554467598,238.88916992634,-198.));
#1357=CARTESIAN_POINT('Origin',(-193.286554467598,228.63916992634,-218.));
#1358=CARTESIAN_POINT('',(-193.286554467598,269.63916992634,-112.));
#1359=CARTESIAN_POINT('',(-193.286554467598,269.63916992634,-218.));
#1360=CARTESIAN_POINT('',(-193.286554467598,228.63916992634,-112.));
#1361=CARTESIAN_POINT('',(-193.286554467598,238.88916992634,-112.));
#1362=CARTESIAN_POINT('',(-193.286554467598,228.63916992634,-218.));
#1363=CARTESIAN_POINT('Origin',(-168.180554467598,259.38916992634,-168.));
#1364=CARTESIAN_POINT('',(-168.180554467598,228.63916992634,-218.));
#1365=CARTESIAN_POINT('',(-218.180554467598,228.63916992634,-168.));
#1366=CARTESIAN_POINT('Origin',(-168.180554467598,228.63916992634,-168.));
#1367=CARTESIAN_POINT('',(-218.180554467598,269.63916992634,-168.));
#1368=CARTESIAN_POINT('',(-218.180554467598,259.38916992634,-168.));
#1369=CARTESIAN_POINT('',(-168.180554467598,269.63916992634,-218.));
#1370=CARTESIAN_POINT('Origin',(-168.180554467598,269.63916992634,-168.));
#1371=CARTESIAN_POINT('',(-168.180554467598,259.38916992634,-218.));
#1372=CARTESIAN_POINT('Origin',(-101.28683007366,269.63916992634,-218.));
#1373=CARTESIAN_POINT('',(-218.180554467598,269.63916992634,-112.));
#1374=CARTESIAN_POINT('',(-218.180554467598,269.63916992634,-218.));
#1375=CARTESIAN_POINT('',(-199.510054467598,269.63916992634,-112.));
#1376=CARTESIAN_POINT('',(-218.180554467598,269.63916992634,-198.));
#1377=CARTESIAN_POINT('',(-218.180554467598,269.63916992634,-218.));
#1378=CARTESIAN_POINT('Origin',(-218.180554467598,269.63916992634,-218.));
#1379=CARTESIAN_POINT('',(-218.180554467598,228.63916992634,-112.));
#1380=CARTESIAN_POINT('',(-218.180554467598,228.63916992634,-218.));
#1381=CARTESIAN_POINT('',(-218.180554467598,259.38916992634,-112.));
#1382=CARTESIAN_POINT('Origin',(-205.733554467598,249.13916992634,-112.));
#1383=CARTESIAN_POINT('',(-211.957054467598,228.63916992634,-112.));
#1384=CARTESIAN_POINT('Origin',(-193.286554467598,228.63916992634,-218.));
#1385=CARTESIAN_POINT('',(-80.7868300736601,228.63916992634,-218.));
#1386=CARTESIAN_POINT('',(-80.7868300736601,228.63916992634,-198.));
#1387=CARTESIAN_POINT('Origin',(-147.286692270629,249.13916992634,-218.));
#1388=CARTESIAN_POINT('Origin',(-147.286692270629,249.13916992634,-198.));
#1389=UNCERTAINTY_MEASURE_WITH_UNIT(LENGTH_MEASURE(0.01),#1393,
'DISTANCE_ACCURACY_VALUE',
'Maximum model space distance between geometric entities at asserted c
onnectivities');
#1390=UNCERTAINTY_MEASURE_WITH_UNIT(LENGTH_MEASURE(0.01),#1393,
'DISTANCE_ACCURACY_VALUE',
'Maximum model space distance between geometric entities at asserted c
onnectivities');
#1391=(
GEOMETRIC_REPRESENTATION_CONTEXT(3)
GLOBAL_UNCERTAINTY_ASSIGNED_CONTEXT((#1389))
GLOBAL_UNIT_ASSIGNED_CONTEXT((#1393,#1395,#1396))
REPRESENTATION_CONTEXT('','3D')
);
#1392=(
GEOMETRIC_REPRESENTATION_CONTEXT(3)
GLOBAL_UNCERTAINTY_ASSIGNED_CONTEXT((#1390))
GLOBAL_UNIT_ASSIGNED_CONTEXT((#1393,#1395,#1396))
REPRESENTATION_CONTEXT('','3D')
);
#1393=(
LENGTH_UNIT()
NAMED_UNIT(*)
SI_UNIT(.MILLI.,.METRE.)
);
#1394=(
LENGTH_UNIT()
NAMED_UNIT(*)
SI_UNIT($,.METRE.)
);
#1395=(
NAMED_UNIT(*)
PLANE_ANGLE_UNIT()
SI_UNIT($,.RADIAN.)
);
#1396=(
NAMED_UNIT(*)
SI_UNIT($,.STERADIAN.)
SOLID_ANGLE_UNIT()
);
#1397=SHAPE_DEFINITION_REPRESENTATION(#1398,#1399);
#1398=PRODUCT_DEFINITION_SHAPE('',$,#1401);
#1399=SHAPE_REPRESENTATION('',(#849),#1391);
#1400=PRODUCT_DEFINITION_CONTEXT('part definition',#1405,'design');
#1401=PRODUCT_DEFINITION('2026-09-13-20-04-00-210','InnerAxis',#1402,#1400);
#1402=PRODUCT_DEFINITION_FORMATION('',$,#1407);
#1403=PRODUCT_RELATED_PRODUCT_CATEGORY('InnerAxis','InnerAxis',(#1407));
#1404=APPLICATION_PROTOCOL_DEFINITION('international standard',
'automotive_design',2009,#1405);
#1405=APPLICATION_CONTEXT(
'Core Data for Automotive Mechanical Design Process');
#1406=PRODUCT_CONTEXT('part definition',#1405,'mechanical');
#1407=PRODUCT('2026-09-13-20-04-00-210','InnerAxis',$,(#1406));
#1408=PRESENTATION_STYLE_ASSIGNMENT((#1409));
#1409=SURFACE_STYLE_USAGE(.BOTH.,#1410);
#1410=SURFACE_SIDE_STYLE('',(#1411));
#1411=SURFACE_STYLE_FILL_AREA(#1412);
#1412=FILL_AREA_STYLE('Steel - Satin',(#1413));
#1413=FILL_AREA_STYLE_COLOUR('Steel - Satin',#1414);
#1414=COLOUR_RGB('Steel - Satin',0.627450980392157,0.627450980392157,0.627450980392157);
ENDSEC;
END-ISO-10303-21;
