ISO-10303-21;
HEADER;
/* Generated by software containing ST-Developer
 * from STEP Tools, Inc. (www.steptools.com) 
 */

FILE_DESCRIPTION(
/* description */ (''),
/* implementation_level */ '2;1');

FILE_NAME(
/* name */ 'Motor.step',
/* time_stamp */ '2026-09-13T20:04:26-06:00',
/* author */ (''),
/* organization */ (''),
/* preprocessor_version */ 'ST-DEVELOPER v20.2',
/* originating_system */ 'Autodesk Translation Framework v15.15.0.0',
/* authorisation */ '');

FILE_SCHEMA (('AUTOMOTIVE_DESIGN { 1 0 10303 214 3 1 1 }'));
ENDSEC;

DATA;
#10=MECHANICAL_DESIGN_GEOMETRIC_PRESENTATION_REPRESENTATION('',(#13),#761);
#11=SHAPE_REPRESENTATION_RELATIONSHIP('SRR','None',#768,#12);
#12=ADVANCED_BREP_SHAPE_REPRESENTATION('',(#14),#760);
#13=STYLED_ITEM('',(#777),#14);
#14=MANIFOLD_SOLID_BREP('Body1',#441);
#15=FACE_BOUND('',#83,.T.);
#16=FACE_BOUND('',#89,.T.);
#17=FACE_BOUND('',#92,.T.);
#18=FACE_BOUND('',#101,.T.);
#19=FACE_BOUND('',#102,.T.);
#20=FACE_BOUND('',#103,.T.);
#21=CIRCLE('',#459,14.);
#22=CIRCLE('',#460,14.);
#23=CIRCLE('',#461,14.);
#24=CIRCLE('',#462,14.);
#25=CIRCLE('',#463,14.);
#26=CIRCLE('',#464,14.);
#27=CIRCLE('',#466,2.05);
#28=CIRCLE('',#467,2.05);
#29=CIRCLE('',#469,3.05);
#30=CIRCLE('',#470,3.05);
#31=CIRCLE('',#475,2.05);
#32=CIRCLE('',#476,2.05);
#33=CIRCLE('',#478,3.05);
#34=CIRCLE('',#479,3.05);
#35=CIRCLE('',#484,2.455);
#36=CIRCLE('',#486,4.615);
#37=CIRCLE('',#487,2.455);
#38=CIRCLE('',#489,2.455);
#39=CIRCLE('',#490,2.455);
#40=CIRCLE('',#493,2.455);
#41=CIRCLE('',#494,2.455);
#42=CIRCLE('',#498,4.615);
#43=CYLINDRICAL_SURFACE('',#458,14.);
#44=CYLINDRICAL_SURFACE('',#465,2.05);
#45=CYLINDRICAL_SURFACE('',#468,3.05);
#46=CYLINDRICAL_SURFACE('',#474,2.05);
#47=CYLINDRICAL_SURFACE('',#477,3.05);
#48=CYLINDRICAL_SURFACE('',#492,2.455);
#49=CYLINDRICAL_SURFACE('',#497,4.615);
#50=FACE_OUTER_BOUND('',#74,.T.);
#51=FACE_OUTER_BOUND('',#75,.T.);
#52=FACE_OUTER_BOUND('',#76,.T.);
#53=FACE_OUTER_BOUND('',#77,.T.);
#54=FACE_OUTER_BOUND('',#78,.T.);
#55=FACE_OUTER_BOUND('',#79,.T.);
#56=FACE_OUTER_BOUND('',#80,.T.);
#57=FACE_OUTER_BOUND('',#81,.T.);
#58=FACE_OUTER_BOUND('',#82,.T.);
#59=FACE_OUTER_BOUND('',#84,.T.);
#60=FACE_OUTER_BOUND('',#85,.T.);
#61=FACE_OUTER_BOUND('',#86,.T.);
#62=FACE_OUTER_BOUND('',#87,.T.);
#63=FACE_OUTER_BOUND('',#88,.T.);
#64=FACE_OUTER_BOUND('',#90,.T.);
#65=FACE_OUTER_BOUND('',#91,.T.);
#66=FACE_OUTER_BOUND('',#93,.T.);
#67=FACE_OUTER_BOUND('',#94,.T.);
#68=FACE_OUTER_BOUND('',#95,.T.);
#69=FACE_OUTER_BOUND('',#96,.T.);
#70=FACE_OUTER_BOUND('',#97,.T.);
#71=FACE_OUTER_BOUND('',#98,.T.);
#72=FACE_OUTER_BOUND('',#99,.T.);
#73=FACE_OUTER_BOUND('',#100,.T.);
#74=EDGE_LOOP('',(#280,#281,#282,#283));
#75=EDGE_LOOP('',(#284,#285,#286,#287));
#76=EDGE_LOOP('',(#288,#289,#290,#291));
#77=EDGE_LOOP('',(#292,#293,#294,#295,#296,#297,#298,#299,#300,#301,#302,
#303));
#78=EDGE_LOOP('',(#304,#305,#306,#307));
#79=EDGE_LOOP('',(#308,#309,#310,#311));
#80=EDGE_LOOP('',(#312,#313,#314,#315));
#81=EDGE_LOOP('',(#316,#317,#318,#319));
#82=EDGE_LOOP('',(#320,#321,#322,#323));
#83=EDGE_LOOP('',(#324));
#84=EDGE_LOOP('',(#325,#326,#327,#328));
#85=EDGE_LOOP('',(#329,#330,#331,#332));
#86=EDGE_LOOP('',(#333,#334,#335,#336));
#87=EDGE_LOOP('',(#337,#338,#339,#340));
#88=EDGE_LOOP('',(#341,#342,#343,#344));
#89=EDGE_LOOP('',(#345));
#90=EDGE_LOOP('',(#346,#347));
#91=EDGE_LOOP('',(#348));
#92=EDGE_LOOP('',(#349));
#93=EDGE_LOOP('',(#350,#351,#352));
#94=EDGE_LOOP('',(#353,#354,#355,#356));
#95=EDGE_LOOP('',(#357,#358,#359,#360,#361,#362,#363,#364,#365,#366,#367,
#368));
#96=EDGE_LOOP('',(#369,#370,#371,#372));
#97=EDGE_LOOP('',(#373,#374,#375,#376));
#98=EDGE_LOOP('',(#377,#378,#379,#380));
#99=EDGE_LOOP('',(#381,#382,#383,#384));
#100=EDGE_LOOP('',(#385,#386,#387,#388,#389,#390,#391,#392,#393,#394,#395,
#396));
#101=EDGE_LOOP('',(#397));
#102=EDGE_LOOP('',(#398));
#103=EDGE_LOOP('',(#399));
#104=LINE('',#637,#142);
#105=LINE('',#639,#143);
#106=LINE('',#641,#144);
#107=LINE('',#642,#145);
#108=LINE('',#645,#146);
#109=LINE('',#647,#147);
#110=LINE('',#648,#148);
#111=LINE('',#651,#149);
#112=LINE('',#653,#150);
#113=LINE('',#654,#151);
#114=LINE('',#659,#152);
#115=LINE('',#663,#153);
#116=LINE('',#667,#154);
#117=LINE('',#671,#155);
#118=LINE('',#678,#156);
#119=LINE('',#685,#157);
#120=LINE('',#688,#158);
#121=LINE('',#690,#159);
#122=LINE('',#691,#160);
#123=LINE('',#693,#161);
#124=LINE('',#694,#162);
#125=LINE('',#700,#163);
#126=LINE('',#707,#164);
#127=LINE('',#710,#165);
#128=LINE('',#712,#166);
#129=LINE('',#713,#167);
#130=LINE('',#715,#168);
#131=LINE('',#716,#169);
#132=LINE('',#722,#170);
#133=LINE('',#731,#171);
#134=LINE('',#737,#172);
#135=LINE('',#739,#173);
#136=LINE('',#740,#174);
#137=LINE('',#743,#175);
#138=LINE('',#745,#176);
#139=LINE('',#748,#177);
#140=LINE('',#750,#178);
#141=LINE('',#754,#179);
#142=VECTOR('',#505,10.);
#143=VECTOR('',#506,10.);
#144=VECTOR('',#507,10.);
#145=VECTOR('',#508,10.);
#146=VECTOR('',#511,10.);
#147=VECTOR('',#512,10.);
#148=VECTOR('',#513,10.);
#149=VECTOR('',#516,10.);
#150=VECTOR('',#517,10.);
#151=VECTOR('',#518,10.);
#152=VECTOR('',#523,10.);
#153=VECTOR('',#526,10.);
#154=VECTOR('',#529,10.);
#155=VECTOR('',#532,10.);
#156=VECTOR('',#541,2.05);
#157=VECTOR('',#548,10.);
#158=VECTOR('',#551,10.);
#159=VECTOR('',#554,10.);
#160=VECTOR('',#555,10.);
#161=VECTOR('',#558,10.);
#162=VECTOR('',#559,10.);
#163=VECTOR('',#566,2.05);
#164=VECTOR('',#573,10.);
#165=VECTOR('',#576,10.);
#166=VECTOR('',#579,10.);
#167=VECTOR('',#580,10.);
#168=VECTOR('',#583,10.);
#169=VECTOR('',#584,10.);
#170=VECTOR('',#591,10.);
#171=VECTOR('',#600,10.);
#172=VECTOR('',#607,10.);
#173=VECTOR('',#608,10.);
#174=VECTOR('',#609,10.);
#175=VECTOR('',#612,10.);
#176=VECTOR('',#615,2.455);
#177=VECTOR('',#618,10.);
#178=VECTOR('',#621,10.);
#179=VECTOR('',#626,4.615);
#180=VERTEX_POINT('',#635);
#181=VERTEX_POINT('',#636);
#182=VERTEX_POINT('',#638);
#183=VERTEX_POINT('',#640);
#184=VERTEX_POINT('',#644);
#185=VERTEX_POINT('',#646);
#186=VERTEX_POINT('',#650);
#187=VERTEX_POINT('',#652);
#188=VERTEX_POINT('',#656);
#189=VERTEX_POINT('',#658);
#190=VERTEX_POINT('',#660);
#191=VERTEX_POINT('',#662);
#192=VERTEX_POINT('',#664);
#193=VERTEX_POINT('',#666);
#194=VERTEX_POINT('',#668);
#195=VERTEX_POINT('',#670);
#196=VERTEX_POINT('',#675);
#197=VERTEX_POINT('',#677);
#198=VERTEX_POINT('',#681);
#199=VERTEX_POINT('',#682);
#200=VERTEX_POINT('',#684);
#201=VERTEX_POINT('',#686);
#202=VERTEX_POINT('',#697);
#203=VERTEX_POINT('',#699);
#204=VERTEX_POINT('',#703);
#205=VERTEX_POINT('',#704);
#206=VERTEX_POINT('',#706);
#207=VERTEX_POINT('',#708);
#208=VERTEX_POINT('',#719);
#209=VERTEX_POINT('',#720);
#210=VERTEX_POINT('',#724);
#211=VERTEX_POINT('',#726);
#212=VERTEX_POINT('',#729);
#213=VERTEX_POINT('',#730);
#214=VERTEX_POINT('',#732);
#215=VERTEX_POINT('',#736);
#216=VERTEX_POINT('',#738);
#217=VERTEX_POINT('',#742);
#218=VERTEX_POINT('',#746);
#219=VERTEX_POINT('',#753);
#220=EDGE_CURVE('',#180,#181,#104,.T.);
#221=EDGE_CURVE('',#182,#181,#105,.T.);
#222=EDGE_CURVE('',#182,#183,#106,.T.);
#223=EDGE_CURVE('',#180,#183,#107,.T.);
#224=EDGE_CURVE('',#181,#184,#108,.T.);
#225=EDGE_CURVE('',#185,#184,#109,.T.);
#226=EDGE_CURVE('',#182,#185,#110,.T.);
#227=EDGE_CURVE('',#184,#186,#111,.T.);
#228=EDGE_CURVE('',#187,#186,#112,.T.);
#229=EDGE_CURVE('',#185,#187,#113,.T.);
#230=EDGE_CURVE('',#183,#188,#21,.T.);
#231=EDGE_CURVE('',#188,#189,#114,.T.);
#232=EDGE_CURVE('',#189,#190,#22,.T.);
#233=EDGE_CURVE('',#190,#191,#115,.T.);
#234=EDGE_CURVE('',#191,#192,#23,.T.);
#235=EDGE_CURVE('',#192,#193,#116,.T.);
#236=EDGE_CURVE('',#193,#194,#24,.T.);
#237=EDGE_CURVE('',#194,#195,#117,.T.);
#238=EDGE_CURVE('',#195,#187,#25,.T.);
#239=EDGE_CURVE('',#180,#186,#26,.T.);
#240=EDGE_CURVE('',#196,#196,#27,.T.);
#241=EDGE_CURVE('',#196,#197,#118,.T.);
#242=EDGE_CURVE('',#197,#197,#28,.T.);
#243=EDGE_CURVE('',#198,#199,#29,.T.);
#244=EDGE_CURVE('',#199,#200,#119,.T.);
#245=EDGE_CURVE('',#201,#200,#30,.T.);
#246=EDGE_CURVE('',#198,#201,#120,.T.);
#247=EDGE_CURVE('',#198,#188,#121,.T.);
#248=EDGE_CURVE('',#189,#201,#122,.T.);
#249=EDGE_CURVE('',#199,#191,#123,.T.);
#250=EDGE_CURVE('',#200,#190,#124,.T.);
#251=EDGE_CURVE('',#202,#202,#31,.T.);
#252=EDGE_CURVE('',#202,#203,#125,.T.);
#253=EDGE_CURVE('',#203,#203,#32,.T.);
#254=EDGE_CURVE('',#204,#205,#33,.T.);
#255=EDGE_CURVE('',#205,#206,#126,.T.);
#256=EDGE_CURVE('',#207,#206,#34,.T.);
#257=EDGE_CURVE('',#204,#207,#127,.T.);
#258=EDGE_CURVE('',#204,#192,#128,.T.);
#259=EDGE_CURVE('',#193,#207,#129,.T.);
#260=EDGE_CURVE('',#205,#195,#130,.T.);
#261=EDGE_CURVE('',#206,#194,#131,.T.);
#262=EDGE_CURVE('',#208,#209,#35,.T.);
#263=EDGE_CURVE('',#208,#209,#132,.T.);
#264=EDGE_CURVE('',#210,#210,#36,.T.);
#265=EDGE_CURVE('',#211,#211,#37,.T.);
#266=EDGE_CURVE('',#212,#213,#133,.T.);
#267=EDGE_CURVE('',#212,#214,#38,.T.);
#268=EDGE_CURVE('',#214,#213,#39,.T.);
#269=EDGE_CURVE('',#213,#215,#134,.T.);
#270=EDGE_CURVE('',#216,#215,#135,.T.);
#271=EDGE_CURVE('',#212,#216,#136,.T.);
#272=EDGE_CURVE('',#208,#217,#137,.T.);
#273=EDGE_CURVE('',#215,#217,#40,.T.);
#274=EDGE_CURVE('',#214,#211,#138,.T.);
#275=EDGE_CURVE('',#218,#216,#41,.T.);
#276=EDGE_CURVE('',#209,#218,#139,.T.);
#277=EDGE_CURVE('',#217,#218,#140,.T.);
#278=EDGE_CURVE('',#210,#219,#141,.T.);
#279=EDGE_CURVE('',#219,#219,#42,.T.);
#280=ORIENTED_EDGE('',*,*,#220,.T.);
#281=ORIENTED_EDGE('',*,*,#221,.F.);
#282=ORIENTED_EDGE('',*,*,#222,.T.);
#283=ORIENTED_EDGE('',*,*,#223,.F.);
#284=ORIENTED_EDGE('',*,*,#224,.T.);
#285=ORIENTED_EDGE('',*,*,#225,.F.);
#286=ORIENTED_EDGE('',*,*,#226,.F.);
#287=ORIENTED_EDGE('',*,*,#221,.T.);
#288=ORIENTED_EDGE('',*,*,#227,.T.);
#289=ORIENTED_EDGE('',*,*,#228,.F.);
#290=ORIENTED_EDGE('',*,*,#229,.F.);
#291=ORIENTED_EDGE('',*,*,#225,.T.);
#292=ORIENTED_EDGE('',*,*,#223,.T.);
#293=ORIENTED_EDGE('',*,*,#230,.T.);
#294=ORIENTED_EDGE('',*,*,#231,.T.);
#295=ORIENTED_EDGE('',*,*,#232,.T.);
#296=ORIENTED_EDGE('',*,*,#233,.T.);
#297=ORIENTED_EDGE('',*,*,#234,.T.);
#298=ORIENTED_EDGE('',*,*,#235,.T.);
#299=ORIENTED_EDGE('',*,*,#236,.T.);
#300=ORIENTED_EDGE('',*,*,#237,.T.);
#301=ORIENTED_EDGE('',*,*,#238,.T.);
#302=ORIENTED_EDGE('',*,*,#228,.T.);
#303=ORIENTED_EDGE('',*,*,#239,.F.);
#304=ORIENTED_EDGE('',*,*,#240,.F.);
#305=ORIENTED_EDGE('',*,*,#241,.T.);
#306=ORIENTED_EDGE('',*,*,#242,.T.);
#307=ORIENTED_EDGE('',*,*,#241,.F.);
#308=ORIENTED_EDGE('',*,*,#243,.T.);
#309=ORIENTED_EDGE('',*,*,#244,.T.);
#310=ORIENTED_EDGE('',*,*,#245,.F.);
#311=ORIENTED_EDGE('',*,*,#246,.F.);
#312=ORIENTED_EDGE('',*,*,#247,.F.);
#313=ORIENTED_EDGE('',*,*,#246,.T.);
#314=ORIENTED_EDGE('',*,*,#248,.F.);
#315=ORIENTED_EDGE('',*,*,#231,.F.);
#316=ORIENTED_EDGE('',*,*,#249,.T.);
#317=ORIENTED_EDGE('',*,*,#233,.F.);
#318=ORIENTED_EDGE('',*,*,#250,.F.);
#319=ORIENTED_EDGE('',*,*,#244,.F.);
#320=ORIENTED_EDGE('',*,*,#250,.T.);
#321=ORIENTED_EDGE('',*,*,#232,.F.);
#322=ORIENTED_EDGE('',*,*,#248,.T.);
#323=ORIENTED_EDGE('',*,*,#245,.T.);
#324=ORIENTED_EDGE('',*,*,#240,.T.);
#325=ORIENTED_EDGE('',*,*,#251,.F.);
#326=ORIENTED_EDGE('',*,*,#252,.T.);
#327=ORIENTED_EDGE('',*,*,#253,.T.);
#328=ORIENTED_EDGE('',*,*,#252,.F.);
#329=ORIENTED_EDGE('',*,*,#254,.T.);
#330=ORIENTED_EDGE('',*,*,#255,.T.);
#331=ORIENTED_EDGE('',*,*,#256,.F.);
#332=ORIENTED_EDGE('',*,*,#257,.F.);
#333=ORIENTED_EDGE('',*,*,#258,.F.);
#334=ORIENTED_EDGE('',*,*,#257,.T.);
#335=ORIENTED_EDGE('',*,*,#259,.F.);
#336=ORIENTED_EDGE('',*,*,#235,.F.);
#337=ORIENTED_EDGE('',*,*,#260,.T.);
#338=ORIENTED_EDGE('',*,*,#237,.F.);
#339=ORIENTED_EDGE('',*,*,#261,.F.);
#340=ORIENTED_EDGE('',*,*,#255,.F.);
#341=ORIENTED_EDGE('',*,*,#261,.T.);
#342=ORIENTED_EDGE('',*,*,#236,.F.);
#343=ORIENTED_EDGE('',*,*,#259,.T.);
#344=ORIENTED_EDGE('',*,*,#256,.T.);
#345=ORIENTED_EDGE('',*,*,#251,.T.);
#346=ORIENTED_EDGE('',*,*,#262,.T.);
#347=ORIENTED_EDGE('',*,*,#263,.F.);
#348=ORIENTED_EDGE('',*,*,#264,.T.);
#349=ORIENTED_EDGE('',*,*,#265,.T.);
#350=ORIENTED_EDGE('',*,*,#266,.F.);
#351=ORIENTED_EDGE('',*,*,#267,.T.);
#352=ORIENTED_EDGE('',*,*,#268,.T.);
#353=ORIENTED_EDGE('',*,*,#266,.T.);
#354=ORIENTED_EDGE('',*,*,#269,.T.);
#355=ORIENTED_EDGE('',*,*,#270,.F.);
#356=ORIENTED_EDGE('',*,*,#271,.F.);
#357=ORIENTED_EDGE('',*,*,#262,.F.);
#358=ORIENTED_EDGE('',*,*,#272,.T.);
#359=ORIENTED_EDGE('',*,*,#273,.F.);
#360=ORIENTED_EDGE('',*,*,#269,.F.);
#361=ORIENTED_EDGE('',*,*,#268,.F.);
#362=ORIENTED_EDGE('',*,*,#274,.T.);
#363=ORIENTED_EDGE('',*,*,#265,.F.);
#364=ORIENTED_EDGE('',*,*,#274,.F.);
#365=ORIENTED_EDGE('',*,*,#267,.F.);
#366=ORIENTED_EDGE('',*,*,#271,.T.);
#367=ORIENTED_EDGE('',*,*,#275,.F.);
#368=ORIENTED_EDGE('',*,*,#276,.F.);
#369=ORIENTED_EDGE('',*,*,#263,.T.);
#370=ORIENTED_EDGE('',*,*,#276,.T.);
#371=ORIENTED_EDGE('',*,*,#277,.F.);
#372=ORIENTED_EDGE('',*,*,#272,.F.);
#373=ORIENTED_EDGE('',*,*,#273,.T.);
#374=ORIENTED_EDGE('',*,*,#277,.T.);
#375=ORIENTED_EDGE('',*,*,#275,.T.);
#376=ORIENTED_EDGE('',*,*,#270,.T.);
#377=ORIENTED_EDGE('',*,*,#264,.F.);
#378=ORIENTED_EDGE('',*,*,#278,.T.);
#379=ORIENTED_EDGE('',*,*,#279,.F.);
#380=ORIENTED_EDGE('',*,*,#278,.F.);
#381=ORIENTED_EDGE('',*,*,#239,.T.);
#382=ORIENTED_EDGE('',*,*,#227,.F.);
#383=ORIENTED_EDGE('',*,*,#224,.F.);
#384=ORIENTED_EDGE('',*,*,#220,.F.);
#385=ORIENTED_EDGE('',*,*,#238,.F.);
#386=ORIENTED_EDGE('',*,*,#260,.F.);
#387=ORIENTED_EDGE('',*,*,#254,.F.);
#388=ORIENTED_EDGE('',*,*,#258,.T.);
#389=ORIENTED_EDGE('',*,*,#234,.F.);
#390=ORIENTED_EDGE('',*,*,#249,.F.);
#391=ORIENTED_EDGE('',*,*,#243,.F.);
#392=ORIENTED_EDGE('',*,*,#247,.T.);
#393=ORIENTED_EDGE('',*,*,#230,.F.);
#394=ORIENTED_EDGE('',*,*,#222,.F.);
#395=ORIENTED_EDGE('',*,*,#226,.T.);
#396=ORIENTED_EDGE('',*,*,#229,.T.);
#397=ORIENTED_EDGE('',*,*,#242,.F.);
#398=ORIENTED_EDGE('',*,*,#253,.F.);
#399=ORIENTED_EDGE('',*,*,#279,.T.);
#400=PLANE('',#455);
#401=PLANE('',#456);
#402=PLANE('',#457);
#403=PLANE('',#471);
#404=PLANE('',#472);
#405=PLANE('',#473);
#406=PLANE('',#480);
#407=PLANE('',#481);
#408=PLANE('',#482);
#409=PLANE('',#483);
#410=PLANE('',#485);
#411=PLANE('',#488);
#412=PLANE('',#491);
#413=PLANE('',#495);
#414=PLANE('',#496);
#415=PLANE('',#499);
#416=PLANE('',#500);
#417=ADVANCED_FACE('',(#50),#400,.T.);
#418=ADVANCED_FACE('',(#51),#401,.T.);
#419=ADVANCED_FACE('',(#52),#402,.T.);
#420=ADVANCED_FACE('',(#53),#43,.T.);
#421=ADVANCED_FACE('',(#54),#44,.F.);
#422=ADVANCED_FACE('',(#55),#45,.T.);
#423=ADVANCED_FACE('',(#56),#403,.T.);
#424=ADVANCED_FACE('',(#57),#404,.T.);
#425=ADVANCED_FACE('',(#58,#15),#405,.T.);
#426=ADVANCED_FACE('',(#59),#46,.F.);
#427=ADVANCED_FACE('',(#60),#47,.T.);
#428=ADVANCED_FACE('',(#61),#406,.T.);
#429=ADVANCED_FACE('',(#62),#407,.T.);
#430=ADVANCED_FACE('',(#63,#16),#408,.T.);
#431=ADVANCED_FACE('',(#64),#409,.T.);
#432=ADVANCED_FACE('',(#65,#17),#410,.T.);
#433=ADVANCED_FACE('',(#66),#411,.T.);
#434=ADVANCED_FACE('',(#67),#412,.T.);
#435=ADVANCED_FACE('',(#68),#48,.T.);
#436=ADVANCED_FACE('',(#69),#413,.T.);
#437=ADVANCED_FACE('',(#70),#414,.T.);
#438=ADVANCED_FACE('',(#71),#49,.T.);
#439=ADVANCED_FACE('',(#72),#415,.T.);
#440=ADVANCED_FACE('',(#73,#18,#19,#20),#416,.F.);
#441=CLOSED_SHELL('',(#417,#418,#419,#420,#421,#422,#423,#424,#425,#426,
#427,#428,#429,#430,#431,#432,#433,#434,#435,#436,#437,#438,#439,#440));
#442=DERIVED_UNIT_ELEMENT(#444,1.);
#443=DERIVED_UNIT_ELEMENT(#763,-3.);
#444=(
MASS_UNIT()
NAMED_UNIT(*)
SI_UNIT(.KILO.,.GRAM.)
);
#445=DERIVED_UNIT((#442,#443));
#446=MEASURE_REPRESENTATION_ITEM('density measure',
POSITIVE_RATIO_MEASURE(7850.),#445);
#447=PROPERTY_DEFINITION_REPRESENTATION(#452,#449);
#448=PROPERTY_DEFINITION_REPRESENTATION(#453,#450);
#449=REPRESENTATION('material name',(#451),#760);
#450=REPRESENTATION('density',(#446),#760);
#451=DESCRIPTIVE_REPRESENTATION_ITEM('Steel','Steel');
#452=PROPERTY_DEFINITION('material property','material name',#770);
#453=PROPERTY_DEFINITION('material property','density of part',#770);
#454=AXIS2_PLACEMENT_3D('',#633,#501,#502);
#455=AXIS2_PLACEMENT_3D('',#634,#503,#504);
#456=AXIS2_PLACEMENT_3D('',#643,#509,#510);
#457=AXIS2_PLACEMENT_3D('',#649,#514,#515);
#458=AXIS2_PLACEMENT_3D('',#655,#519,#520);
#459=AXIS2_PLACEMENT_3D('',#657,#521,#522);
#460=AXIS2_PLACEMENT_3D('',#661,#524,#525);
#461=AXIS2_PLACEMENT_3D('',#665,#527,#528);
#462=AXIS2_PLACEMENT_3D('',#669,#530,#531);
#463=AXIS2_PLACEMENT_3D('',#672,#533,#534);
#464=AXIS2_PLACEMENT_3D('',#673,#535,#536);
#465=AXIS2_PLACEMENT_3D('',#674,#537,#538);
#466=AXIS2_PLACEMENT_3D('',#676,#539,#540);
#467=AXIS2_PLACEMENT_3D('',#679,#542,#543);
#468=AXIS2_PLACEMENT_3D('',#680,#544,#545);
#469=AXIS2_PLACEMENT_3D('',#683,#546,#547);
#470=AXIS2_PLACEMENT_3D('',#687,#549,#550);
#471=AXIS2_PLACEMENT_3D('',#689,#552,#553);
#472=AXIS2_PLACEMENT_3D('',#692,#556,#557);
#473=AXIS2_PLACEMENT_3D('',#695,#560,#561);
#474=AXIS2_PLACEMENT_3D('',#696,#562,#563);
#475=AXIS2_PLACEMENT_3D('',#698,#564,#565);
#476=AXIS2_PLACEMENT_3D('',#701,#567,#568);
#477=AXIS2_PLACEMENT_3D('',#702,#569,#570);
#478=AXIS2_PLACEMENT_3D('',#705,#571,#572);
#479=AXIS2_PLACEMENT_3D('',#709,#574,#575);
#480=AXIS2_PLACEMENT_3D('',#711,#577,#578);
#481=AXIS2_PLACEMENT_3D('',#714,#581,#582);
#482=AXIS2_PLACEMENT_3D('',#717,#585,#586);
#483=AXIS2_PLACEMENT_3D('',#718,#587,#588);
#484=AXIS2_PLACEMENT_3D('',#721,#589,#590);
#485=AXIS2_PLACEMENT_3D('',#723,#592,#593);
#486=AXIS2_PLACEMENT_3D('',#725,#594,#595);
#487=AXIS2_PLACEMENT_3D('',#727,#596,#597);
#488=AXIS2_PLACEMENT_3D('',#728,#598,#599);
#489=AXIS2_PLACEMENT_3D('',#733,#601,#602);
#490=AXIS2_PLACEMENT_3D('',#734,#603,#604);
#491=AXIS2_PLACEMENT_3D('',#735,#605,#606);
#492=AXIS2_PLACEMENT_3D('',#741,#610,#611);
#493=AXIS2_PLACEMENT_3D('',#744,#613,#614);
#494=AXIS2_PLACEMENT_3D('',#747,#616,#617);
#495=AXIS2_PLACEMENT_3D('',#749,#619,#620);
#496=AXIS2_PLACEMENT_3D('',#751,#622,#623);
#497=AXIS2_PLACEMENT_3D('',#752,#624,#625);
#498=AXIS2_PLACEMENT_3D('',#755,#627,#628);
#499=AXIS2_PLACEMENT_3D('',#756,#629,#630);
#500=AXIS2_PLACEMENT_3D('',#757,#631,#632);
#501=DIRECTION('axis',(0.,0.,1.));
#502=DIRECTION('refdir',(1.,0.,0.));
#503=DIRECTION('center_axis',(0.,-1.,0.));
#504=DIRECTION('ref_axis',(0.,0.,-1.));
#505=DIRECTION('',(0.,0.,1.));
#506=DIRECTION('',(1.,0.,0.));
#507=DIRECTION('',(0.,0.,-1.));
#508=DIRECTION('',(-1.,0.,0.));
#509=DIRECTION('center_axis',(0.,0.,1.));
#510=DIRECTION('ref_axis',(0.,-1.,0.));
#511=DIRECTION('',(0.,1.,0.));
#512=DIRECTION('',(1.,0.,0.));
#513=DIRECTION('',(0.,1.,0.));
#514=DIRECTION('center_axis',(0.,1.,0.));
#515=DIRECTION('ref_axis',(0.,0.,1.));
#516=DIRECTION('',(0.,0.,-1.));
#517=DIRECTION('',(1.,0.,0.));
#518=DIRECTION('',(0.,0.,-1.));
#519=DIRECTION('center_axis',(1.,0.,0.));
#520=DIRECTION('ref_axis',(0.,-1.83697019872103E-16,-1.));
#521=DIRECTION('center_axis',(1.,0.,0.));
#522=DIRECTION('ref_axis',(0.,1.,0.));
#523=DIRECTION('',(1.,0.,0.));
#524=DIRECTION('center_axis',(1.,0.,0.));
#525=DIRECTION('ref_axis',(0.,1.,0.));
#526=DIRECTION('',(-1.,0.,0.));
#527=DIRECTION('center_axis',(1.,0.,0.));
#528=DIRECTION('ref_axis',(0.,1.,0.));
#529=DIRECTION('',(1.,0.,0.));
#530=DIRECTION('center_axis',(1.,0.,0.));
#531=DIRECTION('ref_axis',(0.,1.,0.));
#532=DIRECTION('',(-1.,0.,0.));
#533=DIRECTION('center_axis',(1.,0.,0.));
#534=DIRECTION('ref_axis',(0.,1.,0.));
#535=DIRECTION('center_axis',(1.,0.,0.));
#536=DIRECTION('ref_axis',(0.,1.,0.));
#537=DIRECTION('center_axis',(1.,0.,0.));
#538=DIRECTION('ref_axis',(0.,1.,0.));
#539=DIRECTION('center_axis',(-1.,0.,0.));
#540=DIRECTION('ref_axis',(0.,1.,0.));
#541=DIRECTION('',(-1.,0.,0.));
#542=DIRECTION('center_axis',(-1.,0.,0.));
#543=DIRECTION('ref_axis',(0.,1.,0.));
#544=DIRECTION('center_axis',(1.,0.,0.));
#545=DIRECTION('ref_axis',(0.,-1.,1.22464679914735E-16));
#546=DIRECTION('center_axis',(1.,0.,0.));
#547=DIRECTION('ref_axis',(0.,1.,0.));
#548=DIRECTION('',(1.,0.,0.));
#549=DIRECTION('center_axis',(1.,0.,0.));
#550=DIRECTION('ref_axis',(0.,1.,0.));
#551=DIRECTION('',(1.,0.,0.));
#552=DIRECTION('center_axis',(0.,0.,1.));
#553=DIRECTION('ref_axis',(0.,-1.,0.));
#554=DIRECTION('',(0.,1.,0.));
#555=DIRECTION('',(0.,-1.,0.));
#556=DIRECTION('center_axis',(0.,0.,-1.));
#557=DIRECTION('ref_axis',(0.,1.,0.));
#558=DIRECTION('',(0.,1.,0.));
#559=DIRECTION('',(0.,1.,0.));
#560=DIRECTION('center_axis',(1.,0.,0.));
#561=DIRECTION('ref_axis',(0.,1.,0.));
#562=DIRECTION('center_axis',(1.,0.,0.));
#563=DIRECTION('ref_axis',(0.,1.,0.));
#564=DIRECTION('center_axis',(-1.,0.,0.));
#565=DIRECTION('ref_axis',(0.,1.,0.));
#566=DIRECTION('',(-1.,0.,0.));
#567=DIRECTION('center_axis',(-1.,0.,0.));
#568=DIRECTION('ref_axis',(0.,1.,0.));
#569=DIRECTION('center_axis',(1.,0.,0.));
#570=DIRECTION('ref_axis',(0.,1.,0.));
#571=DIRECTION('center_axis',(1.,0.,0.));
#572=DIRECTION('ref_axis',(0.,1.,0.));
#573=DIRECTION('',(1.,0.,0.));
#574=DIRECTION('center_axis',(1.,0.,0.));
#575=DIRECTION('ref_axis',(0.,1.,0.));
#576=DIRECTION('',(1.,0.,0.));
#577=DIRECTION('center_axis',(0.,0.,-1.));
#578=DIRECTION('ref_axis',(0.,1.,0.));
#579=DIRECTION('',(0.,-1.,0.));
#580=DIRECTION('',(0.,1.,0.));
#581=DIRECTION('center_axis',(0.,0.,1.));
#582=DIRECTION('ref_axis',(0.,-1.,0.));
#583=DIRECTION('',(0.,-1.,0.));
#584=DIRECTION('',(0.,-1.,0.));
#585=DIRECTION('center_axis',(1.,0.,0.));
#586=DIRECTION('ref_axis',(0.,1.,0.));
#587=DIRECTION('center_axis',(-1.,0.,0.));
#588=DIRECTION('ref_axis',(0.,-1.,0.));
#589=DIRECTION('center_axis',(-1.,0.,0.));
#590=DIRECTION('ref_axis',(0.,-1.,0.));
#591=DIRECTION('',(0.,0.,1.));
#592=DIRECTION('center_axis',(-1.,0.,0.));
#593=DIRECTION('ref_axis',(0.,-1.,0.));
#594=DIRECTION('center_axis',(-1.,0.,0.));
#595=DIRECTION('ref_axis',(0.,-1.,0.));
#596=DIRECTION('center_axis',(1.,0.,0.));
#597=DIRECTION('ref_axis',(0.,-1.,0.));
#598=DIRECTION('center_axis',(-1.,0.,0.));
#599=DIRECTION('ref_axis',(0.,-1.,0.));
#600=DIRECTION('',(0.,0.,-1.));
#601=DIRECTION('center_axis',(-1.,0.,0.));
#602=DIRECTION('ref_axis',(0.,-1.,0.));
#603=DIRECTION('center_axis',(-1.,0.,0.));
#604=DIRECTION('ref_axis',(0.,-1.,0.));
#605=DIRECTION('center_axis',(0.,1.,0.));
#606=DIRECTION('ref_axis',(0.,0.,-1.));
#607=DIRECTION('',(-1.,0.,0.));
#608=DIRECTION('',(0.,0.,-1.));
#609=DIRECTION('',(-1.,0.,0.));
#610=DIRECTION('center_axis',(-1.,0.,0.));
#611=DIRECTION('ref_axis',(0.,-1.,0.));
#612=DIRECTION('',(-1.,0.,0.));
#613=DIRECTION('center_axis',(-1.,0.,0.));
#614=DIRECTION('ref_axis',(0.,-1.,0.));
#615=DIRECTION('',(1.,0.,0.));
#616=DIRECTION('center_axis',(-1.,0.,0.));
#617=DIRECTION('ref_axis',(0.,-1.,0.));
#618=DIRECTION('',(-1.,0.,0.));
#619=DIRECTION('center_axis',(0.,-1.,0.));
#620=DIRECTION('ref_axis',(0.,0.,1.));
#621=DIRECTION('',(0.,0.,1.));
#622=DIRECTION('center_axis',(-1.,0.,0.));
#623=DIRECTION('ref_axis',(0.,-1.,0.));
#624=DIRECTION('center_axis',(-1.,0.,0.));
#625=DIRECTION('ref_axis',(0.,-1.,0.));
#626=DIRECTION('',(1.,0.,0.));
#627=DIRECTION('center_axis',(1.,0.,0.));
#628=DIRECTION('ref_axis',(0.,-1.,0.));
#629=DIRECTION('center_axis',(1.,0.,0.));
#630=DIRECTION('ref_axis',(0.,1.,0.));
#631=DIRECTION('center_axis',(1.,0.,0.));
#632=DIRECTION('ref_axis',(0.,1.,0.));
#633=CARTESIAN_POINT('',(0.,0.,0.));
#634=CARTESIAN_POINT('Origin',(0.,-7.285,16.6352823053243));
#635=CARTESIAN_POINT('',(19.23,-7.285,11.9552823053243));
#636=CARTESIAN_POINT('',(19.23,-7.285,16.6352823053243));
#637=CARTESIAN_POINT('',(19.23,-7.285,15.4652823053243));
#638=CARTESIAN_POINT('',(0.,-7.285,16.6352823053243));
#639=CARTESIAN_POINT('',(0.,-7.285,16.6352823053243));
#640=CARTESIAN_POINT('',(0.,-7.285,11.9552823053243));
#641=CARTESIAN_POINT('',(0.,-7.285,16.6352823053243));
#642=CARTESIAN_POINT('',(0.,-7.285,11.9552823053243));
#643=CARTESIAN_POINT('Origin',(0.,7.285,16.6352823053243));
#644=CARTESIAN_POINT('',(19.23,7.285,16.6352823053243));
#645=CARTESIAN_POINT('',(19.23,3.6425,16.6352823053243));
#646=CARTESIAN_POINT('',(0.,7.285,16.6352823053243));
#647=CARTESIAN_POINT('',(0.,7.285,16.6352823053243));
#648=CARTESIAN_POINT('',(0.,-7.285,16.6352823053243));
#649=CARTESIAN_POINT('Origin',(0.,7.285,11.9552823053243));
#650=CARTESIAN_POINT('',(19.23,7.285,11.9552823053243));
#651=CARTESIAN_POINT('',(19.23,7.285,13.1252823053243));
#652=CARTESIAN_POINT('',(0.,7.285,11.9552823053243));
#653=CARTESIAN_POINT('',(0.,7.285,11.9552823053243));
#654=CARTESIAN_POINT('',(0.,7.285,16.6352823053243));
#655=CARTESIAN_POINT('Origin',(0.,0.,0.));
#656=CARTESIAN_POINT('',(0.,-13.6637293591464,3.05));
#657=CARTESIAN_POINT('Origin',(0.,0.,0.));
#658=CARTESIAN_POINT('',(0.5,-13.6637293591464,3.05));
#659=CARTESIAN_POINT('',(0.,-13.6637293591464,3.05));
#660=CARTESIAN_POINT('',(0.5,-13.6637293591464,-3.05));
#661=CARTESIAN_POINT('Origin',(0.5,0.,0.));
#662=CARTESIAN_POINT('',(0.,-13.6637293591464,-3.05));
#663=CARTESIAN_POINT('',(0.,-13.6637293591464,-3.05));
#664=CARTESIAN_POINT('',(0.,13.6637293591464,-3.05));
#665=CARTESIAN_POINT('Origin',(0.,0.,0.));
#666=CARTESIAN_POINT('',(0.5,13.6637293591464,-3.05));
#667=CARTESIAN_POINT('',(0.,13.6637293591464,-3.05));
#668=CARTESIAN_POINT('',(0.5,13.6637293591464,3.05));
#669=CARTESIAN_POINT('Origin',(0.5,0.,0.));
#670=CARTESIAN_POINT('',(0.,13.6637293591464,3.05));
#671=CARTESIAN_POINT('',(0.,13.6637293591464,3.05));
#672=CARTESIAN_POINT('Origin',(0.,0.,0.));
#673=CARTESIAN_POINT('Origin',(19.23,0.,0.));
#674=CARTESIAN_POINT('Origin',(0.,-17.445,0.));
#675=CARTESIAN_POINT('',(0.5,-19.495,-2.51052593825208E-16));
#676=CARTESIAN_POINT('Origin',(0.5,-17.445,0.));
#677=CARTESIAN_POINT('',(0.,-19.495,-2.51052593825208E-16));
#678=CARTESIAN_POINT('',(0.,-19.495,-2.51052593825208E-16));
#679=CARTESIAN_POINT('Origin',(0.,-17.445,0.));
#680=CARTESIAN_POINT('Origin',(0.,-17.445,0.));
#681=CARTESIAN_POINT('',(0.,-17.445,3.05));
#682=CARTESIAN_POINT('',(0.,-17.445,-3.05));
#683=CARTESIAN_POINT('Origin',(0.,-17.445,0.));
#684=CARTESIAN_POINT('',(0.5,-17.445,-3.05));
#685=CARTESIAN_POINT('',(0.,-17.445,-3.05));
#686=CARTESIAN_POINT('',(0.5,-17.445,3.05));
#687=CARTESIAN_POINT('Origin',(0.5,-17.445,0.));
#688=CARTESIAN_POINT('',(0.,-17.445,3.05));
#689=CARTESIAN_POINT('Origin',(0.,-13.6637293591464,3.05));
#690=CARTESIAN_POINT('',(0.,-17.445,3.05));
#691=CARTESIAN_POINT('',(0.5,-17.445,3.05));
#692=CARTESIAN_POINT('Origin',(0.,-17.445,-3.05));
#693=CARTESIAN_POINT('',(0.,-17.445,-3.05));
#694=CARTESIAN_POINT('',(0.5,-17.445,-3.05));
#695=CARTESIAN_POINT('Origin',(0.5,-17.0793646795732,0.));
#696=CARTESIAN_POINT('Origin',(0.,17.445,0.));
#697=CARTESIAN_POINT('',(0.5,15.395,-2.51052593825208E-16));
#698=CARTESIAN_POINT('Origin',(0.5,17.445,0.));
#699=CARTESIAN_POINT('',(0.,15.395,-2.51052593825208E-16));
#700=CARTESIAN_POINT('',(0.,15.395,-2.51052593825208E-16));
#701=CARTESIAN_POINT('Origin',(0.,17.445,0.));
#702=CARTESIAN_POINT('Origin',(0.,17.445,0.));
#703=CARTESIAN_POINT('',(0.,17.445,-3.05));
#704=CARTESIAN_POINT('',(0.,17.445,3.05));
#705=CARTESIAN_POINT('Origin',(0.,17.445,0.));
#706=CARTESIAN_POINT('',(0.5,17.445,3.05));
#707=CARTESIAN_POINT('',(0.,17.445,3.05));
#708=CARTESIAN_POINT('',(0.5,17.445,-3.05));
#709=CARTESIAN_POINT('Origin',(0.5,17.445,0.));
#710=CARTESIAN_POINT('',(0.,17.445,-3.05));
#711=CARTESIAN_POINT('Origin',(0.,13.6637293591464,-3.05));
#712=CARTESIAN_POINT('',(0.,17.445,-3.05));
#713=CARTESIAN_POINT('',(0.5,17.445,-3.05));
#714=CARTESIAN_POINT('Origin',(0.,17.445,3.05));
#715=CARTESIAN_POINT('',(0.,17.445,3.05));
#716=CARTESIAN_POINT('',(0.5,17.445,3.05));
#717=CARTESIAN_POINT('Origin',(0.5,17.0793646795732,0.));
#718=CARTESIAN_POINT('Origin',(-3.8,-1.9575,-7.785));
#719=CARTESIAN_POINT('',(-3.8,-1.46,-9.75868310526285));
#720=CARTESIAN_POINT('',(-3.8,-1.46,-5.81131689473715));
#721=CARTESIAN_POINT('Origin',(-3.8,0.,-7.785));
#722=CARTESIAN_POINT('',(-3.8,-1.46,-8.77184155263143));
#723=CARTESIAN_POINT('Origin',(-1.73,0.,-7.785));
#724=CARTESIAN_POINT('',(-1.73,4.615,-7.785));
#725=CARTESIAN_POINT('Origin',(-1.73,0.,-7.785));
#726=CARTESIAN_POINT('',(-1.73,2.455,-7.785));
#727=CARTESIAN_POINT('Origin',(-1.73,0.,-7.785));
#728=CARTESIAN_POINT('Origin',(-3.8,1.9575,-7.785));
#729=CARTESIAN_POINT('',(-3.8,1.46,-5.81131689473715));
#730=CARTESIAN_POINT('',(-3.8,1.46,-9.75868310526285));
#731=CARTESIAN_POINT('',(-3.8,1.46,-6.79815844736858));
#732=CARTESIAN_POINT('',(-3.8,2.455,-7.785));
#733=CARTESIAN_POINT('Origin',(-3.8,0.,-7.785));
#734=CARTESIAN_POINT('Origin',(-3.8,0.,-7.785));
#735=CARTESIAN_POINT('Origin',(-1.73,1.46,-5.81131689473715));
#736=CARTESIAN_POINT('',(-9.63,1.46,-9.75868310526285));
#737=CARTESIAN_POINT('',(-1.73,1.46,-9.75868310526285));
#738=CARTESIAN_POINT('',(-9.63,1.46,-5.81131689473715));
#739=CARTESIAN_POINT('',(-9.63,1.46,-9.75868310526285));
#740=CARTESIAN_POINT('',(-1.73,1.46,-5.81131689473715));
#741=CARTESIAN_POINT('Origin',(-1.73,0.,-7.785));
#742=CARTESIAN_POINT('',(-9.63,-1.46,-9.75868310526285));
#743=CARTESIAN_POINT('',(-1.73,-1.46,-9.75868310526285));
#744=CARTESIAN_POINT('Origin',(-9.63,0.,-7.785));
#745=CARTESIAN_POINT('',(-1.73,2.455,-7.785));
#746=CARTESIAN_POINT('',(-9.63,-1.46,-5.81131689473715));
#747=CARTESIAN_POINT('Origin',(-9.63,0.,-7.785));
#748=CARTESIAN_POINT('',(-1.73,-1.46,-5.81131689473715));
#749=CARTESIAN_POINT('Origin',(-1.73,-1.46,-9.75868310526285));
#750=CARTESIAN_POINT('',(-9.63,-1.46,-5.81131689473715));
#751=CARTESIAN_POINT('Origin',(-9.63,5.55111512312578E-16,-7.785));
#752=CARTESIAN_POINT('Origin',(0.,0.,-7.785));
#753=CARTESIAN_POINT('',(0.,4.615,-7.785));
#754=CARTESIAN_POINT('',(0.,4.615,-7.785));
#755=CARTESIAN_POINT('Origin',(0.,0.,-7.785));
#756=CARTESIAN_POINT('Origin',(19.23,0.,0.));
#757=CARTESIAN_POINT('Origin',(0.,0.,0.));
#758=UNCERTAINTY_MEASURE_WITH_UNIT(LENGTH_MEASURE(0.01),#762,
'DISTANCE_ACCURACY_VALUE',
'Maximum model space distance between geometric entities at asserted c
onnectivities');
#759=UNCERTAINTY_MEASURE_WITH_UNIT(LENGTH_MEASURE(0.01),#762,
'DISTANCE_ACCURACY_VALUE',
'Maximum model space distance between geometric entities at asserted c
onnectivities');
#760=(
GEOMETRIC_REPRESENTATION_CONTEXT(3)
GLOBAL_UNCERTAINTY_ASSIGNED_CONTEXT((#758))
GLOBAL_UNIT_ASSIGNED_CONTEXT((#762,#764,#765))
REPRESENTATION_CONTEXT('','3D')
);
#761=(
GEOMETRIC_REPRESENTATION_CONTEXT(3)
GLOBAL_UNCERTAINTY_ASSIGNED_CONTEXT((#759))
GLOBAL_UNIT_ASSIGNED_CONTEXT((#762,#764,#765))
REPRESENTATION_CONTEXT('','3D')
);
#762=(
LENGTH_UNIT()
NAMED_UNIT(*)
SI_UNIT(.MILLI.,.METRE.)
);
#763=(
LENGTH_UNIT()
NAMED_UNIT(*)
SI_UNIT($,.METRE.)
);
#764=(
NAMED_UNIT(*)
PLANE_ANGLE_UNIT()
SI_UNIT($,.RADIAN.)
);
#765=(
NAMED_UNIT(*)
SI_UNIT($,.STERADIAN.)
SOLID_ANGLE_UNIT()
);
#766=SHAPE_DEFINITION_REPRESENTATION(#767,#768);
#767=PRODUCT_DEFINITION_SHAPE('',$,#770);
#768=SHAPE_REPRESENTATION('',(#454),#760);
#769=PRODUCT_DEFINITION_CONTEXT('part definition',#774,'design');
#770=PRODUCT_DEFINITION('2026-09-13-20-04-26-785','Motor',#771,#769);
#771=PRODUCT_DEFINITION_FORMATION('',$,#776);
#772=PRODUCT_RELATED_PRODUCT_CATEGORY('Motor','Motor',(#776));
#773=APPLICATION_PROTOCOL_DEFINITION('international standard',
'automotive_design',2009,#774);
#774=APPLICATION_CONTEXT(
'Core Data for Automotive Mechanical Design Process');
#775=PRODUCT_CONTEXT('part definition',#774,'mechanical');
#776=PRODUCT('2026-09-13-20-04-26-785','Motor',$,(#775));
#777=PRESENTATION_STYLE_ASSIGNMENT((#778));
#778=SURFACE_STYLE_USAGE(.BOTH.,#779);
#779=SURFACE_SIDE_STYLE('',(#780));
#780=SURFACE_STYLE_FILL_AREA(#781);
#781=FILL_AREA_STYLE('Steel - Satin',(#782));
#782=FILL_AREA_STYLE_COLOUR('Steel - Satin',#783);
#783=COLOUR_RGB('Steel - Satin',0.627450980392157,0.627450980392157,0.627450980392157);
ENDSEC;
END-ISO-10303-21;
