ISO-10303-21;
HEADER;
/* Generated by software containing ST-Developer
 * from STEP Tools, Inc. (www.steptools.com) 
 */

FILE_DESCRIPTION(
/* description */ (''),
/* implementation_level */ '2;1');

FILE_NAME(
/* name */ 'Outer_Axis.step',
/* time_stamp */ '2026-09-13T20:04:50-06:00',
/* author */ (''),
/* organization */ (''),
/* preprocessor_version */ 'ST-DEVELOPER v20.2',
/* originating_system */ 'Autodesk Translation Framework v15.15.0.0',
/* authorisation */ '');

FILE_SCHEMA (('AUTOMOTIVE_DESIGN { 1 0 10303 214 3 1 1 }'));
ENDSEC;

DATA;
#10=MECHANICAL_DESIGN_GEOMETRIC_PRESENTATION_REPRESENTATION('',(#13),#756);
#11=SHAPE_REPRESENTATION_RELATIONSHIP('SRR','None',#763,#12);
#12=ADVANCED_BREP_SHAPE_REPRESENTATION('',(#14),#755);
#13=STYLED_ITEM('',(#773),#14);
#14=MANIFOLD_SOLID_BREP('Outer Axis',#468);
#15=FACE_BOUND('',#74,.T.);
#16=FACE_BOUND('',#76,.T.);
#17=FACE_BOUND('',#82,.T.);
#18=FACE_BOUND('',#85,.T.);
#19=PLANE('',#485);
#20=PLANE('',#486);
#21=PLANE('',#487);
#22=PLANE('',#491);
#23=PLANE('',#492);
#24=PLANE('',#493);
#25=PLANE('',#494);
#26=PLANE('',#495);
#27=PLANE('',#496);
#28=PLANE('',#497);
#29=PLANE('',#498);
#30=PLANE('',#499);
#31=PLANE('',#500);
#32=PLANE('',#501);
#33=PLANE('',#502);
#34=PLANE('',#503);
#35=PLANE('',#504);
#36=PLANE('',#505);
#37=PLANE('',#506);
#38=PLANE('',#507);
#39=PLANE('',#508);
#40=FACE_OUTER_BOUND('',#63,.T.);
#41=FACE_OUTER_BOUND('',#64,.T.);
#42=FACE_OUTER_BOUND('',#65,.T.);
#43=FACE_OUTER_BOUND('',#66,.T.);
#44=FACE_OUTER_BOUND('',#67,.T.);
#45=FACE_OUTER_BOUND('',#68,.T.);
#46=FACE_OUTER_BOUND('',#69,.T.);
#47=FACE_OUTER_BOUND('',#70,.T.);
#48=FACE_OUTER_BOUND('',#71,.T.);
#49=FACE_OUTER_BOUND('',#72,.T.);
#50=FACE_OUTER_BOUND('',#73,.T.);
#51=FACE_OUTER_BOUND('',#75,.T.);
#52=FACE_OUTER_BOUND('',#77,.T.);
#53=FACE_OUTER_BOUND('',#78,.T.);
#54=FACE_OUTER_BOUND('',#79,.T.);
#55=FACE_OUTER_BOUND('',#80,.T.);
#56=FACE_OUTER_BOUND('',#81,.T.);
#57=FACE_OUTER_BOUND('',#83,.T.);
#58=FACE_OUTER_BOUND('',#84,.T.);
#59=FACE_OUTER_BOUND('',#86,.T.);
#60=FACE_OUTER_BOUND('',#87,.T.);
#61=FACE_OUTER_BOUND('',#88,.T.);
#62=FACE_OUTER_BOUND('',#89,.T.);
#63=EDGE_LOOP('',(#317,#318,#319,#320));
#64=EDGE_LOOP('',(#321,#322,#323,#324));
#65=EDGE_LOOP('',(#325,#326,#327,#328));
#66=EDGE_LOOP('',(#329,#330,#331,#332));
#67=EDGE_LOOP('',(#333,#334,#335,#336));
#68=EDGE_LOOP('',(#337,#338,#339,#340));
#69=EDGE_LOOP('',(#341,#342,#343,#344));
#70=EDGE_LOOP('',(#345,#346,#347,#348));
#71=EDGE_LOOP('',(#349,#350,#351,#352));
#72=EDGE_LOOP('',(#353,#354,#355,#356,#357,#358,#359,#360));
#73=EDGE_LOOP('',(#361,#362,#363,#364));
#74=EDGE_LOOP('',(#365,#366,#367,#368));
#75=EDGE_LOOP('',(#369,#370,#371,#372,#373,#374,#375,#376));
#76=EDGE_LOOP('',(#377));
#77=EDGE_LOOP('',(#378,#379,#380,#381));
#78=EDGE_LOOP('',(#382,#383,#384,#385,#386,#387,#388,#389));
#79=EDGE_LOOP('',(#390,#391,#392,#393));
#80=EDGE_LOOP('',(#394,#395,#396,#397));
#81=EDGE_LOOP('',(#398,#399,#400,#401,#402,#403,#404,#405));
#82=EDGE_LOOP('',(#406,#407,#408,#409));
#83=EDGE_LOOP('',(#410,#411,#412,#413));
#84=EDGE_LOOP('',(#414,#415,#416,#417,#418,#419,#420,#421));
#85=EDGE_LOOP('',(#422));
#86=EDGE_LOOP('',(#423,#424,#425,#426,#427,#428,#429,#430));
#87=EDGE_LOOP('',(#431,#432,#433,#434));
#88=EDGE_LOOP('',(#435,#436,#437,#438));
#89=EDGE_LOOP('',(#439,#440,#441,#442));
#90=LINE('',#629,#149);
#91=LINE('',#634,#150);
#92=LINE('',#636,#151);
#93=LINE('',#638,#152);
#94=LINE('',#639,#153);
#95=LINE('',#642,#154);
#96=LINE('',#644,#155);
#97=LINE('',#645,#156);
#98=LINE('',#648,#157);
#99=LINE('',#650,#158);
#100=LINE('',#651,#159);
#101=LINE('',#659,#160);
#102=LINE('',#661,#161);
#103=LINE('',#663,#162);
#104=LINE('',#664,#163);
#105=LINE('',#668,#164);
#106=LINE('',#670,#165);
#107=LINE('',#672,#166);
#108=LINE('',#673,#167);
#109=LINE('',#675,#168);
#110=LINE('',#676,#169);
#111=LINE('',#679,#170);
#112=LINE('',#681,#171);
#113=LINE('',#683,#172);
#114=LINE('',#685,#173);
#115=LINE('',#687,#174);
#116=LINE('',#689,#175);
#117=LINE('',#690,#176);
#118=LINE('',#694,#177);
#119=LINE('',#696,#178);
#120=LINE('',#698,#179);
#121=LINE('',#699,#180);
#122=LINE('',#702,#181);
#123=LINE('',#704,#182);
#124=LINE('',#706,#183);
#125=LINE('',#707,#184);
#126=LINE('',#710,#185);
#127=LINE('',#712,#186);
#128=LINE('',#714,#187);
#129=LINE('',#716,#188);
#130=LINE('',#717,#189);
#131=LINE('',#718,#190);
#132=LINE('',#720,#191);
#133=LINE('',#723,#192);
#134=LINE('',#724,#193);
#135=LINE('',#726,#194);
#136=LINE('',#730,#195);
#137=LINE('',#731,#196);
#138=LINE('',#732,#197);
#139=LINE('',#734,#198);
#140=LINE('',#735,#199);
#141=LINE('',#737,#200);
#142=LINE('',#740,#201);
#143=LINE('',#742,#202);
#144=LINE('',#744,#203);
#145=LINE('',#745,#204);
#146=LINE('',#747,#205);
#147=LINE('',#749,#206);
#148=LINE('',#751,#207);
#149=VECTOR('',#515,6.);
#150=VECTOR('',#520,10.);
#151=VECTOR('',#521,10.);
#152=VECTOR('',#522,10.);
#153=VECTOR('',#523,10.);
#154=VECTOR('',#526,10.);
#155=VECTOR('',#527,10.);
#156=VECTOR('',#528,10.);
#157=VECTOR('',#531,10.);
#158=VECTOR('',#532,10.);
#159=VECTOR('',#533,10.);
#160=VECTOR('',#544,10.);
#161=VECTOR('',#545,10.);
#162=VECTOR('',#546,10.);
#163=VECTOR('',#547,10.);
#164=VECTOR('',#550,10.);
#165=VECTOR('',#551,10.);
#166=VECTOR('',#552,10.);
#167=VECTOR('',#553,10.);
#168=VECTOR('',#556,10.);
#169=VECTOR('',#557,10.);
#170=VECTOR('',#560,10.);
#171=VECTOR('',#561,10.);
#172=VECTOR('',#562,10.);
#173=VECTOR('',#563,10.);
#174=VECTOR('',#564,10.);
#175=VECTOR('',#565,10.);
#176=VECTOR('',#566,10.);
#177=VECTOR('',#569,10.);
#178=VECTOR('',#570,10.);
#179=VECTOR('',#571,10.);
#180=VECTOR('',#572,10.);
#181=VECTOR('',#573,10.);
#182=VECTOR('',#574,10.);
#183=VECTOR('',#575,10.);
#184=VECTOR('',#576,10.);
#185=VECTOR('',#579,10.);
#186=VECTOR('',#580,10.);
#187=VECTOR('',#581,10.);
#188=VECTOR('',#582,10.);
#189=VECTOR('',#583,10.);
#190=VECTOR('',#584,10.);
#191=VECTOR('',#587,10.);
#192=VECTOR('',#590,10.);
#193=VECTOR('',#591,10.);
#194=VECTOR('',#594,10.);
#195=VECTOR('',#597,10.);
#196=VECTOR('',#598,10.);
#197=VECTOR('',#599,10.);
#198=VECTOR('',#602,10.);
#199=VECTOR('',#603,10.);
#200=VECTOR('',#606,10.);
#201=VECTOR('',#609,10.);
#202=VECTOR('',#610,10.);
#203=VECTOR('',#611,10.);
#204=VECTOR('',#612,10.);
#205=VECTOR('',#615,10.);
#206=VECTOR('',#618,10.);
#207=VECTOR('',#621,10.);
#208=CIRCLE('',#483,6.);
#209=CIRCLE('',#484,6.);
#210=CIRCLE('',#489,14.);
#211=CIRCLE('',#490,14.);
#212=VERTEX_POINT('',#626);
#213=VERTEX_POINT('',#628);
#214=VERTEX_POINT('',#632);
#215=VERTEX_POINT('',#633);
#216=VERTEX_POINT('',#635);
#217=VERTEX_POINT('',#637);
#218=VERTEX_POINT('',#641);
#219=VERTEX_POINT('',#643);
#220=VERTEX_POINT('',#647);
#221=VERTEX_POINT('',#649);
#222=VERTEX_POINT('',#657);
#223=VERTEX_POINT('',#658);
#224=VERTEX_POINT('',#660);
#225=VERTEX_POINT('',#662);
#226=VERTEX_POINT('',#666);
#227=VERTEX_POINT('',#667);
#228=VERTEX_POINT('',#669);
#229=VERTEX_POINT('',#671);
#230=VERTEX_POINT('',#678);
#231=VERTEX_POINT('',#680);
#232=VERTEX_POINT('',#682);
#233=VERTEX_POINT('',#684);
#234=VERTEX_POINT('',#686);
#235=VERTEX_POINT('',#688);
#236=VERTEX_POINT('',#692);
#237=VERTEX_POINT('',#693);
#238=VERTEX_POINT('',#695);
#239=VERTEX_POINT('',#697);
#240=VERTEX_POINT('',#700);
#241=VERTEX_POINT('',#701);
#242=VERTEX_POINT('',#703);
#243=VERTEX_POINT('',#705);
#244=VERTEX_POINT('',#709);
#245=VERTEX_POINT('',#711);
#246=VERTEX_POINT('',#713);
#247=VERTEX_POINT('',#715);
#248=VERTEX_POINT('',#722);
#249=VERTEX_POINT('',#728);
#250=VERTEX_POINT('',#729);
#251=VERTEX_POINT('',#739);
#252=VERTEX_POINT('',#741);
#253=VERTEX_POINT('',#743);
#254=EDGE_CURVE('',#212,#212,#208,.T.);
#255=EDGE_CURVE('',#212,#213,#90,.T.);
#256=EDGE_CURVE('',#213,#213,#209,.T.);
#257=EDGE_CURVE('',#214,#215,#91,.T.);
#258=EDGE_CURVE('',#214,#216,#92,.T.);
#259=EDGE_CURVE('',#217,#216,#93,.T.);
#260=EDGE_CURVE('',#215,#217,#94,.T.);
#261=EDGE_CURVE('',#215,#218,#95,.T.);
#262=EDGE_CURVE('',#219,#217,#96,.T.);
#263=EDGE_CURVE('',#218,#219,#97,.T.);
#264=EDGE_CURVE('',#218,#220,#98,.T.);
#265=EDGE_CURVE('',#221,#219,#99,.T.);
#266=EDGE_CURVE('',#221,#220,#100,.T.);
#267=EDGE_CURVE('',#220,#214,#210,.T.);
#268=EDGE_CURVE('',#221,#216,#211,.T.);
#269=EDGE_CURVE('',#222,#223,#101,.T.);
#270=EDGE_CURVE('',#224,#223,#102,.T.);
#271=EDGE_CURVE('',#225,#224,#103,.T.);
#272=EDGE_CURVE('',#225,#222,#104,.T.);
#273=EDGE_CURVE('',#226,#227,#105,.T.);
#274=EDGE_CURVE('',#228,#227,#106,.T.);
#275=EDGE_CURVE('',#229,#228,#107,.T.);
#276=EDGE_CURVE('',#229,#226,#108,.T.);
#277=EDGE_CURVE('',#223,#226,#109,.T.);
#278=EDGE_CURVE('',#227,#222,#110,.T.);
#279=EDGE_CURVE('',#230,#228,#111,.T.);
#280=EDGE_CURVE('',#231,#230,#112,.T.);
#281=EDGE_CURVE('',#232,#231,#113,.T.);
#282=EDGE_CURVE('',#232,#233,#114,.T.);
#283=EDGE_CURVE('',#233,#234,#115,.T.);
#284=EDGE_CURVE('',#234,#235,#116,.T.);
#285=EDGE_CURVE('',#235,#229,#117,.T.);
#286=EDGE_CURVE('',#236,#237,#118,.T.);
#287=EDGE_CURVE('',#237,#238,#119,.T.);
#288=EDGE_CURVE('',#238,#239,#120,.T.);
#289=EDGE_CURVE('',#239,#236,#121,.T.);
#290=EDGE_CURVE('',#240,#241,#122,.T.);
#291=EDGE_CURVE('',#241,#242,#123,.T.);
#292=EDGE_CURVE('',#242,#243,#124,.T.);
#293=EDGE_CURVE('',#243,#240,#125,.T.);
#294=EDGE_CURVE('',#233,#244,#126,.T.);
#295=EDGE_CURVE('',#245,#244,#127,.T.);
#296=EDGE_CURVE('',#246,#245,#128,.T.);
#297=EDGE_CURVE('',#247,#246,#129,.T.);
#298=EDGE_CURVE('',#247,#237,#130,.T.);
#299=EDGE_CURVE('',#234,#236,#131,.T.);
#300=EDGE_CURVE('',#235,#239,#132,.T.);
#301=EDGE_CURVE('',#248,#238,#133,.T.);
#302=EDGE_CURVE('',#224,#248,#134,.T.);
#303=EDGE_CURVE('',#248,#247,#135,.T.);
#304=EDGE_CURVE('',#249,#250,#136,.T.);
#305=EDGE_CURVE('',#250,#240,#137,.T.);
#306=EDGE_CURVE('',#249,#243,#138,.T.);
#307=EDGE_CURVE('',#225,#249,#139,.T.);
#308=EDGE_CURVE('',#230,#242,#140,.T.);
#309=EDGE_CURVE('',#231,#241,#141,.T.);
#310=EDGE_CURVE('',#250,#251,#142,.T.);
#311=EDGE_CURVE('',#251,#252,#143,.T.);
#312=EDGE_CURVE('',#253,#252,#144,.T.);
#313=EDGE_CURVE('',#232,#253,#145,.T.);
#314=EDGE_CURVE('',#246,#251,#146,.T.);
#315=EDGE_CURVE('',#244,#253,#147,.T.);
#316=EDGE_CURVE('',#252,#245,#148,.T.);
#317=ORIENTED_EDGE('',*,*,#254,.F.);
#318=ORIENTED_EDGE('',*,*,#255,.T.);
#319=ORIENTED_EDGE('',*,*,#256,.F.);
#320=ORIENTED_EDGE('',*,*,#255,.F.);
#321=ORIENTED_EDGE('',*,*,#257,.F.);
#322=ORIENTED_EDGE('',*,*,#258,.T.);
#323=ORIENTED_EDGE('',*,*,#259,.F.);
#324=ORIENTED_EDGE('',*,*,#260,.F.);
#325=ORIENTED_EDGE('',*,*,#261,.F.);
#326=ORIENTED_EDGE('',*,*,#260,.T.);
#327=ORIENTED_EDGE('',*,*,#262,.F.);
#328=ORIENTED_EDGE('',*,*,#263,.F.);
#329=ORIENTED_EDGE('',*,*,#264,.F.);
#330=ORIENTED_EDGE('',*,*,#263,.T.);
#331=ORIENTED_EDGE('',*,*,#265,.F.);
#332=ORIENTED_EDGE('',*,*,#266,.T.);
#333=ORIENTED_EDGE('',*,*,#267,.F.);
#334=ORIENTED_EDGE('',*,*,#266,.F.);
#335=ORIENTED_EDGE('',*,*,#268,.T.);
#336=ORIENTED_EDGE('',*,*,#258,.F.);
#337=ORIENTED_EDGE('',*,*,#268,.F.);
#338=ORIENTED_EDGE('',*,*,#265,.T.);
#339=ORIENTED_EDGE('',*,*,#262,.T.);
#340=ORIENTED_EDGE('',*,*,#259,.T.);
#341=ORIENTED_EDGE('',*,*,#269,.T.);
#342=ORIENTED_EDGE('',*,*,#270,.F.);
#343=ORIENTED_EDGE('',*,*,#271,.F.);
#344=ORIENTED_EDGE('',*,*,#272,.T.);
#345=ORIENTED_EDGE('',*,*,#273,.T.);
#346=ORIENTED_EDGE('',*,*,#274,.F.);
#347=ORIENTED_EDGE('',*,*,#275,.F.);
#348=ORIENTED_EDGE('',*,*,#276,.T.);
#349=ORIENTED_EDGE('',*,*,#277,.F.);
#350=ORIENTED_EDGE('',*,*,#269,.F.);
#351=ORIENTED_EDGE('',*,*,#278,.F.);
#352=ORIENTED_EDGE('',*,*,#273,.F.);
#353=ORIENTED_EDGE('',*,*,#275,.T.);
#354=ORIENTED_EDGE('',*,*,#279,.F.);
#355=ORIENTED_EDGE('',*,*,#280,.F.);
#356=ORIENTED_EDGE('',*,*,#281,.F.);
#357=ORIENTED_EDGE('',*,*,#282,.T.);
#358=ORIENTED_EDGE('',*,*,#283,.T.);
#359=ORIENTED_EDGE('',*,*,#284,.T.);
#360=ORIENTED_EDGE('',*,*,#285,.T.);
#361=ORIENTED_EDGE('',*,*,#286,.T.);
#362=ORIENTED_EDGE('',*,*,#287,.T.);
#363=ORIENTED_EDGE('',*,*,#288,.T.);
#364=ORIENTED_EDGE('',*,*,#289,.T.);
#365=ORIENTED_EDGE('',*,*,#290,.T.);
#366=ORIENTED_EDGE('',*,*,#291,.T.);
#367=ORIENTED_EDGE('',*,*,#292,.T.);
#368=ORIENTED_EDGE('',*,*,#293,.T.);
#369=ORIENTED_EDGE('',*,*,#283,.F.);
#370=ORIENTED_EDGE('',*,*,#294,.T.);
#371=ORIENTED_EDGE('',*,*,#295,.F.);
#372=ORIENTED_EDGE('',*,*,#296,.F.);
#373=ORIENTED_EDGE('',*,*,#297,.F.);
#374=ORIENTED_EDGE('',*,*,#298,.T.);
#375=ORIENTED_EDGE('',*,*,#286,.F.);
#376=ORIENTED_EDGE('',*,*,#299,.F.);
#377=ORIENTED_EDGE('',*,*,#256,.T.);
#378=ORIENTED_EDGE('',*,*,#284,.F.);
#379=ORIENTED_EDGE('',*,*,#299,.T.);
#380=ORIENTED_EDGE('',*,*,#289,.F.);
#381=ORIENTED_EDGE('',*,*,#300,.F.);
#382=ORIENTED_EDGE('',*,*,#285,.F.);
#383=ORIENTED_EDGE('',*,*,#300,.T.);
#384=ORIENTED_EDGE('',*,*,#288,.F.);
#385=ORIENTED_EDGE('',*,*,#301,.F.);
#386=ORIENTED_EDGE('',*,*,#302,.F.);
#387=ORIENTED_EDGE('',*,*,#270,.T.);
#388=ORIENTED_EDGE('',*,*,#277,.T.);
#389=ORIENTED_EDGE('',*,*,#276,.F.);
#390=ORIENTED_EDGE('',*,*,#303,.F.);
#391=ORIENTED_EDGE('',*,*,#301,.T.);
#392=ORIENTED_EDGE('',*,*,#287,.F.);
#393=ORIENTED_EDGE('',*,*,#298,.F.);
#394=ORIENTED_EDGE('',*,*,#304,.T.);
#395=ORIENTED_EDGE('',*,*,#305,.T.);
#396=ORIENTED_EDGE('',*,*,#293,.F.);
#397=ORIENTED_EDGE('',*,*,#306,.F.);
#398=ORIENTED_EDGE('',*,*,#279,.T.);
#399=ORIENTED_EDGE('',*,*,#274,.T.);
#400=ORIENTED_EDGE('',*,*,#278,.T.);
#401=ORIENTED_EDGE('',*,*,#272,.F.);
#402=ORIENTED_EDGE('',*,*,#307,.T.);
#403=ORIENTED_EDGE('',*,*,#306,.T.);
#404=ORIENTED_EDGE('',*,*,#292,.F.);
#405=ORIENTED_EDGE('',*,*,#308,.F.);
#406=ORIENTED_EDGE('',*,*,#264,.T.);
#407=ORIENTED_EDGE('',*,*,#267,.T.);
#408=ORIENTED_EDGE('',*,*,#257,.T.);
#409=ORIENTED_EDGE('',*,*,#261,.T.);
#410=ORIENTED_EDGE('',*,*,#280,.T.);
#411=ORIENTED_EDGE('',*,*,#308,.T.);
#412=ORIENTED_EDGE('',*,*,#291,.F.);
#413=ORIENTED_EDGE('',*,*,#309,.F.);
#414=ORIENTED_EDGE('',*,*,#281,.T.);
#415=ORIENTED_EDGE('',*,*,#309,.T.);
#416=ORIENTED_EDGE('',*,*,#290,.F.);
#417=ORIENTED_EDGE('',*,*,#305,.F.);
#418=ORIENTED_EDGE('',*,*,#310,.T.);
#419=ORIENTED_EDGE('',*,*,#311,.T.);
#420=ORIENTED_EDGE('',*,*,#312,.F.);
#421=ORIENTED_EDGE('',*,*,#313,.F.);
#422=ORIENTED_EDGE('',*,*,#254,.T.);
#423=ORIENTED_EDGE('',*,*,#271,.T.);
#424=ORIENTED_EDGE('',*,*,#302,.T.);
#425=ORIENTED_EDGE('',*,*,#303,.T.);
#426=ORIENTED_EDGE('',*,*,#297,.T.);
#427=ORIENTED_EDGE('',*,*,#314,.T.);
#428=ORIENTED_EDGE('',*,*,#310,.F.);
#429=ORIENTED_EDGE('',*,*,#304,.F.);
#430=ORIENTED_EDGE('',*,*,#307,.F.);
#431=ORIENTED_EDGE('',*,*,#282,.F.);
#432=ORIENTED_EDGE('',*,*,#313,.T.);
#433=ORIENTED_EDGE('',*,*,#315,.F.);
#434=ORIENTED_EDGE('',*,*,#294,.F.);
#435=ORIENTED_EDGE('',*,*,#314,.F.);
#436=ORIENTED_EDGE('',*,*,#296,.T.);
#437=ORIENTED_EDGE('',*,*,#316,.F.);
#438=ORIENTED_EDGE('',*,*,#311,.F.);
#439=ORIENTED_EDGE('',*,*,#316,.T.);
#440=ORIENTED_EDGE('',*,*,#295,.T.);
#441=ORIENTED_EDGE('',*,*,#315,.T.);
#442=ORIENTED_EDGE('',*,*,#312,.T.);
#443=CYLINDRICAL_SURFACE('',#482,6.);
#444=CYLINDRICAL_SURFACE('',#488,14.);
#445=ADVANCED_FACE('',(#40),#443,.F.);
#446=ADVANCED_FACE('',(#41),#19,.F.);
#447=ADVANCED_FACE('',(#42),#20,.F.);
#448=ADVANCED_FACE('',(#43),#21,.F.);
#449=ADVANCED_FACE('',(#44),#444,.F.);
#450=ADVANCED_FACE('',(#45),#22,.F.);
#451=ADVANCED_FACE('',(#46),#23,.T.);
#452=ADVANCED_FACE('',(#47),#24,.T.);
#453=ADVANCED_FACE('',(#48),#25,.T.);
#454=ADVANCED_FACE('',(#49),#26,.F.);
#455=ADVANCED_FACE('',(#50,#15),#27,.T.);
#456=ADVANCED_FACE('',(#51,#16),#28,.T.);
#457=ADVANCED_FACE('',(#52),#29,.T.);
#458=ADVANCED_FACE('',(#53),#30,.T.);
#459=ADVANCED_FACE('',(#54),#31,.T.);
#460=ADVANCED_FACE('',(#55),#32,.T.);
#461=ADVANCED_FACE('',(#56,#17),#33,.T.);
#462=ADVANCED_FACE('',(#57),#34,.T.);
#463=ADVANCED_FACE('',(#58,#18),#35,.T.);
#464=ADVANCED_FACE('',(#59),#36,.F.);
#465=ADVANCED_FACE('',(#60),#37,.T.);
#466=ADVANCED_FACE('',(#61),#38,.T.);
#467=ADVANCED_FACE('',(#62),#39,.T.);
#468=CLOSED_SHELL('',(#445,#446,#447,#448,#449,#450,#451,#452,#453,#454,
#455,#456,#457,#458,#459,#460,#461,#462,#463,#464,#465,#466,#467));
#469=DERIVED_UNIT_ELEMENT(#471,1.);
#470=DERIVED_UNIT_ELEMENT(#758,-3.);
#471=(
MASS_UNIT()
NAMED_UNIT(*)
SI_UNIT(.KILO.,.GRAM.)
);
#472=DERIVED_UNIT((#469,#470));
#473=MEASURE_REPRESENTATION_ITEM('density measure',
POSITIVE_RATIO_MEASURE(7850.),#472);
#474=PROPERTY_DEFINITION_REPRESENTATION(#479,#476);
#475=PROPERTY_DEFINITION_REPRESENTATION(#480,#477);
#476=REPRESENTATION('material name',(#478),#755);
#477=REPRESENTATION('density',(#473),#755);
#478=DESCRIPTIVE_REPRESENTATION_ITEM('Steel','Steel');
#479=PROPERTY_DEFINITION('material property','material name',#765);
#480=PROPERTY_DEFINITION('material property','density of part',#765);
#481=AXIS2_PLACEMENT_3D('',#624,#509,#510);
#482=AXIS2_PLACEMENT_3D('',#625,#511,#512);
#483=AXIS2_PLACEMENT_3D('',#627,#513,#514);
#484=AXIS2_PLACEMENT_3D('',#630,#516,#517);
#485=AXIS2_PLACEMENT_3D('',#631,#518,#519);
#486=AXIS2_PLACEMENT_3D('',#640,#524,#525);
#487=AXIS2_PLACEMENT_3D('',#646,#529,#530);
#488=AXIS2_PLACEMENT_3D('',#652,#534,#535);
#489=AXIS2_PLACEMENT_3D('',#653,#536,#537);
#490=AXIS2_PLACEMENT_3D('',#654,#538,#539);
#491=AXIS2_PLACEMENT_3D('',#655,#540,#541);
#492=AXIS2_PLACEMENT_3D('',#656,#542,#543);
#493=AXIS2_PLACEMENT_3D('',#665,#548,#549);
#494=AXIS2_PLACEMENT_3D('',#674,#554,#555);
#495=AXIS2_PLACEMENT_3D('',#677,#558,#559);
#496=AXIS2_PLACEMENT_3D('',#691,#567,#568);
#497=AXIS2_PLACEMENT_3D('',#708,#577,#578);
#498=AXIS2_PLACEMENT_3D('',#719,#585,#586);
#499=AXIS2_PLACEMENT_3D('',#721,#588,#589);
#500=AXIS2_PLACEMENT_3D('',#725,#592,#593);
#501=AXIS2_PLACEMENT_3D('',#727,#595,#596);
#502=AXIS2_PLACEMENT_3D('',#733,#600,#601);
#503=AXIS2_PLACEMENT_3D('',#736,#604,#605);
#504=AXIS2_PLACEMENT_3D('',#738,#607,#608);
#505=AXIS2_PLACEMENT_3D('',#746,#613,#614);
#506=AXIS2_PLACEMENT_3D('',#748,#616,#617);
#507=AXIS2_PLACEMENT_3D('',#750,#619,#620);
#508=AXIS2_PLACEMENT_3D('',#752,#622,#623);
#509=DIRECTION('axis',(0.,0.,1.));
#510=DIRECTION('refdir',(1.,0.,0.));
#511=DIRECTION('center_axis',(0.,-1.,0.));
#512=DIRECTION('ref_axis',(-1.,0.,0.));
#513=DIRECTION('center_axis',(0.,-1.,0.));
#514=DIRECTION('ref_axis',(-1.,0.,0.));
#515=DIRECTION('',(0.,-1.,0.));
#516=DIRECTION('center_axis',(-4.93432455388958E-17,1.,0.));
#517=DIRECTION('ref_axis',(-1.,0.,0.));
#518=DIRECTION('center_axis',(1.,1.13520304267922E-14,-1.76941963956225E-15));
#519=DIRECTION('ref_axis',(-1.76941963956225E-15,5.55111512312339E-17,-1.));
#520=DIRECTION('',(-1.76941963956225E-15,0.,-1.));
#521=DIRECTION('',(-1.13520304267922E-14,1.,5.5511151231254E-17));
#522=DIRECTION('',(1.76941963956225E-15,-5.55111512312339E-17,1.));
#523=DIRECTION('',(-1.13520304267922E-14,1.,5.5511151231254E-17));
#524=DIRECTION('center_axis',(-1.76941963956225E-15,5.55111512312339E-17,
-1.));
#525=DIRECTION('ref_axis',(-1.,-1.13520304267922E-14,1.76941963956225E-15));
#526=DIRECTION('',(-1.,0.,1.76941963956225E-15));
#527=DIRECTION('',(1.,1.13520304267922E-14,-1.76941963956225E-15));
#528=DIRECTION('',(-1.13520304267922E-14,1.,5.5511151231254E-17));
#529=DIRECTION('center_axis',(-1.,-1.13520304267922E-14,1.76941963956225E-15));
#530=DIRECTION('ref_axis',(1.76941963956225E-15,-5.55111512312339E-17,1.));
#531=DIRECTION('',(1.76941963956225E-15,0.,1.));
#532=DIRECTION('',(-1.76941963956225E-15,5.55111512312339E-17,-1.));
#533=DIRECTION('',(1.13520304267922E-14,-1.,-5.5511151231254E-17));
#534=DIRECTION('center_axis',(-1.13520304267922E-14,1.,5.5511151231254E-17));
#535=DIRECTION('ref_axis',(1.58572261969015E-15,-5.55111512312369E-17,1.));
#536=DIRECTION('center_axis',(0.,1.,0.));
#537=DIRECTION('ref_axis',(1.,1.13520304267922E-14,-1.76941963956225E-15));
#538=DIRECTION('center_axis',(-1.13520304267922E-14,1.,5.5511151231254E-17));
#539=DIRECTION('ref_axis',(1.,1.13520304267922E-14,-1.76941963956225E-15));
#540=DIRECTION('center_axis',(-1.13520304267922E-14,1.,5.5511151231254E-17));
#541=DIRECTION('ref_axis',(1.,1.13520304267922E-14,-1.76941963956225E-15));
#542=DIRECTION('center_axis',(-1.,0.,0.));
#543=DIRECTION('ref_axis',(0.,-1.,0.));
#544=DIRECTION('',(0.,1.,0.));
#545=DIRECTION('',(0.,0.,1.));
#546=DIRECTION('',(0.,1.,0.));
#547=DIRECTION('',(0.,0.,1.));
#548=DIRECTION('center_axis',(1.,0.,0.));
#549=DIRECTION('ref_axis',(0.,1.,0.));
#550=DIRECTION('',(0.,-1.,0.));
#551=DIRECTION('',(0.,0.,1.));
#552=DIRECTION('',(0.,-1.,0.));
#553=DIRECTION('',(0.,0.,1.));
#554=DIRECTION('center_axis',(0.,0.,1.));
#555=DIRECTION('ref_axis',(1.,0.,0.));
#556=DIRECTION('',(1.,0.,0.));
#557=DIRECTION('',(-1.,0.,0.));
#558=DIRECTION('center_axis',(0.,0.,-1.));
#559=DIRECTION('ref_axis',(1.,0.,0.));
#560=DIRECTION('',(-1.,0.,0.));
#561=DIRECTION('',(0.,1.,0.));
#562=DIRECTION('',(1.,0.,0.));
#563=DIRECTION('',(0.,-1.,0.));
#564=DIRECTION('',(1.,4.93432455388958E-17,0.));
#565=DIRECTION('',(0.,1.,0.));
#566=DIRECTION('',(-1.,0.,0.));
#567=DIRECTION('center_axis',(0.,0.,-1.));
#568=DIRECTION('ref_axis',(-1.,0.,0.));
#569=DIRECTION('',(-1.,-4.93432455388958E-17,0.));
#570=DIRECTION('',(0.,1.,0.));
#571=DIRECTION('',(1.,0.,0.));
#572=DIRECTION('',(0.,-1.,0.));
#573=DIRECTION('',(1.,0.,0.));
#574=DIRECTION('',(0.,1.,0.));
#575=DIRECTION('',(-1.,0.,0.));
#576=DIRECTION('',(0.,-1.,0.));
#577=DIRECTION('center_axis',(4.93432455388958E-17,-1.,0.));
#578=DIRECTION('ref_axis',(-1.,-4.93432455388958E-17,0.));
#579=DIRECTION('',(0.,0.,1.));
#580=DIRECTION('',(1.,0.,0.));
#581=DIRECTION('',(0.,0.,1.));
#582=DIRECTION('',(1.,4.93432455388958E-17,0.));
#583=DIRECTION('',(0.,0.,-1.));
#584=DIRECTION('',(0.,0.,-1.));
#585=DIRECTION('center_axis',(1.,0.,0.));
#586=DIRECTION('ref_axis',(0.,-1.,0.));
#587=DIRECTION('',(0.,0.,-1.));
#588=DIRECTION('center_axis',(0.,1.,0.));
#589=DIRECTION('ref_axis',(1.,0.,0.));
#590=DIRECTION('',(0.,0.,-1.));
#591=DIRECTION('',(-1.,0.,0.));
#592=DIRECTION('center_axis',(-1.,0.,0.));
#593=DIRECTION('ref_axis',(0.,1.,0.));
#594=DIRECTION('',(0.,-1.,0.));
#595=DIRECTION('center_axis',(1.,0.,0.));
#596=DIRECTION('ref_axis',(0.,-1.,0.));
#597=DIRECTION('',(0.,-1.,0.));
#598=DIRECTION('',(0.,0.,-1.));
#599=DIRECTION('',(0.,0.,-1.));
#600=DIRECTION('center_axis',(0.,-1.,0.));
#601=DIRECTION('ref_axis',(-1.,0.,0.));
#602=DIRECTION('',(-1.,0.,0.));
#603=DIRECTION('',(0.,0.,-1.));
#604=DIRECTION('center_axis',(-1.,0.,0.));
#605=DIRECTION('ref_axis',(0.,1.,0.));
#606=DIRECTION('',(0.,0.,-1.));
#607=DIRECTION('center_axis',(0.,1.,0.));
#608=DIRECTION('ref_axis',(1.,0.,0.));
#609=DIRECTION('',(1.,0.,0.));
#610=DIRECTION('',(0.,0.,1.));
#611=DIRECTION('',(-1.,0.,0.));
#612=DIRECTION('',(0.,0.,1.));
#613=DIRECTION('center_axis',(0.,0.,-1.));
#614=DIRECTION('ref_axis',(1.,0.,0.));
#615=DIRECTION('',(0.,1.,0.));
#616=DIRECTION('center_axis',(1.,0.,0.));
#617=DIRECTION('ref_axis',(0.,1.,0.));
#618=DIRECTION('',(0.,1.,0.));
#619=DIRECTION('center_axis',(-1.,0.,0.));
#620=DIRECTION('ref_axis',(0.,-1.,0.));
#621=DIRECTION('',(0.,-1.,0.));
#622=DIRECTION('center_axis',(0.,0.,1.));
#623=DIRECTION('ref_axis',(1.,0.,0.));
#624=CARTESIAN_POINT('',(0.,0.,0.));
#625=CARTESIAN_POINT('Origin',(-80.7868300736601,136.63916992634,-150.));
#626=CARTESIAN_POINT('',(-74.7868300736601,99.1391699263398,-150.));
#627=CARTESIAN_POINT('Origin',(-80.7868300736601,99.1391699263398,-150.));
#628=CARTESIAN_POINT('',(-74.7868300736601,69.1391699263398,-150.));
#629=CARTESIAN_POINT('',(-74.7868300736601,136.63916992634,-150.));
#630=CARTESIAN_POINT('Origin',(-80.7868300736601,69.1391699263398,-150.));
#631=CARTESIAN_POINT('Origin',(-73.5018279158427,395.909180903738,-170.649904688185));
#632=CARTESIAN_POINT('',(-73.5018279158428,399.13916992634,-170.649904688185));
#633=CARTESIAN_POINT('',(-73.5018279158428,399.13916992634,-175.329904688185));
#634=CARTESIAN_POINT('',(-73.5018279158428,399.13916992634,-194.324952344092));
#635=CARTESIAN_POINT('',(-73.5018279158429,415.139180903738,-170.649904688185));
#636=CARTESIAN_POINT('',(-73.5018279158427,395.909180903738,-170.649904688185));
#637=CARTESIAN_POINT('',(-73.5018279158429,415.139180903738,-175.329904688185));
#638=CARTESIAN_POINT('',(-73.5018279158429,415.139180903738,-171.819904688185));
#639=CARTESIAN_POINT('',(-73.5018279158427,395.909180903738,-175.329904688185));
#640=CARTESIAN_POINT('Origin',(-73.5018279158427,395.909180903738,-175.329904688185));
#641=CARTESIAN_POINT('',(-88.0718279158427,399.13916992634,-175.329904688185));
#642=CARTESIAN_POINT('',(-2.14432899475139,399.13916992634,-175.329904688185));
#643=CARTESIAN_POINT('',(-88.0718279158429,415.139180903738,-175.329904688185));
#644=CARTESIAN_POINT('',(-77.1443279158429,415.139180903738,-175.329904688185));
#645=CARTESIAN_POINT('',(-88.0718279158427,395.909180903738,-175.329904688185));
#646=CARTESIAN_POINT('Origin',(-88.0718279158427,395.909180903738,-175.329904688185));
#647=CARTESIAN_POINT('',(-88.0718279158427,399.13916992634,-170.649904688185));
#648=CARTESIAN_POINT('',(-88.0718279158428,399.13916992634,-196.664952344092));
#649=CARTESIAN_POINT('',(-88.0718279158429,415.139180903738,-170.649904688185));
#650=CARTESIAN_POINT('',(-88.0718279158429,415.139180903738,-174.159904688185));
#651=CARTESIAN_POINT('',(-88.0718279158427,395.909180903738,-170.649904688185));
#652=CARTESIAN_POINT('Origin',(-80.7868279158427,395.909180903738,-158.694622382861));
#653=CARTESIAN_POINT('Origin',(-80.7868279158427,399.139169926338,-158.694622382861));
#654=CARTESIAN_POINT('Origin',(-80.7868279158429,415.139180903738,-158.694622382861));
#655=CARTESIAN_POINT('Origin',(-80.7868279158429,415.139180903738,-158.694622382861));
#656=CARTESIAN_POINT('Origin',(-101.28683007366,429.13916992634,-218.));
#657=CARTESIAN_POINT('',(-101.28683007366,399.13916992634,-138.));
#658=CARTESIAN_POINT('',(-101.28683007366,429.13916992634,-138.));
#659=CARTESIAN_POINT('',(-101.28683007366,421.63916992634,-138.));
#660=CARTESIAN_POINT('',(-101.28683007366,429.13916992634,-218.));
#661=CARTESIAN_POINT('',(-101.28683007366,429.13916992634,-218.));
#662=CARTESIAN_POINT('',(-101.28683007366,399.13916992634,-218.));
#663=CARTESIAN_POINT('',(-101.28683007366,339.13916992634,-218.));
#664=CARTESIAN_POINT('',(-101.28683007366,399.13916992634,-218.));
#665=CARTESIAN_POINT('Origin',(-60.2868300736601,399.13916992634,-218.));
#666=CARTESIAN_POINT('',(-60.2868300736601,429.13916992634,-138.));
#667=CARTESIAN_POINT('',(-60.2868300736601,399.13916992634,-138.));
#668=CARTESIAN_POINT('',(-60.2868300736601,406.63916992634,-138.));
#669=CARTESIAN_POINT('',(-60.2868300736601,399.13916992634,-218.));
#670=CARTESIAN_POINT('',(-60.2868300736601,399.13916992634,-218.));
#671=CARTESIAN_POINT('',(-60.2868300736601,429.13916992634,-218.));
#672=CARTESIAN_POINT('',(-60.2868300736601,324.13916992634,-218.));
#673=CARTESIAN_POINT('',(-60.2868300736601,429.13916992634,-218.));
#674=CARTESIAN_POINT('Origin',(-80.7868300736601,414.13916992634,-138.));
#675=CARTESIAN_POINT('',(-70.5368300736601,429.13916992634,-138.));
#676=CARTESIAN_POINT('',(-91.0368300736601,399.13916992634,-138.));
#677=CARTESIAN_POINT('Origin',(-80.7868300736601,249.13916992634,-218.));
#678=CARTESIAN_POINT('',(69.2131699263399,399.13916992634,-218.));
#679=CARTESIAN_POINT('',(69.2131699263399,399.13916992634,-218.));
#680=CARTESIAN_POINT('',(69.2131699263399,99.1391699263398,-218.));
#681=CARTESIAN_POINT('',(69.2131699263399,99.1391699263398,-218.));
#682=CARTESIAN_POINT('',(-60.2868300736601,99.1391699263398,-218.));
#683=CARTESIAN_POINT('',(-230.78683007366,99.1391699263398,-218.));
#684=CARTESIAN_POINT('',(-60.2868300736601,69.1391699263398,-218.));
#685=CARTESIAN_POINT('',(-60.2868300736601,99.1391699263398,-218.));
#686=CARTESIAN_POINT('',(99.2131699263399,69.1391699263398,-218.));
#687=CARTESIAN_POINT('',(-260.78683007366,69.1391699263398,-218.));
#688=CARTESIAN_POINT('',(99.2131699263399,429.13916992634,-218.));
#689=CARTESIAN_POINT('',(99.2131699263399,69.1391699263398,-218.));
#690=CARTESIAN_POINT('',(99.2131699263399,429.13916992634,-218.));
#691=CARTESIAN_POINT('Origin',(-80.7868300736601,249.13916992634,-298.));
#692=CARTESIAN_POINT('',(99.2131699263399,69.1391699263398,-298.));
#693=CARTESIAN_POINT('',(-260.78683007366,69.1391699263398,-298.));
#694=CARTESIAN_POINT('',(-260.78683007366,69.1391699263398,-298.));
#695=CARTESIAN_POINT('',(-260.78683007366,429.13916992634,-298.));
#696=CARTESIAN_POINT('',(-260.78683007366,429.13916992634,-298.));
#697=CARTESIAN_POINT('',(99.2131699263399,429.13916992634,-298.));
#698=CARTESIAN_POINT('',(99.2131699263399,429.13916992634,-298.));
#699=CARTESIAN_POINT('',(99.2131699263399,69.1391699263398,-298.));
#700=CARTESIAN_POINT('',(-230.78683007366,99.1391699263398,-298.));
#701=CARTESIAN_POINT('',(69.2131699263399,99.1391699263398,-298.));
#702=CARTESIAN_POINT('',(-230.78683007366,99.1391699263398,-298.));
#703=CARTESIAN_POINT('',(69.2131699263399,399.13916992634,-298.));
#704=CARTESIAN_POINT('',(69.2131699263399,99.1391699263398,-298.));
#705=CARTESIAN_POINT('',(-230.78683007366,399.13916992634,-298.));
#706=CARTESIAN_POINT('',(69.2131699263399,399.13916992634,-298.));
#707=CARTESIAN_POINT('',(-230.78683007366,399.13916992634,-298.));
#708=CARTESIAN_POINT('Origin',(99.2131699263399,69.1391699263398,-218.));
#709=CARTESIAN_POINT('',(-60.2868300736601,69.1391699263398,-138.));
#710=CARTESIAN_POINT('',(-60.2868300736601,69.1391699263398,-218.));
#711=CARTESIAN_POINT('',(-101.28683007366,69.1391699263398,-138.));
#712=CARTESIAN_POINT('',(-60.2868300736601,69.1391699263398,-138.));
#713=CARTESIAN_POINT('',(-101.28683007366,69.1391699263398,-218.));
#714=CARTESIAN_POINT('',(-101.28683007366,69.1391699263398,-218.));
#715=CARTESIAN_POINT('',(-260.78683007366,69.1391699263398,-218.));
#716=CARTESIAN_POINT('',(-260.78683007366,69.1391699263398,-218.));
#717=CARTESIAN_POINT('',(-260.78683007366,69.1391699263398,-218.));
#718=CARTESIAN_POINT('',(99.2131699263399,69.1391699263398,-218.));
#719=CARTESIAN_POINT('Origin',(99.2131699263399,429.13916992634,-218.));
#720=CARTESIAN_POINT('',(99.2131699263399,429.13916992634,-218.));
#721=CARTESIAN_POINT('Origin',(-260.78683007366,429.13916992634,-218.));
#722=CARTESIAN_POINT('',(-260.78683007366,429.13916992634,-218.));
#723=CARTESIAN_POINT('',(-260.78683007366,429.13916992634,-218.));
#724=CARTESIAN_POINT('',(99.2131699263399,429.13916992634,-218.));
#725=CARTESIAN_POINT('Origin',(-260.78683007366,69.1391699263398,-218.));
#726=CARTESIAN_POINT('',(-260.78683007366,429.13916992634,-218.));
#727=CARTESIAN_POINT('Origin',(-230.78683007366,399.13916992634,-218.));
#728=CARTESIAN_POINT('',(-230.78683007366,399.13916992634,-218.));
#729=CARTESIAN_POINT('',(-230.78683007366,99.1391699263398,-218.));
#730=CARTESIAN_POINT('',(-230.78683007366,399.13916992634,-218.));
#731=CARTESIAN_POINT('',(-230.78683007366,99.1391699263398,-218.));
#732=CARTESIAN_POINT('',(-230.78683007366,399.13916992634,-218.));
#733=CARTESIAN_POINT('Origin',(69.2131699263399,399.13916992634,-218.));
#734=CARTESIAN_POINT('',(69.2131699263399,399.13916992634,-218.));
#735=CARTESIAN_POINT('',(69.2131699263399,399.13916992634,-218.));
#736=CARTESIAN_POINT('Origin',(69.2131699263399,99.1391699263398,-218.));
#737=CARTESIAN_POINT('',(69.2131699263399,99.1391699263398,-218.));
#738=CARTESIAN_POINT('Origin',(-60.2868300736601,99.1391699263398,-218.));
#739=CARTESIAN_POINT('',(-101.28683007366,99.1391699263398,-218.));
#740=CARTESIAN_POINT('',(-230.78683007366,99.1391699263398,-218.));
#741=CARTESIAN_POINT('',(-101.28683007366,99.1391699263398,-138.));
#742=CARTESIAN_POINT('',(-101.28683007366,99.1391699263398,-218.));
#743=CARTESIAN_POINT('',(-60.2868300736601,99.1391699263398,-138.));
#744=CARTESIAN_POINT('',(-101.28683007366,99.1391699263398,-138.));
#745=CARTESIAN_POINT('',(-60.2868300736601,99.1391699263398,-218.));
#746=CARTESIAN_POINT('Origin',(-80.7868300736601,249.13916992634,-218.));
#747=CARTESIAN_POINT('',(-101.28683007366,69.1391699263398,-218.));
#748=CARTESIAN_POINT('Origin',(-60.2868300736601,69.1391699263398,-218.));
#749=CARTESIAN_POINT('',(-60.2868300736601,99.1391699263398,-138.));
#750=CARTESIAN_POINT('Origin',(-101.28683007366,99.1391699263398,-218.));
#751=CARTESIAN_POINT('',(-101.28683007366,69.1391699263398,-138.));
#752=CARTESIAN_POINT('Origin',(-80.7868300736601,84.1391699263398,-138.));
#753=UNCERTAINTY_MEASURE_WITH_UNIT(LENGTH_MEASURE(0.01),#757,
'DISTANCE_ACCURACY_VALUE',
'Maximum model space distance between geometric entities at asserted c
onnectivities');
#754=UNCERTAINTY_MEASURE_WITH_UNIT(LENGTH_MEASURE(0.01),#757,
'DISTANCE_ACCURACY_VALUE',
'Maximum model space distance between geometric entities at asserted c
onnectivities');
#755=(
GEOMETRIC_REPRESENTATION_CONTEXT(3)
GLOBAL_UNCERTAINTY_ASSIGNED_CONTEXT((#753))
GLOBAL_UNIT_ASSIGNED_CONTEXT((#757,#759,#760))
REPRESENTATION_CONTEXT('','3D')
);
#756=(
GEOMETRIC_REPRESENTATION_CONTEXT(3)
GLOBAL_UNCERTAINTY_ASSIGNED_CONTEXT((#754))
GLOBAL_UNIT_ASSIGNED_CONTEXT((#757,#759,#760))
REPRESENTATION_CONTEXT('','3D')
);
#757=(
LENGTH_UNIT()
NAMED_UNIT(*)
SI_UNIT(.MILLI.,.METRE.)
);
#758=(
LENGTH_UNIT()
NAMED_UNIT(*)
SI_UNIT($,.METRE.)
);
#759=(
NAMED_UNIT(*)
PLANE_ANGLE_UNIT()
SI_UNIT($,.RADIAN.)
);
#760=(
NAMED_UNIT(*)
SI_UNIT($,.STERADIAN.)
SOLID_ANGLE_UNIT()
);
#761=SHAPE_DEFINITION_REPRESENTATION(#762,#763);
#762=PRODUCT_DEFINITION_SHAPE('',$,#765);
#763=SHAPE_REPRESENTATION('',(#481),#755);
#764=PRODUCT_DEFINITION_CONTEXT('part definition',#769,'design');
#765=PRODUCT_DEFINITION('2026-09-13-20-04-50-718','Outer Axis',#766,#764);
#766=PRODUCT_DEFINITION_FORMATION('',$,#771);
#767=PRODUCT_RELATED_PRODUCT_CATEGORY('Outer Axis','Outer Axis',(#771));
#768=APPLICATION_PROTOCOL_DEFINITION('international standard',
'automotive_design',2009,#769);
#769=APPLICATION_CONTEXT(
'Core Data for Automotive Mechanical Design Process');
#770=PRODUCT_CONTEXT('part definition',#769,'mechanical');
#771=PRODUCT('2026-09-13-20-04-50-718','Outer Axis',$,(#770));
#772=PRESENTATION_STYLE_ASSIGNMENT((#774));
#773=PRESENTATION_STYLE_ASSIGNMENT((#775));
#774=SURFACE_STYLE_USAGE(.BOTH.,#776);
#775=SURFACE_STYLE_USAGE(.BOTH.,#777);
#776=SURFACE_SIDE_STYLE('',(#778));
#777=SURFACE_SIDE_STYLE('',(#779));
#778=SURFACE_STYLE_FILL_AREA(#780);
#779=SURFACE_STYLE_FILL_AREA(#781);
#780=FILL_AREA_STYLE('Steel - Satin',(#782));
#781=FILL_AREA_STYLE('ABS (White)',(#783));
#782=FILL_AREA_STYLE_COLOUR('Steel - Satin',#784);
#783=FILL_AREA_STYLE_COLOUR('ABS (White)',#785);
#784=COLOUR_RGB('Steel - Satin',0.627450980392157,0.627450980392157,0.627450980392157);
#785=COLOUR_RGB('ABS (White)',0.964705882352941,0.964705882352941,0.952941176470588);
ENDSEC;
END-ISO-10303-21;
